<svg width="67" height="68" viewBox="0 0 67 68" fill="none" xmlns="http://www.w3.org/2000/svg">
<g clip-path="url(#clip0_145_422)">
<path d="M20.4136 35.0759V25.4893C22.3756 25.2018 24.9106 25.2471 26.7283 26.0029C28.3936 26.6507 29.3718 28.3732 29.3154 30.1685C29.3154 32.2752 28.203 34.0335 26.1719 34.6193C24.3321 35.2313 22.3284 35.2161 20.4136 35.0759Z" fill="#384359"/>
<path fill-rule="evenodd" clip-rule="evenodd" d="M1.68872 8.98175C0.0427856 12.2121 0.0427856 16.4408 0.0427856 24.8983V43.3377C0.0427856 51.7952 0.0427856 56.0239 1.68872 59.2543C3.13653 62.0957 5.44672 64.4059 8.2882 65.8538C11.5185 67.4997 15.7472 67.4997 24.2046 67.4997H42.6442C51.1016 67.4997 55.3304 67.4997 58.5607 65.8538C61.4022 64.4059 63.7124 62.0957 65.1602 59.2543C66.8061 56.024 66.8061 51.7952 66.8061 43.3378V24.8983C66.8061 16.4409 66.8061 12.2121 65.1602 8.98175C63.7124 6.14027 61.4022 3.83007 58.5607 2.38226C55.3304 0.736328 51.1017 0.736328 42.6442 0.736328H24.2048C15.7473 0.736328 11.5185 0.736328 8.2882 2.38226C5.44672 3.83007 3.13653 6.14027 1.68872 8.98175ZM14.3492 20.2966V49.6554C14.3492 49.9122 14.4605 50.0263 14.683 50.0263H19.9685C20.1925 50.0263 20.4235 49.898 20.3857 49.6268V40.4683L20.6041 40.4683C25.3766 40.4693 30.6491 40.4705 33.7106 36.0744C34.8233 34.4767 35.3797 32.451 35.3797 29.9973C35.3797 28.7134 35.1571 27.4865 34.7399 26.2882C32.969 21.407 27.9169 19.8116 23.251 19.8116C21.8132 19.8116 20.3759 19.8544 18.9387 19.8972L18.9385 19.8972C17.5016 19.94 16.0646 19.9828 14.6274 19.9828C14.4327 19.9828 14.3492 20.0969 14.3492 20.2966ZM50.0653 32.2172C50.992 32.4137 51.8885 32.7383 52.7302 33.1818C52.9467 33.2922 53.2666 33.1942 53.25 32.9062V28.2667C53.2511 28.0207 53.1971 27.7463 52.9365 27.6695C51.1243 26.879 49.0338 26.7348 47.087 26.7508C42.9227 26.7519 38.2987 28.9431 38.3087 33.8249C38.2795 35.9771 39.3526 37.9333 41.0631 39.1534C42.2871 40.0231 43.6204 40.7185 45.0267 41.2205C45.1407 41.2637 45.2749 41.311 45.4229 41.3632C46.5351 41.7553 48.4306 42.4237 48.4306 43.701C48.446 45.2092 46.4116 45.3088 45.385 45.3088C43.0597 45.2772 40.6771 44.687 38.667 43.4714C38.5001 43.3283 38.2866 43.5021 38.3087 43.701V48.662C38.3003 48.8879 38.4264 49.1096 38.6222 49.2133C40.6737 50.1755 43.009 50.5227 45.2507 50.4995C49.5567 50.499 54.5801 48.4264 54.4769 43.2417C54.5519 39.0769 50.7316 37.0051 47.3557 35.8461C47.2497 35.8029 47.129 35.7563 46.998 35.7058C45.9403 35.2978 44.2129 34.6315 44.1759 33.4115C44.1776 30.9556 48.8745 31.9369 50.0653 32.2172Z" fill="#384359"/>
</g>
<defs>
<clipPath id="clip0_145_422">
<rect width="66.7634" height="66.7634" fill="white" transform="translate(0.0427856 0.736328)"/>
</clipPath>
</defs>
</svg>
