<svg width="68" height="68" viewBox="0 0 68 68" fill="none" xmlns="http://www.w3.org/2000/svg">
<path d="M14.4684 7.61523C10.6501 7.61523 7.82486 10.9571 7.95132 14.5814C8.07268 18.0634 7.91502 22.5729 6.7797 26.2505C5.64098 29.9389 3.71513 32.2753 0.569458 32.5753V35.962C3.71513 36.262 5.64098 38.5984 6.7797 42.2868C7.91502 45.9644 8.07268 50.4739 7.95132 53.9559C7.82486 57.5796 10.6501 60.9221 14.4689 60.9221H53.5927C57.411 60.9221 60.2357 57.5802 60.1092 53.9559C59.9879 50.4739 60.1455 45.9644 61.2808 42.2868C62.4201 38.5984 64.3409 36.262 67.4865 35.962V32.5753C64.3409 32.2753 62.4201 29.9389 61.2808 26.2505C60.1455 22.5735 59.9879 18.0634 60.1092 14.5814C60.2357 10.9577 57.411 7.61523 53.5927 7.61523H14.4678H14.4684ZM45.937 40.429C45.937 45.4194 42.2146 48.446 36.0372 48.446H25.5216C24.8952 48.446 24.3874 47.9382 24.3874 47.3118V21.2255C24.3874 20.5991 24.8952 20.0913 25.5216 20.0913H35.9771C41.128 20.0913 44.5085 22.8814 44.5085 27.1652C44.5085 30.172 42.2344 32.864 39.3371 33.3352V33.4923C43.2813 33.925 45.937 36.6561 45.937 40.429ZM34.8905 23.6867H28.8947V32.1557H33.9446C37.8485 32.1557 40.0012 30.5837 40.0012 27.7737C40.0012 25.1407 38.1502 23.6867 34.8905 23.6867ZM28.8947 35.5163V44.8495H35.1111C39.1755 44.8495 41.3288 43.2185 41.3288 40.1534C41.3288 37.0877 39.1154 35.5157 34.8497 35.5157H28.8947V35.5163Z" fill="#384359"/>
</svg>
