<svg id="eUdiWGcCJZt1" xmlns="http://www.w3.org/2000/svg" xmlns:xlink="http://www.w3.org/1999/xlink" viewBox="0 0 427 486" shape-rendering="geometricPrecision" text-rendering="geometricPrecision">
<style><![CDATA[
#eUdiWGcCJZt4_to {animation: eUdiWGcCJZt4_to__to 4000ms linear infinite normal forwards}@keyframes eUdiWGcCJZt4_to__to { 0% {transform: translate(335.608px,79.0928px);animation-timing-function: cubic-bezier(0.42,0,0.58,1)} 42.5% {transform: translate(335.608px,98.0928px);animation-timing-function: cubic-bezier(0.42,0,0.58,1)} 92.5% {transform: translate(335.608px,79.0928px)} 100% {transform: translate(335.608px,79.0928px)}} #eUdiWGcCJZt69 {animation: eUdiWGcCJZt69_c_o 4000ms linear infinite normal forwards}@keyframes eUdiWGcCJZt69_c_o { 0% {opacity: 0} 45% {opacity: 1} 100% {opacity: 0}} #eUdiWGcCJZt119_tr {animation: eUdiWGcCJZt119_tr__tr 4000ms linear infinite normal forwards}@keyframes eUdiWGcCJZt119_tr__tr { 0% {transform: translate(125.04px,76.798px) rotate(-2.076911deg)} 5% {transform: translate(125.04px,76.798px) rotate(4.706648deg)} 37.5% {transform: translate(125.04px,76.798px) rotate(4.706648deg)} 70% {transform: translate(125.04px,76.798px) rotate(4.706648deg)} 75% {transform: translate(125.04px,76.798px) rotate(-2.076911deg)} 100% {transform: translate(125.04px,76.798px) rotate(-2.076911deg)}} #eUdiWGcCJZt127_to {animation: eUdiWGcCJZt127_to__to 4000ms linear infinite normal forwards}@keyframes eUdiWGcCJZt127_to__to { 0% {transform: translate(141.125px,79.8915px)} 2.5% {transform: translate(141.147947px,80.891237px)} 67.5% {transform: translate(141.147947px,80.891237px)} 72.5% {transform: translate(141.125px,79.8915px)} 100% {transform: translate(141.125px,79.8915px)}} #eUdiWGcCJZt130_to {animation: eUdiWGcCJZt130_to__to 4000ms linear infinite normal forwards}@keyframes eUdiWGcCJZt130_to__to { 0% {transform: translate(125.213px,78.893px)} 2.5% {transform: translate(125.235947px,79.892737px)} 67.5% {transform: translate(125.235947px,79.892737px)} 72.5% {transform: translate(125.213px,78.893px)} 100% {transform: translate(125.213px,78.893px)}} #eUdiWGcCJZt136_to {animation: eUdiWGcCJZt136_to__to 4000ms linear infinite normal forwards}@keyframes eUdiWGcCJZt136_to__to { 0% {transform: translate(140.126px,72.3895px)} 5% {transform: translate(140.208054px,73.386128px)} 70% {transform: translate(140.208054px,73.386128px)} 75% {transform: translate(140.126px,72.3895px)} 100% {transform: translate(140.126px,72.3895px)}} #eUdiWGcCJZt139_to {animation: eUdiWGcCJZt139_to__to 4000ms linear infinite normal forwards}@keyframes eUdiWGcCJZt139_to__to { 0% {transform: translate(123.727px,72.2546px)} 5% {transform: translate(123.809054px,73.251228px)} 70% {transform: translate(123.809054px,73.251228px)} 75% {transform: translate(123.727px,72.2546px)} 100% {transform: translate(123.727px,72.2546px)}}
]]></style>
<g transform="translate(0-.000015)" clip-path="url(#eUdiWGcCJZt198)"><g transform="translate(0-.734758)"><g id="eUdiWGcCJZt4_to" transform="translate(335.608,79.0928)"><g transform="translate(0,0)"><g transform="translate(-341.217-84.5091)"><path d="M401.413,136.957h-120.391c-2.288,0-4.483-.909-6.101-2.527s-2.527-3.813-2.527-6.101v-87.6421c0-2.2872.909-4.4807,2.526-6.098c1.617-1.6174,3.811-2.5259,6.098-2.5259h120.399c2.287,0,4.48.9085,6.098,2.5259c1.617,1.6173,2.526,3.8108,2.526,6.098v87.6421c0,2.288-.91,4.483-2.528,6.101s-3.812,2.527-6.1,2.527Z" fill="#fff"/><path d="M272.395,40.6852v7.3025h137.644v-7.3025c0-2.2872-.908-4.4808-2.526-6.0981-1.617-1.6173-3.81-2.5259-6.098-2.5259h-120.397c-1.132,0-2.254.2231-3.3.6565s-1.997,1.0686-2.798,1.8694c-.8.8009-1.436,1.7516-1.869,2.7979s-.656,2.1677-.656,3.3002Z" fill="#292a2e"/><g opacity="0.18"><path d="M319.403,59.792h-6.495c-.077,0-.15-.0304-.204-.0845s-.085-.1274-.085-.2039.031-.1498.085-.2039.127-.0845.204-.0845h6.495c.076,0,.149.0304.203.0845.055.0541.085.1274.085.2039s-.03.1499-.085.2039c-.054.0541-.127.0845-.203.0845Z" fill="#292a2e"/><path d="M324.594,64.9945h-5.919c-.076,0-.15-.0304-.204-.0845-.054-.054-.084-.1274-.084-.2039s.03-.1498.084-.2039.128-.0845.204-.0845h5.919c.076,0,.149.0304.203.0845.055.0541.085.1274.085.2039s-.03.1499-.085.2039c-.054.0541-.127.0845-.203.0845Z" fill="#292a2e"/><path d="M358.047,70.197h-35.334c-.077,0-.15-.0304-.204-.0844-.054-.0541-.085-.1275-.085-.204s.031-.1498.085-.2039.127-.0844.204-.0844h35.334c.076,0,.149.0303.203.0844.055.0541.085.1275.085.2039s-.03.1499-.085.204c-.054.054-.127.0844-.203.0844Z" fill="#292a2e"/><path d="M389.243,70.197h-24.952c-.076,0-.15-.0304-.204-.0844-.054-.0541-.084-.1275-.084-.204s.03-.1498.084-.2039.128-.0844.204-.0844h24.952c.076,0,.149.0303.203.0844.055.0541.085.1275.085.2039s-.03.1499-.085.204c-.054.054-.127.0844-.203.0844Z" fill="#0cbc8b"/><path d="M402.633,70.197h-7.648c-.077,0-.15-.0304-.204-.0844-.054-.0541-.084-.1275-.084-.204s.03-.1498.084-.2039.127-.0844.204-.0844h7.648c.076,0,.15.0303.204.0844s.084.1275.084.2039-.03.1499-.084.204c-.054.054-.128.0844-.204.0844Z" fill="#292a2e"/><path d="M375.35,80.6021h-52.637c-.077,0-.15-.0304-.204-.0845s-.085-.1274-.085-.2039.031-.1499.085-.204.127-.0844.204-.0844h52.637c.076,0,.15.0304.204.0844s.084.1275.084.204-.03.1498-.084.2039-.128.0845-.204.0845Z" fill="#292a2e"/><path d="M389.243,80.6021h-7.648c-.077,0-.15-.0304-.204-.0845s-.085-.1274-.085-.2039.031-.1499.085-.204.127-.0844.204-.0844h7.648c.076,0,.149.0304.204.0844.054.0541.084.1275.084.204s-.03.1498-.084.2039c-.055.0541-.128.0845-.204.0845Z" fill="#367cff"/><path d="M329.208,75.3995h-6.495c-.077,0-.15-.0303-.204-.0844s-.085-.1275-.085-.204c0-.0764.031-.1498.085-.2039s.127-.0844.204-.0844h6.495c.076,0,.15.0303.204.0844s.084.1275.084.2039c0,.0765-.03.1499-.084.204s-.128.0844-.204.0844Z" fill="#0cbc8b"/><path d="M371.939,75.3995h-36.486c-.077,0-.15-.0303-.204-.0844s-.085-.1275-.085-.204c0-.0764.031-.1498.085-.2039s.127-.0844.204-.0844h36.486c.077,0,.15.0303.204.0844s.085.1275.085.2039c0,.0765-.031.1499-.085.204s-.127.0844-.204.0844Z" fill="#367cff"/><path d="M402.683,75.3995h-23.799c-.077,0-.15-.0303-.204-.0844s-.085-.1275-.085-.204c0-.0764.031-.1498.085-.2039s.127-.0844.204-.0844h23.798c.077,0,.15.0303.204.0844s.084.1275.084.2039c0,.0765-.03.1499-.084.204s-.127.0844-.204.0844h.001Z" fill="#292a2e"/><path d="M358.047,85.8046h-35.334c-.077,0-.15-.0304-.204-.0845s-.085-.1274-.085-.2039.031-.1499.085-.2039.127-.0845.204-.0845h35.334c.076,0,.149.0304.203.0845.055.054.085.1274.085.2039s-.03.1498-.085.2039c-.054.0541-.127.0845-.203.0845Z" fill="#292a2e"/><path d="M377.707,85.8046h-13.416c-.076,0-.15-.0304-.204-.0845s-.084-.1274-.084-.2039.03-.1499.084-.204.128-.0844.204-.0844h13.416c.077,0,.15.0304.204.0844s.084.1275.084.204-.03.1498-.084.2039-.127.0845-.204.0845Z" fill="#0cbc8b"/><path d="M402.633,85.8046h-19.184c-.076,0-.149-.0304-.203-.0845-.055-.0541-.085-.1274-.085-.2039s.03-.1499.085-.204c.054-.054.127-.0844.203-.0844h19.184c.076,0,.15.0304.204.0844s.084.1275.084.204-.03.1498-.084.2039-.128.0845-.204.0845Z" fill="#292a2e"/><path d="M329.208,91.0071h-6.495c-.077,0-.15-.0304-.204-.0845s-.085-.1274-.085-.2039.031-.1498.085-.2039.127-.0845.204-.0845h6.495c.076,0,.15.0304.204.0845s.084.1274.084.2039-.03.1498-.084.2039-.128.0845-.204.0845Z" fill="#367cff"/><path d="M371.939,91.0071h-36.486c-.077,0-.15-.0304-.204-.0845s-.085-.1274-.085-.2039.031-.1498.085-.2039.127-.0845.204-.0845h36.486c.077,0,.15.0304.204.0845s.085.1274.085.2039-.031.1498-.085.2039-.127.0845-.204.0845Z" fill="#0cbc8b"/></g><path d="M308.224,59.792h-2.458c-.077,0-.15-.0304-.204-.0845s-.084-.1274-.084-.2039.03-.1498.084-.2039.127-.0845.204-.0845h2.458c.076,0,.149.0304.203.0845.055.0541.085.1274.085.2039s-.03.1499-.085.2039c-.054.0541-.127.0845-.203.0845Z" fill="#367cff"/><path d="M308.224,64.9945h-2.458c-.077,0-.15-.0304-.204-.0845-.054-.054-.084-.1274-.084-.2039s.03-.1498.084-.2039.127-.0845.204-.0845h2.458c.076,0,.149.0304.203.0845.055.0541.085.1274.085.2039s-.03.1499-.085.2039c-.054.0541-.127.0845-.203.0845Z" fill="#367cff"/><path d="M308.224,70.197h-2.458c-.077,0-.15-.0304-.204-.0845-.054-.054-.084-.1274-.084-.2039s.03-.1498.084-.2039.127-.0845.204-.0845h2.458c.076,0,.149.0304.203.0845.055.0541.085.1274.085.2039s-.03.1499-.085.2039c-.054.0541-.127.0845-.203.0845Z" fill="#367cff"/><path d="M308.224,75.3995h-2.458c-.077,0-.15-.0303-.204-.0844s-.084-.1275-.084-.204c0-.0764.03-.1498.084-.2039s.127-.0844.204-.0844h2.458c.076,0,.149.0303.203.0844.055.0541.085.1275.085.2039c0,.0765-.03.1499-.085.204-.054.0541-.127.0844-.203.0844Z" fill="#367cff"/><path d="M308.224,80.602h-2.458c-.077,0-.15-.0303-.204-.0844s-.084-.1275-.084-.2039.03-.1499.084-.204.127-.0844.204-.0844h2.458c.076,0,.149.0303.203.0844.055.0541.085.1275.085.204s-.03.1498-.085.2039c-.054.0541-.127.0844-.203.0844Z" fill="#367cff"/><path d="M308.224,85.8046h-2.458c-.077,0-.15-.0304-.204-.0845s-.084-.1274-.084-.2039.03-.1499.084-.2039.127-.0845.204-.0845h2.458c.076,0,.149.0304.203.0845.055.054.085.1274.085.2039s-.03.1498-.085.2039c-.054.0541-.127.0845-.203.0845Z" fill="#367cff"/><path d="M308.224,91.0071h-2.458c-.077,0-.15-.0304-.204-.0845s-.084-.1274-.084-.2039.03-.1498.084-.2039.127-.0845.204-.0845h2.458c.076,0,.149.0304.203.0845.055.0541.085.1274.085.2039s-.03.1498-.085.2039c-.054.0541-.127.0845-.203.0845Z" fill="#367cff"/><path d="M308.224,96.2096h-2.458c-.077,0-.15-.0304-.204-.0845s-.084-.1274-.084-.2039.03-.1498.084-.2039.127-.0845.204-.0845h2.458c.076,0,.149.0304.203.0845.055.0541.085.1274.085.2039s-.03.1498-.085.2039c-.054.0541-.127.0845-.203.0845Z" fill="#367cff"/><path d="M308.224,101.412h-2.458c-.077,0-.15-.03-.204-.084s-.084-.128-.084-.204c0-.077.03-.15.084-.204s.127-.085.204-.085h2.458c.076,0,.149.031.203.085.055.054.085.127.085.204c0,.076-.03.15-.085.204-.054.054-.127.084-.203.084Z" fill="#367cff"/><path d="M308.224,106.615h-2.458c-.077,0-.15-.031-.204-.085s-.084-.127-.084-.204c0-.076.03-.15.084-.204s.127-.084.204-.084h2.458c.076,0,.149.03.203.084.055.054.085.128.085.204c0,.077-.03.15-.085.204-.054.054-.127.085-.203.085Z" fill="#367cff"/><path d="M308.224,111.817h-2.458c-.077,0-.15-.03-.204-.084s-.084-.128-.084-.204c0-.077.03-.15.084-.204s.127-.085.204-.085h2.458c.076,0,.149.031.203.085.055.054.085.127.085.204c0,.076-.03.15-.085.204-.054.054-.127.084-.203.084Z" fill="#367cff"/><path d="M308.224,117.02h-2.458c-.077,0-.15-.031-.204-.085s-.084-.127-.084-.204c0-.076.03-.15.084-.204s.127-.084.204-.084h2.458c.076,0,.149.03.203.084.055.054.085.128.085.204c0,.077-.03.15-.085.204-.054.054-.127.085-.203.085Z" fill="#367cff"/><path d="M308.224,122.222h-2.458c-.077,0-.15-.03-.204-.084s-.084-.128-.084-.204c0-.077.03-.15.084-.204s.127-.085.204-.085h2.458c.076,0,.149.031.203.085.055.054.085.127.085.204c0,.076-.03.15-.085.204-.054.054-.127.084-.203.084Z" fill="#367cff"/><path d="M308.224,127.425h-2.458c-.077,0-.15-.03-.204-.084s-.084-.128-.084-.204c0-.077.03-.15.084-.204s.127-.085.204-.085h2.458c.076,0,.149.031.203.085.055.054.085.127.085.204c0,.076-.03.15-.085.204-.054.054-.127.084-.203.084Z" fill="#367cff"/><g><path d="M319.403,96.2096h-6.495c-.077,0-.15-.0304-.204-.0845s-.085-.1274-.085-.2039.031-.1498.085-.2039.127-.0845.204-.0845h6.495c.076,0,.149.0304.203.0845.055.0541.085.1274.085.2039s-.03.1498-.085.2039c-.054.0541-.127.0845-.203.0845Z" fill="#292a2e"/><path d="M324.594,101.412h-5.919c-.076,0-.15-.03-.204-.084s-.084-.128-.084-.204c0-.077.03-.15.084-.204s.128-.085.204-.085h5.919c.076,0,.149.031.203.085.055.054.085.127.085.204c0,.076-.03.15-.085.204-.054.054-.127.084-.203.084Z" fill="#292a2e"/><path d="M356.893,111.817h-35.334c-.076,0-.15-.03-.204-.084s-.084-.128-.084-.204c0-.077.03-.15.084-.204s.128-.085.204-.085h35.334c.076,0,.15.031.204.085s.084.127.084.204c0,.076-.03.15-.084.204s-.128.084-.204.084Z" fill="#292a2e"/><path d="M388.089,111.817h-24.951c-.077,0-.15-.03-.204-.084s-.085-.128-.085-.204c0-.077.031-.15.085-.204s.127-.085.204-.085h24.951c.076,0,.15.031.204.085s.084.127.084.204c0,.076-.03.15-.084.204s-.128.084-.204.084Z" fill="#367cff"/><path d="M339.59,106.615h-18.031c-.076,0-.15-.031-.204-.085s-.084-.127-.084-.204c0-.076.03-.15.084-.204s.128-.084.204-.084h18.031c.076,0,.15.03.204.084s.084.128.084.204c0,.077-.03.15-.084.204s-.128.085-.204.085Z" fill="#0cbc8b"/><path d="M370.786,106.615h-24.952c-.076,0-.149-.031-.203-.085-.055-.054-.085-.127-.085-.204c0-.076.03-.15.085-.204.054-.054.127-.084.203-.084h24.952c.076,0,.15.03.204.084s.084.128.084.204c0,.077-.03.15-.084.204s-.128.085-.204.085Z" fill="#367cff"/><path d="M401.53,106.615h-23.8c-.076,0-.15-.031-.204-.085s-.084-.127-.084-.204c0-.076.03-.15.084-.204s.128-.084.204-.084h23.798c.077,0,.15.03.204.084s.085.128.085.204c0,.077-.031.15-.085.204s-.127.085-.204.085h.002Z" fill="#292a2e"/><path d="M374.196,122.223h-52.637c-.076,0-.15-.031-.204-.085s-.084-.127-.084-.204c0-.076.03-.149.084-.204.054-.054.128-.084.204-.084h52.637c.077,0,.15.03.204.084.054.055.085.128.085.204c0,.077-.031.15-.085.204s-.127.085-.204.085Z" fill="#367cff"/><path d="M388.089,122.223h-7.648c-.077,0-.15-.031-.204-.085s-.084-.127-.084-.204c0-.076.03-.15.084-.204s.127-.084.204-.084h7.648c.076,0,.15.03.204.084s.084.128.084.204c0,.077-.03.15-.084.204s-.128.085-.204.085Z" fill="#292a2e"/><path d="M328.054,117.02h-6.495c-.076,0-.15-.03-.204-.084s-.084-.128-.084-.204c0-.077.03-.15.084-.204s.128-.085.204-.085h6.495c.077,0,.15.031.204.085s.085.127.085.204c0,.076-.031.15-.085.204s-.127.084-.204.084Z" fill="#367cff"/><path d="M370.786,117.02h-36.487c-.077,0-.15-.03-.204-.084s-.085-.128-.085-.204c0-.077.031-.15.085-.204s.127-.085.204-.085h36.487c.076,0,.15.031.204.085s.084.127.084.204c0,.076-.03.15-.084.204s-.128.084-.204.084Z" fill="#292a2e"/><path d="M401.53,117.02h-23.8c-.076,0-.15-.03-.204-.084s-.084-.128-.084-.204c0-.077.03-.15.084-.204s.128-.085.204-.085h23.798c.077,0,.15.031.204.085s.085.127.085.204c0,.076-.031.15-.085.204s-.127.084-.204.084h.002Z" fill="#0cbc8b"/><path d="M356.893,127.425h-35.334c-.076,0-.15-.03-.204-.084s-.084-.128-.084-.204c0-.077.03-.15.084-.204s.128-.085.204-.085h35.334c.076,0,.15.031.204.085s.084.127.084.204c0,.076-.03.15-.084.204s-.128.084-.204.084Z" fill="#0cbc8b"/><path d="M376.553,127.425h-13.415c-.077,0-.15-.03-.204-.084s-.085-.128-.085-.204c0-.077.031-.15.085-.204s.127-.085.204-.085h13.415c.077,0,.15.031.204.085.055.054.085.127.085.204c0,.076-.03.15-.085.204-.054.054-.127.084-.204.084Z" fill="#292a2e"/><path d="M401.479,127.425h-19.183c-.077,0-.15-.03-.204-.084s-.085-.128-.085-.204c0-.077.031-.15.085-.204s.127-.085.204-.085h19.183c.077,0,.15.031.204.085s.085.127.085.204c0,.076-.031.15-.085.204s-.127.084-.204.084Z" fill="#367cff"/></g><path d="M303.027,132.992c-.077,0-.15-.03-.204-.084s-.085-.128-.085-.204v-81.9939c0-.0765.031-.1498.085-.2039s.127-.0845.204-.0845c.076,0,.15.0304.204.0845s.084.1274.084.2039v81.9939c0,.076-.03.15-.084.204s-.128.084-.204.084Z" fill="#292a2e"/><path d="M399.612,45.229c2.555,0,4.627-2.0715,4.627-4.6269s-2.072-4.6269-4.627-4.6269c-2.556,0-4.627,2.0715-4.627,4.6269s2.071,4.6269,4.627,4.6269Z" fill="#fff"/><path d="M289.836,54.3126h-12.488c-.076,0-.15-.0304-.204-.0844s-.084-.1275-.084-.204c0-.0764.03-.1498.084-.2039s.128-.0844.204-.0844h12.488c.077,0,.15.0303.204.0844s.085.1275.085.2039c0,.0765-.031.1499-.085.204s-.127.0844-.204.0844Z" fill="#292a2e"/><path d="M286.074,60.0008h-8.726c-.076,0-.15-.0304-.204-.0845s-.084-.1274-.084-.2039.03-.1498.084-.2039.128-.0845.204-.0845h8.726c.077,0,.15.0304.204.0845s.085.1274.085.2039-.031.1498-.085.2039-.127.0845-.204.0845Z" fill="#292a2e"/><path d="M293.748,65.6889h-16.4c-.076,0-.15-.0303-.204-.0844s-.084-.1275-.084-.2039.03-.1499.084-.204.128-.0844.204-.0844h16.4c.077,0,.15.0304.204.0844s.085.1275.085.204-.031.1498-.085.2039-.127.0844-.204.0844Z" fill="#292a2e"/><path d="M296.809,71.3771h-13.693c-.077,0-.15-.0304-.204-.0845s-.084-.1274-.084-.2039.03-.1498.084-.2039.127-.0845.204-.0845h13.693c.076,0,.149.0304.203.0845.055.0541.085.1274.085.2039s-.03.1498-.085.2039c-.054.0541-.127.0845-.203.0845Z" fill="#292a2e"/><path d="M290.187,77.0658h-7.071c-.077,0-.15-.0304-.204-.0844s-.084-.1275-.084-.204.03-.1498.084-.2039.127-.0844.204-.0844h7.071c.077,0,.15.0303.204.0844s.085.1275.085.2039-.031.1499-.085.204-.127.0844-.204.0844Z" fill="#292a2e"/><path d="M295.604,82.754h-12.488c-.077,0-.15-.0304-.204-.0845s-.084-.1274-.084-.2039.03-.1498.084-.2039.127-.0845.204-.0845h12.488c.077,0,.15.0304.204.0845s.085.1274.085.2039-.031.1498-.085.2039-.127.0845-.204.0845Z" fill="#292a2e"/><path d="M286.977,88.4422h-9.629c-.076,0-.15-.0304-.204-.0845s-.084-.1274-.084-.2039.03-.1499.084-.204c.054-.054.128-.0844.204-.0844h9.629c.077,0,.15.0304.204.0844.054.0541.085.1275.085.204s-.031.1498-.085.2039-.127.0845-.204.0845Z" fill="#292a2e"/><path d="M283.667,94.1297h-6.319c-.076,0-.15-.0303-.204-.0844s-.084-.1275-.084-.204.03-.1498.084-.2039.128-.0844.204-.0844h6.319c.077,0,.15.0303.204.0844s.085.1275.085.2039-.031.1499-.085.204-.127.0844-.204.0844Z" fill="#292a2e"/><path d="M307.831,53.0922v.1038l3.605,1.3381c.052.021.096.057.127.1033.03.0462.047.1007.046.1563v.098c.001.0434-.009.0862-.029.1245-.02.0384-.05.071-.086.0947-.037.0258-.079.0419-.124.047-.044.005-.089-.0012-.131-.0181l-4.071-1.5919c-.051-.0204-.094-.0553-.125-.1005s-.048-.0986-.048-.1533v-.2942c0-.0549.016-.1086.047-.154.031-.0453.075-.0801.126-.0998l4.071-1.5976c.034-.0114.069-.0172.104-.0173.054.0011.106.0171.151.0461.036.025.066.0586.086.0979s.03.0829.029.127v.0981c.001.0551-.015.1091-.046.1546s-.075.0802-.127.0992l-3.605,1.3381Z" fill="#367cff"/><path d="M314.977,49.9718l-2.157,6.6041c-.018.0551-.052.1032-.099.1374s-.103.0528-.161.053c-.042.0006-.083-.0091-.12-.0282s-.069-.0471-.093-.0814c-.026-.0341-.044-.0738-.051-.1158-.008-.042-.006-.0853.005-.1265l2.157-6.5983c.018-.0562.054-.1052.101-.1403.048-.0352.105-.0547.164-.0558.042-.0001.083.0097.12.0288s.069.0468.094.0808c.025.0341.043.0739.05.1161s.003.0855-.01.1261Z" fill="#367cff"/><path d="M320.274,52.9999v.2942c.001.0542-.015.1074-.044.1526-.03.0453-.073.0805-.123.1012l-4.078,1.5919c-.04.0167-.084.0229-.128.0178-.043-.005-.085-.0211-.12-.0467-.037-.0235-.067-.0558-.088-.0941-.022-.0383-.033-.0813-.033-.1251v-.098c-.001-.0564.016-.1116.048-.158s.078-.0819.131-.1016l3.605-1.3381v-.1038l-3.605-1.3381c-.053-.0176-.099-.0518-.131-.0975-.033-.0456-.049-.1004-.048-.1563v-.098c0-.0446.011-.0884.032-.1276.021-.0393.052-.0727.089-.0974.045-.0289.097-.0449.15-.0461.033-.0004.067.0055.098.0173l4.078,1.5976c.05.02.094.0551.124.1005.029.0454.045.099.043.1533Z" fill="#367cff"/><path d="M272.034,128.328v-87.6417c0-2.3828.946-4.668,2.631-6.3529s3.97-2.6315,6.353-2.6315h120.399c2.382,0,4.668.9466,6.353,2.6315c1.684,1.6849,2.631,3.9701,2.631,6.3529v87.6417c0,1.181-.232,2.35-.684,3.44-.452,1.091-1.114,2.082-1.949,2.916-.834.835-1.825,1.497-2.916,1.949-1.09.451-2.259.684-3.439.684h-120.391c-1.18,0-2.349-.233-3.44-.684-1.09-.452-2.081-1.114-2.916-1.949-.834-.834-1.496-1.825-1.948-2.916-.452-1.09-.684-2.259-.684-3.44Zm8.984-95.9051c-2.191.0006-4.292.8715-5.841,2.4211-1.55,1.5496-2.42,3.6511-2.42,5.8423v87.6417c0,2.193.871,4.296,2.422,5.846c1.55,1.551,3.653,2.422,5.846,2.422h120.388c2.192,0,4.295-.871,5.846-2.422c1.55-1.55,2.421-3.653,2.421-5.846v-87.6417c0-2.1916-.871-4.2934-2.42-5.8431-1.55-1.5497-3.652-2.4203-5.843-2.4203h-120.399Z" fill="#292a2e"/></g></g></g><path d="M238.727,0.000015h-203.1544v203.154985h203.1544v-203.154985Z" fill="#f4f4f4"/><path id="eUdiWGcCJZt69" d="M238.727,0.000015h-203.1544v203.154985h203.1544v-203.154985Z" opacity="0" fill="#ccc"/><path d="M238.727,0.000015h-203.1544v203.154985h203.1544v-203.154985Z" opacity="0" fill="#aca2a2"/><path d="M35.5726,0.000015h-2.3284v203.154985h2.3284v-203.154985Z" fill="#f4f4f4"/><path d="M35.5726,0.000015h-2.3284v203.154985h2.3284v-203.154985Z" opacity="0.05" fill="#292a2e"/><path d="M84.7877,139.99v-53.1518h43.5393v30.8808h67.443v54.676h28.664v30.76h-28.664-5.522-144.9025v-63.165h39.4422Z" opacity="0.05" fill="#292a2e"/><path d="M122.738,92.6094h-31.7056v5.7712h31.7056v-5.7712Z" opacity="0.34" fill="#fffffa"/><path d="M122.738,104.568h-31.7056v5.771h31.7056v-5.771Z" opacity="0.34" fill="#fffffa"/><path d="M122.738,116.527h-31.7056v5.771h31.7056v-5.771Z" opacity="0.34" fill="#fffffa"/><path d="M56.8112,145.592h-5.8439v5.771h5.8439v-5.771Z" opacity="0.34" fill="#fffffa"/><path d="M56.8112,157.551h-5.8439v5.771h5.8439v-5.771Z" opacity="0.34" fill="#fffffa"/><path d="M56.8112,169.51h-5.8439v5.771h5.8439v-5.771Z" opacity="0.34" fill="#fffffa"/><path d="M67.6223,145.592h-5.8439v5.771h5.8439v-5.771Z" opacity="0.34" fill="#fffffa"/><path d="M67.6223,157.551h-5.8439v5.771h5.8439v-5.771Z" opacity="0.34" fill="#fffffa"/><path d="M67.6223,169.51h-5.8439v5.771h5.8439v-5.771Z" opacity="0.34" fill="#fffffa"/><path d="M78.1415,145.592h-5.8439v5.771h5.8439v-5.771Z" opacity="0.34" fill="#fffffa"/><path d="M78.1415,157.551h-5.8439v5.771h5.8439v-5.771Z" opacity="0.34" fill="#fffffa"/><path d="M78.1415,169.51h-5.8439v5.771h5.8439v-5.771Z" opacity="0.34" fill="#fffffa"/><path d="M35.5726,100.438h40.8784v-100.437985h3.3805v100.437985h110.4165v-100.437985h3.38v100.437985h45.099v3.38h-45.099v99.337h-3.38v-99.337h-110.4165v99.337h-3.3805v-99.337h-40.8784v-3.38Z" fill="#fff"/><path d="M246.821,202.91h-219.3411v6.756h219.3411v-6.756Z" fill="#f4f4f4"/><path d="M246.821,202.91h-219.3411v6.756h219.3411v-6.756Z" opacity="0.1" fill="#292a2e"/><path d="M27.4799,202.91h-3.1671v6.756h3.1671v-6.756Z" opacity="0.1" fill="#292a2e"/><path d="M27.4799,202.91h-3.1671v6.756h3.1671v-6.756Z" opacity="0.1" fill="#292a2e"/><path d="M33.2442,8.64934h205.4828v-5.02314h-205.4828v5.02314Z" fill="#fff"/><path d="M33.2442,18.0323h205.4828v-5.0231h-205.4828v5.0231Z" fill="#fff"/><path d="M33.2442,27.4147h205.4828v-5.0231h-205.4828v5.0231Z" fill="#fff"/><path d="M33.2442,36.7971h205.4828v-5.0231h-205.4828v5.0231Z" fill="#fff"/><path d="M33.2442,46.179h205.4828v-5.0232h-205.4828v5.0232Z" fill="#fff"/><path d="M55.0688,51.8446h3.0794v-51.844585h-3.0794v51.844585Z" fill="#fff"/><path d="M56.3475,59.2902c2.3365,0,4.2306-1.8941,4.2306-4.2306c0-2.3366-1.8941-4.2307-4.2306-4.2307s-4.2307,1.8941-4.2307,4.2307c0,2.3365,1.8941,4.2306,4.2307,4.2306Z" fill="#fff"/><path d="M35.0379,485.539l-1.1327-.218L51.6098,309.386l1.1328.218L35.0379,485.539Z" fill="#494949"/><path d="M100.962,485.539l-1.1326-.218L117.534,309.386l1.132.218-17.704,175.935Z" fill="#494949"/><path d="M246.683,485.539l1.133-.218-17.705-175.935-1.132.218l17.704,175.935Z" fill="#494949"/><path d="M180.759,485.539l1.133-.218-17.704-175.935-1.133.218l17.704,175.935Z" fill="#494949"/><path d="M157.28,231.957l-1.143.153l10.343,77.463l1.143-.153-10.343-77.463Z" fill="#494949"/><path d="M38.5658,231.956l-1.1434.153l10.3427,77.463l1.1434-.152-10.3427-77.464Z" fill="#494949"/><path d="M167.523,303.823h-116.1162c-3.1328,0-5.6725,2.539-5.6725,5.672v.001c0,3.133,2.5397,5.673,5.6725,5.673h116.1162c3.133,0,5.673-2.54,5.673-5.673v-.001c0-3.133-2.54-5.672-5.673-5.672Z" fill="#292a2e"/><path d="M167.523,303.823h-116.1162c-3.1328,0-5.6725,2.539-5.6725,5.672v.001c0,3.133,2.5397,5.673,5.6725,5.673h116.1162c3.133,0,5.673-2.54,5.673-5.673v-.001c0-3.133-2.54-5.672-5.673-5.672Z" opacity="0.8" fill="#fff"/><path d="M167.523,315.745h-116.1156c-.8207,0-1.6333-.162-2.3915-.476s-1.4471-.774-2.0275-1.355c-.5803-.58-1.0406-1.269-1.3546-2.027-.3141-.758-.4757-1.571-.4757-2.392c0-.82.1616-1.633.4757-2.391.314-.758.7743-1.447,1.3546-2.028.5804-.58,1.2693-1.04,2.0275-1.354s1.5708-.476,2.3915-.476h116.1156c.821,0,1.634.162,2.392.476s1.447.774,2.027,1.354c.58.581,1.041,1.27,1.355,2.028s.476,1.571.476,2.391c0,.821-.162,1.634-.476,2.392s-.775,1.447-1.355,2.027c-.58.581-1.269,1.041-2.027,1.355s-1.571.476-2.392.476ZM51.4074,304.4c-.6692,0-1.3318.131-1.9501.387-.6182.257-1.18.632-1.6532,1.105s-.8485,1.035-1.1046,1.653-.3879,1.281-.3879,1.95c0,.67.1318,1.332.3879,1.95.2561.619.6314,1.18,1.1046,1.654.4732.473,1.035.848,1.6532,1.104.6183.256,1.2809.388,1.9501.388h116.1156c.669,0,1.332-.132,1.95-.388.619-.256,1.18-.631,1.654-1.104.473-.474.848-1.035,1.104-1.654.256-.618.388-1.28.388-1.95c0-.669-.132-1.332-.388-1.95s-.631-1.18-1.104-1.653c-.474-.473-1.035-.848-1.654-1.105-.618-.256-1.281-.387-1.95-.387h-116.1156Z" fill="#292a2e"/><path d="M231.255,303.823h-116.117c-3.133,0-5.672,2.539-5.672,5.672v.001c0,3.133,2.539,5.673,5.672,5.673h116.117c3.133,0,5.672-2.54,5.672-5.673v-.001c0-3.133-2.539-5.672-5.672-5.672Z" fill="#fff"/><path d="M231.255,315.745h-116.117c-.82,0-1.633-.162-2.391-.476-.759-.314-1.447-.774-2.028-1.355-.58-.58-1.04-1.269-1.354-2.027s-.476-1.571-.476-2.392c0-.82.162-1.633.476-2.391s.774-1.447,1.354-2.028c.581-.58,1.269-1.04,2.028-1.354.758-.314,1.571-.476,2.391-.476h116.117c.82,0,1.633.162,2.391.476s1.447.774,2.028,1.354c.58.581,1.04,1.27,1.354,2.028s.476,1.571.476,2.391c0,.821-.162,1.634-.476,2.392s-.774,1.447-1.354,2.027c-.581.581-1.27,1.041-2.028,1.355s-1.571.476-2.391.476ZM115.138,304.4c-.669,0-1.332.131-1.95.387-.618.257-1.18.632-1.653,1.105s-.849,1.035-1.105,1.653-.388,1.281-.388,1.95c0,.67.132,1.332.388,1.95.256.619.632,1.18,1.105,1.654.473.473,1.035.848,1.653,1.104s1.281.388,1.95.388h116.117c.669,0,1.331-.132,1.95-.388.618-.256,1.18-.631,1.653-1.104.473-.474.848-1.035,1.105-1.654.256-.618.387-1.28.387-1.95c0-.669-.131-1.332-.387-1.95-.257-.618-.632-1.18-1.105-1.653s-1.035-.848-1.653-1.105c-.619-.256-1.281-.387-1.95-.387h-116.117Z" fill="#292a2e"/><path d="M150.919,232.032h-112.6136c-1.8412,0-3.6195-.67-5.003-1.885s-2.2775-2.892-2.5153-4.718l-7.449-57.204c-.1392-1.069-.0487-2.156.2655-3.188.3142-1.031.8448-1.984,1.5565-2.794s1.588-1.459,2.5705-1.904s2.0485-.674,3.1269-.674h112.6125c1.841,0,3.619.67,5.003,1.885c1.383,1.214,2.277,2.891,2.515,4.717l7.449,57.205c.139,1.069.049,2.156-.265,3.187-.314,1.032-.845,1.984-1.556,2.794-.712.811-1.588,1.46-2.57,1.904-.983.445-2.049.675-3.127.675Z" fill="#292a2e"/><path d="M150.919,232.032h-112.6136c-1.8412,0-3.6195-.67-5.003-1.885s-2.2775-2.892-2.5153-4.718l-7.449-57.204c-.1392-1.069-.0487-2.156.2655-3.188.3142-1.031.8448-1.984,1.5565-2.794s1.588-1.459,2.5705-1.904s2.0485-.674,3.1269-.674h112.6125c1.841,0,3.619.67,5.003,1.885c1.383,1.214,2.277,2.891,2.515,4.717l7.449,57.205c.139,1.069.049,2.156-.265,3.187-.314,1.032-.845,1.984-1.556,2.794-.712.811-1.588,1.46-2.57,1.904-.983.445-2.049.675-3.127.675Z" opacity="0.8" fill="#fff"/><path d="M150.919,232.609h-112.6136c-1.9801-.005-3.8914-.727-5.3792-2.034-1.4878-1.306-2.4511-3.108-2.7112-5.071L22.7665,168.3c-.15-1.151-.0527-2.321.2852-3.431s.909-2.135,1.6748-3.007s1.7088-1.571,2.7661-2.049c1.0572-.479,2.2044-.726,3.3649-.726h112.6125c1.98.005,3.891.727,5.379,2.034s2.451,3.109,2.711,5.072l7.449,57.204c.15,1.151.052,2.32-.286,3.43-.337,1.11-.908,2.135-1.674,3.007s-1.709,1.57-2.766,2.049c-1.057.478-2.204.726-3.364.726ZM30.8575,160.241c-.9963,0-1.9811.212-2.8887.623s-1.7171,1.011-2.3745,1.759c-.6574.749-1.1475,1.629-1.4377,2.582-.2903.953-.3738,1.957-.2452,2.945l7.449,57.205c.2232,1.685,1.0502,3.232,2.3276,4.354s2.9184,1.743,4.6185,1.746h112.6125c.996,0,1.981-.213,2.888-.624.908-.411,1.717-1.01,2.374-1.759.657-.748,1.147-1.629,1.437-2.581.29-.953.374-1.957.245-2.945l-7.447-57.204c-.223-1.685-1.05-3.233-2.328-4.354-1.277-1.122-2.918-1.743-4.618-1.747h-112.6125Z" fill="#292a2e"/><path d="M157.287,232.032h-112.614c-1.8412,0-3.6194-.67-5.0027-1.885s-2.2773-2.892-2.515-4.718l-7.4514-57.204c-.1392-1.069-.0487-2.156.2655-3.187.3141-1.032.8446-1.984,1.5562-2.795.7115-.81,1.5877-1.459,2.5701-1.904.9823-.444,2.0482-.674,3.1265-.674h112.6158c1.841,0,3.619.67,5.003,1.885c1.383,1.215,2.277,2.891,2.515,4.717l7.449,57.205c.139,1.069.049,2.156-.265,3.187-.315,1.032-.845,1.984-1.557,2.794-.711.811-1.587,1.46-2.57,1.904-.982.445-2.048.675-3.126.675Z" fill="#fff"/><path d="M157.287,232.609h-112.614c-1.9801-.005-3.8913-.727-5.379-2.034s-2.4509-3.109-2.7109-5.071L29.1341,168.3c-.1498-1.151-.0524-2.32.2856-3.43.3381-1.111.909-2.136,1.6747-3.008.7657-.871,1.7085-1.57,2.7656-2.049c1.0571-.478,2.2041-.726,3.3645-.726h112.6135c1.98.005,3.891.727,5.379,2.034s2.451,3.109,2.711,5.072l7.449,57.204c.15,1.151.052,2.32-.286,3.43s-.909,2.135-1.674,3.007c-.766.872-1.709,1.57-2.766,2.049-1.057.478-2.204.726-3.364.726ZM37.2245,160.241c-.9961,0-1.9806.213-2.8879.624s-1.7166,1.011-2.3737,1.76c-.6571.748-1.1471,1.628-1.4372,2.581s-.3736,1.957-.245,2.945l7.4462,57.204c.2234,1.685,1.0504,3.232,2.3278,4.354s2.9182,1.742,4.6183,1.746h112.614c.996,0,1.981-.212,2.888-.623.908-.411,1.717-1.011,2.375-1.759.657-.749,1.147-1.629,1.438-2.582.29-.953.373-1.957.245-2.945l-7.449-57.204c-.223-1.685-1.05-3.233-2.328-4.355-1.277-1.121-2.918-1.742-4.618-1.746h-112.6135Z" fill="#292a2e"/><path d="M140.756,119.465c-.116-.015-1.396,21.225-26.074,19.376-17.0841-1.28-23.1754-19.406-23.5671-19.406c1.8422-.391,4.1182-.986,5.0232-1.189c1.9715-.458,3.757-1.505,5.1189-3.002s2.236-3.374,2.505-5.38c.5-3.011-.346-18.4151-.087-21.4616l26.224,5.8531c-.366,6.4345-2.931,21.3505,6.056,23.9905c1.498.436,3.109.838,4.801,1.219Z" fill="#e98862"/><path d="M244.824,245.093l-1.147.116l24.315,240.717l1.148-.116-24.316-240.717Z" fill="#494949"/><g transform="matrix(.999316-.036985 0.036985 0.999316 120.483 103.894)"><g><path d="M130.268,112.15c-.411-1.324-.676-2.689-.789-4.07-.288-3.153-.23-6.327.173-9.467-5.33-.7192-10.352-2.9191-14.494-6.3497-.487,1.7984-3.165,9.6567-2.423,11.3657c1.399,3.231,7.984,8.521,17.533,8.521Z" transform="translate(-120.437-102.207)" opacity="0.52" fill="#0c0c0c"/></g></g><g id="eUdiWGcCJZt119_tr" transform="translate(125.04,76.798) rotate(-2.076911)"><g transform="translate(0,0)"><g><g transform="translate(-125.04-76.798)"><path d="M145.151,71.8449c0,0,7.483-5.6484,9.337-18.6501c1.436-10.0664-7.85-3.5448-7.85-3.5448s.963-7.2587-4.326-6.5383-8.248,8.3453-8.248,8.3453" fill="#0c0c0c"/><path d="M114.979,43.9612c0,0-26.2404,2.8153-16.7542,38.37l2.3222.1557l4.713.3161" fill="#0c0c0c"/><path d="M124.855,107.946c-10.346-.928-22.729-7.465-22.907-21.5087l-.162-12.6718c-.178-14.0433,7.053-25.5217,20.276-25.6901c13.223-.1679,23.251,11.0908,23.43,25.1347l.071,5.6097c-.009,1.9266-.15,3.8504-.42,5.758-.679,5.0467-1.731,12.7196-5.155,17.9102-3.235,4.9-8.524,6.05-15.133,5.458Z" transform="translate(.013776-.379867)" fill="#e98862"/><path d="M129.655,95.1102c2.135.0968,4.263-.3096,6.212-1.1864.04-.0172.077-.0421.107-.0734.031-.0313.055-.0684.072-.109.016-.0407.024-.0841.024-.128-.001-.0438-.01-.0871-.027-.1273s-.042-.0769-.074-.1075c-.031-.0307-.068-.0548-.109-.0712-.04-.0163-.084-.0245-.128-.024-.043.0004-.087.0095-.127.0267-4.199,1.7909-8.012,1.5285-11.026-.7584-.061-.0483-.124-.0932-.19-.1344-.076-.0351-.162-.0406-.241-.0153-.08.0253-.147.0794-.189.1518-.041.0724-.054.1578-.036.2392s.066.1533.134.2011c.025.015.063.0455.116.0876c1.585,1.2068,3.493,1.9131,5.482,2.0285Z" fill="#0c0c0c"/><path d="M129.555,98.2727c.386.0238.773.0145,1.157-.0277.088-.0093.169-.0532.224-.122.056-.0688.082-.1568.073-.2448-.01-.088-.053-.1686-.122-.2242s-.157-.0816-.245-.0723c-2.311.2457-3.414-.8132-3.461-.8588-.062-.0626-.147-.0979-.236-.098-.088-.0001-.173.035-.236.0974-.062.0625-.097.1473-.098.2358c0,.0885.035.1734.098.236.796.6776,1.801,1.0587,2.846,1.0786Z" fill="#0c0c0c"/><g id="eUdiWGcCJZt127_to" transform="translate(141.125,79.8915)"><g transform="translate(0,0)"><g><path d="M141.125,81.5203c.899,0,1.629-.7293,1.629-1.6288s-.73-1.6289-1.629-1.6289c-.9,0-1.629.7293-1.629,1.6289s.729,1.6288,1.629,1.6288Z" transform="translate(-141.125-79.8915)" fill="#0c0c0c"/></g></g></g><g id="eUdiWGcCJZt130_to" transform="translate(125.213,78.893)"><g transform="translate(0,0)"><g><path d="M125.213,80.5219c.899,0,1.629-.7293,1.629-1.6288c0-.8996-.73-1.6289-1.629-1.6289-.9,0-1.629.7293-1.629,1.6289c0,.8995.729,1.6288,1.629,1.6288Z" transform="translate(-125.213-78.893)" fill="#0c0c0c"/></g></g></g><path d="M102.823,90.7054c-4.0179.0514-7.3298-4.2064-7.3822-8.2248s3.178-6.2759,7.1962-6.3266l2.105,2.6658l1.535,11.8418-3.454.0438Z" fill="#e98862"/><path d="M106.819,84.2484c0,0,1.357-19.8716,7.383-21.099c4.013-.8173,13.745,4.8755,22.758,3.1561c3.944-.7498,7.688.2238,8.069,2.0868.151.7377,2.608-9.8629-3.568-17.9054-4.917-6.4051-21.008-8.2133-28.328-6.1138-20.2699,5.815-11.325,32.6552-11.325,32.6552l.904,6.851l4.107.3691Z" fill="#0c0c0c"/><path d="M132.082,90.4193h.025c1.295-.0132,3.466-.1794,3.457-1.1483-.009-.8029-2.293-9.4447-2.554-10.4276-.025-.0816-.08-.1503-.155-.1918s-.162-.0524-.245-.0305c-.082.0218-.153.0748-.197.1478-.045.073-.059.1603-.04.2435c1.014,3.8275,2.525,9.7199,2.532,10.2666-.125.2307-1.463.4684-2.804.4822-.084.0018-.165.036-.225.0956s-.095.1399-.098.2244c-.002.0846.028.1669.084.2299.057.063.135.102.22.1088v-.0006Z" fill="#0c0c0c"/><g id="eUdiWGcCJZt136_to" transform="translate(140.126,72.3895)"><g transform="translate(0,0)"><g><path d="M136.502,71.0587c1.361-.3746,2.798-.3746,4.159,0c.668.1797,1.306.4589,1.891.8282.579.3616,1.11.795,1.58,1.2897.09.0873.143.2064.146.3318s-.043.2471-.128.3391-.203.147-.328.1531c-.126.0061-.248-.0371-.342-.1203l-.03-.0254c-.435-.403-.92-.7497-1.442-1.0318-.512-.2805-1.063-.482-1.636-.5976-1.127-.2363-2.296-.1708-3.39.1898l-.046.0161c-.18.0638-.379.0533-.551-.0292-.173-.0824-.306-.2301-.37-.4106-.063-.1804-.053-.3788.03-.5515.082-.1727.23-.3055.41-.3693l.047-.0121Z" transform="translate(-140.126-72.3895)" fill="#0c0c0c"/></g></g></g><g id="eUdiWGcCJZt139_to" transform="translate(123.727,72.2546)"><g transform="translate(0,0)"><g><path d="M126.865,71.8772c-1.035-.5033-2.185-.7239-3.334-.6397-.582.0379-1.156.1639-1.701.3738-.554.2103-1.08.4894-1.564.8305l-.031.0208c-.104.0667-.23.0907-.351.0671-.122-.0236-.229-.0931-.301-.1939-.071-.1008-.101-.2253-.083-.3476s.082-.2329.18-.3089c.532-.4278,1.116-.7867,1.738-1.0682.629-.2875,1.298-.4792,1.985-.5687c1.399-.1907,2.823.0002,4.122.5526.176.0765.314.2197.385.3982.07.1784.066.3775-.01.5535-.077.1759-.22.3142-.398.3845-.179.0703-.378.0668-.554-.0096l-.04-.0191-.043-.0253Z" transform="translate(-123.727-71.2546)" fill="#0c0c0c"/></g></g></g><path d="M134.565,57.3799c2.974-.6214,4.644-4.6741,3.729-9.0519-.914-4.3779-4.067-7.423-7.041-6.8016-2.975.6214-4.644,4.6741-3.73,9.052.915,4.3778,4.068,7.423,7.042,6.8015Z" fill="#0c0c0c"/></g></g></g></g><path d="M300.454,455.502c0,0,3.093,16.03,18.102,16.924c15.009.893,11.755,12.85,11.755,12.85h-57.357v-28.656l27.5-1.118Z" fill="#384359"/><g transform="translate(183.386039 363.90972)"><g transform="matrix(.999884-.015233 0.015233 0.999884-.027733-2.148098)"><g transform="translate(-215.676-366.721)"><path d="M191.335,445.381c0,0-4.301,15.749,8.773,23.176c13.074,7.426,4.875,16.719,4.875,16.719l-51.467-25.32l12.649-25.714l25.17,11.139Z" transform="translate(1.56914 3.46328)" fill="#384359"/><path d="M159.459,440.932l43.402-136.921h-78.673c-15.803,0-22.391-13.401-22.391-29.204c0-15.802,15.536-29.655,31.338-29.655h106.179c9.638,0,20.446,5.895,25.736,13.952c5.29,8.058,3.86,20.543.027,29.387L195.576,457.294" fill="#262626"/><path d="M159.459,440.932l43.402-136.921h-78.673c-15.803,0-22.391-13.401-22.391-29.204c0-15.802,15.536-29.655,31.338-29.655h106.179c9.638,0,20.446,5.895,25.736,13.952c5.29,8.058,3.86,20.543.027,29.387L195.576,457.294" transform="translate(.312362 0)" opacity="0.8" fill="#262626"/></g></g></g><path d="M269.655,470.389L197.084,304.011l-95.288-.006c-22.3279-1.751-32.5535-13.987-32.2282-29.786.3206-15.599,8.219-31.006,23.7475-31.006h128.4317c11.489.236,20.529,12.933,24.791,23.604l60.331,193.386" fill="#262626"/><path d="M63.0687,243.404c0,0-4.2318,27.596,2.4761,42.939c8.3742,19.155,39.7672,17.662,39.7672,17.662l-1.769-60.792-40.4743.191Z" transform="translate(0-.767)" fill="#262626"/><g transform="translate(198.436 180.394)"><path d="M249.268,242.861l-67.309-13.948c-2.805-.581-5.418-1.86-7.597-3.719s-3.855-4.237-4.871-6.915l-26.474-69.763c-.806-2.094-1.19-4.326-1.131-6.569.059-2.242.561-4.451,1.476-6.5.915-2.048,2.226-3.895,3.858-5.435c1.631-1.54,3.551-2.743,5.648-3.539c2.098-.796,4.332-1.17,6.575-1.1c2.242.07,4.449.583,6.492,1.508c2.044.925,3.885,2.245,5.417,3.884c1.533,1.639,2.726,3.564,3.512,5.665l23.159,61.023l58.159,12.051c0,0-5.746,33.599-6.914,33.357Z" transform="translate(-199.031-184.114)" fill="#384359"/></g><path d="M171.418,166.232c-.777,9.132-6.287,66.104-7.037,77.352h-101.2679c-.582-10.145-2.4709-53.216-4.6777-73.055-2.1058-18.931-2.87-29.734-.4441-35.616c4.2785-10.376,14.9852-14.11,24.2078-15.358c5.6311-.762,14.101-1.309,14.101-1.309s.7175,14.507,17.8179,15.315c23.278,1.096,21.724-15.315,21.839-15.315c3.771,0,24.298,2.742,29.431,6.088c7.25,4.725,9.392,11.164,9.477,17.08.097,6.813-2.566,14.461-3.447,24.818Z" fill="#384359"/><path d="M167.438,212.785h-.024c-.038-.004-.075-.014-.109-.031-.033-.018-.063-.042-.088-.071-.024-.029-.043-.062-.054-.098-.012-.036-.016-.074-.013-.112l2.629-31.581c.002-.038.012-.075.029-.109s.041-.065.07-.089c.029-.025.063-.043.099-.055.037-.011.075-.014.113-.01.038.003.074.013.108.031.034.017.064.041.088.07.025.029.043.062.055.098.011.036.016.074.012.112l-2.628,31.581c-.007.072-.04.139-.093.187-.053.049-.122.076-.194.077Z" fill="#0c0c0c"/><path d="M215.667,231.739l22.22-68.305c.39-1.2,1.151-2.246,2.172-2.987c1.021-.742,2.251-1.142,3.513-1.142h96.294c.944,0,1.874.224,2.715.652.841.429,1.568,1.05,2.123,1.814.554.763.92,1.647,1.067,2.579.148.932.072,1.886-.22,2.783L317.564,235.44c-.391,1.2-1.151,2.246-2.172,2.988-1.021.741-2.251,1.141-3.513,1.141h-90.526c-.944,0-1.875-.223-2.716-.652s-1.569-1.05-2.123-1.814c-.555-.764-.921-1.648-1.068-2.581-.147-.932-.071-1.886.221-2.783Z" fill="#292a2e"/><path d="M215.667,231.739l22.22-68.305c.39-1.2,1.151-2.246,2.172-2.987c1.021-.742,2.251-1.142,3.513-1.142h96.294c.944,0,1.874.224,2.715.652.841.429,1.568,1.05,2.123,1.814.554.763.92,1.647,1.067,2.579.148.932.072,1.886-.22,2.783L317.564,235.44c-.391,1.2-1.151,2.246-2.172,2.988-1.021.741-2.251,1.141-3.513,1.141h-90.526c-.944,0-1.875-.223-2.716-.652s-1.569-1.05-2.123-1.814c-.555-.764-.921-1.648-1.068-2.581-.147-.932-.071-1.886.221-2.783Z" fill="#292a2e"/><path d="M233.793,234.028h-60.598c-1.51,0-2.734,1.224-2.734,2.734v.07c0,1.51,1.224,2.734,2.734,2.734h60.598c1.51,0,2.734-1.224,2.734-2.734v-.07c0-1.51-1.224-2.734-2.734-2.734Z" fill="#292a2e"/><path d="M233.793,234.028h-60.598c-1.51,0-2.734,1.224-2.734,2.734v.07c0,1.51,1.224,2.734,2.734,2.734h60.598c1.51,0,2.734-1.224,2.734-2.734v-.07c0-1.51-1.224-2.734-2.734-2.734Z" fill="#292a2e"/><path d="M277.725,212.263c5.244,0,9.495-4.251,9.495-9.495c0-5.243-4.251-9.494-9.495-9.494-5.243,0-9.494,4.251-9.494,9.494c0,5.244,4.251,9.495,9.494,9.495Z" fill="#fff"/><g transform="matrix(.998271 0.058774-.058774 0.998271 9.788733-5.486884)"><g transform="matrix(.999994 0.00349-.00349 0.999994 3.590986-1.979313)"><path d="M208.337155,214.902863L195.478,210.437l2.171-.15c.7-.062,1.351-.388,1.82-.911.469-.524.721-1.206.707-1.908-.02-.362-.114-.717-.276-1.042-.161-.325-.387-.613-.664-.848-.277-.234-.599-.41-.946-.516-.346-.107-.711-.141-1.072-.101l-26.757,2.843.692,8.599c.216,2.67,1.224,5.216,2.896,7.309c1.672,2.094,3.931,3.64,6.488,4.442l11.587,3.609c.599.2,1.248.186,1.837-.038.59-.224,1.084-.645,1.399-1.192.273-.5.38-1.073.304-1.638-.075-.564-.329-1.09-.724-1.5.025-.018.047-.042.063-.068.017-.027.027-.057.032-.088.004-.031.002-.063-.006-.093-.009-.031-.023-.059-.043-.083l2.134.669c.667.224,1.393.186,2.032-.105.64-.291,1.145-.814,1.413-1.464.219-.589.224-1.236.013-1.828s-.624-1.091-1.167-1.408c.025-.013.048-.031.066-.053l.878.275c.598.2,1.247.186,1.837-.038.59-.225,1.084-.646,1.398-1.193.332-.605.416-1.316.236-1.983-.181-.666-.613-1.237-1.205-1.593.005-.017.008-.036.008-.054l4.034155,1.371863c.313.114.645.164.978.148.332-.016.659-.098.959-.241.301-.143.571-.344.793-.591.223-.248.394-.537.504-.851.111-.315.157-.648.138-.98s-.104-.658-.25-.957-.35-.567-.6-.787-.533-.391-.848-.498v0Z" transform="matrix(.992513-.122142 0.122142 0.992513-25.3259 24.9713)" fill="#e98862"/><path d="M202.391,218.532c-.03,0-.059-.005-.086-.015l-6.092-2.215c-.063-.023-.114-.07-.142-.131-.028-.06-.031-.129-.008-.192.023-.062.07-.113.131-.141.06-.028.129-.031.192-.008l6.092,2.215c.056.02.102.059.132.111.029.051.04.111.03.169s-.041.111-.086.149c-.045.037-.103.058-.162.058h-.001Z" transform="matrix(.990763-.135602 0.135602 0.990763-27.6078 29.0376)" opacity="0.2" fill="#0a0a0a"/><path d="M199.31,222.961c-.029,0-.057-.005-.084-.014l-4.802-1.704c-.032-.01-.061-.027-.086-.049-.026-.022-.046-.049-.061-.079s-.023-.062-.025-.096c-.002-.033.003-.067.014-.098.011-.032.028-.061.051-.085.022-.025.049-.045.08-.059.03-.014.063-.022.096-.023.034-.001.067.004.098.016l4.803,1.704c.055.02.102.058.132.109s.041.111.031.17c-.01.058-.04.111-.085.149-.046.038-.103.059-.162.059Z" transform="matrix(.990763-.135602 0.135602 0.990763-28.2655 28.75)" opacity="0.2" fill="#0a0a0a"/><path d="M194.788,227.456c-.031,0-.061-.006-.089-.017l-2.25-.857c-.062-.024-.112-.072-.139-.133-.027-.06-.029-.129-.006-.192.024-.062.072-.112.133-.139.06-.027.129-.029.192-.005l2.249.857c.055.021.101.061.13.112s.039.111.028.169c-.01.057-.041.11-.086.147-.046.038-.103.058-.161.058h-.001Z" transform="matrix(.990763-.135602 0.135602 0.990763-28.9625 28.3559)" opacity="0.2" fill="#0a0a0a"/></g><path d="M182.304,202.715l-63.446-.043-24.0015-58.549-35.8051,15.054l29.945,69.489.2925.692c1.465,3.378,3.9329,6.223,7.0692,8.152c3.1363,1.928,6.7899,2.846,10.4649,2.629l76.439-4.516-.958-32.908Z" transform="translate(2.827274-1.317)" fill="#384359"/><path d="M105.773,240.458c-3.557-.007-7.0353-1.049-10.0093-3-2.9741-1.951-5.3154-4.726-6.7379-7.986l-.293-.692-25.5182-59.208.5294-.231l25.8107,59.905c1.4484,3.318,3.878,6.113,6.9621,8.008c3.0841,1.896,6.6752,2.802,10.2892,2.597l76.159-4.499-.943-32.347-63.358-.043-18.457-45.019.534-.218l18.309,44.66l63.532.044.976,33.466-.28.016-76.436,4.515c-.357.021-.715.032-1.069.032Z" transform="translate(2.827275-1.317)" fill="#0c0c0c"/></g><path d="M35.2037,245.097L10.8716,485.812l1.1477.116L36.3514,245.213l-1.1477-.116Z" fill="#494949"/><path d="M135.735,245.097L111.402,485.812l1.148.116l24.332-240.715-1.147-.116Z" fill="#494949"/><path d="M345.355,245.093l-1.148.116l24.316,240.717l1.147-.116-24.315-240.717Z" fill="#494949"/><path d="M367.281,240.426h-352.4112c-2.6101,0-4.7261,2.116-4.7261,4.726s2.116,4.726,4.7261,4.726h352.4112c2.61,0,4.726-2.116,4.726-4.726s-2.116-4.726-4.726-4.726Z" fill="#292a2e"/><path d="M367.281,240.426h-352.4112c-2.6101,0-4.7261,2.116-4.7261,4.726s2.116,4.726,4.7261,4.726h352.4112c2.61,0,4.726-2.116,4.726-4.726s-2.116-4.726-4.726-4.726Z" opacity="0.8" fill="#fff"/><path d="M367.282,250.454h-352.4098c-.701.008-1.3965-.124-2.0463-.387-.6497-.264-1.2409-.653-1.7391-1.146s-.8939-1.08-1.16386-1.727-.40896-1.341-.40896-2.042.139-1.395.40896-2.042.66556-1.234,1.16386-1.727c.4982-.494,1.0894-.883,1.7391-1.146s1.3453-.395,2.0463-.388h352.4098c.701-.007,1.396.125,2.046.388s1.241.652,1.739,1.146c.499.493.894,1.08,1.164,1.727s.409,1.341.409,2.042-.139,1.395-.409,2.042-.665,1.234-1.164,1.727c-.498.493-1.089.882-1.739,1.146-.65.263-1.345.395-2.046.387ZM14.8722,241.003c-.549-.007-1.0938.096-1.6029.301-.509.206-.9722.511-1.3627.896-.3905.386-.7006.846-.9121,1.353-.2116.506-.3206,1.05-.3206,1.599s.109,1.092.3206,1.599c.2115.506.5216.966.9121,1.352s.8537.69,1.3627.896c.5091.206,1.0539.308,1.6029.302h352.4098c.549.006,1.094-.096,1.603-.302s.972-.51,1.362-.896c.391-.386.701-.846.913-1.352.211-.507.32-1.05.32-1.599s-.109-1.093-.32-1.599c-.212-.507-.522-.967-.913-1.353-.39-.385-.853-.69-1.362-.896-.509-.205-1.054-.308-1.603-.301h-352.4098Z" fill="#292a2e"/><path d="M367.281,240.426h-248.037c-2.61,0-4.726,2.116-4.726,4.726s2.116,4.726,4.726,4.726h248.037c2.61,0,4.726-2.116,4.726-4.726s-2.116-4.726-4.726-4.726Z" fill="#fff"/><path d="M367.282,250.454h-248.038c-1.397-.014-2.732-.579-3.714-1.572-.983-.993-1.534-2.333-1.534-3.73s.551-2.738,1.534-3.73c.982-.993,2.317-1.558,3.714-1.573h248.038c.701-.007,1.396.125,2.046.388s1.241.652,1.739,1.146c.499.493.894,1.08,1.164,1.727s.409,1.341.409,2.042-.139,1.395-.409,2.042-.665,1.234-1.164,1.727c-.498.493-1.089.882-1.739,1.146-.65.263-1.345.395-2.046.387Zm-248.038-9.451c-1.092.013-2.135.455-2.903,1.232-.767.777-1.198,1.825-1.198,2.917s.431,2.14,1.198,2.916c.768.777,1.811,1.22,2.903,1.233h248.038c.549.006,1.094-.096,1.603-.302s.972-.51,1.362-.896c.391-.386.701-.846.913-1.352.211-.507.32-1.05.32-1.599s-.109-1.093-.32-1.599c-.212-.507-.522-.967-.913-1.353-.39-.385-.853-.69-1.362-.896-.509-.205-1.054-.308-1.603-.301h-248.038Z" fill="#292a2e"/><path d="M376.787,409.187c-.076.001-.151-.014-.221-.043s-.133-.072-.187-.126c-.812-.812-2.137-15.721-5.705-60.113-1.46-18.164-2.839-35.32-3.845-45.747-.072-.744-.361-.831-.456-.859-1.377-.416-5.567,2.887-7.905,5.78-.097.119-.236.195-.388.211-.153.016-.305-.029-.424-.125s-.195-.235-.211-.388c-.016-.152.029-.304.125-.423c1.547-1.913,6.588-6.927,9.135-6.16.513.154,1.154.601,1.272,1.854c1.008,10.435,2.387,27.597,3.847,45.765c2.168,26.976,4.624,57.537,5.432,59.461.061.087.098.188.106.294s-.014.212-.062.306-.122.173-.212.229c-.091.055-.195.084-.301.084Z" fill="#494949"/><path d="M365.347,322.291c9.571-7.672,12.743-19.613,7.085-26.671-5.658-7.059-18.003-6.561-27.574,1.11-9.571,7.672-12.743,19.613-7.085,26.672c5.657,7.058,18.003,6.561,27.574-1.111Z" fill="#0cbc8b"/><path d="M365.347,322.291c9.571-7.672,12.743-19.613,7.085-26.671-5.658-7.059-18.003-6.561-27.574,1.11-9.571,7.672-12.743,19.613-7.085,26.672c5.657,7.058,18.003,6.561,27.574-1.111Z" transform="translate(.152892-.319779)" opacity="0.2" fill="#fff"/><path d="M340.456,325.197c-.055,0-.108-.016-.154-.045-.047-.029-.084-.071-.107-.121-.023-.049-.032-.105-.025-.159s.029-.105.064-.148l27.276-32.892c.049-.059.119-.096.196-.103.076-.008.152.016.211.065s.096.119.103.195-.017.152-.066.211l-27.276,32.893c-.027.033-.061.059-.099.077-.039.018-.081.027-.123.027Z" fill="#fff"/><path d="M382.736,402.136c-.092,0-.183-.022-.264-.064-.082-.042-.153-.103-.206-.178s-.088-.162-.101-.253-.004-.184.027-.271l10.246-29.465c.302-.866.816-1.642,1.495-2.258.679-.615,1.502-1.05,2.394-1.266.891-.215,1.822-.203,2.707.035s1.697.694,2.36,1.327l5.417,5.174c.111.106.175.251.179.404.003.153-.054.301-.16.412s-.251.175-.404.178c-.153.004-.301-.054-.412-.159l-5.416-5.175c-.524-.5-1.165-.86-1.864-1.048-.699-.187-1.434-.197-2.137-.027-.704.17-1.353.513-1.89.999-.536.486-.942,1.099-1.18,1.783l-10.245,29.465c-.04.114-.114.212-.211.281-.098.069-.215.107-.335.106Z" fill="#494949"/><path d="M421.944,391.231c7.093-5.615,6.671-17.963-.942-27.581-7.613-9.617-19.534-12.863-26.627-7.249-7.093,5.615-6.671,17.963.941,27.581c7.613,9.618,19.535,12.863,26.628,7.249Z" fill="#0cbc8b"/><path d="M372.135,407.308c-.129,0-.255-.043-.357-.124-.101-.08-.173-.192-.203-.318l-17.197-71.892c-.118-.49-.368-.938-.724-1.295s-.803-.609-1.292-.728c-.49-.119-1.003-.101-1.483.052-.48.154-.908.436-1.238.817l-5.3,6.126c-.05.058-.11.105-.178.14s-.142.056-.218.061c-.076.006-.152-.003-.225-.027-.072-.024-.139-.062-.197-.112-.057-.05-.104-.11-.138-.179-.034-.068-.054-.142-.06-.218-.005-.076.005-.152.03-.225.025-.072.063-.138.114-.195l5.3-6.125c.468-.542,1.077-.944,1.76-1.162.682-.217,1.411-.243,2.107-.073s1.332.528,1.837,1.036.861,1.145,1.027,1.841L372.694,406.6c.034.148.009.304-.071.434s-.208.223-.356.258c-.043.011-.087.016-.132.016Z" fill="#494949"/><path d="M365.791,355.916c2.09-12.086-3.442-23.134-12.355-24.676-8.914-1.541-17.835,7.008-19.925,19.094-2.09,12.087,3.442,23.135,12.356,24.677c8.913,1.541,17.834-7.008,19.924-19.095Z" fill="#0cbc8b"/><path d="M376.788,409.187c-.024.001-.048-.001-.071-.004-.075-.009-.148-.033-.214-.07s-.124-.087-.171-.147c-.046-.06-.081-.128-.101-.201s-.026-.149-.017-.225l10.98-89.144c.12-.971.517-1.887,1.145-2.638.628-.75,1.459-1.304,2.393-1.593.935-.29,1.933-.303,2.875-.039s1.788.795,2.436,1.528l12.549,14.214c.102.114.153.265.144.417-.01.153-.08.296-.194.397-.115.101-.265.153-.418.143-.153-.009-.296-.079-.397-.194l-12.549-14.213c-.501-.567-1.154-.977-1.883-1.182-.728-.204-1.499-.193-2.222.03-.722.224-1.364.652-1.849,1.232-.486.58-.793,1.288-.885,2.038L377.36,408.681c-.017.14-.085.268-.19.362-.106.093-.242.144-.382.144Z" fill="#494949"/><path d="M421.464,338.767c4.378-7.916-.774-19.146-11.507-25.083-10.734-5.938-22.984-4.334-27.363,3.582-4.378,7.916.773,19.146,11.507,25.083c10.733,5.937,22.984,4.333,27.363-3.582Z" fill="#0cbc8b"/><path d="M421.944,391.231c7.093-5.615,6.671-17.963-.942-27.581-7.613-9.617-19.534-12.863-26.627-7.249-7.093,5.615-6.671,17.963.941,27.581c7.613,9.618,19.535,12.863,26.628,7.249Z" opacity="0.2" fill="#fff"/><path d="M365.791,355.916c2.09-12.086-3.442-23.134-12.355-24.676-8.914-1.541-17.835,7.008-19.925,19.094-2.09,12.087,3.442,23.135,12.356,24.677c8.913,1.541,17.834-7.008,19.924-19.095Z" opacity="0.5" fill="#fff"/><path d="M421.464,338.767c4.378-7.916-.774-19.146-11.507-25.083-10.734-5.938-22.984-4.334-27.363,3.582-4.378,7.916.773,19.146,11.507,25.083c10.733,5.937,22.984,4.333,27.363-3.582Z" opacity="0.5" fill="#fff"/><path d="M390.83,484.827h-28.086l-4.655-89.864h37.395l-4.654,89.864Z" fill="#292a2e"/><path d="M390.83,484.827h-28.086l-4.655-89.864h37.395l-4.654,89.864Z" opacity="0.3" fill="#fff"/><path d="M421.945,391.515c-.044,0-.087-.01-.126-.029s-.074-.046-.1-.081l-27.57-34.829c-.048-.06-.07-.136-.061-.212s.048-.145.108-.193c.06-.047.136-.069.212-.06s.145.047.193.107l27.57,34.829c.033.043.055.094.061.148.005.054-.004.108-.027.157-.024.049-.061.09-.107.119s-.099.044-.153.044Z" fill="#fff"/><path d="M419.63,341.557c-.061-.001-.121-.021-.17-.058l-35.279-25.76c-.062-.045-.103-.112-.115-.188s.007-.153.052-.215c.045-.061.113-.103.189-.115.075-.011.152.007.214.052L419.8,341.034c.049.036.084.087.102.145.018.057.018.119-.001.177-.019.057-.056.107-.105.143-.049.035-.108.054-.169.054l.003.004Z" fill="#fff"/><path d="M344.433,374.635c-.025,0-.05-.004-.074-.011-.074-.02-.137-.068-.175-.134-.039-.066-.049-.144-.03-.218l11.231-42.078c.021-.072.07-.132.135-.169.066-.037.143-.047.215-.027.073.019.135.066.174.13.038.065.05.141.033.215l-11.23,42.077c-.017.062-.053.116-.103.155-.051.039-.112.06-.176.06Z" fill="#fff"/><path d="M404.39,485.637h-403.986257c-.10708,0-.209773-.043-.285489-.119C0.042537,485.443,0,485.34,0,485.233s.042537-.21.118254-.286c.075716-.075.178409-.118.285489-.118h403.985257c.107,0,.209.043.285.118.076.076.118.179.118.286s-.042.21-.118.285c-.076.076-.178.119-.285.119h.001Z" fill="#292a2e"/><g opacity="0.65"><path d="M404.39,485.637h-403.986257c-.10708,0-.209773-.043-.285489-.119C0.042537,485.443,0,485.34,0,485.233s.042537-.21.118254-.286c.075716-.075.178409-.118.285489-.118h403.985257c.107,0,.209.043.285.118.076.076.118.179.118.286s-.042.21-.118.285c-.076.076-.178.119-.285.119h.001Z" fill="#292a2e"/></g></g><clipPath id="eUdiWGcCJZt198"><rect width="427" height="485.927" rx="0" ry="0" fill="#fff"/></clipPath></g></svg>
