<svg id="ezZc1MtSrIq1" xmlns="http://www.w3.org/2000/svg" xmlns:xlink="http://www.w3.org/1999/xlink" viewBox="0 0 600 417" shape-rendering="geometricPrecision" text-rendering="geometricPrecision">
<style><![CDATA[
#ezZc1MtSrIq9_tr {animation: ezZc1MtSrIq9_tr__tr 2000ms linear infinite normal forwards}@keyframes ezZc1MtSrIq9_tr__tr { 0% {transform: translate(547.240509px,115.747067px) rotate(8.835402deg)} 30% {transform: translate(547.240509px,115.747067px) rotate(0deg)} 100% {transform: translate(547.240509px,115.747067px) rotate(8.835402deg)}} #ezZc1MtSrIq24_to {animation: ezZc1MtSrIq24_to__to 2000ms linear infinite normal forwards}@keyframes ezZc1MtSrIq24_to__to { 0% {transform: translate(501.922211px,162.446378px)} 50% {transform: translate(502.663544px,164.338473px)} 100% {transform: translate(501.922211px,162.446378px)}} #ezZc1MtSrIq24_tr {animation: ezZc1MtSrIq24_tr__tr 2000ms linear infinite normal forwards}@keyframes ezZc1MtSrIq24_tr__tr { 0% {transform: rotate(5deg)} 50% {transform: rotate(0deg)} 100% {transform: rotate(5deg)}} #ezZc1MtSrIq51_to {animation: ezZc1MtSrIq51_to__to 2000ms linear infinite normal forwards}@keyframes ezZc1MtSrIq51_to__to { 0% {transform: translate(312.718506px,193.203995px)} 15% {transform: translate(313.718486px,193.19761px)} 45% {transform: translate(313.718486px,193.19761px)} 70% {transform: translate(312.718506px,193.203995px)} 100% {transform: translate(312.718506px,193.203995px)}} #ezZc1MtSrIq52_to {animation: ezZc1MtSrIq52_to__to 2000ms linear infinite normal forwards}@keyframes ezZc1MtSrIq52_to__to { 0% {transform: translate(304.054807px,194.962502px)} 15% {transform: translate(305.054787px,194.956117px)} 45% {transform: translate(305.054787px,194.956117px)} 70% {transform: translate(304.054807px,194.962502px)} 100% {transform: translate(304.054807px,194.962502px)}} #ezZc1MtSrIq54_to {animation: ezZc1MtSrIq54_to__to 2000ms linear infinite normal forwards}@keyframes ezZc1MtSrIq54_to__to { 0% {transform: translate(345.200653px,247.148567px)} 50% {transform: translate(345.613535px,244.528411px)} 100% {transform: translate(345.200653px,247.148567px)}} #ezZc1MtSrIq54_tr {animation: ezZc1MtSrIq54_tr__tr 2000ms linear infinite normal forwards}@keyframes ezZc1MtSrIq54_tr__tr { 0% {transform: rotate(0deg)} 50% {transform: rotate(-5.152894deg)} 100% {transform: rotate(0deg)}} #ezZc1MtSrIq79_tr {animation: ezZc1MtSrIq79_tr__tr 2000ms linear infinite normal forwards}@keyframes ezZc1MtSrIq79_tr__tr { 0% {transform: translate(60.663302px,282.430237px) rotate(5.270544deg)} 50% {transform: translate(60.663302px,282.430237px) rotate(-4.503733deg)} 100% {transform: translate(60.663302px,282.430237px) rotate(5.270544deg)}} #ezZc1MtSrIq95_to {animation: ezZc1MtSrIq95_to__to 2000ms linear infinite normal forwards}@keyframes ezZc1MtSrIq95_to__to { 0% {transform: translate(31.2741px,344.419495px)} 50% {transform: translate(30.311968px,342.139143px)} 100% {transform: translate(31.2741px,344.419495px)}} #ezZc1MtSrIq95_tr {animation: ezZc1MtSrIq95_tr__tr 2000ms linear infinite normal forwards}@keyframes ezZc1MtSrIq95_tr__tr { 0% {transform: rotate(0deg)} 50% {transform: rotate(5deg)} 100% {transform: rotate(0deg)}} #ezZc1MtSrIq96_to {animation: ezZc1MtSrIq96_to__to 2000ms linear infinite normal forwards}@keyframes ezZc1MtSrIq96_to__to { 0% {transform: translate(95.388248px,343.403px)} 50% {transform: translate(97.27736px,342.139148px)} 100% {transform: translate(95.388248px,343.403px)}} #ezZc1MtSrIq96_tr {animation: ezZc1MtSrIq96_tr__tr 2000ms linear infinite normal forwards}@keyframes ezZc1MtSrIq96_tr__tr { 0% {transform: rotate(0deg)} 50% {transform: rotate(-5.095178deg)} 100% {transform: rotate(0deg)}} #ezZc1MtSrIq102_tr {animation: ezZc1MtSrIq102_tr__tr 2000ms linear infinite normal forwards}@keyframes ezZc1MtSrIq102_tr__tr { 0% {transform: translate(193.175811px,30.082575px) rotate(6.173684deg)} 50% {transform: translate(193.175811px,30.082575px) rotate(0deg)} 100% {transform: translate(193.175811px,30.082575px) rotate(6.173684deg)}} #ezZc1MtSrIq120_to {animation: ezZc1MtSrIq120_to__to 2000ms linear infinite normal forwards}@keyframes ezZc1MtSrIq120_to__to { 0% {transform: translate(232.376495px,88.803799px)} 50% {transform: translate(231.49391px,90.5415px)} 100% {transform: translate(232.376495px,88.803799px)}} #ezZc1MtSrIq120_tr {animation: ezZc1MtSrIq120_tr__tr 2000ms linear infinite normal forwards}@keyframes ezZc1MtSrIq120_tr__tr { 0% {transform: rotate(0deg)} 50% {transform: rotate(4.715257deg)} 100% {transform: rotate(0deg)}} #ezZc1MtSrIq142_to {animation: ezZc1MtSrIq142_to__to 2000ms linear infinite normal forwards}@keyframes ezZc1MtSrIq142_to__to { 0% {transform: translate(510.010461px,381.346499px)} 50% {transform: translate(508.437px,381.69988px)} 100% {transform: translate(510.010461px,381.346499px)}} #ezZc1MtSrIq142_tr {animation: ezZc1MtSrIq142_tr__tr 2000ms linear infinite normal forwards}@keyframes ezZc1MtSrIq142_tr__tr { 0% {transform: rotate(0deg)} 50% {transform: rotate(4deg)} 100% {transform: rotate(0deg)}}
]]></style>
<g clip-path="url(#ezZc1MtSrIq154)"><g><path d="M179.435,53.998l-.427-.1076L43.6099,337.358L520.917,374.204l.538.041l17.489-230.111.034-.453L179.435,53.998ZM316.55,236.293L45.4884,335.921L179.409,55.5484L316.55,236.293Zm.795.854L518.969,372.972L46.9366,336.536L317.345,237.147Zm.249-1.257L180.656,55.4096L536.703,144.22L317.594,235.89ZM520.493,372.703L318.546,236.659l219.258-91.733-17.311,227.777Z" opacity="0.2" fill="#367cff"/><path d="M599.948,148.926c-.431,10.912-3.499,21.558-8.939,31.028-5.441,9.47-13.093,17.481-22.304,23.35-9.21,5.869-19.704,9.421-30.586,10.352-10.881.931-21.827-.787-31.9-5.006-4.725-1.98-9.205-4.497-13.354-7.502-7.93-5.725-14.53-13.095-19.349-21.606v-.007c-5.137-9.103-8.095-19.273-8.639-29.712s1.34-20.861,5.504-30.449s10.494-18.08,18.493-24.8079c8-6.7285,17.45-11.5104,27.61-13.97c10.159-2.4596,20.75-2.5301,30.941-.2057c10.192,2.3244,19.705,6.9802,27.793,13.6017c8.088,6.6219,14.531,15.0279,18.822,24.5599c4.291,9.531,6.313,19.928,5.908,30.373v.001Z" fill="#fff"/><g transform="translate(.000001 0)"><path d="M599.948,148.926c-.431,10.912-3.499,21.558-8.939,31.028-5.441,9.47-13.093,17.481-22.304,23.35-9.21,5.869-19.704,9.421-30.586,10.352-10.881.931-21.827-.787-31.9-5.006-4.725-1.98-9.205-4.497-13.354-7.502-7.93-5.725-14.53-13.095-19.349-21.606v-.007c-5.137-9.103-8.095-19.273-8.639-29.712s1.34-20.861,5.504-30.449s10.494-18.08,18.493-24.8079c8-6.7285,17.45-11.5104,27.61-13.97c10.159-2.4596,20.75-2.5301,30.941-.2057c10.192,2.3244,19.705,6.9802,27.793,13.6017c8.088,6.6219,14.531,15.0279,18.822,24.5599c4.291,9.531,6.313,19.928,5.908,30.373v.001Z" opacity="0.09" fill="#367cff"/><path d="M530.33,140.66c.075-.007.373,13.886,16.522,13.303c11.18-.403,15.614-12.076,15.87-12.066-1.192-.302-3.202-.753-3.724-1.058-1.719-1.011-3.853-2.076-4.287-5.507-.249-1.978.694-12.008.601-14.002l-17.26,3.155c.076,4.208,1.372,14.005-4.56,15.5-.988.248-2.049.469-3.162.675Z" fill="#e98862"/><g id="ezZc1MtSrIq9_tr" transform="translate(547.240509,115.747067) rotate(8.835402)"><g transform="translate(-547.240509,-115.747066)"><path d="M541.276,133.697c6.766-.484,14.928-4.603,15.212-13.772l.256-8.271c.283-9.166-4.304-16.7469-12.932-17.0137-8.631-.269-15.313,6.9647-15.596,16.1317l-.113,3.661c-.017,1.259.051,2.517.205,3.766.383,3.303.978,8.326,3.153,11.755c2.053,3.238,5.493,4.051,9.815,3.743Z" transform="translate(.0855 0.058246)" fill="#e98862"/><path d="M555.865,122.704c2.623.08,4.836-2.66,4.917-5.283.082-2.622-2-4.135-4.623-4.216l-1.406,1.715-1.143,7.714l2.255.07Z" transform="translate(.0855 0.058246)" fill="#e98862"/><path d="M528.66,120.968c.474.561,1.08.996,1.765,1.263.684.268,1.425.36,2.154.268c1.56-.197,2.595.443,3.897.315c1.093-.108,1.283-.613,3.148-.723c7.202-.427,12.606-.881,12.957-9.918l4.583-4.071c0,0,2.048,25.043-11.497,28.372-8.324,2.044-16.13,1.297-17.134-6.52-.815-6.352.127-8.986.127-8.986Z" transform="translate(.0855 0.058246)" fill="#0c0c0c"/><path d="M532.072,115.737c.587,0,1.063-.476,1.063-1.063c0-.588-.476-1.064-1.063-1.064-.588,0-1.064.476-1.064,1.064c0,.587.476,1.063,1.064,1.063Z" fill="#0c0c0c"/><path d="M541.573,115.539c.587,0,1.064-.476,1.064-1.063c0-.588-.477-1.064-1.064-1.064s-1.063.476-1.063,1.064c0,.587.476,1.063,1.063,1.063Z" transform="translate(.0855 0)" fill="#0c0c0c"/><path d="M553.332,118.44c0,0-.65-12.99-4.569-13.863-2.611-.582-9.032,3.02-14.897,1.79-2.566-.538-5.022.054-5.293,1.266-.107.48-2.138-3.776,1.991-8.9542c3.286-4.1229,13.973-5.2828,18.727-3.8249c13.165,4.0379,7.399,18.9321,7.399,18.9321l-.672,4.462-2.686.192Z" transform="translate(.0855 0.058246)" fill="#0c0c0c"/><path d="M559.314,107.965c3.875,0,7.016-3.141,7.016-7.016c0-3.8747-3.141-7.0159-7.016-7.0159-3.874,0-7.016,3.1412-7.016,7.0159c0,3.875,3.142,7.016,7.016,7.016Z" transform="translate(.0855 0.058246)" fill="#0c0c0c"/><path d="M534.031,111.06c-.873-.258-1.799-.277-2.682-.053-.435.106-.851.278-1.234.509-.38.226-.73.499-1.041.812-.054.049-.087.117-.091.189s.021.143.069.197c.049.054.117.087.189.091s.143-.021.197-.069l.017-.014c.29-.262.612-.487.959-.668.341-.181.707-.309,1.086-.38.748-.146,1.522-.092,2.243.157l.027.01c.051.02.105.029.16.028.054-.002.108-.014.158-.037.049-.022.094-.054.131-.094.038-.04.066-.087.085-.138.019-.052.027-.106.025-.161-.002-.054-.016-.108-.039-.157s-.056-.093-.097-.13c-.04-.036-.088-.064-.139-.082l-.023-.01Z" transform="translate(.0855 0.058246)" fill="#0c0c0c"/><path d="M540.298,111.832c.692-.319,1.457-.448,2.216-.374.385.033.762.125,1.119.273.362.146.704.338,1.018.57l.017.012c.059.038.13.053.199.04.068-.012.13-.051.171-.107s.06-.127.051-.196-.044-.133-.098-.177c-.34-.282-.715-.52-1.115-.708-.404-.192-.835-.322-1.278-.387-.9-.135-1.821-.026-2.665.316-.099.043-.177.123-.218.223-.04.1-.04.212.002.312.041.1.12.179.22.221.099.042.211.043.312.003l.019-.008.03-.013Z" transform="translate(.0855 0)" fill="#0c0c0c"/><path d="M534.731,124.728c2.55.17,5.084-.516,7.201-1.948.074-.049.16-.076.248-.078.088-.003.176.02.251.066.076.045.138.112.177.191.04.079.056.168.047.256-.17,1.506-.914,4.276-4.075,4.629-2.04.228-3.519-1.339-4.264-2.381-.052-.072-.082-.158-.086-.246-.005-.089.016-.177.059-.254.044-.077.109-.14.187-.182.078-.041.167-.06.255-.053v0Z" transform="translate(.0855 0.058246)" fill="#fff"/><path d="M548.377,94.8184c0,0,16.163.1979,10.59,22.4726l-1.517.074-3.082.15" fill="#0c0c0c"/><g opacity="0.52"><path d="M536.605,122.396h-.017c-.845-.025-2.26-.159-2.243-.791.015-.524,1.609-6.139,1.791-6.778.016-.055.052-.102.102-.13.05-.027.109-.034.164-.019.055.016.101.053.129.103s.035.108.019.163c-.708,2.487-1.764,6.317-1.775,6.671.079.152.949.323,1.825.348.057,0,.112.022.153.061.04.04.064.095.064.152.001.057-.021.112-.061.153s-.094.064-.151.065v.002Z" fill="#0c0c0c"/></g></g></g><path d="M583.384,175.351c-.601,4.542-1.188,10.781-1.712,17.231-2.049,2.181-4.24,4.223-6.558,6.115-1.474,1.197-2.995,2.335-4.563,3.414-8.48,5.788-18.165,9.574-28.323,11.069s-20.523.662-30.312-2.437c-.133-5.992-.315-14.074-.496-21.479-.207-8.541-.416-16.188-.529-18.701-.463-9.973-3.107-16.627-1.108-22.068.597-1.61,1.558-3.062,2.807-4.241c4.656-4.557,16.222-4.453,20.861-4.273.08.004-1.353,10.71,13.91,10.58c11.218-.092,12.059-9.572,12.059-9.572s5.528.575,9.199,1.213c6.005,1.051,9.909,3.254,12.947,6.543c2.834,3.067,4.506,6.322,1.818,26.606Z" fill="#367cff"/><g id="ezZc1MtSrIq24_to" transform="translate(501.922211,162.446378)"><g id="ezZc1MtSrIq24_tr" transform="rotate(5)"><g transform="translate(-502.867264,-163.915542)"><path d="M493.657,141.037l.461-11.423c.011-.252-.031-.502-.123-.736-.092-.235-.231-.447-.41-.624-.178-.177-.392-.315-.626-.405-.235-.091-.486-.131-.737-.118-.463.037-.895.245-1.213.583s-.499.782-.509,1.246l-.099,2.45-3.226-7.845c-.343-.879-1.326-1.738-2.287-1.287-.38.149-.699.422-.905.776-.205.354-.284.767-.224,1.171-.009.001-.018.003-.027.006-.006.004-.012.007-.017.012l-.53-1.355c-.098-.251-.251-.476-.447-.661-.197-.184-.432-.322-.689-.404-.256-.082-.528-.106-.795-.069-.267.036-.522.132-.748.28-.35.239-.607.592-.729.999-.121.406-.099.842.063,1.235l.225.576c-.014.014-.025.031-.033.049-.242-.354-.603-.61-1.017-.723-.413-.112-.854-.074-1.242.108-.419.212-.743.575-.907,1.015-.164.441-.155.926.023,1.361l.56,1.432c-.022-.015-.047-.024-.074-.027-.026-.003-.053,0-.078.01-.029.013-.053.034-.071.06-.303-.255-.683-.404-1.079-.423s-.788.093-1.115.318c-.338.244-.584.595-.698.996s-.089.828.07,1.214l4.722,12.082c.66,1.69,1.81,3.144,3.303,4.177c1.493,1.032,3.259,1.595,5.074,1.616v0c1.565.019,3.075-.573,4.21-1.651c1.135-1.077,1.805-2.554,1.869-4.118l.075-1.903Z" fill="#e98862"/><path d="M531.471,158.947L503.67,201.691c-1.012,1.553-2.366,2.854-3.959,3.803-2.369-1.307-4.656-2.758-6.847-4.346-4.669-3.369-8.889-7.322-12.556-11.761l-5.839-45.277l23.37-3.745l2.665,21.794l10.677-16.414l20.29,13.202Z" fill="#367cff"/><g opacity="0.2"><path d="M483.657,134.046c-.041.016-.087.015-.127-.002-.04-.018-.072-.05-.088-.091l-3.412-8.331c-.016-.041-.016-.086.002-.127.017-.04.049-.072.089-.088.041-.015.086-.014.126.003.039.017.072.048.09.087l3.411,8.332c.017.041.017.087,0,.128-.018.041-.05.073-.091.09v-.001Z" fill="#0c0c0c"/></g><g opacity="0.2"><path d="M486.912,132.606c-.04.016-.086.015-.126-.002s-.072-.05-.089-.09l-3.057-7.465c-.01-.021-.015-.043-.016-.066s.003-.045.011-.066c.009-.022.021-.041.037-.057s.035-.029.056-.038c.021-.008.044-.012.066-.012.023,0,.045.006.066.015s.039.023.055.039c.015.017.027.037.034.058l3.057,7.465c.009.021.013.042.013.064s-.005.044-.013.064c-.008.021-.021.039-.037.054-.015.016-.034.028-.054.036l-.003.001Z" fill="#0c0c0c"/></g><g opacity="0.2"><path d="M480.14,135.625c-.041.016-.086.015-.126-.002-.041-.018-.072-.05-.089-.091l-2.721-6.645c-.017-.041-.017-.087,0-.128s.05-.073.091-.09.087-.017.127,0c.041.018.074.05.09.091l2.724,6.644c.016.041.016.087-.001.128s-.05.073-.091.09l-.004.003Z" fill="#0c0c0c"/></g></g></g></g><path d="M511.486,191.21c-.068-.002-.131-.03-.179-.078-.048-.047-.076-.111-.079-.178l-.534-11.728c-.003-.071.022-.141.071-.194.048-.052.115-.084.186-.087.072-.003.141.022.194.07s.084.116.087.187l.533,11.727c.004.072-.021.141-.069.194-.048.052-.115.084-.187.087h-.023Z" fill="#0c0c0c"/><path d="M590.923,180.155c-4.109,7.083-9.465,13.365-15.809,18.542-1.474,1.197-2.995,2.335-4.563,3.414L559.692,160.8l24.454-6.432l6.777,25.787Z" fill="#367cff"/><path d="M570.789,201.949c-.078.051-.162.108-.238.162-.077.054-.155.107-.233.157l-8.276-31.47.523-.136l8.224,31.287Z" fill="#0c0c0c"/></g><path d="M310.359,299.732c38.064,0,68.921-30.857,68.921-68.921s-30.857-68.92-68.921-68.92c-38.063,0-68.92,30.856-68.92,68.92s30.857,68.921,68.92,68.921Z" transform="translate(0-1)" fill="#fff"/><path d="M379.28,230.809c0,13.631-4.042,26.956-11.615,38.29s-18.337,20.167-30.93,25.383c-12.594,5.217-26.451,6.582-39.82,3.922-13.369-2.659-25.649-9.223-35.288-18.861-9.639-9.639-16.203-21.919-18.862-35.288s-1.294-27.227,3.922-39.82c5.216-12.594,14.05-23.357,25.384-30.93s24.658-11.615,38.289-11.615c9.06-.034,18.038,1.726,26.414,5.178c8.377,3.451,15.988,8.527,22.395,14.933c6.406,6.406,11.481,14.017,14.933,22.394s5.211,17.354,5.178,26.414v0Z" opacity="0.09" fill="#367cff"/><g transform="matrix(.99998 0.006385-.006385 0.99998 1.307959-1.909239)"><path d="M279.851,190.16c0,0-.693,10.404-3.034,14.179-6.738,10.867-8.691,23.092-1.942,29.48c6.748,6.389,49.79,6.476,53.051-8.214c2.743-12.368-3.146-13.698-4.579-23.9-.649-4.617-2.433-14.297-2.433-14.297" fill="#0a0a0a"/><path d="M316.784,223.449c-.074-.01-.898,13.671-16.791,12.48-11.003-.824-14.926-12.497-15.178-12.497c1.186-.252,3.184-.619,3.712-.9c1.732-.931,3.876-1.899,4.434-5.264.323-1.937-.224-11.86-.053-13.822l16.888,3.769c-.235,4.143-1.887,13.75,3.902,15.45.96.28,1.998.538,3.086.784Z" fill="#e98862"/><path d="M310.03,218.738c-.264-.853-.435-1.732-.508-2.621-.185-2.031-.148-4.075.11-6.097-3.432-.463-6.666-1.88-9.334-4.089-.313,1.159-2.038,6.219-1.56,7.32.905,2.08,5.144,5.487,11.292,5.487Z" opacity="0.5" fill="#0c0c0c"/><path d="M307.847,214.476c-6.659.645-15.275-2.02-17.059-10.887l-1.611-8.001c-1.784-8.867,1.426-16.993,9.775-18.673c8.349-1.681,16.037,4.25,17.821,13.119l.713,3.542c.685,3.403,2.241,19.75-9.639,20.9Z" fill="#e98862"/><path d="M303.613,202.858c1.096-.131,1.907-.888,1.811-1.692s-1.062-1.35-2.158-1.219-1.906.888-1.81,1.692s1.062,1.35,2.157,1.219Z" opacity="0.1" fill="#0c0c0c"/><path d="M315.192,199.643c.099.802,1.064,1.345,2.16,1.218.189-.023.376-.065.557-.126.05-.957.054-1.878.026-2.73-.305-.076-.621-.095-.932-.054-1.095.128-1.906.886-1.811,1.692Z" opacity="0.1" fill="#0c0c0c"/><path d="M310.351,202.123h.016c.338-.071.672-.161,1.001-.269.49-.161,1.129-.433,1.042-.876-.102-.506-2.582-5.679-2.866-6.267-.026-.048-.07-.085-.122-.101-.053-.017-.11-.013-.159.011-.05.023-.089.065-.108.117-.02.051-.019.108.002.159c1.058,2.206,2.763,5.825,2.831,6.165-.053.159-.866.469-1.706.638-.053.012-.1.044-.13.09-.031.045-.043.1-.034.154.008.054.037.103.081.136.043.034.097.049.152.044v-.001Z" opacity="0.5" fill="#0c0c0c"/><path d="M282.516,198.46l7.485-1.462c5.654-2.367,7.258-12.218,7.258-12.218s6.978,6.645,23.655,2.627c0,0-3.623-23.281-28.247-16.214-7.941,2.278-13.565,10.372-12.728,21.091.585,7.514,2.577,6.176,2.577,6.176Z" fill="#0a0a0a"/><path d="M291.85,206.186c-2.537.511-5.14-1.789-5.649-4.327-.508-2.538,1.264-4.35,3.802-4.861l1.649,1.437l2.381,7.312-2.183.439Z" fill="#e98862"/><path d="M311.344,190.586c.635-.449,1.377-.722,2.152-.791.389-.037.781-.015,1.164.064.385.079.76.205,1.114.377l.011.005c.04.016.083.016.122,0c.039-.015.071-.045.089-.083s.021-.081.008-.121c-.014-.04-.042-.074-.079-.094-.375-.198-.774-.348-1.187-.446-.416-.101-.844-.14-1.271-.113-.865.048-1.701.326-2.421.807-.028.018-.052.041-.071.068s-.032.058-.038.09c-.007.033-.007.066-.001.099.007.032.02.063.039.09.018.028.042.051.07.069s.059.03.092.035c.032.006.066.005.098-.002.032-.008.062-.022.089-.041l.006-.004.014-.009Z" fill="#0c0c0c"/><path d="M304.507,191.531c-.85-.169-1.73-.107-2.548.18-.404.139-.785.339-1.129.592-.344.249-.655.54-.926.867-.028.033-.042.075-.039.117.003.043.022.082.053.111.032.029.073.044.116.043s.083-.019.113-.049l.009-.009c.261-.295.558-.556.884-.776.323-.22.677-.39,1.051-.505.742-.232,1.532-.265,2.291-.093l.019.004c.031.009.064.011.097.006.033-.004.064-.015.092-.032s.053-.039.073-.066c.019-.026.033-.056.041-.088s.009-.065.004-.098c-.006-.032-.017-.063-.035-.091-.017-.028-.04-.052-.067-.071s-.057-.032-.089-.039l-.01-.003Z" fill="#0c0c0c"/><path d="M312.583,203.871c-2.164,1.1-4.632,1.448-7.015.989-.083-.016-.168-.008-.246.023s-.145.084-.195.152c-.049.068-.078.149-.083.233-.005.083.014.167.055.24.712,1.252,2.396,3.393,5.287,2.521c1.867-.564,2.572-2.484,2.834-3.672.018-.083.012-.168-.017-.247s-.08-.148-.147-.199-.147-.082-.231-.089c-.083-.007-.168.01-.242.049Z" fill="#fff"/><g id="ezZc1MtSrIq51_to" transform="translate(312.718506,193.203995)"><path d="M312.718,194.249c.578,0,1.046-.468,1.046-1.045s-.468-1.045-1.046-1.045c-.577,0-1.045.468-1.045,1.045s.468,1.045,1.045,1.045Z" transform="translate(-312.718506,-193.203995)" fill="#0c0c0c"/></g><g id="ezZc1MtSrIq52_to" transform="translate(304.054807,194.962502)"><path d="M302.673,196.008c.577,0,1.045-.468,1.045-1.046c0-.577-.468-1.045-1.045-1.045s-1.045.468-1.045,1.045c0,.578.468,1.046,1.045,1.046Z" transform="translate(-302.672989,-194.962502)" fill="#0c0c0c"/></g><path d="M290.006,196.875c5.031-1.872,6.701-5.347,7.215-7.933.333-1.724.302-3.499-.091-5.211l-.156.043c.387,1.689.417,3.441.088,5.143-.508,2.543-2.152,5.962-7.113,7.807l.057.151Z" fill="#0c0c0c"/></g><g id="ezZc1MtSrIq54_to" transform="translate(345.200653,247.148567)"><g id="ezZc1MtSrIq54_tr" transform="rotate(0)"><g transform="translate(-345.200653,-247.148567)"><path d="M353.621,220.724l3.012-10.221c.066-.224.179-.433.33-.612.151-.178.337-.324.548-.426.21-.103.44-.161.673-.17.234-.009.468.03.685.116.397.171.717.484.897.877s.207.839.077,1.251l-.646,2.192l5.193-5.96c.566-.673,1.69-1.136,2.403-.452.291.246.491.583.567.956.075.374.021.762-.152,1.101.007.004.015.008.021.014.005.004.009.009.012.015l.873-1.038c.161-.192.364-.345.593-.449.228-.104.477-.155.728-.151.251.005.498.065.722.177.225.112.422.273.577.471.237.316.358.704.344,1.099-.015.395-.165.774-.425,1.071l-.371.442c.008.017.013.035.014.054.32-.24.715-.358,1.114-.334.4.025.777.191,1.065.468.307.312.485.729.497,1.167.013.437-.139.864-.427,1.194l-.923,1.096c.024-.006.049-.007.074-.002.024.006.046.017.066.032.021.02.037.046.044.075.345-.134.724-.151,1.08-.049.355.103.667.319.888.617.225.316.337.699.317,1.087-.019.388-.169.758-.425,1.05l-7.781,9.253c-1.089,1.294-2.539,2.233-4.165,2.698-1.626.464-3.354.433-4.962-.091v0c-1.386-.452-2.542-1.426-3.221-2.716s-.829-2.795-.417-4.193l.501-1.709Z" fill="#e98862"/><g opacity="0.2"><path d="M362.094,215.303c.032.025.071.037.112.034.04-.003.077-.022.104-.052l4.93-5.674c.028-.031.041-.072.038-.113s-.022-.079-.053-.106-.072-.041-.113-.038-.08.022-.107.053l-4.931,5.673c-.013.016-.023.034-.03.053-.006.02-.009.04-.007.06.001.021.007.041.016.059s.022.035.037.048l.004.003Z" fill="#0c0c0c"/></g><g opacity="0.2"><path d="M364.537,217.546c.031.025.071.038.111.035.04-.004.077-.022.104-.053l5.503-6.332c.013-.015.023-.033.03-.052.006-.02.009-.04.007-.061-.001-.02-.007-.04-.016-.058s-.022-.035-.037-.048c-.032-.026-.072-.038-.113-.035-.041.002-.079.021-.106.051l-5.499,6.331c-.014.016-.024.034-.031.053-.006.019-.009.04-.007.06.001.021.007.041.016.059s.022.034.037.048l.001.002Z" fill="#0c0c0c"/></g><g opacity="0.2"><path d="M367.168,219.992c.031.025.071.038.111.034.04-.003.077-.022.104-.052l4.39-5.05c.024-.032.036-.071.032-.111s-.023-.076-.053-.103c-.03-.026-.069-.039-.109-.038-.04.002-.077.019-.105.047l-4.39,5.051c-.013.016-.024.034-.03.053-.007.019-.009.04-.008.06.002.021.007.041.016.059s.022.034.038.048l.004.002Z" fill="#0c0c0c"/></g><path d="M371.955,225.186l-11.647,52.838c-.027.119-.054.242-.086.361-2.616,2.737-5.449,5.257-8.473,7.536-.608.452-1.216.899-1.84,1.329-.386.043-.774.065-1.162.065-2.076-.001-4.115-.547-5.913-1.585-1.797-1.038-3.291-2.53-4.329-4.327l-22.197-38.407l20.497-11.84l6.945,12.018l5.089-23.084l23.116,5.096Z" fill="#0cbc8b"/></g></g></g><path d="M336.11,249.276c-.07.839-.209,2.335-.403,4.304-.968,10.065-3.233,32.498-4.282,42.864-13.253,4.237-27.474,4.381-40.81.414h-.005c-9.849-2.948-18.911-8.065-26.522-14.976.044-9.269-.091-19.695-.715-26.398-1.867-20.029-.102-23.165,2.797-26.064.237-.237.485-.468.732-.694c2.996-2.722,6.757-4.497,12.239-5.24c3.625-.489,9.08-.844,9.08-.844s.463,9.349,11.475,9.865c14.993.705,13.992-9.865,14.068-9.865c3.771,0,12.163.236,17.456,2.931.006,0,.006,0,.011.006c1.066.519,2.036,1.215,2.867,2.06c6.063,6.423,3.072,9.17,2.012,21.637Z" fill="#0cbc8b"/><path d="M333.799,271.841c-.007,0-.014,0-.021,0-.042-.006-.08-.029-.106-.063s-.037-.077-.031-.119l1.848-18.618c.002-.022.009-.042.019-.061.011-.018.025-.034.042-.047s.037-.022.058-.027c.02-.006.042-.007.063-.003.042.006.081.028.106.062.026.034.037.077.032.12l-1.848,18.618c-.006.039-.026.074-.055.099-.03.026-.068.039-.107.039v0Z" fill="#0c0c0c"/><path d="M322.614,270.944l10.1-4.511c.222-.099.461-.15.704-.151s.483.049.706.145c.222.097.422.239.587.418.165.178.291.389.37.618.133.429.102.891-.087,1.298s-.522.73-.935.905l-2.166.968l8.207.085c.915-.007,2.037.569,1.976,1.593.003.396-.129.781-.373,1.092s-.587.531-.971.622c.002.009.003.017.003.026-.001.007-.002.013-.003.02l1.407-.01c.26-.001.518.055.754.165.235.111.444.272.609.473.166.201.284.436.348.689.063.253.069.516.017.771-.09.401-.315.758-.637,1.013-.321.254-.721.391-1.132.386l-.598.004c-.008.018-.019.034-.033.047.406.091.765.323,1.015.655s.374.742.349,1.156c-.04.453-.25.874-.587,1.179s-.777.472-1.231.468l-1.488.01c.022.014.039.034.051.057.012.022.019.048.019.074-.001.03-.011.059-.029.085.339.181.609.469.768.819s.199.742.113,1.117c-.098.391-.325.738-.644.985-.319.246-.712.377-1.116.372l-12.55.09c-1.755.012-3.475-.5-4.938-1.471s-2.602-2.357-3.272-3.98v0c-.578-1.399-.588-2.969-.027-4.375.561-1.407,1.648-2.539,3.031-3.156l1.683-.751Z" fill="#e98862"/><g opacity="0.2"><path d="M332.608,273.982c0,.043.017.084.047.114.03.031.071.048.114.048l7.805.07c.043,0,.084-.016.114-.046.031-.03.048-.071.048-.114.001-.043-.016-.084-.046-.115-.03-.03-.071-.047-.114-.048l-7.805-.07c-.043,0-.084.017-.114.047-.031.03-.048.071-.048.114h-.001Z" fill="#0c0c0c"/></g><g opacity="0.2"><path d="M332.482,277.425c0,.043.017.084.047.114.031.03.072.047.114.047l8.71.079c.043,0,.084-.017.114-.048.03-.03.047-.071.047-.114-.001-.042-.018-.082-.048-.112s-.071-.048-.113-.049l-8.71-.079c-.043,0-.084.017-.114.048-.031.03-.048.071-.048.114h.001Z" fill="#0c0c0c"/></g><g opacity="0.2"><path d="M332.324,281.149c0,.043.017.084.047.114.03.031.071.048.114.048l6.948.062c.043,0,.084-.017.114-.047s.047-.071.047-.114-.017-.084-.047-.114-.071-.047-.114-.047l-6.948-.063c-.043,0-.084.017-.114.048-.03.03-.047.071-.047.114v-.001Z" fill="#0c0c0c"/></g><path d="M325.508,288.929l-34.892,7.929h-.006c-9.848-2.948-18.911-8.065-26.521-14.977-.818-.742-1.618-1.502-2.399-2.281-1.363-1.36-2.667-2.775-3.911-4.244l4.884-39.293c.533-3.167,2.302-5.993,4.919-7.856c2.616-1.863,5.866-2.61,9.033-2.077c3.168.533,5.994,2.302,7.856,4.919c1.863,2.616,2.611,5.866,2.078,9.033l-3.088,36.893l38.905-8.807l3.142,20.761Z" fill="#0cbc8b"/><path d="M275.591,278.424c-.022.002-.043-.001-.063-.007-.02-.007-.039-.017-.055-.031s-.029-.031-.039-.05c-.009-.019-.015-.04-.017-.061-.001-.021.001-.042.008-.063.006-.02.017-.038.031-.055.014-.016.031-.029.05-.038.019-.01.039-.016.06-.017l7.801-1.668c.021-.003.042-.002.063.003s.04.014.057.027c.017.012.032.028.042.046.011.018.019.039.022.06s.002.042-.003.063c-.005.02-.015.039-.027.056-.013.018-.029.032-.047.043s-.038.018-.059.021l-7.803,1.668c-.007.002-.014.003-.021.003v0Z" fill="#0c0c0c"/><path d="M325.507,288.929c.009.041.002.084-.02.12s-.057.062-.098.073l-33.897,7.989c-.215-.06-.425-.118-.635-.183l34.295-8.075-3.055-20.442-38.674,8.343c-.025.004-.051.003-.075-.005-.024-.007-.047-.02-.065-.037-.016-.02-.028-.042-.036-.066-.007-.024-.01-.049-.007-.074l2.168-21.083c.004-.021.012-.041.023-.058.012-.018.027-.034.044-.046.018-.012.037-.02.058-.025.021-.004.042-.004.063,0c.042.006.08.029.105.064.025.034.036.077.03.119l-2.136,20.868l38.572-8.36c.021-.006.042-.007.064-.004.021.004.042.013.059.025.019.01.035.024.048.04.013.017.022.036.028.056l3.141,20.761Z" fill="#0c0c0c"/><path d="M63.196,379.141c34.9023,0,63.196-28.294,63.196-63.196c0-34.903-28.2937-63.196-63.196-63.196s-63.196122,28.293-63.196122,63.196c0,34.902,28.293922,63.196,63.196122,63.196Z" fill="#fff"/><path d="M63.196,379.141c34.9023,0,63.196-28.294,63.196-63.196c0-34.903-28.2937-63.196-63.196-63.196s-63.196122,28.293-63.196122,63.196c0,34.902,28.293922,63.196,63.196122,63.196Z" opacity="0.09" fill="#367cff"/><path d="M77.6865,308.842c-.0672-.009-.8107,12.332-15.1484,11.257-9.9258-.742-13.4645-11.273-13.6915-11.273c1.1342-.189,2.2531-.46,3.3477-.812c1.5627-.84,3.4967-1.714,4.0002-4.749.2905-1.749-.2017-10.699-.0505-12.469l15.236,3.401c-.2151,3.738-1.7031,12.404,3.5194,13.938.8682.253,1.8043.487,2.7871.707Z" fill="#e98862"/><path d="M71.5931,304.592c-.2389-.77-.3926-1.564-.4584-2.367-.1673-1.831-.1339-3.675.0996-5.5-3.0967-.418-6.0141-1.696-8.4207-3.689-.283,1.045-1.8388,5.61-1.4079,6.603.8145,1.881,4.641,4.953,10.1874,4.953Z" opacity="0.5" fill="#0c0c0c"/><g id="ezZc1MtSrIq79_tr" transform="translate(60.663302,282.430237) rotate(5.270544)"><g transform="translate(-60.663301,-282.430237)"><path d="M45.7925,280.1c0,0,.6848,19.033,13.3887,19.908l2.1518-25.099L45.7925,280.1Z" fill="#0a0a0a"/><path d="M48.2391,303.896c4.1565,0,7.526-3.369,7.526-7.526c0-4.156-3.3695-7.526-7.526-7.526s-7.5261,3.37-7.5261,7.526c0,4.157,3.3695,7.526,7.5261,7.526Z" fill="#0a0a0a"/><path d="M69.206,301.267c-6.0343.077-13.5781-2.968-14.5131-11.074l-.8435-7.316c-.9355-8.106,2.5639-15.171,10.1965-16.049c7.632-.88,14.0945,5.032,15.03,13.139l.3734,3.238c.3588,3.112.5234,17.925-10.2433,18.062Z" fill="#e98862"/><path d="M77.2621,282.987c.5226,0,.9462-.423.9462-.946s-.4236-.946-.9462-.946-.9463.423-.9463.946.4237.946.9463.946Z" fill="#0c0c0c"/><path d="M67.5901,284.093c.5226,0,.9462-.423.9462-.946c0-.522-.4236-.946-.9462-.946s-.9463.424-.9463.946c0,.523.4237.946.9463.946Z" fill="#0c0c0c"/><path d="M72.3899,290.352h.0151c.3092-.038.6161-.093.9194-.165.4529-.11,1.0501-.304,1.0033-.709-.0538-.462-1.8931-5.3-2.1029-5.85-.0091-.023-.0228-.045-.0403-.064-.0174-.018-.0384-.033-.0616-.043-.0233-.011-.0483-.017-.0737-.017-.0255-.001-.0508.003-.0746.012-.0237.009-.0455.023-.064.041-.0185.017-.0333.038-.0437.061-.0104.024-.0161.049-.0168.074s.0035.051.0126.075c.7849,2.059,2.0443,5.444,2.0798,5.756-.4842.272-1.0268.425-1.5822.444-.0512.004-.0987.028-.1322.067-.0334.039-.05.09-.0461.141s.028.099.067.132c.039.034.0897.05.1409.046v-.001Z" opacity="0.5" fill="#0c0c0c"/><path d="M71.0255,293.725c1.2396-.071,2.4453-.432,3.5199-1.054.0423-.026.0729-.067.0855-.116.0126-.048.0061-.099-.018-.143-.0241-.043-.064-.076-.1115-.091-.0476-.015-.099-.011-.1437.011-2.3208,1.284-4.5404,1.358-6.4179.215-.0379-.024-.0771-.046-.1173-.067-.0465-.018-.0982-.017-.1444.002-.0461.019-.0832.055-.1035.101-.0203.045-.0222.097-.0054.144s.0511.086.0957.108c.0145.008.0393.023.0732.044.9871.603,2.1318.898,3.2874.846v0Z" opacity="0.5" fill="#0c0c0c"/><path d="M47.6442,284.956l6.8391-.749c5.2607-1.699,7.4464-10.436,7.4464-10.436s4.7141,5.36,18.6839,2.913c0,0-.5412-18.01-21.7874-15.475-7.3974.884-12.9755,8.303-13.0331,18.002-.0398,6.798,1.8511,5.745,1.8511,5.745Z" fill="#0a0a0a"/><path d="M73.9155,279.68c.6842-.379,1.4574-.567,2.239-.544.3859.008.7684.075,1.1346.197.3637.12.7109.285,1.0334.491.0322.021.0554.053.0645.09s.0036.076-.0155.109c-.0191.034-.0502.058-.0869.069s-.0761.007-.1101-.011l-.0097-.005c-.3055-.182-.6326-.324-.9737-.423-.3378-.101-.6889-.151-1.0415-.146-.7014.003-1.3895.192-1.9942.548l-.0145.009c-.025.016-.053.028-.0824.033s-.0596.005-.0888-.002c-.0292-.006-.0567-.019-.081-.036-.0243-.018-.0448-.04-.0604-.065-.0155-.026-.0257-.054-.0301-.084-.0043-.029-.0026-.06.005-.089.0076-.028.0209-.056.0392-.079.0183-.024.0411-.044.0672-.058l.0059-.004Z" fill="#0c0c0c"/><path d="M67.7862,280.808c-.6687-.212-1.3818-.243-2.0663-.089-.3447.075-.6761.202-.9828.377-.31.173-.597.385-.8543.63l-.0081.007c-.0292.022-.0654.032-.1017.029s-.07-.02-.0949-.047c-.0249-.026-.0392-.061-.0401-.097-.0009-.037.0115-.072.035-.1.2682-.273.5697-.511.8973-.709.3297-.201.6877-.352,1.062-.446.7569-.197,1.5526-.186,2.304.03.0291.008.0563.021.0801.039s.0437.041.0585.067.0242.055.0276.085c.0033.03.0007.06-.0079.089-.0085.028-.0228.055-.0419.078s-.0427.042-.0693.056c-.0267.014-.0558.022-.0857.024s-.0599-.002-.0883-.011h-.0059l-.0173-.012Z" fill="#0c0c0c"/><path d="M71.155,295.558c.2244-.01.4475-.038.6671-.085.0488-.012.0911-.042.1178-.085s.0358-.094.0254-.143-.0394-.093-.0811-.121-.0927-.039-.1423-.03c-.3428.1-.7031.126-1.0567.076-.3537-.051-.6926-.176-.994-.367-.0398-.033-.0909-.048-.142-.043s-.0982.03-.1307.07-.0479.091-.0428.142c.0052.051.0304.098.0702.131.5.344,1.1039.505,1.7091.455v0Z" opacity="0.52" fill="#0c0c0c"/><path d="M66.2796,290.502c.995-.035,1.7809-.655,1.7554-1.385s-.8529-1.293-1.8479-1.258c-.995.034-1.7809.654-1.7553,1.384s.8528,1.293,1.8478,1.259Z" opacity="0.1" fill="#0c0c0c"/><path d="M76.9278,288.487c.028.729.8549,1.291,1.8501,1.258.172-.006.3429-.03.51-.071.1178-.857.1899-1.684.2291-2.452-.2679-.092-.5505-.132-.8333-.12-.993.034-1.7785.652-1.7559,1.385Z" opacity="0.1" fill="#0c0c0c"/><path d="M55.452,292.608c-2.3196.269-4.486-1.997-4.7534-4.317-.2673-2.32,1.4649-3.815,3.7846-4.083l1.3745,1.416l1.5886,6.753-1.9943.231Z" fill="#e98862"/></g></g><path d="M99.1,321.841c-.043,4.309-1.5224,9.447-2.0496,15.655-.1399,1.657-3.6963,6.45-4.2127,11.781-.651,6.789.7967,17.376.9903,21.954-9.9963,5.531-21.304,8.252-32.7224,7.873s-22.5209-3.843-32.1285-10.025c-.2582-11.76-.5648-26.279-.9576-29.76-1.2749-11.49-.9306-18.758.9092-22.158c3.0072-5.552,8.3599-7.246,13.96-8.01c3.4214-.463,8.5589-.791,8.5589-.791s.4358,8.806,10.8184,9.296c14.1322.667,13.1908-9.296,13.2607-9.296c5.1267,0,14.8423,1.226,18.5649,3.766c3.9487,2.684,5.0569,5.869,5.0084,9.715Z" fill="#ffc239"/><g id="ezZc1MtSrIq95_to" transform="translate(31.2741,344.419495)"><g id="ezZc1MtSrIq95_tr" transform="rotate(0)"><path d="M50.2748,328.544L31.102,370.384c-7.3615-4.346-13.7664-10.138-18.8286-17.026L28.267,318.455l22.0078,10.089Z" transform="translate(-31.2741,-344.419495)" fill="#ffc239"/></g></g><g id="ezZc1MtSrIq96_to" transform="translate(95.388248,343.403)"><g id="ezZc1MtSrIq96_tr" transform="rotate(0)"><path d="M114.588,352.725c-3.756,5.241-8.289,9.877-13.444,13.751-1.6961,1.28-3.4576,2.473-5.277,3.572L76.1885,326.785l22.0348-10.027l16.3647,35.967Z" transform="translate(-95.388248,-343.403)" fill="#ffc239"/></g></g><path d="M194.717,131.594c36.339,0,65.798-29.458,65.798-65.7973c0-36.3388-29.459-65.797188-65.798-65.797188-36.338,0-65.797,29.458388-65.797,65.797188c0,36.3393,29.459,65.7973,65.797,65.7973Z" fill="#fff"/><g transform="translate(-.000015-.181782)"><path d="M194.717,131.594c36.339,0,65.798-29.458,65.798-65.7973c0-36.3388-29.459-65.797188-65.798-65.797188-36.338,0-65.797,29.458388-65.797,65.797188c0,36.3393,29.459,65.7973,65.797,65.7973Z" opacity="0.09" fill="#367cff"/><path d="M208.244,61.2729c-.075-.0097-.915,13.9116-17.087,12.6958-11.196-.8387-15.188-12.7174-15.445-12.7174c1.207-.2566,2.699-.6455,3.292-.7795c1.292-.2998,2.462-.986,3.355-1.9673.892-.9813,1.465-2.211,1.642-3.5258.327-1.9732-.228-12.0685-.057-14.0649l17.185,3.8357c-.24,4.217-1.92,13.9923,3.971,15.7223.98.2868,2.036.5504,3.144.8011Z" fill="#e98862"/><path d="M201.371,56.4779c-.269-.8676-.443-1.762-.517-2.6672-.189-2.0658-.151-4.1461.112-6.2037-3.493-.4715-6.784-1.9134-9.498-4.1617-.32,1.1787-2.074,6.3286-1.589,7.4486.919,2.1174,5.235,5.584,11.492,5.584Z" opacity="0.52" fill="#0c0c0c"/><g id="ezZc1MtSrIq102_tr" transform="translate(193.175811,30.082575) rotate(6.173684)"><g transform="translate(-193.175811,-30.082575)"><path d="M207.44,26.3962c0,0,4.167-4.5156,3.844-13.1165-.249-6.65938-5.475-1.3696-5.475-1.3696s-.227-4.79324-3.551-3.71195-4.346,6.34465-4.346,6.34465" fill="#0c0c0c"/><path d="M184.728,11.9368c0,0-16.593,4.8766-6.326,26.6994l1.516-.1711l3.076-.3464" fill="#0c0c0c"/><path d="M198.565,52.0454c-6.778.6095-15.528-2.1604-17.282-11.196L179.7,32.6967c-1.755-9.0377,1.569-17.282,10.076-18.9335c8.507-1.6521,16.288,4.4382,18.043,13.4737l.7,3.6092c.219,1.2434.353,2.5003.401,3.7619.152,3.3354.369,8.4046-1.234,12.152-1.512,3.5387-4.789,4.8965-9.121,5.2854Z" fill="#e98862"/><path d="M199.59,43.1128c1.242-.0234,2.46-.3381,3.558-.9189.024-.0108.045-.0263.063-.0456s.031-.042.04-.0667.012-.0509.011-.077c-.002-.0262-.009-.0517-.021-.0751s-.028-.0441-.048-.061-.043-.0295-.068-.0372c-.025-.0076-.052-.0102-.078-.0074s-.051.0108-.074.0236c-2.367,1.1948-4.588,1.1835-6.421-.0291-.037-.0256-.075-.0493-.115-.071-.022-.0112-.047-.0178-.073-.0195-.025-.0016-.051.0018-.075.01s-.046.0211-.065.0379-.035.0373-.046.0601-.018.0477-.02.0731c-.001.0254.002.0509.01.075.009.0241.021.0464.038.0655s.037.0347.06.046c.015.0081.039.0242.072.0462.963.6403,2.096.9784,3.252.9711v0Z" opacity="0.5" fill="#0c0c0c"/><path d="M199.65,44.9509c.225-.0007.449-.0205.67-.0592.025-.0043.049-.0134.07-.027.022-.0135.041-.0312.055-.0519.015-.0208.026-.0442.031-.069.006-.0249.007-.0505.002-.0756-.004-.0251-.013-.0491-.027-.0706-.013-.0215-.031-.0402-.052-.0549-.02-.0147-.044-.0252-.069-.0309s-.05-.0063-.075-.002c-.347.0868-.708.0987-1.059.0351-.352-.0636-.686-.2014-.98-.4042-.038-.0327-.088-.0489-.139-.0452-.05.0037-.097.0271-.131.0651-.033.038-.051.0876-.048.1382s.025.0981.062.1324c.486.3635,1.084.5472,1.69.5197v0Z" opacity="0.52" fill="#0c0c0c"/><path d="M205.783,33.1227c.59,0,1.067-.4779,1.067-1.0674s-.477-1.0673-1.067-1.0673c-.589,0-1.067.4779-1.067,1.0673s.478,1.0674,1.067,1.0674Z" fill="#0c0c0c"/><path d="M195.405,34.3358c.589,0,1.067-.4779,1.067-1.0673c0-.5895-.478-1.0673-1.067-1.0673s-1.067.4778-1.067,1.0673c0,.5894.478,1.0673,1.067,1.0673Z" fill="#0c0c0c"/><path d="M182.346,43.4995c-2.585.502-5.218-1.857-5.721-4.4424-.502-2.5854,1.318-4.4177,3.903-4.9196l1.667,1.4734l2.373,7.4572-2.222.4314Z" fill="#e98862"/><path d="M184.17,38.8686c0,0-1.444-12.9729,2.298-14.4673c2.493-.9958,9.433,1.5391,15.045-.6214c2.456-.9457,4.984-.7531,5.447.404.183.4578.531-6.6642-4.391-11.1309-3.919-3.55587-14.506-2.8442-18.981-.6353-12.393,6.1161-3.492,22.3791-3.492,22.3791l1.382,4.3123l2.692-.2405Z" fill="#0c0c0c"/><g opacity="0.52"><path d="M201.182,39.9002h.016c.834-.1614,2.215-.5202,2.098-1.1437-.099-.5169-2.582-5.8234-2.864-6.4264-.012-.0257-.029-.0488-.05-.0679s-.045-.0339-.072-.0435-.055-.014-.083-.0127-.056.0082-.082.0203c-.026.012-.049.029-.068.0499s-.034.0455-.043.0722c-.01.0267-.014.055-.013.0833s.008.0561.02.0818c1.101,2.3498,2.763,5.9714,2.831,6.3237-.054.1614-.889.4729-1.752.638-.057.0085-.108.0393-.142.0857-.035.0464-.049.1045-.041.1615.009.0571.039.1085.086.1428.046.0344.104.0489.161.0404l-.002-.0054Z" fill="#0c0c0c"/></g><path d="M201.771,26.8977c.835-.3999,1.761-.5672,2.683-.4841.452.038.895.1435,1.316.3131.415.1651.808.382,1.17.6455.067.0464.113.1169.129.1968s.001.163-.043.2316-.113.1176-.192.1366c-.08.0189-.163.0063-.233-.0351l-.025-.0086c-.327-.2091-.679-.3763-1.049-.4976-.363-.1212-.742-.1867-1.124-.1942-.755-.021-1.501.1577-2.164.518l-.028.0156c-.054.0308-.113.0507-.175.0585-.061.0078-.124.0034-.184-.0129s-.116-.0444-.165-.0824-.09-.0854-.121-.1393c-.031-.054-.051-.1135-.058-.1751-.008-.0616-.004-.1242.013-.1841.016-.0599.044-.116.082-.1651s.085-.0902.139-.121l.029-.0162Z" fill="#0c0c0c"/><path d="M195.652,28.5513c-.727-.2034-1.494-.2113-2.225-.0232-.371.0924-.726.2406-1.053.4395-.334.2003-.641.4416-.914.7182l-.018.0172c-.059.0571-.138.0889-.22.0886s-.16-.0325-.219-.09-.092-.1355-.094-.2176.028-.1615.084-.2216c.293-.3379.628-.6374.996-.8914.372-.259.782-.4608,1.214-.5987.432-.1425.882-.225,1.336-.2453.466-.0256.933.0149,1.387.1205.122.0285.228.1044.294.2109s.087.235.059.3572c-.029.1221-.105.2279-.211.2941-.107.0662-.235.0873-.358.0588l-.027-.0076-.031-.0096Z" fill="#0c0c0c"/><path d="M198.925,18.3027c1.846-.7479,2.449-3.5562,1.348-6.2725-1.101-2.71641-3.489-4.31218-5.334-3.5643-1.846.74789-2.449,3.5562-1.349,6.2726c1.101,2.7163,3.49,4.3121,5.335,3.5642Z" fill="#0c0c0c"/></g></g><path d="M230.596,75.6585c.065,4.4597-1.678,9.4735-2.259,16.2625-.119,1.3772-.398,4.4113-.77,8.365-.607,6.547-1.468,15.601-2.221,23.762-10.771,5.653-22.896,8.214-35.033,7.399-12.137-.814-23.811-4.973-33.729-12.015-.237-.177-.474-.349-.71-.516-.63-9.226-1.372-18.909-2.05-25.0261-1.275-11.4208-3.012-17.1071-2.039-20.9481.078-.3271.183-.6473.312-.9576c2.803-6.7998,11.728-9.8338,17.774-10.6515c3.691-.5003,9.243-.8608,9.243-.8608s.468,9.5111,11.673,10.0383c15.257.7209,14.24-10.0383,14.315-10.0383c2.47,0,15.924,1.7968,19.286,3.9917.564.3659,1.103.7684,1.614,1.205c1.461,1.2184,2.631,2.7475,3.426,4.4757.795,1.7283,1.194,3.6121,1.168,5.5142Z" fill="#a6442e"/><path d="M174.422,82.5555L156.584,119.433c-.237-.178-.474-.35-.711-.517-6.915-5.071-12.78-11.436-17.268-18.742l13.18-27.2319.522-1.0813l22.115,10.6947Z" fill="#a6442e"/><path d="M172.701,86.7997L156.476,119.352c-.108-.081-.21-.156-.317-.226l16.203-32.493c.023-.0453.063-.0796.111-.0957.049-.016.101-.0126.147.0096.044.0228.078.0623.093.1097s.011.0989-.012.1431v0Z" fill="#fff"/><g id="ezZc1MtSrIq120_to" transform="translate(232.376495,88.803799)"><g id="ezZc1MtSrIq120_tr" transform="rotate(0)"><path d="M254.965,92.287c-3.233,7.329-7.774,14.008-13.4,19.711l-13.998-11.712-17.779-14.8795l16.214-19.7377.048-.0592L254.965,92.287Z" transform="translate(-232.376495,-88.803799)" fill="#a6442e"/></g></g><path d="M227.783,100.43c.046-.002.089-.021.122-.053s.053-.074.057-.12l.924-10.8289c.004-.05-.011-.0997-.044-.1381-.032-.0384-.078-.0625-.128-.0668-.05-.0037-.099.0123-.137.0445-.039.0321-.063.0779-.068.1276l-.923,10.8297c-.005.05.011.099.043.138.033.038.079.062.129.066l.025.001Z" fill="#fff"/></g><path d="M504.539,416.514c34.66,0,62.757-28.097,62.757-62.756c0-34.66-28.097-62.757-62.757-62.757-34.659,0-62.756,28.097-62.756,62.757c0,34.659,28.097,62.756,62.756,62.756Z" fill="#fff"/><path d="M441.782,353.756c0,12.412,3.68,24.545,10.576,34.865c6.895,10.32,16.696,18.364,28.163,23.114s24.086,5.993,36.259,3.571c12.173-2.421,23.355-8.398,32.132-17.174c8.777-8.777,14.754-19.959,17.175-32.132c2.421-12.174,1.179-24.792-3.571-36.259s-12.793-21.268-23.114-28.164c-10.32-6.895-22.453-10.576-34.865-10.576-8.249-.03-16.423,1.572-24.051,4.715s-14.558,7.764-20.391,13.598c-5.834,5.833-10.455,12.763-13.598,20.391-3.143,7.627-4.746,15.801-4.715,24.051v0Z" opacity="0.09" fill="#367cff"/><path d="M533.015,319.127c-1.002,11.62-.073,15.56,4.752,22.218c4.07,5.613-19.086.841-29.33-.983l9.04-26.424c0,0,15.89,1.108,15.538,5.189Z" fill="#0a0a0a"/><path d="M497.669,314.292c-3.023,11.264-2.683,14.749-8.599,20.665-4.902,4.903,14.205,5.899,24.458,7.681l.518-27.92c0,0-15.315-4.382-16.377-.426Z" fill="#0a0a0a"/><path d="M498.688,347.055c.067-.009.818,12.448,15.29,11.362c10.018-.75,13.59-11.38,13.82-11.38-1.145-.19-2.274-.464-3.379-.819-1.577-.848-3.53-1.73-4.038-4.793-.293-1.766.204-10.8.051-12.589l-15.379,3.433c.216,3.773,1.722,12.521-3.55,14.068-.879.259-1.824.494-2.815.718Z" fill="#e98862"/><path d="M504.838,342.765c.241-.777.396-1.577.462-2.387.17-1.849.136-3.71-.1-5.551c3.126-.422,6.071-1.712,8.5-3.724.286,1.055,1.856,5.662,1.421,6.665-.822,1.894-4.684,4.997-10.283,4.997Z" opacity="0.5" fill="#0c0c0c"/><path d="M506.827,338.884c6.063.586,13.907-1.839,15.533-9.913l1.466-7.286c1.625-8.074-1.299-15.473-8.9-17.003-7.603-1.53-14.603,3.873-16.228,11.946l-.649,3.228c-.623,3.096-2.04,17.982,8.778,19.028Z" fill="#e98862"/><path d="M531.164,323.985l-6.839-.749c-13.383-2.461-16.66-13.26-16.66-13.26s-5.614,7.495-10.38,5.774c0,0,1.537-18.071,22.696-14.895c8.313,1.247,13.034,8.139,13.034,17.383c0,6.796-1.851,5.747-1.851,5.747Z" fill="#0a0a0a"/><path d="M512.642,327.191c.087-.732-.651-1.422-1.649-1.541-.997-.119-1.877.378-1.964,1.109-.088.732.65,1.422,1.648,1.541s1.878-.378,1.965-1.109Z" opacity="0.1" fill="#0c0c0c"/><path d="M500.14,325.377c-.089.731-.968,1.227-1.967,1.11-.172-.021-.342-.06-.506-.116-.047-.871-.049-1.709-.024-2.485.277-.069.564-.086.848-.05.995.118,1.733.808,1.649,1.541Z" opacity="0.1" fill="#0c0c0c"/><path d="M504.547,327.636h-.016c-.307-.064-.611-.145-.91-.243-.447-.15-1.031-.394-.95-.798.093-.46,2.352-5.171,2.609-5.706.011-.024.026-.045.045-.063.02-.018.042-.032.067-.041.024-.009.05-.013.076-.012.027.001.052.008.076.019.023.012.045.028.062.047.017.02.03.043.039.068.008.024.011.051.009.077s-.009.051-.021.075c-.964,2.005-2.516,5.303-2.578,5.613.464.315.997.514,1.553.581.05.01.093.039.121.08.029.042.04.093.032.142-.007.05-.034.095-.074.125s-.091.044-.14.039v-.003Z" opacity="0.5" fill="#0c0c0c"/><path d="M521.392,331.336c2.311.465,4.681-1.63,5.146-3.94.465-2.311-1.151-3.962-3.462-4.427l-1.502,1.309-2.168,6.658l1.986.4Z" fill="#e98862"/><path d="M503.642,317.131c-.285-.202-.596-.365-.925-.485-.332-.124-.681-.203-1.035-.233-.354-.033-.711-.014-1.059.059-.352.072-.693.187-1.015.344l-.01.004c-.035.013-.074.012-.108-.002-.034-.015-.062-.041-.078-.075-.016-.033-.019-.071-.008-.107.011-.035.034-.066.066-.085.342-.18.705-.317,1.081-.407.379-.092.769-.127,1.158-.102.788.044,1.55.298,2.206.736.047.034.08.086.09.144.01.057-.003.117-.036.165-.033.049-.083.082-.141.094-.057.012-.117.001-.166-.031l-.005-.004-.015-.015Z" fill="#0c0c0c"/><path d="M509.868,317.991c.774-.154,1.575-.097,2.319.164.369.127.716.308,1.031.538.313.227.596.492.843.789.027.03.041.069.039.108-.002.04-.019.077-.049.104-.029.027-.068.041-.107.039-.04-.002-.077-.019-.104-.049l-.008-.008c-.238-.268-.51-.505-.807-.706-.294-.2-.617-.355-.957-.46-.676-.211-1.395-.241-2.086-.085l-.017.005c-.057.014-.119.005-.17-.026s-.087-.081-.102-.139c-.014-.058-.005-.119.026-.17s.081-.088.139-.102l.01-.002Z" fill="#0c0c0c"/><path d="M475.38,409.338c-2.467-1.076-4.313-2.227-8.525-5.401-3.04-2.282-5.865-4.836-8.44-7.632l21.631-41.161.94-1.789l19.511,10.258-16.924,32.207-.078.142.147.573" fill="#ea394a"/><path d="M547.319,376.226c-.568,6.104-.69,15.597-.651,24.037-8.157,7.398-18.117,12.519-28.88,14.846-10.763,2.328-21.949,1.781-32.434-1.586-1.283-12.728-3.191-31.433-4.267-42.95-1.089-11.929-4.295-15.869,4.453-21.583c4.82-2.453,12.461-2.669,15.896-2.669-1.166,11.308,22.665,12.7,23.257,0c17.825,1.667,26.076,2.081,22.626,29.905Z" fill="#ea394a"/><path d="M502.514,329.227c1.97,1.002,4.217,1.319,6.387.9.076-.014.153-.007.224.022.072.028.133.076.178.138s.071.136.076.212c.004.077-.013.153-.05.22-.646,1.14-2.182,3.089-4.815,2.295-1.7-.513-2.342-2.259-2.582-3.343-.017-.076-.012-.154.015-.226.026-.073.073-.136.134-.182.061-.047.134-.075.211-.081.077-.007.154.009.222.045v0Z" fill="#fff"/><path d="M502.391,320.466c.525,0,.951-.426.951-.951c0-.526-.426-.952-.951-.952-.526,0-.952.426-.952.952c0,.525.426.951.952.951Z" fill="#0c0c0c"/><path d="M511.538,322.068c.525,0,.951-.426.951-.952s-.426-.952-.951-.952c-.526,0-.952.426-.952.952s.426.952.952.952Z" fill="#0c0c0c"/><path d="M483.195,391.118h.018c.039-.005.073-.026.097-.057.023-.031.034-.07.028-.109l-1.682-16.953c-.003-.019-.009-.038-.018-.055-.01-.016-.023-.031-.038-.043-.016-.012-.034-.02-.053-.025-.018-.004-.038-.005-.057-.002s-.038.009-.054.019c-.017.009-.032.022-.043.038-.012.015-.02.033-.025.051-.005.019-.006.038-.004.058l1.683,16.953c.005.035.023.067.05.09s.062.036.098.035v0Z" fill="#0c0c0c"/><g id="ezZc1MtSrIq142_to" transform="translate(510.010461,381.346499)"><g id="ezZc1MtSrIq142_tr" transform="rotate(0)"><g transform="translate(-512.64888,-381.42366)"><path d="M480.995,378.207h-17.177v21.066h17.177v-21.066Z" transform="translate(2.704865 0.05252)" fill="#fff"/><path d="M473.961,388.74c0-1.391.413-2.751,1.186-3.907.773-1.157,1.872-2.058,3.158-2.591c1.285-.532,2.699-.671,4.064-.399c1.364.272,2.617.942,3.601,1.926.984.983,1.653,2.237,1.925,3.601.271,1.365.131,2.779-.401,4.065-.533,1.285-1.434,2.383-2.591,3.156s-2.517,1.185-3.908,1.185c-1.865-.002-3.654-.744-4.972-2.063-1.319-1.319-2.06-3.108-2.062-4.973v0Zm2.881,0c0,.822.243,1.625.7,2.308.456.683,1.105,1.215,1.863,1.529.759.315,1.594.397,2.4.237.806-.161,1.546-.556,2.126-1.137.581-.581.977-1.321,1.137-2.127.16-.805.078-1.64-.236-2.399-.315-.759-.847-1.408-1.53-1.864s-1.486-.7-2.307-.7c-1.101.001-2.157.439-2.935,1.218-.779.779-1.217,1.834-1.218,2.935v0Z" transform="translate(2.704865 0.05252)" fill="#fff"/><path d="M480.858,391.347c.058-.356.239-.681.512-.917.274-.236.621-.368.982-.374-.01-.014-.017-.03-.021-.048l-.512-.11c-.356-.071-.677-.263-.909-.543-.231-.28-.359-.631-.361-.995.003-.228.057-.452.158-.657.1-.204.245-.384.423-.526.179-.142.386-.242.608-.294s.453-.054.676-.006l1.207.26c0-.004,0-.008,0-.013.002-.01.006-.019.01-.028-.314-.148-.569-.398-.723-.709-.155-.312-.199-.666-.126-1.006.132-.892,1.203-1.186,1.988-1.016l3.125.559-1.055-.699c-.333-.231-.565-.579-.651-.975-.086-.395-.019-.809.188-1.157.113-.175.261-.326.434-.443.174-.117.369-.197.575-.236.205-.039.416-.035.62.01.204.046.397.132.567.255l12.598,14.417-2.797-1.269c-.869,1.277-2.098,2.265-3.532,2.839-1.434.573-3.006.705-4.515.379l-6.832-1.489c-.357-.071-.678-.262-.91-.542s-.359-.632-.361-.996c.005-.328.114-.645.312-.907.199-.261.475-.452.79-.545-.01-.023-.014-.048-.01-.073.003-.024.013-.046.027-.065.015-.018.034-.033.055-.043l-1.261-.272c-.397-.077-.75-.303-.987-.631-.238-.327-.342-.733-.292-1.135v0Z" transform="translate(2.704865 0.052522)" fill="#e98862"/><path d="M485.903,387.645c.032-.007.062-.025.083-.052.021-.026.032-.059.031-.092-.001-.034-.013-.066-.035-.092-.022-.025-.052-.042-.085-.048l-2.11-.357c-.019-.004-.039-.004-.058-.001-.019.004-.037.012-.053.023-.017.011-.03.025-.041.041-.01.017-.017.035-.021.054-.003.019-.002.039.002.058.005.019.013.037.025.052.011.016.026.029.043.039.016.01.035.016.054.019l2.111.357c.018.003.036.003.054-.001Z" transform="translate(2.704865 0.052521)" opacity="0.2" fill="#0c0c0c"/><path d="M485.393,390.63c.033-.007.062-.025.083-.051s.033-.059.032-.093c0-.033-.013-.065-.034-.091-.022-.026-.052-.043-.085-.049l-2.891-.512c-.019-.005-.039-.005-.058-.002-.02.004-.038.011-.055.022-.016.011-.03.025-.041.041-.01.016-.018.035-.021.054-.004.02-.003.039.001.058.005.02.013.038.025.053.011.016.026.029.043.039s.036.017.055.019l2.891.513c.018.003.037.003.055-.001v0Z" transform="translate(2.704865 0.052522)" opacity="0.2" fill="#0c0c0c"/><path d="M484.862,393.867c.033-.007.063-.026.084-.052.021-.027.032-.06.031-.094s-.014-.066-.036-.092c-.023-.025-.053-.042-.087-.047l-1.371-.21c-.037-.003-.074.007-.103.03s-.048.056-.054.092c-.005.037.003.074.024.105.021.03.053.051.089.059l1.372.21c.017.003.034.002.051-.001v0Z" transform="translate(2.704865 0.05252)" opacity="0.2" fill="#0c0c0c"/><path d="M556.07,389.565c-7.729,11.115-18.837,19.441-31.673,23.743l-.005-.005c-2.851-.558-30.05-11.297-33.648-12.003l3.937-18.365c10.108,2.012,28.544,9.766,38.71,11.785l-7.172-32.518c-.26-1.437-.232-2.91.082-4.336.314-1.425.908-2.774,1.747-3.969.839-1.194,1.907-2.21,3.142-2.988s2.612-1.304,4.052-1.546c1.439-.242,2.912-.196,4.334.135c1.421.332,2.763.943,3.947,1.796c1.183.854,2.186,1.935,2.949,3.179.763,1.245,1.272,2.628,1.496,4.07l8.102,31.022Z" transform="translate(2.704865 0.05252)" fill="#ea394a"/><path d="M541.096,397.114c.037-.001.072-.015.098-.041.027-.025.043-.059.046-.096.003-.036-.008-.073-.031-.101-.022-.029-.055-.049-.091-.055l-7.643-2.593c-.019-.003-.039-.002-.058.002-.019.005-.036.013-.052.025-.016.011-.029.026-.039.042-.009.017-.016.035-.019.055-.005.038.005.077.028.109.023.031.058.052.096.057l7.644,2.593c.007.002.014.003.021.003v0Z" transform="translate(.755494 0.077244)" fill="#0c0c0c"/><path d="M533.592,394.352c.004.046-.01.092-.039.127-.017.016-.037.028-.059.035s-.046.009-.069.005l-38.499-11.364-3.858,18.076l33.152,12.13c-.102.034-.21.068-.313.103-.074.024-.147.048-.226.068l-32.829-12.054c-.037-.01-.069-.034-.089-.066-.02-.033-.027-.073-.019-.11l3.937-18.365c.005-.019.013-.037.025-.052s.027-.028.043-.037c.017-.011.035-.019.055-.022.019-.003.039-.002.058.003l38.407,11.378-4.348-17.927c-.005-.038.005-.077.028-.108s.057-.052.095-.058c.019-.004.038-.004.057,0s.037.011.053.022.03.025.04.041c.011.017.018.035.021.054l4.377,18.121Z" transform="translate(2.704865 0.05252)" fill="#0c0c0c"/></g></g></g><path d="M31.5601,370.926c-.0358,0-.0713-.007-.1044-.021-.0325-.013-.0621-.033-.0869-.059-.0249-.025-.0445-.054-.0579-.087s-.0201-.068-.0199-.103c.0002-.036.0074-.071.0211-.103l10.5408-25.054c.0277-.066.0805-.118.1466-.145s.1402-.027.206.001.1178.081.1447.147.0264.14-.0013.206L31.8081,370.761c-.0205.049-.0549.091-.099.12s-.096.045-.149.045Z" fill="#0c0c0c"/><path d="M93.5861,371.211h-.0118c-.0353.001-.0706-.004-.1038-.016s-.0637-.031-.0898-.055c-.0261-.023-.0472-.052-.0622-.084-.0149-.032-.0235-.067-.025-.102l-1.1749-25.625c-.001-.071.025-.139.0725-.191.0475-.053.1131-.085.1835-.091.0354-.001.0707.004.1039.016.0333.012.0639.031.09.054.0262.024.0473.053.0623.085s.0236.067.0252.102l1.1749,25.625c.0034.07-.0201.138-.0657.19-.0457.053-.1098.085-.1791.092Z" fill="#0c0c0c"/></g><clipPath id="ezZc1MtSrIq154"><rect width="600" height="416.515" rx="0" ry="0" fill="#fff"/></clipPath></g></svg>
