<svg width="68" height="68" viewBox="0 0 68 68" fill="none" xmlns="http://www.w3.org/2000/svg">
<g clip-path="url(#clip0_145_414)">
<path fill-rule="evenodd" clip-rule="evenodd" d="M10.7041 14.103L14.7741 59.7509L33.0383 64.821L51.3522 59.7434L55.4265 14.103H10.7041ZM47.8831 56.8713L33.1029 60.9373V17.9044H51.3461L47.8831 56.8713ZM20.0203 34.6752L20.5105 40.2655V40.2655H33.1029V34.6752H33.1028L33.1029 34.6752V29.0758L20.0203 34.6752V34.6752ZM33.1029 28.6891V23.0988H33.0461H19.0263L19.5224 28.6891H33.1029ZM33.0596 49.3086L33.1029 49.3021V55.1273L33.0584 55.1378L21.5707 51.957L20.7864 43.1724H26.4067L26.8147 47.6315L33.0596 49.3086Z" fill="#384359"/>
<path fill-rule="evenodd" clip-rule="evenodd" d="M34.0053 28.6889L33.1029 29.0757V34.675L46.5685 28.6889L47.0494 23.0986H33.1029V28.6188V28.6889H34.0053ZM33.1029 34.6752V40.2655H39.9401L39.3187 47.5744L33.1029 49.3069V55.1317L44.5525 51.9509L46.0602 34.6752H33.1029Z" fill="#384359"/>
<g clip-path="url(#clip1_145_414)">
<path fill-rule="evenodd" clip-rule="evenodd" d="M26.5806 4.63401V1.72705H19.6486V10.2243H26.5806V7.31735H22.5556V4.63401H26.5806Z" fill="#384359"/>
<path fill-rule="evenodd" clip-rule="evenodd" d="M36.4195 1.72705H29.4875V4.71104L32.3801 7.31735H29.4875V10.2243H36.4195V7.39428L33.7898 4.63401H36.4195V1.72705Z" fill="#384359"/>
<path fill-rule="evenodd" clip-rule="evenodd" d="M46.4821 1.72705H39.5501V4.71104L42.3308 7.31735H39.5501V10.2243H46.4821V7.39428L43.7406 4.63401H46.4821V1.72705Z" fill="#384359"/>
</g>
</g>
<defs>
<clipPath id="clip0_145_414">
<rect width="44.7247" height="63.1704" fill="white" transform="translate(10.7041 1.72705)"/>
</clipPath>
<clipPath id="clip1_145_414">
<rect width="26.9106" height="8.59118" fill="white" transform="translate(19.6486 1.72705)"/>
</clipPath>
</defs>
</svg>
