<svg id="eNmnO1sYidr1" xmlns="http://www.w3.org/2000/svg" xmlns:xlink="http://www.w3.org/1999/xlink" viewBox="0 0 600 373" shape-rendering="geometricPrecision" text-rendering="geometricPrecision">
<style><![CDATA[
#eNmnO1sYidr6 {animation: eNmnO1sYidr6_c_o 3000ms linear infinite normal forwards}@keyframes eNmnO1sYidr6_c_o { 0% {opacity: 1} 20% {opacity: 1} 43.333333% {opacity: 0.47} 66.666667% {opacity: 1} 100% {opacity: 1}} #eNmnO1sYidr7_to {animation: eNmnO1sYidr7_to__to 3000ms linear infinite normal forwards}@keyframes eNmnO1sYidr7_to__to { 0% {transform: translate(434.354218px,256px)} 50% {transform: translate(434.354218px,262.811699px)} 100% {transform: translate(434.354218px,256px)}} #eNmnO1sYidr10_tr {animation: eNmnO1sYidr10_tr__tr 3000ms linear infinite normal forwards}@keyframes eNmnO1sYidr10_tr__tr { 0% {transform: translate(491.443588px,175.366409px) rotate(1.368738deg)} 36.666667% {transform: translate(491.443588px,175.366409px) rotate(-4.223659deg)} 100% {transform: translate(491.443588px,175.366409px) rotate(1.368738deg)}} #eNmnO1sYidr15_to {animation: eNmnO1sYidr15_to__to 3000ms linear infinite normal forwards}@keyframes eNmnO1sYidr15_to__to { 0% {transform: translate(487.505493px,178.391495px)} 33.333333% {transform: translate(487.473393px,179.39098px)} 100% {transform: translate(487.505493px,178.391495px)}} #eNmnO1sYidr17_to {animation: eNmnO1sYidr17_to__to 3000ms linear infinite normal forwards}@keyframes eNmnO1sYidr17_to__to { 0% {transform: translate(471.344986px,169.980453px)} 46.666667% {transform: translate(471.289045px,170.978887px)} 100% {transform: translate(471.344986px,169.980453px)}} #eNmnO1sYidr18_to {animation: eNmnO1sYidr18_to__to 3000ms linear infinite normal forwards}@keyframes eNmnO1sYidr18_to__to { 0% {transform: translate(490.374298px,173.103966px)} 46.666667% {transform: translate(490.318357px,174.1024px)} 100% {transform: translate(490.374298px,173.103966px)}} #eNmnO1sYidr19_to {animation: eNmnO1sYidr19_to__to 3000ms linear infinite normal forwards}@keyframes eNmnO1sYidr19_to__to { 0% {transform: translate(469.32251px,175.470505px)} 33.333333% {transform: translate(469.29041px,176.46999px)} 100% {transform: translate(469.32251px,175.470505px)}} #eNmnO1sYidr26_to {animation: eNmnO1sYidr26_to__to 3000ms linear infinite normal forwards}@keyframes eNmnO1sYidr26_to__to { 0% {transform: translate(504.345658px,304.457703px)} 40% {transform: translate(506.790494px,304.59429px)} 100% {transform: translate(504.345658px,304.457703px)}} #eNmnO1sYidr26_tr {animation: eNmnO1sYidr26_tr__tr 3000ms linear infinite normal forwards}@keyframes eNmnO1sYidr26_tr__tr { 0% {transform: rotate(0deg)} 40% {transform: rotate(-4.480089deg)} 100% {transform: rotate(0deg)}} #eNmnO1sYidr35_to {animation: eNmnO1sYidr35_to__to 3000ms linear infinite normal forwards}@keyframes eNmnO1sYidr35_to__to { 0% {transform: translate(369.287995px,230.03624px);animation-timing-function: cubic-bezier(0.42,0,0.58,1)} 30% {transform: translate(369.287995px,225.03624px);animation-timing-function: cubic-bezier(0.42,0,0.58,1)} 100% {transform: translate(369.287995px,230.03624px)}} #eNmnO1sYidr35_tr {animation: eNmnO1sYidr35_tr__tr 3000ms linear infinite normal forwards}@keyframes eNmnO1sYidr35_tr__tr { 0% {transform: rotate(0.116243deg);animation-timing-function: cubic-bezier(0.42,0,0.58,1)} 30% {transform: rotate(4.512395deg);animation-timing-function: cubic-bezier(0.42,0,0.58,1)} 100% {transform: rotate(0.116243deg)}}
]]></style>
<path d="M551.334,176.202c-18.958-67.12-119.447-64.721-175.343-83.1943C298.214,63.295,227.356,-6.76775,140.295,0.529291C-25.2531,14.4075,-25.7817,213.543,43.759,283.084c119.337,119.337,298.376,80.088,437.791,10.63c75.445-37.59,73.951-92.167,69.784-117.512Z" transform="translate(13.403059-4.377218)" opacity="0.1" fill="#a0b9d9"/><path d="M102.713,322.188h338.213c8.306,0,15.039-6.733,15.039-15.038v-247.6243c0-8.3056-6.733-15.0386-15.039-15.0386h-338.213c-8.3058,0-15.0388,6.733-15.0388,15.0386v247.6243c0,8.305,6.733,15.038,15.0388,15.038Z" fill="#fff"/><path d="M87.172,307.152v-247.6269c.0054-4.1195,1.6445-8.0687,4.5578-10.9813s6.8628-4.5509,10.9822-4.5554h338.214c4.12.0045,8.07,1.6431,10.983,4.5564c2.913,2.9132,4.552,6.8632,4.557,10.9832v247.624c-.005,4.12-1.644,8.07-4.557,10.983-2.913,2.914-6.863,4.552-10.983,4.557h-338.214c-4.1199-.005-8.0699-1.643-10.9833-4.557-2.9133-2.913-4.5521-6.863-4.5567-10.983Zm15.54-262.1652c-3.854.0043-7.549,1.5373-10.2743,4.2626s-4.2583,6.4204-4.2626,10.2745v247.6281c.0042,3.854,1.5371,7.549,4.2624,10.275c2.7253,2.725,6.4204,4.258,10.2745,4.263h338.214c3.854-.005,7.549-1.538,10.275-4.263c2.725-2.725,4.258-6.421,4.262-10.275v-247.6269c-.004-3.8545-1.537-7.5499-4.262-10.2755-2.726-2.7255-6.421-4.2586-10.275-4.2628h-338.214Z" fill="#292a2e"/><path d="M87.674,59.5232v15.1326h368.288v-15.1326c0-3.9884-1.584-7.8135-4.405-10.6338-2.82-2.8203-6.645-4.4047-10.633-4.4049h-338.211c-3.9888,0-7.814,1.5844-10.6343,4.4047s-4.4047,6.6455-4.4047,10.634Z" fill="#292a2e"/><path id="eNmnO1sYidr6" d="M289.424,168.811c-7.183,1.568-13.538-4.473-16.773-10.244-3.807-6.789-5.376-14.708-10.143-20.981-4.279-5.527-10.507-9.21-17.412-10.295-3.135-.55-6.347-.482-9.455.203-1.446.359-2.857.843-4.219,1.445-5.896,2.572-10.659,7.214-14.36,12.388-4.377,6.117-7.4,13.176-9.473,20.382-2.34,8.28-3.534,16.842-3.549,25.447-.065,9.129,1.157,18.222,3.63,27.009c2.557,9.149,6.635,17.803,12.063,25.598c5.807,8.237,13.144,15.279,21.613,20.743c4.69,3.014,9.665,5.561,14.853,7.604c6.209,2.359,12.769,3.666,19.408,3.869c14.506.628,29.234-2.754,42.358-8.854c3.236-1.503,6.38-3.198,9.414-5.077.962-.596.078-2.121-.889-1.522-12.432,7.671-26.501,12.294-41.06,13.494-6.816.617-13.687.243-20.396-1.109-5.742-1.311-11.277-3.404-16.448-6.222-9.006-4.698-17.005-11.114-23.545-18.886-5.972-7.205-10.635-15.401-13.778-24.216-3.048-8.522-4.838-17.442-5.314-26.481-.492-8.553.172-17.134,1.973-25.51c1.545-7.501,4.265-14.711,8.059-21.363c3.222-5.487,7.452-10.597,12.849-13.941c2.389-1.537,5.037-2.629,7.815-3.222c6.646-1.351,13.932.684,19.359,4.594c2.798,2.045,5.14,4.649,6.879,7.646c1.973,3.338,3.342,6.977,4.785,10.562c1.401,3.478,2.848,7.007,5.042,10.073c2.015,2.939,4.68,5.375,7.788,7.117c2.859,1.591,6.192,2.105,9.397,1.449c1.107-.241.638-1.938-.47-1.698l-.001-.002Z" fill="#367cff"/><g id="eNmnO1sYidr7_to" transform="translate(434.354218,256)"><g transform="translate(-434.354218,-254.811699)"><path d="M464.042,231.039c.135-.017,1.629,24.778,30.434,22.616c19.942-1.493,27.052-22.651,27.509-22.651-2.15-.457-5.771-1.121-6.726-1.631-3.14-1.687-7.025-3.443-8.037-9.54-.583-3.515.406-21.495.101-25.052l-30.61,6.835c.428,7.51,3.421,24.921-7.071,28.003-1.746.507-3.626.976-5.6,1.42Z" fill="#e98862"/><path d="M476.284,222.501c.48-1.545.789-3.138.921-4.751.337-3.679.27-7.385-.2-11.05c6.221-.839,12.083-3.407,16.918-7.412.568,2.1,3.694,11.272,2.829,13.267-1.636,3.771-9.324,9.946-20.468,9.946Z" transform="translate(0 1)" opacity="0.52" fill="#0c0c0c"/><g id="eNmnO1sYidr10_tr" transform="translate(491.443588,175.366409) rotate(1.368738)"><g transform="translate(-491.443588,-175.366409)"><path d="M465.799,168.509c0,0-7.245-8.203-6.337-23.507.701-11.849,9.804-2.227,9.804-2.227s.588-8.527,6.468-6.472s7.492,11.467,7.492,11.467" fill="#0c0c0c"/><path d="M506.802,143.642c0,0,29.358,9.329,10.228,47.789l-2.691-.363-5.462-.736" fill="#0c0c0c"/><path d="M480.606,214.527c12.049,1.35,27.735-3.246,31.21-19.267l3.134-14.456c3.475-16.021-2.123-30.833-17.207-34.106-15.085-3.271-29.177,7.272-32.653,23.293l-1.388,6.401c-.438,2.206-.726,4.439-.86,6.684-.4,5.931-.985,14.951,1.725,21.686c2.562,6.356,8.341,8.904,16.039,9.765Z" fill="#e98862"/><path d="M490.912,148.288c2.065-4.794,1.099-9.818-2.158-11.222-3.257-1.403-7.572,1.346-9.638,6.14s-1.1,9.819,2.158,11.222c3.257,1.403,7.572-1.345,9.638-6.14Z" fill="#0c0c0c"/><g id="eNmnO1sYidr15_to" transform="translate(487.505493,178.391495)"><path d="M487.506,180.299c1.053,0,1.907-.854,1.907-1.908c0-1.053-.854-1.907-1.907-1.907-1.054,0-1.908.854-1.908,1.907c0,1.054.854,1.908,1.908,1.908Z" transform="translate(-487.505493,-178.391495)" fill="#0c0c0c"/></g><path d="M506.751,191.622c0,0,3.075-23.045-3.531-25.852-4.4-1.869-16.855,2.375-26.766-1.69-4.336-1.779-8.846-1.534-9.715.508-.344.808-.686-11.887,8.251-19.65c7.115-6.18,25.941-4.501,33.824-.395c21.831,11.372,5.35,39.988,5.35,39.988l-2.629,7.626-4.784-.535Z" fill="#0c0c0c"/><g id="eNmnO1sYidr17_to" transform="translate(471.344986,169.980453)"><path d="M475.821,169.717c-1.451-.739-3.074-1.074-4.699-.968-.798.046-1.585.213-2.334.493-.741.274-1.444.641-2.093,1.091-.106.07-.182.178-.21.302-.028.123-.006.253.06.362.066.108.172.187.295.219.123.031.253.014.363-.049l.035-.019c.595-.365,1.233-.655,1.901-.862.657-.207,1.343-.313,2.032-.315c1.363-.014,2.706.333,3.892,1.004l.045.027c.167.099.368.127.556.079.189-.048.351-.17.45-.337.1-.168.128-.368.08-.557s-.17-.351-.337-.45l-.036-.02Z" transform="translate(-471.344986,-169.980453)" fill="#0c0c0c"/></g><g id="eNmnO1sYidr18_to" transform="translate(490.374298,173.103966)"><path d="M486.677,172.7c1.321-.334,2.708-.312,4.019.063.664.185,1.297.469,1.876.842.589.376,1.128.824,1.605,1.335l.026.026c.09.089.211.139.338.141.126.001.248-.046.34-.133.092-.086.147-.205.154-.331s-.036-.25-.119-.346c-.507-.606-1.088-1.145-1.73-1.606-.648-.469-1.362-.838-2.12-1.094-1.539-.531-3.192-.638-4.787-.31-.187.044-.35.16-.452.322-.103.163-.138.359-.098.547s.153.353.313.459.356.145.545.108l.037-.008.053-.015Z" transform="translate(-490.374298,-173.103966)" fill="#0c0c0c"/></g><g id="eNmnO1sYidr19_to" transform="translate(469.32251,175.470505)"><path d="M469.323,177.378c1.053,0,1.907-.854,1.907-1.908c0-1.053-.854-1.907-1.907-1.907-1.054,0-1.908.854-1.908,1.907c0,1.054.854,1.908,1.908,1.908Z" transform="translate(-469.32251,-175.470505)" fill="#0c0c0c"/></g><g opacity="0.52"><path d="M476.063,193.146c-.01,0-.02,0-.029-.006-1.478-.316-3.923-1.011-3.687-2.118.197-.916,4.822-10.269,5.35-11.335.021-.047.051-.089.09-.124.038-.035.082-.062.131-.079.049-.018.1-.025.152-.022s.102.016.148.039c.047.023.088.055.122.095.033.039.059.084.074.134.016.049.022.101.017.152-.005.052-.02.102-.044.147-2.052,4.142-5.153,10.529-5.286,11.152.09.293,1.565.876,3.094,1.204.097.022.181.08.235.162.055.082.076.182.059.279s-.07.184-.149.243-.178.085-.276.074l-.001.003Z" fill="#0c0c0c"/></g><path d="M480.016,199.702c-2.494-.208-4.904-.998-7.037-2.308-.046-.025-.087-.059-.12-.1-.032-.041-.056-.088-.071-.139-.014-.05-.017-.103-.011-.155.007-.052.024-.102.051-.148.027-.045.062-.084.104-.116.042-.031.09-.053.141-.066.051-.012.104-.014.156-.006.052.009.101.028.146.056c4.609,2.709,9.077,2.975,12.92.769.078-.046.158-.089.24-.128.095-.035.2-.032.293.008.093.041.166.116.205.209.039.094.04.199.003.293-.038.094-.11.171-.202.213-.03.014-.08.044-.15.084-2.02,1.163-4.342,1.697-6.668,1.534Z" opacity="0.5" fill="#0c0c0c"/><path d="M479.659,203.392c-.451-.031-.9-.099-1.34-.206-.101-.024-.188-.087-.242-.175-.054-.089-.071-.195-.047-.296.024-.1.087-.187.175-.242.089-.054.195-.071.296-.047c2.647.631,4.087-.434,4.147-.48.082-.063.186-.091.289-.078s.196.067.259.149c.064.082.092.185.079.288s-.067.196-.149.26c-1.025.667-2.25.959-3.467.827Z" opacity="0.52" fill="#0c0c0c"/><path d="M509.82,199.938c4.584.994,9.364-3.104,10.358-7.688.995-4.585-2.172-7.919-6.758-8.913l-3.028,2.559-4.513,13.187l3.941.855Z" fill="#e98862"/></g></g><path d="M495.048,247.473c20.022-.944,20.864-17.938,20.864-17.938s9.921.641,16.515,1.534c10.798,1.46,17.92,5.121,23.588,10.789c5.273,5.273,8.483,10.978,5.086,47.401-2.459,26.369-.728,84.381-.728,84.381h-120.835c0,0-7.246-76.033-8.256-87.905-1.928-22.663-3.493-42.406,1.212-47.111c9.673-9.673,28.66-9.089,36.974-9.088.136,0-1.686,19.222,25.58,17.937Z" fill="#a0b9d9"/><g id="eNmnO1sYidr26_to" transform="translate(504.345658,304.457703)"><g id="eNmnO1sYidr26_tr" transform="rotate(0)"><g transform="translate(-504.345657,-304.457702)"><path d="M461.944,329.363l-17.577-9.78c-.386-.215-.813-.347-1.253-.388s-.884.01-1.303.15-.805.366-1.132.663c-.327.298-.589.66-.768,1.064-.309.755-.326,1.599-.048,2.366.278.768.832,1.405,1.553,1.787l3.769,2.097-14.879-1.154c-1.653-.157-3.78.705-3.834,2.571-.068.716.109,1.435.502,2.037.393.603.978,1.055,1.661,1.282-.006.015-.01.031-.011.047c0,.012.001.024.004.036l-2.548-.242c-.472-.045-.948.017-1.393.18-.445.162-.848.422-1.18.76-.332.339-.584.747-.739,1.195-.154.448-.206.925-.153,1.396.099.74.449,1.424.991,1.937.543.513,1.245.824,1.99.882l1.084.103c.012.033.029.063.051.09-.749.1-1.438.463-1.944,1.024-.505.561-.795,1.284-.817,2.039.001.827.314,1.623.876,2.23.562.606,1.332.978,2.156,1.042l2.693.256c-.041.023-.076.056-.101.095-.026.039-.041.084-.046.13-.003.056.01.111.038.159-.642.275-1.176.752-1.52,1.36-.344.607-.478,1.311-.383,2.003.114.724.47,1.389,1.009,1.886.54.497,1.231.797,1.962.852l22.72,2.162c3.178.301,6.374-.352,9.178-1.879c2.805-1.526,5.089-3.854,6.561-6.687c1.27-2.443,1.537-5.284.745-7.921-.793-2.637-2.582-4.86-4.988-6.199l-2.926-1.631Z" fill="#e98862"/><path d="M451.963,360.899L561.69,373.217c3.383.368,6.805-.053,9.998-1.229c3.193-1.177,6.07-3.077,8.405-5.552s4.064-5.458,5.053-8.714s1.21-6.696.645-10.052l-23.399-93.731c-.479-2.852-1.516-5.582-3.051-8.033-1.535-2.452-3.537-4.577-5.893-6.254-4.758-3.388-10.667-4.747-16.427-3.777-5.76.969-10.9,4.186-14.287,8.944-3.388,4.758-4.747,10.667-3.778,16.428l17.945,68.263-79.732-7.957-5.206,39.346Z" fill="#a0b9d9"/><g opacity="0.2"><path d="M443.357,333.274c-.008.076-.045.146-.104.196-.059.049-.135.073-.211.067l-14.149-1.116c-.039-.003-.076-.014-.111-.031-.034-.018-.065-.042-.09-.071-.025-.03-.044-.064-.056-.101s-.017-.075-.014-.114c.003-.038.014-.076.031-.11.018-.035.042-.066.072-.091.029-.025.063-.044.1-.056s.076-.016.114-.013l14.149,1.116c.038.003.076.013.11.031.035.017.065.041.09.071.025.029.044.063.056.1.012.036.017.075.014.114l-.001.008Z" fill="#0c0c0c"/><path d="M443.037,339.528c-.008.076-.046.146-.104.195-.059.049-.135.073-.212.067l-15.79-1.245c-.038-.003-.076-.013-.11-.031-.035-.017-.065-.041-.09-.071-.025-.029-.044-.063-.056-.1-.012-.036-.017-.075-.014-.114.009-.076.046-.147.105-.197s.134-.076.211-.072l15.791,1.245c.038.003.076.014.11.031.034.018.065.042.09.071s.044.063.056.1.016.075.013.114v.007Z" fill="#0c0c0c"/><path d="M442.729,346.303c-.008.076-.045.146-.104.196-.059.049-.135.073-.211.067l-12.596-.993c-.078-.006-.15-.043-.201-.103-.05-.059-.075-.136-.069-.214s.043-.15.102-.201c.06-.051.137-.076.215-.07l12.595.994c.039.003.076.013.11.031.035.017.065.041.09.071.025.029.044.063.056.1.012.036.017.075.014.113l-.001.009Z" fill="#0c0c0c"/></g><path d="M558.635,373.64c.078.005.155-.021.214-.073.058-.052.094-.124.099-.202s-.021-.155-.073-.213c-.051-.059-.124-.095-.202-.1L452.577,360.676l5.143-38.761l79.181,7.592c.046.006.092.001.135-.014s.083-.04.115-.072c.032-.034.056-.074.069-.118.014-.044.017-.09.009-.136l-8.568-39.901c-.006-.038-.019-.075-.04-.108-.02-.033-.047-.061-.078-.084-.032-.022-.068-.038-.105-.046-.038-.009-.077-.009-.115-.002-.077.013-.146.056-.191.119s-.063.142-.05.219l8.502,39.509-79.087-7.581c-.039-.005-.078-.002-.116.008-.038.011-.073.029-.104.053s-.057.054-.076.089c-.019.034-.031.072-.035.111l-5.206,39.348c-.008.076.014.153.061.213s.117.1.193.11l106.38,12.416c.014.001.028.001.041,0Z" fill="#0c0c0c"/><path d="M551.204,331.558c.078.006.155-.019.214-.07s.096-.124.102-.202c.005-.078-.02-.155-.071-.214s-.123-.095-.201-.101l-13.677-2.048c-.038-.006-.077-.005-.115.004-.038.01-.073.026-.104.049s-.057.052-.077.085c-.02.034-.033.07-.038.109-.012.077.008.155.054.218.046.062.116.104.192.115l13.678,2.049c.014.003.029.005.043.006Z" fill="#0c0c0c"/></g></g></g><g id="eNmnO1sYidr35_to" transform="translate(369.287995,230.03624)"><g id="eNmnO1sYidr35_tr" transform="rotate(0.116243)"><g transform="translate(-369.287994,-230.036239)"><path d="M333.09,171.234c-.137-.41-.356-.788-.644-1.11-.288-.323-.638-.583-1.03-.766-.392-.182-.817-.283-1.25-.296-.432-.013-.862.062-1.264.221-.768.335-1.38.948-1.712,1.716-.333.769-.361,1.635-.08,2.423l1.363,4.077-10.205-10.891c-1.115-1.233-3.267-2.029-4.565-.689-.532.483-.885,1.132-1.001,1.842-.117.709.011,1.437.362,2.065-.015.008-.03.017-.043.029-.008.009-.015.019-.021.03l-.056-.064c-.316-.35-.706-.625-1.142-.805-.435-.181-.905-.262-1.376-.239s-.931.151-1.347.373c-.415.222-.776.534-1.057.913-.435.613-.644,1.358-.593,2.108s.36,1.459.874,2.007l.562.639c-.015.033-.023.068-.024.104-.605-.401-1.335-.567-2.053-.468s-1.376.456-1.85,1.004c-.569.615-.884,1.422-.88,2.259.003.838.325,1.642.899,2.252-.089-.019-.051.152-.126.219-.04.039-.067.089-.078.143-.642-.224-1.338-.238-1.987-.038-.649.199-1.218.601-1.622,1.147-.435.613-.645,1.358-.593,2.107.051.75.359,1.46.873,2.008l15.312,16.924c2.142,2.367,4.942,4.041,8.042,4.807s6.357.588,9.355-.509l9.654-3.535-10.697-32.007Z" fill="#e98862"/><path d="M353.414,179.11l.828-7.711-6.394-.668-.828,7.711l6.394.668Z" fill="#262626"/><path d="M370.024,298.537c-3.97-.001-7.865-1.074-11.275-3.107-3.409-2.032-6.206-4.949-8.095-8.44l-43.812-83.755l36.393-19.782l37.746,67.025l64.637-18.815l10.346,43.354-79.89,22.669c-1.967.564-4.004.85-6.05.851Z" fill="#a0b9d9"/><path d="M288.891,172.975c0,0-1.922-1.355-3.641-2.574-1.362-.967-2.595-1.848-2.638-1.9.968-.537,1.969-1.014,2.995-1.431c1.938-.867,4.111-1.806,4.111-1.806l-.827,7.711Z" fill="#367cff"/><path d="M318.739,173.331c-.686.001-1.346-.266-1.838-.744-1.837-1.779-4.001-3.592-4.63-3.88-2.647-1.184-6.658-1.769-7.98-1.895-.349-.028-.688-.126-.999-.286-.311-.161-.587-.382-.811-.651-.225-.268-.394-.578-.498-.912s-.141-.686-.108-1.034c.034-.349.135-.687.3-.996.165-.308.39-.581.661-.803.271-.221.583-.386.919-.485.336-.1.687-.132,1.035-.094.23.022,5.665.553,9.64,2.331c1.867.836,5.178,3.969,6.148,4.909.378.366.638.837.747,1.352.108.514.061,1.05-.137,1.538-.197.487-.536.905-.972,1.199-.437.294-.951.451-1.477.451Z" fill="#e98862"/><path d="M288.891,172.975l.828-7.711l58.129,5.467-.828,7.712-58.129-5.468Z" fill="#367cff"/><path d="M288.891,172.975c0,0-1.922-1.355-3.641-2.574-1.362-.967-2.595-1.848-2.638-1.9.968-.537,1.969-1.014,2.995-1.431c1.938-.867,4.111-1.806,4.111-1.806l-.827,7.711Z" opacity="0.9" fill="#fff"/><path d="M289.165,170.576l58.116,5.328-.036.351-58.116-5.327.036-.352Z" fill="#fff"/><path d="M289.488,167.559l58.116,5.327-.037.352-58.116-5.327.037-.352Z" fill="#fff"/><path d="M305.921,190.678c.566.604,1.334.98,2.158,1.057.107.011.214.016.322.016.525.007,1.043-.11,1.514-.34s.882-.568,1.198-.986c.317-.418.531-.905.625-1.421s.066-1.047-.083-1.55c.479.325,1.031.526,1.607.583.11.01.221.015.333.016.546.007,1.086-.116,1.575-.359s.914-.598,1.239-1.037.541-.949.631-1.488c.09-.538.05-1.091-.115-1.611.455.288.971.467,1.508.522.11.01.221.016.332.016.48.003.955-.093,1.396-.281.441-.189.839-.466,1.168-.815.613-.692.941-1.589.92-2.513s-.39-1.806-1.033-2.47l-6.788-7.307c-.026-.029-.058-.053-.093-.069-.035-.017-.073-.027-.112-.029-.039-.001-.078.005-.115.018-.037.014-.07.034-.099.061-.029.026-.052.058-.068.094s-.025.074-.026.113.006.078.02.115c.015.036.036.069.063.097l6.789,7.31c.542.553.855,1.29.877,2.065.022.774-.249,1.528-.759,2.111-.276.289-.607.519-.974.676-.368.157-.763.238-1.162.237-.4-.001-.795-.083-1.161-.242-.367-.158-.697-.39-.971-.68-.05-.053-.434-.445-.588-.607l-6.615-7.233c-.051-.058-.124-.093-.202-.098-.078-.004-.154.022-.212.074-.059.052-.094.125-.098.202-.005.078.022.155.074.213l6.621,7.239c.542.553.855,1.291.877,2.065.021.774-.25,1.528-.76,2.111-.275.289-.606.519-.973.676s-.762.238-1.161.237c-.399,0-.794-.082-1.16-.24-.367-.158-.697-.389-.971-.679l-6.143-6.515c-.053-.055-.125-.088-.202-.09-.076-.003-.15.024-.207.076-.056.051-.091.123-.096.199-.004.076.021.151.071.209l5.461,5.827c.524.534.826,1.246.847,1.993s-.241,1.475-.733,2.037c-.266.279-.585.501-.939.653-.354.151-.735.229-1.12.228-.385,0-.766-.079-1.119-.231-.354-.153-.673-.375-.937-.655l-.431.4Z" opacity="0.2" fill="#0c0c0c"/><path d="M288.891,172.975l.828-7.711l58.129,5.467-.828,7.712-58.129-5.468Z" opacity="0.5" fill="#fff"/><path d="M328.918,179.015l-1.808-5.593c-.282-.788-.253-1.654.079-2.423.333-.768.945-1.382,1.713-1.716.402-.159.832-.234,1.264-.221s.857.113,1.249.296.743.443,1.031.766c.288.322.507.7.644,1.11l3.159,9.455" fill="#e98862"/><path d="M285.251,170.401c-1.361-.967-2.595-1.848-2.638-1.9.969-.537,1.969-1.014,2.996-1.431l-.358,3.331Z" fill="#262626"/></g></g></g><path d="M430.967,282.301c-.072.001-.142-.025-.196-.073s-.089-.114-.098-.186l-1.757-14.984c-.005-.039-.002-.078.009-.115.01-.037.028-.072.052-.102s.053-.056.087-.075c.034-.018.071-.03.109-.035.077-.008.154.015.215.063s.101.118.111.195l1.758,14.984c.004.038.001.077-.009.114-.011.038-.028.072-.052.103-.024.03-.054.055-.088.074s-.071.031-.109.035c-.011.002-.021.002-.032.002Z" fill="#0c0c0c"/></g></g><path d="M159.11,89.9012h-48.801c-3.658,0-6.624,2.9655-6.624,6.6235v200.1413c0,3.658,2.966,6.624,6.624,6.624h48.801c3.658,0,6.623-2.966,6.623-6.624v-200.1413c0-3.658-2.965-6.6235-6.623-6.6235Z" fill="#292a2e"/><path d="M102.576,362.357c.098,0,.195-.027.279-.079s.151-.126.195-.215l13.91-28.529c.05-.124.051-.263.003-.387-.048-.125-.141-.227-.261-.286-.121-.059-.259-.07-.387-.031-.128.04-.236.126-.303.242l-13.91,28.529c-.039.08-.056.169-.051.258.004.09.032.176.079.252.047.075.113.138.191.181.078.044.165.067.255.067v-.002Z" fill="#292a2e"/><path d="M79.0627,360.702c.1166,0,.2298-.038.3221-.11.0923-.071.1585-.17.1883-.283l16.0964-61.45c.0248-.132-.0012-.268-.0728-.381-.0715-.113-.1833-.195-.3127-.228-.1294-.034-.2669-.018-.3847.046-.1178.063-.2071.169-.2499.296l-16.097,61.45c-.0201.078-.0222.159-.006.238s.0502.153.0995.217c.0492.064.1124.115.1846.151.0723.036.1517.054.2322.054Z" fill="#292a2e"/><path d="M48.3594,363.422c.0707,0,.1407-.014.2056-.042.1285-.055.23-.158.2824-.288.0524-.129.0514-.274-.0029-.403L32.2061,323.504c-.0609-.119-.1645-.21-.29-.256-.1254-.045-.2634-.042-.3863.011-.1229.052-.2215.148-.2762.27-.0546.122-.0611.26-.0183.386L47.8738,363.1c.0405.096.1081.177.1944.234.0864.058.1877.088.2912.088Z" fill="#292a2e"/><path d="M78.4662,372.502c.0434,0,.0866-.005.1287-.016.1354-.034.2518-.121.3237-.241s.0934-.263.0598-.399L59.6448,294.501c-.0405-.129-.1285-.237-.246-.303-.1175-.065-.2557-.084-.3863-.051-.1306.032-.2438.114-.3165.227s-.0995.25-.0748.383l19.3341,77.345c.0287.114.0945.215.187.288.0925.072.2065.111.3239.112Z" fill="#292a2e"/><path d="M71.6086,310.349c5.2456-11.027,1.8227-23.617-7.6453-28.121s-21.3956.784-26.6413,11.812c-5.2456,11.027-1.8227,23.618,7.6453,28.121c9.468,4.504,21.3957-.784,26.6413-11.812Z" fill="#0cbc8b"/><path d="M71.6086,310.349c5.2456-11.027,1.8227-23.617-7.6453-28.121s-21.3956.784-26.6413,11.812c-5.2456,11.027-1.8227,23.618,7.6453,28.121c9.468,4.504,21.3957-.784,26.6413-11.812Z" opacity="0.4" fill="#fff"/><path d="M39.0686,335.809c2.7361-6.794.3391-14.16-5.3539-16.452-5.693-2.293-12.5261,1.355-15.2622,8.149-2.7361,6.793-.339,14.159,5.354,16.452s12.526-1.356,15.2621-8.149Z" fill="#0cbc8b"/><path d="M106.153,327.092c8.457-2.565,12.76-13.058,9.612-23.437s-12.555-16.713-21.0113-14.148c-8.4565,2.565-12.7599,13.058-9.6119,23.436c3.1479,10.379,12.5552,16.713,21.0112,14.149Z" fill="#0cbc8b"/><path d="M120.697,349.179c4.721-.791,7.646-6.818,6.533-13.462s-5.842-11.39-10.562-10.599c-4.721.791-7.646,6.818-6.533,13.462s5.842,11.389,10.562,10.599Z" fill="#0cbc8b"/><path d="M32.841,373.227h82.127v-20.466h-82.127v20.466Z" fill="#292a2e"/><path d="M32.841,373.227h82.127v-20.466h-82.127v20.466Z" opacity="0.3" fill="#fff"/><path d="M71.7654,347.617c3.3378-8.287.3876-17.284-6.5894-20.094s-15.339,1.631-18.6768,9.919c-3.3378,8.287-.3876,17.284,6.5894,20.094c6.9771,2.81,15.339-1.631,18.6768-9.919Z" fill="#0cbc8b"/><path d="M89.9939,355.482c6.9489,0,12.5821-5.633,12.5821-12.582s-5.6332-12.582-12.5821-12.582c-6.9488,0-12.582,5.633-12.582,12.582s5.6332,12.582,12.582,12.582Z" fill="#0cbc8b"/><path d="M39.0686,335.809c2.7361-6.794.3391-14.16-5.3539-16.452-5.693-2.293-12.5261,1.355-15.2622,8.149-2.7361,6.793-.339,14.159,5.354,16.452s12.526-1.356,15.2621-8.149Z" opacity="0.68" fill="#fff"/><path d="M106.153,327.092c8.457-2.565,12.76-13.058,9.612-23.437s-12.555-16.713-21.0113-14.148c-8.4565,2.565-12.7599,13.058-9.6119,23.436c3.1479,10.379,12.5552,16.713,21.0112,14.149Z" opacity="0.68" fill="#fff"/><path d="M120.697,349.179c4.721-.791,7.646-6.818,6.533-13.462s-5.842-11.39-10.562-10.599c-4.721.791-7.646,6.818-6.533,13.462s5.842,11.389,10.562,10.599Z" opacity="0.68" fill="#fff"/><path d="M71.7654,347.617c3.3378-8.287.3876-17.284-6.5894-20.094s-15.339,1.631-18.6768,9.919c-3.3378,8.287-.3876,17.284,6.5894,20.094c6.9771,2.81,15.339-1.631,18.6768-9.919Z" opacity="0.68" fill="#fff"/><path d="M89.9939,355.482c6.9489,0,12.5821-5.633,12.5821-12.582s-5.6332-12.582-12.5821-12.582c-6.9488,0-12.582,5.633-12.582,12.582s5.6332,12.582,12.582,12.582Z" opacity="0.4" fill="#fff"/><path d="M49.5807,332.308c9.5499,2.668,14.5759-5.137,14.5759-5.137l-.0053-.01c-5.0941-1.519-10.7421.617-14.5706,5.147Z" fill="#292a2e"/><path d="M109.902,335.503c4.702-1.8,8.598-5.233,10.974-9.671-1.288-.688-2.765-.938-4.207-.712-3.977.665-6.677,5.046-6.767,10.383Z" fill="#292a2e"/><path d="M87.7491,330.52c3.6623,3.3,8.2384,5.412,13.1249,6.059-1.301-2.235-3.2587-4.015-5.6068-5.099s-4.9729-1.419-7.5181-.96Z" fill="#292a2e"/><path d="M0.587501,374.227h598.825499c.155,0,.305-.062.415-.172s.172-.259.172-.415-.062-.305-.172-.415c-.11-.111-.26-.173-.415-.173h-598.825499c-.155758,0-.305137.062-.415275.173-.110138.11-.172012.259-.172012.415s.061874.305.172012.415.259517.172.415275.172Z" fill="#292a2e"/><path d="M125.746,136.765h-10.514c-1.452,0-2.629,1.176-2.629,2.628v10.514c0,1.452,1.177,2.629,2.629,2.629h10.514c1.451,0,2.628-1.177,2.628-2.629v-10.514c0-1.452-1.177-2.628-2.628-2.628Z" fill="#292a2e"/><path d="M125.745,152.829h-10.512c-.775-.001-1.517-.309-2.065-.856-.548-.548-.856-1.291-.857-2.066v-10.512c0-.775.309-1.518.856-2.066.548-.547,1.291-.856,2.066-.856h10.512c.775,0,1.518.309,2.066.856.548.548.856,1.291.857,2.066v10.512c-.001.775-.309,1.518-.857,2.066-.548.547-1.291.855-2.066.856Zm-10.512-15.771c-.619.001-1.213.247-1.65.685-.438.438-.684,1.031-.685,1.65v10.513c.001.619.247,1.212.685,1.65.437.438,1.031.684,1.65.684h10.512c.62,0,1.213-.246,1.651-.684s.684-1.031.685-1.65v-10.513c-.001-.619-.247-1.212-.685-1.65s-1.031-.684-1.651-.685h-10.512Z" fill="#fff"/><path d="M154.51,144.363c0-4.355-3.53-7.885-7.885-7.885s-7.886,3.53-7.886,7.885s3.531,7.886,7.886,7.886s7.885-3.531,7.885-7.886Z" fill="#292a2e"/><path d="M146.624,152.543c-1.617,0-3.199-.48-4.544-1.379s-2.393-2.176-3.012-3.67c-.619-1.495-.781-3.14-.466-4.726.316-1.587,1.095-3.044,2.239-4.188s2.601-1.923,4.188-2.239c1.586-.315,3.231-.153,4.725.466c1.495.619,2.772,1.667,3.671,3.012s1.378,2.927,1.378,4.544c-.002,2.169-.865,4.248-2.398,5.781-1.533,1.534-3.612,2.396-5.781,2.399Zm0-15.771c-1.501,0-2.969.445-4.218,1.279-1.248.834-2.221,2.02-2.796,3.407-.574,1.387-.725,2.914-.432,4.387.293,1.472,1.016,2.825,2.078,3.887c1.062,1.061,2.415,1.785,3.887,2.077c1.473.293,2.999.143,4.387-.432c1.387-.574,2.572-1.547,3.407-2.796.834-1.248,1.279-2.716,1.279-4.218-.002-2.012-.803-3.942-2.226-5.365s-3.353-2.224-5.366-2.226Z" fill="#fff"/><path d="M114.594,100.566l-.236,21.176l6.466-5.939l8.321.149-14.551-15.386Z" fill="#292a2e"/><path d="M114.358,122.039c-.041,0-.081-.009-.118-.026-.053-.023-.097-.061-.129-.109-.031-.048-.048-.105-.047-.162l.235-21.176c0-.058.018-.115.052-.163.033-.048.08-.086.134-.107.055-.021.114-.026.171-.013.057.012.109.042.15.084l14.551,15.387c.04.042.066.095.076.152s.003.115-.02.168c-.022.055-.06.101-.109.133s-.107.047-.166.044l-8.203-.147-6.38,5.859c-.054.049-.125.076-.197.076Zm.521-20.74l-.221,19.771l5.967-5.48c.056-.049.129-.076.204-.077l7.622.136-13.572-14.35Z" fill="#fff"/><path d="M140.911,100.566l-.236,21.176l6.466-5.939l8.321.149-14.551-15.386Z" fill="#fff"/><path d="M140.675,122.039c-.041,0-.081-.009-.118-.026-.052-.023-.097-.061-.128-.109-.032-.048-.048-.105-.048-.162l.235-21.176c.001-.058.019-.115.052-.163s.08-.086.134-.107c.055-.021.115-.026.172-.013.057.012.109.042.149.084l14.552,15.387c.04.042.066.095.076.152s.002.115-.021.168c-.021.055-.058.102-.108.134-.049.031-.107.046-.166.043l-8.204-.147-6.379,5.859c-.055.049-.125.076-.198.076Zm.521-20.74l-.22,19.771l5.966-5.48c.057-.048.129-.076.204-.077l7.623.136-13.573-14.35Z" fill="#292a2e"/><path d="M114.917,167.502l-1.187,15.42l3.715,2.095l8.127-3.221.397-4.331-11.052-9.963Z" fill="#292a2e"/><path d="M117.445,185.31c-.05,0-.1-.013-.144-.038l-3.715-2.094c-.049-.028-.089-.069-.115-.118-.027-.049-.038-.105-.034-.161l1.188-15.42c.004-.054.023-.107.056-.151.032-.044.076-.078.127-.099.051-.02.107-.026.161-.016s.104.034.145.071l11.052,9.962c.034.031.06.069.077.112.016.043.023.088.019.134l-.397,4.331c-.005.054-.025.106-.058.149-.032.044-.076.077-.127.097l-8.127,3.22c-.034.014-.071.021-.108.021Zm-3.406-2.552l3.43,1.934l7.829-3.103.367-4.005-10.498-9.464-1.128,14.638Z" fill="#fff"/><path d="M118.465,176.763c-.058,0-.116-.017-.165-.05-.048-.033-.086-.08-.108-.135l-3.547-8.966c-.016-.036-.025-.075-.026-.114c0-.04.007-.079.022-.116.015-.036.038-.069.066-.097s.061-.05.098-.064c.037-.015.076-.022.116-.021.039.001.078.01.114.026.036.017.068.04.095.07.026.029.047.063.06.1l3.548,8.968c.018.044.025.092.019.14-.005.047-.022.093-.049.133-.027.039-.063.072-.105.094-.043.023-.09.034-.138.034v-.002Z" fill="#fff"/><path d="M119.007,179.799c1.091,0,1.975-.884,1.975-1.974c0-1.091-.884-1.975-1.975-1.975-1.09,0-1.974.884-1.974,1.975c0,1.09.884,1.974,1.974,1.974Z" fill="#292a2e"/><path d="M119.007,180.093c-.448,0-.887-.133-1.26-.382s-.664-.604-.835-1.018c-.172-.414-.217-.871-.13-1.311.088-.44.304-.844.621-1.161s.721-.533,1.161-.621c.44-.087.896-.043,1.311.129.414.172.768.462,1.018.835.249.373.382.812.382,1.261-.001.601-.24,1.177-.665,1.603-.425.425-1.001.664-1.603.665Zm0-3.949c-.332,0-.657.099-.934.283-.276.185-.492.448-.619.755s-.16.645-.096.971c.065.326.225.626.46.861s.535.395.861.46.664.031.971-.096c.308-.127.57-.343.755-.619.184-.277.283-.602.283-.934-.001-.446-.178-.873-.493-1.188s-.742-.492-1.188-.493Z" fill="#fff"/><path d="M115.523,185.56l11.629-4.608c.203-.081.43-.079.632.005s.364.244.45.445l.845,1.972c.044.104.068.216.068.329s-.022.224-.066.329c-.044.104-.108.198-.189.277-.081.078-.177.14-.283.181l-11.668,4.537c-.204.08-.431.076-.632-.009s-.362-.245-.447-.447l-.804-1.901c-.044-.103-.067-.214-.067-.327c0-.112.022-.223.065-.326.044-.104.107-.198.188-.276.08-.078.175-.14.279-.181Z" fill="#fff"/><path d="M142.839,169.814l-1.12,14.544l3.505,1.975l7.665-3.037.374-4.085-10.424-9.397Z" fill="#292a2e"/><path d="M145.223,186.627c-.05,0-.1-.013-.144-.038l-3.504-1.975c-.048-.028-.088-.068-.115-.118-.026-.049-.038-.105-.033-.161l1.119-14.544c.004-.055.024-.107.056-.151.033-.045.077-.079.128-.099.051-.021.107-.026.161-.017.054.01.104.035.145.072l10.424,9.396c.034.031.06.069.077.111.017.043.023.089.019.134l-.375,4.085c-.005.054-.025.106-.057.149-.033.044-.077.077-.127.097l-7.665,3.038c-.035.014-.072.021-.109.021Zm-3.197-2.433l3.22,1.815l7.367-2.919.344-3.759-9.871-8.9-1.06,13.763Z" fill="#fff"/><path d="M146.185,178.566c-.059,0-.116-.018-.165-.051-.048-.033-.086-.08-.108-.135l-3.347-8.457c-.029-.072-.028-.153.003-.224.031-.072.089-.128.162-.157.072-.028.153-.027.224.004.072.031.128.089.157.161l3.347,8.457c.015.036.022.074.021.113s-.009.077-.024.112-.038.067-.065.094c-.028.027-.061.048-.097.062-.034.014-.071.021-.108.021Z" fill="#fff"/><path d="M146.697,181.412c1.028,0,1.862-.833,1.862-1.862c0-1.028-.834-1.862-1.862-1.862-1.029,0-1.862.834-1.862,1.862c0,1.029.833,1.862,1.862,1.862Z" fill="#292a2e"/><path d="M146.697,181.707c-.427,0-.843-.126-1.198-.363-.354-.237-.631-.574-.794-.968s-.206-.827-.123-1.245c.084-.418.289-.803.59-1.104.302-.302.686-.507,1.104-.59s.852-.041,1.246.122c.394.164.731.44.967.795.237.354.364.771.364,1.197-.001.572-.228,1.12-.632,1.524-.405.404-.953.632-1.524.632Zm0-3.724c-.31,0-.614.092-.872.264s-.459.417-.577.704c-.119.287-.15.602-.09.906.061.305.21.584.43.804.219.219.499.368.803.429.304.06.62.029.906-.089.287-.119.532-.32.704-.578.173-.258.264-.561.264-.872c0-.416-.165-.815-.459-1.109s-.693-.46-1.109-.461v.002Z" fill="#fff"/><path d="M143.411,186.846l10.967-4.346c.192-.076.406-.074.597.005.19.08.343.23.424.42l.797,1.86c.042.098.064.203.064.31c0,.106-.021.211-.062.309s-.102.187-.178.261-.166.132-.266.171l-11.005,4.28c-.192.075-.406.072-.596-.008-.19-.081-.341-.232-.422-.422l-.758-1.793c-.042-.098-.063-.202-.063-.308s.02-.21.061-.308c.041-.097.101-.186.176-.26.076-.074.165-.132.264-.171Z" fill="#fff"/><path d="M150.419,171.229c-.078,0-.152-.031-.207-.086s-.086-.13-.086-.208v-5.666c0-.078.031-.152.086-.208.055-.055.129-.086.207-.086s.153.031.208.086c.055.056.086.13.086.208v5.666c0,.078-.031.153-.086.208s-.13.086-.208.086Z" fill="#fff"/><path d="M153.253,168.396h-5.667c-.078,0-.153-.031-.208-.086s-.086-.13-.086-.208.031-.152.086-.207.13-.086.208-.086h5.666c.078,0,.152.031.208.086.055.055.086.129.086.207s-.031.153-.086.208c-.056.055-.13.086-.208.086h.001Z" fill="#fff"/><path d="M115.131,220.783c-.386,0-.766-.101-1.101-.294-.509-.293-.881-.777-1.034-1.344-.153-.568-.074-1.172.219-1.682l5.946-10.33c.039-.067.103-.116.178-.137.075-.02.155-.01.223.029l3.331,1.917c.067.039.116.102.137.176.02.076.01.156-.029.223l-5.945,10.329c-.195.339-.475.62-.813.815-.338.196-.721.298-1.112.298Zm-.808-.804c.374.214.819.272,1.235.16.417-.113.772-.386.988-.759l5.799-10.075-2.822-1.624-5.799,10.074c-.215.374-.273.819-.161,1.236s.386.773.76.988v0Z" fill="#fff"/><path d="M124.676,207.472l-4.737-2.727c-.708-.407-1.612-.164-2.019.544l-.001.001c-.407.708-.163,1.612.544,2.019l4.737,2.726c.708.408,1.612.164,2.02-.544v0c.407-.708.164-1.612-.544-2.019Z" fill="#fff"/><path d="M124.258,202.719c.375.216.648.571.761.988.112.418.054.862-.161,1.237l-1.875,3.257-2.825-1.625l1.875-3.258c.107-.185.249-.348.419-.478.169-.131.363-.227.57-.282.206-.056.422-.07.634-.043.212.028.417.097.602.204Z" fill="#fff"/><path d="M147.405,219.678c-1.114.003-2.218-.214-3.247-.639-1.029-.426-1.964-1.051-2.751-1.839-.054-.055-.084-.129-.083-.206s.031-.151.086-.206c.054-.054.128-.085.205-.086s.151.029.206.082c1.109,1.105,2.52,1.856,4.056,2.159c1.535.302,3.126.142,4.571-.459c1.445-.602,2.678-1.618,3.545-2.921.868-1.303,1.329-2.834,1.326-4.399s-.47-3.094-1.342-4.393c-.872-1.3-2.11-2.312-3.557-2.908s-3.038-.75-4.573-.441c-1.534.308-2.942,1.065-4.047,2.173-.055.054-.129.084-.206.083s-.151-.031-.205-.086c-.055-.054-.086-.128-.087-.205c0-.077.029-.151.082-.206.987-.99,2.202-1.722,3.539-2.13c1.337-.409,2.754-.481,4.125-.211s2.655.874,3.737,1.759s1.929,2.023,2.467,3.313c.537,1.29.748,2.693.613,4.084-.134,1.392-.609,2.728-1.384,3.892-.774,1.163-1.823,2.118-3.055,2.779-1.231.661-2.607,1.009-4.004,1.011h-.017Z" fill="#fff"/><path d="M144.813,206.432c-.017,0-.035-.002-.052-.005l-3.538-.634c-.039-.007-.075-.022-.108-.044-.033-.021-.061-.049-.083-.081-.022-.033-.037-.069-.045-.107-.007-.039-.007-.078.001-.117l.683-3.326c.008-.038.023-.074.044-.106.022-.032.05-.059.082-.08.032-.022.068-.036.106-.044.038-.007.077-.007.114.001.038.008.074.023.106.044.032.022.059.05.081.082.021.032.036.068.043.106s.007.077-.001.114l-.622,3.032l3.242.582c.072.013.136.053.181.111.044.058.065.131.059.204-.007.073-.04.141-.094.19-.054.05-.125.077-.198.078h-.001Z" fill="#fff"/><path d="M152.808,248.861h-14.139c-.077,0-.152-.031-.207-.086s-.086-.13-.086-.208v-14.138c0-.078.031-.153.086-.208s.13-.086.207-.086h14.139c.078,0,.153.031.208.086s.086.13.086.208v14.138c0,.078-.031.153-.086.208s-.13.086-.208.086Zm-13.845-.588h13.552v-13.551h-13.552v13.551Z" fill="#fff"/><path d="M153.764,239.515h-7.614c-1.774,0-3.212,1.438-3.212,3.212v7.614c0,1.774,1.438,3.212,3.212,3.212h7.614c1.774,0,3.212-1.438,3.212-3.212v-7.614c0-1.774-1.438-3.212-3.212-3.212Z" fill="#292a2e"/><path d="M153.765,253.846h-7.615c-.93-.001-1.821-.37-2.478-1.027s-1.027-1.548-1.028-2.478v-7.614c.001-.93.371-1.821,1.028-2.478s1.548-1.027,2.478-1.028h7.615c.929.001,1.82.371,2.477,1.028.658.657,1.027,1.548,1.028,2.478v7.614c-.001.93-.37,1.821-1.028,2.478-.657.657-1.548,1.026-2.477,1.027ZM146.15,239.81c-.774.001-1.516.309-2.063.856s-.855,1.289-.855,2.062v7.615c0,.774.308,1.515.855,2.062s1.289.855,2.063.856h7.615c.774-.001,1.515-.309,2.062-.856s.855-1.288.856-2.062v-7.616c-.001-.774-.308-1.516-.855-2.063s-1.289-.855-2.063-.856l-7.615.002Z" fill="#fff"/><path d="M124.119,242.149c0-3.33-2.7-6.031-6.031-6.031s-6.031,2.701-6.031,6.031c0,3.331,2.7,6.031,6.031,6.031s6.031-2.7,6.031-6.031Z" fill="#292a2e"/><path d="M118.088,248.473c-1.251,0-2.474-.37-3.514-1.065s-1.851-1.683-2.329-2.839c-.479-1.155-.604-2.427-.36-3.654s.846-2.354,1.731-3.238c.884-.885,2.011-1.487,3.238-1.731s2.498-.119,3.654.36s2.144,1.289,2.838,2.329c.695,1.04,1.066,2.263,1.066,3.514-.002,1.677-.669,3.284-1.854,4.47-1.186,1.185-2.793,1.852-4.47,1.854Zm0-12.061c-1.135,0-2.244.336-3.188.967-.943.63-1.678,1.526-2.113,2.574-.434,1.049-.548,2.202-.326,3.315.221,1.113.768,2.135,1.57,2.938.802.802,1.825,1.349,2.938,1.57c1.112.221,2.266.108,3.314-.327c1.049-.434,1.945-1.169,2.575-2.113.631-.943.967-2.052.967-3.187-.002-1.521-.607-2.979-1.682-4.055-1.076-1.076-2.534-1.681-4.055-1.682Z" fill="#fff"/><path d="M121.234,247.293l-.507.297l4.033,6.862.506-.298-4.032-6.861Z" fill="#fff"/><path d="M156.48,287.376h-15.756v-15.755h15.756v15.755Zm-15.169-.587h14.582v-14.581h-14.582v14.581Z" fill="#fff"/><path d="M141.018,272.208c-.078,0-.153-.031-.208-.086s-.086-.129-.086-.207v-4.596c0-.078.031-.153.086-.208s.13-.086.208-.086.152.031.207.086.086.13.086.208v4.596c0,.078-.031.152-.086.207s-.129.086-.207.086Z" fill="#fff"/><path d="M140.968,272.208h-4.597c-.077,0-.152-.031-.207-.086s-.086-.13-.086-.207c0-.078.031-.153.086-.208s.13-.086.207-.086h4.597c.077,0,.152.031.207.086s.086.13.086.208c0,.077-.031.152-.086.207s-.13.086-.207.086Z" fill="#fff"/><path d="M117.674,288.422h1.242l3.959-18.607h5.785l.192-.969h-12.792l-.211.969h5.755l-3.93,18.607Z" fill="#fff"/><path d="M394.439,364.196l-24.265-74.585c-.426-1.311-1.256-2.453-2.371-3.263-1.116-.81-2.458-1.246-3.837-1.246h-98.853c-1.03,0-2.046.244-2.964.712s-1.712,1.146-2.318,1.98c-.605.834-1.005,1.799-1.166,2.817s-.079,2.059.24,3.039l24.265,74.586c.426,1.31,1.256,2.452,2.371,3.262c1.116.81,2.459,1.246,3.837,1.246h98.853c1.03,0,2.046-.244,2.964-.712s1.712-1.146,2.318-1.98c.605-.834,1.005-1.799,1.166-2.817.161-1.017.078-2.059-.24-3.039Z" fill="#292a2e"/><path d="M440.817,366.696h-66.171c-1.649,0-2.986,1.337-2.986,2.986v.076c0,1.649,1.337,2.986,2.986,2.986h66.171c1.649,0,2.986-1.337,2.986-2.986v-.076c0-1.649-1.337-2.986-2.986-2.986Z" fill="#292a2e"/><path d="M326.672,342.93c5.726,0,10.368-4.642,10.368-10.368c0-5.727-4.642-10.368-10.368-10.368s-10.368,4.641-10.368,10.368c0,5.726,4.642,10.368,10.368,10.368Z" fill="#fff"/></svg>
