<svg width="68" height="68" viewBox="0 0 68 68" fill="none" xmlns="http://www.w3.org/2000/svg">
<g clip-path="url(#clip0_145_418)">
<path fill-rule="evenodd" clip-rule="evenodd" d="M23.1476 0.818848C17.0053 0.818848 12.0203 5.80385 12.0203 11.9461C12.0203 18.0883 17.0053 23.0733 23.1476 23.0733C17.0053 23.0733 12.0203 28.0583 12.0203 34.2005C12.0203 40.3428 17.0053 45.3278 23.1476 45.3278C17.0053 45.3278 12.0203 50.3128 12.0203 56.455C12.0203 62.5972 17.0053 67.5822 23.1476 67.5822C29.2898 67.5822 34.2748 62.5972 34.2748 56.455L34.2748 34.2005C34.2748 40.3428 39.2598 45.3278 45.402 45.3278C51.5442 45.3278 56.5292 40.3428 56.5292 34.2005C56.5292 28.0583 51.5442 23.0733 45.402 23.0733C51.5442 23.0733 56.5292 18.0883 56.5292 11.9461C56.5292 5.80385 51.5442 0.818848 45.402 0.818848H23.1476ZM45.402 23.0733H34.2748L34.2748 34.2005C34.2748 28.0583 39.2598 23.0733 45.402 23.0733Z" fill="#384359"/>
</g>
<defs>
<clipPath id="clip0_145_418">
<rect width="66.7634" height="66.7634" fill="white" transform="translate(0.806152 0.818848)"/>
</clipPath>
</defs>
</svg>
