<svg width="68" height="69" viewBox="0 0 68 69" fill="none" xmlns="http://www.w3.org/2000/svg">
<g clip-path="url(#clip0_145_424)">
<path fill-rule="evenodd" clip-rule="evenodd" d="M63.1409 30.3148L35.6339 2.80985C34.051 1.22549 31.4816 1.22549 29.8965 2.80985L24.1847 8.52166L31.4304 15.7674C33.1143 15.1985 35.045 15.58 36.3874 16.9225C37.736 18.2732 38.1148 20.2204 37.5321 21.9098L44.5151 28.8929C46.2046 28.3108 48.1539 28.6876 49.5032 30.039C51.3889 31.924 51.3889 34.9794 49.5032 36.8658C47.6168 38.7522 44.5614 38.7522 42.6743 36.8658C41.2559 35.4459 40.9054 33.3625 41.6236 31.615L35.1113 25.1027L35.1106 42.2403C35.5703 42.4684 36.0044 42.7718 36.3874 43.1534C38.2731 45.0385 38.2731 48.0938 36.3874 49.9816C34.501 51.8673 31.4442 51.8673 29.5606 49.9816C27.6748 48.0938 27.6748 45.0385 29.5606 43.1534C30.0265 42.6882 30.5657 42.3364 31.1408 42.0999V24.8027C30.5657 24.5677 30.0272 24.2179 29.5606 23.7493C28.1318 22.3225 27.7882 20.226 28.5202 18.4716L21.3782 11.3281L2.51739 30.1876C0.932353 31.7733 0.932353 34.3427 2.51739 35.9271L30.0244 63.4327C31.6081 65.017 34.1768 65.017 35.7625 63.4327L63.1409 36.0549C64.7253 34.4699 64.7253 31.8991 63.1409 30.3148" fill="#384359"/>
</g>
<defs>
<clipPath id="clip0_145_424">
<rect width="63.1202" height="63.1202" fill="white" transform="translate(1.32843 1.62158)"/>
</clipPath>
</defs>
</svg>
