<svg width="22" height="22" viewBox="0 0 22 22" fill="none" xmlns="http://www.w3.org/2000/svg">
<path fill-rule="evenodd" clip-rule="evenodd" d="M10.8817 0.510086C5.01352 0.510086 0.255005 5.26772 0.255005 11.1368C0.255005 15.832 3.29989 19.8153 7.52221 21.2205C8.0533 21.3189 8.24828 20.99 8.24828 20.7093C8.24828 20.4559 8.23842 19.6188 8.23385 18.7308C5.27748 19.3736 4.65365 17.477 4.65365 17.477C4.17025 16.2487 3.47375 15.9221 3.47375 15.9221C2.50959 15.2625 3.54643 15.2761 3.54643 15.2761C4.61353 15.351 5.17542 16.3712 5.17542 16.3712C6.12321 17.9958 7.66141 17.5261 8.26781 17.2546C8.36319 16.5677 8.63859 16.0989 8.9425 15.8336C6.58216 15.5649 4.10092 14.6537 4.10092 10.5818C4.10092 9.42159 4.51604 8.47362 5.19583 7.72943C5.0855 7.46177 4.72176 6.38094 5.29878 4.91718C5.29878 4.91718 6.19114 4.63158 8.22188 6.00646C9.06955 5.77101 9.97863 5.65293 10.8817 5.64888C11.7848 5.65293 12.6946 5.77101 13.5439 6.00646C15.5721 4.63158 16.4633 4.91718 16.4633 4.91718C17.0417 6.38094 16.6778 7.46177 16.5675 7.72943C17.2488 8.47362 17.6611 9.42159 17.6611 10.5818C17.6611 14.6633 15.1751 15.562 12.8088 15.8251C13.19 16.1549 13.5296 16.8016 13.5296 17.793C13.5296 19.2149 13.5173 20.3593 13.5173 20.7093C13.5173 20.9921 13.7086 21.3234 14.2472 21.2191C18.4673 19.8123 21.5083 15.8304 21.5083 11.1368C21.5083 5.26772 16.7505 0.510086 10.8817 0.510086ZM4.23506 15.6481C4.21166 15.7009 4.1286 15.7167 4.05293 15.6805C3.97585 15.6458 3.93256 15.5738 3.95755 15.5209C3.98043 15.4665 4.06366 15.4513 4.14056 15.4878C4.21781 15.5224 4.26181 15.5951 4.23506 15.6481ZM4.75778 16.1145C4.7071 16.1615 4.60802 16.1397 4.5408 16.0654C4.47129 15.9913 4.45827 15.8922 4.50965 15.8446C4.56192 15.7976 4.658 15.8196 4.72769 15.8936C4.79719 15.9686 4.81075 16.067 4.75778 16.1145ZM5.11638 16.7113C5.05127 16.7565 4.94481 16.7141 4.87899 16.6196C4.81388 16.5251 4.81388 16.4117 4.8804 16.3663C4.94639 16.3209 5.05127 16.3618 5.11796 16.4556C5.1829 16.5516 5.1829 16.665 5.11638 16.7113ZM5.72286 17.4024C5.66461 17.4666 5.54055 17.4494 5.44974 17.3617C5.35683 17.276 5.33096 17.1544 5.38938 17.0902C5.44834 17.0258 5.5731 17.0439 5.66461 17.1309C5.75682 17.2164 5.78497 17.3389 5.72286 17.4024ZM6.50667 17.6357C6.48097 17.7189 6.36149 17.7568 6.24112 17.7214C6.12093 17.685 6.04227 17.5875 6.06655 17.5034C6.09154 17.4196 6.21156 17.3802 6.3328 17.418C6.45282 17.4543 6.53165 17.5511 6.50667 17.6357ZM7.39868 17.7347C7.40167 17.8223 7.2996 17.895 7.17325 17.8966C7.0462 17.8994 6.94343 17.8285 6.94202 17.7422C6.94202 17.6537 7.0418 17.5818 7.16885 17.5796C7.2952 17.5772 7.39868 17.6476 7.39868 17.7347ZM8.27497 17.7011C8.29011 17.7866 8.2023 17.8744 8.07683 17.8978C7.95347 17.9203 7.83926 17.8676 7.8236 17.7827C7.80829 17.6951 7.89769 17.6073 8.02087 17.5846C8.14651 17.5628 8.25896 17.6142 8.27497 17.7011Z" fill="white"/>
</svg>
