<svg width="67" height="68" viewBox="0 0 67 68" fill="none" xmlns="http://www.w3.org/2000/svg">
<path fill-rule="evenodd" clip-rule="evenodd" d="M33.4248 2.38379C15.4229 2.38379 0.825195 16.9788 0.825195 34.9834C0.825195 49.3867 10.166 61.6064 23.1188 65.917C24.748 66.2188 25.3461 65.2098 25.3461 64.3488C25.3461 63.5714 25.3159 61.0034 25.3019 58.2794C16.2326 60.2514 14.3189 54.4331 14.3189 54.4331C12.836 50.665 10.6993 49.6631 10.6993 49.6631C7.74156 47.6398 10.9223 47.6814 10.9223 47.6814C14.1958 47.9113 15.9195 51.0408 15.9195 51.0408C18.8271 56.0245 23.5458 54.5837 25.406 53.7507C25.6986 51.6437 26.5435 50.2056 27.4758 49.3916C20.235 48.5672 12.6233 45.772 12.6233 33.2807C12.6233 29.7216 13.8968 26.8135 15.9821 24.5305C15.6437 23.7094 14.5278 20.3938 16.298 15.9034C16.298 15.9034 19.0355 15.0273 25.2652 19.245C27.8655 18.5227 30.6543 18.1605 33.4248 18.1481C36.1952 18.1605 38.9861 18.5227 41.5914 19.245C47.8135 15.0273 50.5473 15.9034 50.5473 15.9034C52.3217 20.3938 51.2053 23.7094 50.8668 24.5305C52.9571 26.8135 54.2219 29.7216 54.2219 33.2807C54.2219 45.8017 46.5957 48.5586 39.3365 49.3656C40.5058 50.3773 41.5477 52.3612 41.5477 55.4026C41.5477 59.7645 41.5099 63.275 41.5099 64.3488C41.5099 65.2163 42.0967 66.2328 43.7491 65.9127C56.6949 61.5972 66.0238 49.3818 66.0238 34.9834C66.0238 16.9788 51.4283 2.38379 33.4248 2.38379ZM13.0348 48.8226C12.963 48.9845 12.7082 49.0331 12.4761 48.9219C12.2396 48.8155 12.1068 48.5947 12.1835 48.4323C12.2537 48.2654 12.509 48.219 12.7449 48.3308C12.9819 48.4371 13.1168 48.6601 13.0348 48.8226ZM14.6383 50.2534C14.4829 50.3975 14.1789 50.3306 13.9727 50.1028C13.7595 49.8755 13.7195 49.5716 13.8772 49.4253C14.0375 49.2811 14.3322 49.3486 14.546 49.5759C14.7593 49.8059 14.8008 50.1076 14.6383 50.2534ZM15.7384 52.0841C15.5387 52.2228 15.2121 52.0927 15.0102 51.8028C14.8104 51.5129 14.8104 51.1652 15.0145 51.026C15.2169 50.8867 15.5387 51.0119 15.7433 51.2997C15.9425 51.5944 15.9425 51.9421 15.7384 52.0841ZM17.5989 54.2042C17.4202 54.4013 17.0396 54.3484 16.7611 54.0795C16.476 53.8166 16.3967 53.4436 16.5759 53.2466C16.7568 53.049 17.1395 53.1046 17.4202 53.3713C17.7031 53.6336 17.7895 54.0094 17.5989 54.2042ZM20.0034 54.92C19.9246 55.1753 19.558 55.2914 19.1888 55.1829C18.8201 55.0711 18.5788 54.7721 18.6533 54.514C18.7299 54.2571 19.0981 54.1361 19.47 54.2522C19.8382 54.3634 20.08 54.6603 20.0034 54.92ZM22.7398 55.2236C22.749 55.4924 22.4359 55.7154 22.0483 55.7202C21.6585 55.7289 21.3433 55.5113 21.3389 55.2468C21.3389 54.9753 21.645 54.7545 22.0348 54.748C22.4224 54.7404 22.7398 54.9564 22.7398 55.2236ZM25.428 55.1205C25.4744 55.3829 25.2051 55.6523 24.8202 55.7241C24.4417 55.7932 24.0914 55.6312 24.0433 55.371C23.9964 55.1022 24.2706 54.8328 24.6485 54.7632C25.0339 54.6962 25.3789 54.8539 25.428 55.1205Z" fill="#384359"/>
</svg>
