<svg width="67" height="67" viewBox="0 0 67 67" fill="none" xmlns="http://www.w3.org/2000/svg">
<g clip-path="url(#clip0_145_408)">
<g clip-path="url(#clip1_145_408)">
<g clip-path="url(#clip2_145_408)">
<path d="M32.3653 64.0608L14.5607 59.1182L10.568 14.3347H54.2171L50.2201 59.1109L32.3653 64.0608Z" stroke="#384359" stroke-width="1.01073"/>
<path fill-rule="evenodd" clip-rule="evenodd" d="M43.8591 51.7085L43.9434 50.762L45.26 36.0118L45.3967 34.5073H24.9787L24.4667 28.77H32.3829H45.8885L46.0189 27.5107L46.2741 24.6704L46.4081 23.1672H32.3829H18.3436L18.4777 24.6704L19.8547 40.11H32.3926H39.2723L38.622 47.3763L32.3916 49.058L26.1282 47.3799L25.7293 42.9114H22.6973H20.1051L20.89 51.7085L32.3668 54.8946L43.8591 51.7085Z" fill="#384359"/>
<path fill-rule="evenodd" clip-rule="evenodd" d="M14.1795 1.41479H17.0267V4.22785H19.6313V1.41479H22.4786V9.93342H19.6314V7.08089H17.0269V9.93342H14.1796V1.41479H14.1795Z" fill="#384359"/>
<path fill-rule="evenodd" clip-rule="evenodd" d="M26.2228 4.2397H23.7162V1.41479H31.578V4.2397H29.0703V9.93342H26.223V4.2397H26.2228Z" fill="#384359"/>
<path fill-rule="evenodd" clip-rule="evenodd" d="M32.8257 1.41479H35.7946L37.6209 4.40799L39.4453 1.41479H42.4153V9.93342H39.5798V5.71112L37.6209 8.73997H37.5719L35.6117 5.71112V9.93342H32.8257V1.41479H32.8257Z" fill="#384359"/>
<path fill-rule="evenodd" clip-rule="evenodd" d="M43.8323 1.41479H46.6804V7.11765H50.6845V9.93342H43.8323V1.41479V1.41479Z" fill="#384359"/>
</g>
</g>
</g>
<defs>
<clipPath id="clip0_145_408">
<rect width="44.851" height="63.1704" fill="white" transform="translate(9.9375 1.41479)"/>
</clipPath>
<clipPath id="clip1_145_408">
<rect width="44.851" height="63.1704" fill="white" transform="translate(9.9375 1.41479)"/>
</clipPath>
<clipPath id="clip2_145_408">
<rect width="44.851" height="63.1704" fill="white" transform="translate(9.9375 1.41479)"/>
</clipPath>
</defs>
</svg>
