<svg width="68" height="67" viewBox="0 0 68 67" fill="none" xmlns="http://www.w3.org/2000/svg">
<g clip-path="url(#clip0_145_405)">
<path fill-rule="evenodd" clip-rule="evenodd" d="M1.0636 0.78418H66.4123V66.1329H1.0636V0.78418ZM18.2462 55.3944L18.2463 55.3943C19.6939 58.4646 22.5455 61.0086 27.4579 61.0086C32.8975 61.0086 36.6259 58.1135 36.6259 51.7529V30.7856H30.4848V51.6661C30.4848 54.7364 29.2126 55.5258 27.1947 55.5258C25.0895 55.5258 24.2119 54.0785 23.2471 52.3679L18.2463 55.3943L18.2461 55.3938L18.2462 55.3944ZM44.9619 51.8411L39.9617 54.7363C41.76 58.2896 45.4448 61.0091 51.1474 61.0091C56.9814 61.0091 61.3241 57.9827 61.3241 52.4552C61.3241 47.3231 58.385 45.0423 53.1649 42.805L51.6297 42.147C48.998 41.0064 47.8574 40.2605 47.8574 38.4181C47.8574 36.9269 48.998 35.7864 50.7966 35.7864C52.5511 35.7864 53.6913 36.532 54.7441 38.4181L59.5256 35.3476C57.508 31.7944 54.7006 30.4345 50.7964 30.4345C45.313 30.4345 41.8037 33.9439 41.8037 38.5498C41.8037 43.5507 44.7429 45.9194 49.1736 47.8053L50.7085 48.4638C53.516 49.6916 55.1828 50.4374 55.1828 52.543C55.1828 54.2976 53.5602 55.5698 51.0156 55.5698C47.989 55.5698 46.2783 53.9908 44.9619 51.8411Z" fill="#384359"/>
</g>
<defs>
<clipPath id="clip0_145_405">
<rect width="66.9171" height="66.9171" fill="white" transform="translate(0.279419)"/>
</clipPath>
</defs>
</svg>
