<svg width="23" height="23" viewBox="0 0 23 23" fill="none" xmlns="http://www.w3.org/2000/svg">
<path d="M5.04011 7.33984H0.376221V22.2127H5.04011V7.33984Z" fill="white"/>
<path d="M17.6562 7.01706C17.4843 6.99557 17.3016 6.98482 17.1189 6.97407C14.5075 6.86661 13.0353 8.41407 12.5195 9.08034C12.3798 9.26303 12.3153 9.37049 12.3153 9.37049V7.38243H7.85559V22.2553H12.3153H12.5195C12.5195 20.7401 12.5195 19.2356 12.5195 17.7204C12.5195 16.9036 12.5195 16.0869 12.5195 15.2702C12.5195 14.26 12.4443 13.1854 12.9493 12.2612C13.3792 11.4875 14.1529 11.1006 15.0234 11.1006C17.6025 11.1006 17.6562 13.4326 17.6562 13.6475C17.6562 13.6583 17.6562 13.669 17.6562 13.669V22.3198H22.3201V12.6159C22.3201 9.29527 20.6329 7.33945 17.6562 7.01706Z" fill="white"/>
<path d="M2.70806 5.41612C4.20368 5.41612 5.41613 4.20368 5.41613 2.70806C5.41613 1.21244 4.20368 0 2.70806 0C1.21244 0 0 1.21244 0 2.70806C0 4.20368 1.21244 5.41612 2.70806 5.41612Z" fill="white"/>
</svg>
