<svg width="30" height="30" viewBox="0 0 30 30" fill="none" xmlns="http://www.w3.org/2000/svg">
<g clip-path="url(#clip0_149_162)">
<path fill-rule="evenodd" clip-rule="evenodd" d="M25.2178 4.17217C26.5491 5.42762 27.5976 6.88442 28.328 8.50704C29.082 10.2007 29.4708 11.9891 29.459 13.8486C29.459 15.6963 29.0702 17.4965 28.3162 19.1784C27.5858 20.801 26.5373 22.2578 25.206 23.5132C23.8748 24.7687 22.3315 25.7399 20.6115 26.4268C18.8325 27.1375 16.9476 27.4928 15.0037 27.4928C12.9185 27.4928 10.9275 27.0901 9.05429 26.2847L2.78678 29.0917L3.96488 22.6368C1.76183 20.1733 0.560181 17.0702 0.560181 13.8368C0.560181 11.9891 0.948977 10.1889 1.70296 8.50704C2.43338 6.88442 3.48188 5.42762 4.81313 4.17217C6.14438 2.91672 7.6877 1.94552 9.40772 1.25858C11.1867 0.547944 13.0716 0.192627 15.0155 0.192627C16.9594 0.192627 18.8443 0.547944 20.6233 1.25858C22.3433 1.94552 23.8866 2.92856 25.2178 4.17217ZM19.5041 15.945C19.8222 16.0634 20.2698 16.2529 20.8825 16.5608C21.0478 16.6462 21.2216 16.7179 21.3968 16.7902C21.6835 16.9086 21.974 17.0285 22.2373 17.2123C22.4493 17.4965 22.5082 17.7334 22.3669 18.3611C19.5866 25.5859 5.92062 15.104 8.19435 9.59663C8.57135 8.73203 9.49022 7.07388 11.0924 7.90296C11.3429 8.02886 11.4478 8.29593 11.5522 8.56175C11.6049 8.69601 11.6575 8.82995 11.7287 8.94522C11.8839 9.27209 12.0529 9.64556 12.1981 9.96624C12.2844 10.1568 12.3622 10.3288 12.4237 10.4612C12.4431 10.5317 12.4818 10.6097 12.5248 10.6963C12.6912 11.0316 12.9217 11.496 12.3412 12.1549C12.2911 12.2516 12.1786 12.3736 12.056 12.5066C11.833 12.7486 11.5763 13.0272 11.5991 13.2564C11.7875 13.5999 12.6593 14.879 13.1306 15.3291C14.1909 16.3595 15.5457 17.3662 17.0065 17.6505C17.3513 17.5188 17.6839 17.0504 18.0045 16.599C18.2316 16.2792 18.4527 15.9679 18.6677 15.791C18.8087 15.6796 19.1735 15.8193 19.4016 15.9066C19.4403 15.9214 19.475 15.9347 19.5041 15.945Z" fill="white"/>
</g>
<defs>
<clipPath id="clip0_149_162">
<rect width="30" height="30" fill="white"/>
</clipPath>
</defs>
</svg>
