<svg width="173" height="32" viewBox="0 0 173 32" fill="none" xmlns="http://www.w3.org/2000/svg">
<path d="M75.244 18.86L74.668 19.0286L74.6721 19.0413L75.244 18.86ZM76.252 20.848L75.7758 21.2131L75.7826 21.2219L75.7898 21.2305L76.252 20.848ZM77.876 22.108L78.1315 21.5651L78.1315 21.5651L77.876 22.108ZM82.216 22.108L81.9665 21.5623L81.9605 21.5651L82.216 22.108ZM83.84 20.848L83.3715 20.4732L83.3699 20.4752L83.84 20.848ZM84.848 18.86L84.2759 18.6786L84.2722 18.6915L84.848 18.86ZM84.848 13.708L84.2711 13.8728L84.2735 13.8811L84.2761 13.8893L84.848 13.708ZM83.84 11.72L83.3638 12.0851L83.3706 12.0939L83.3778 12.1025L83.84 11.72ZM82.216 10.432L81.9605 10.9749L81.9665 10.9777L82.216 10.432ZM77.876 10.46L78.1315 11.0029L78.1379 10.9999L78.1443 10.9967L77.876 10.46ZM76.252 11.748L75.7835 11.3732L75.7819 11.3752L76.252 11.748ZM75.244 13.736L74.6708 13.5586L74.6682 13.5675L75.244 13.736ZM88.964 20.68L88.4063 20.4586L88.4046 20.4629L88.964 20.68ZM86.948 23.844L87.3676 24.2729L87.3723 24.2683L86.948 23.844ZM83.868 25.748L83.6651 25.1833L83.6622 25.1844L83.868 25.748ZM73.228 23.844L72.8083 24.2728L72.8131 24.2774L73.228 23.844ZM71.156 20.68L70.5983 20.9014L70.5995 20.9043L71.156 20.68ZM71.184 11.916L71.7376 12.1474L71.7388 12.1444L71.184 11.916ZM73.284 8.724L72.8688 8.29078L72.8643 8.2952L73.284 8.724ZM76.364 6.792L76.1582 6.22838L76.1553 6.22946L76.364 6.792ZM83.812 6.792L84.0178 6.22838L84.0178 6.22838L83.812 6.792ZM86.892 8.724L87.3117 8.2952L87.3117 8.2952L86.892 8.724ZM88.964 11.916L88.4063 12.1374L88.4075 12.1403L88.964 11.916ZM74.308 16.284C74.308 17.2824 74.4254 18.1991 74.6682 19.0285L75.8198 18.6915C75.6146 17.9903 75.508 17.1896 75.508 16.284H74.308ZM74.6721 19.0413C74.9329 19.864 75.2988 20.5908 75.7758 21.2131L76.7282 20.4829C76.3466 19.9852 76.0404 19.3867 75.8159 18.6787L74.6721 19.0413ZM75.7898 21.2305C76.2939 21.8398 76.9058 22.3146 77.6205 22.6509L78.1315 21.5651C77.5768 21.3041 77.1061 20.9389 76.7142 20.4655L75.7898 21.2305ZM77.6205 22.6509C78.3476 22.9931 79.1653 23.156 80.06 23.156V21.956C79.312 21.956 78.6737 21.8203 78.1315 21.5651L77.6205 22.6509ZM80.06 23.156C80.9382 23.156 81.7461 22.9922 82.4715 22.6509L81.9605 21.5651C81.4166 21.8211 80.7871 21.956 80.06 21.956V23.156ZM82.4655 22.6537C83.2014 22.3172 83.8195 21.8394 84.3101 21.2208L83.3699 20.4752C83.0018 20.9393 82.5373 21.3014 81.9665 21.5623L82.4655 22.6537ZM84.3085 21.2228C84.8106 20.5952 85.1803 19.8606 85.4238 19.0285L84.2722 18.6915C84.0677 19.3901 83.7654 19.9808 83.3715 20.4732L84.3085 21.2228ZM85.4199 19.0413C85.6843 18.2076 85.812 17.2864 85.812 16.284H84.612C84.612 17.1856 84.4971 17.9817 84.2761 18.6787L85.4199 19.0413ZM85.812 16.284C85.812 15.2816 85.6843 14.3604 85.4199 13.5267L84.2761 13.8893C84.4971 14.5863 84.612 15.3824 84.612 16.284H85.812ZM85.4249 13.5432C85.1818 12.6921 84.8109 11.9521 84.3022 11.3375L83.3778 12.1025C83.7651 12.5706 84.0662 13.1559 84.2711 13.8728L85.4249 13.5432ZM84.3162 11.3549C83.826 10.7157 83.2063 10.225 82.4655 9.88631L81.9665 10.9777C82.5324 11.2363 82.9953 11.6043 83.3638 12.0851L84.3162 11.3549ZM82.4715 9.88911C81.7461 9.54776 80.9382 9.384 80.06 9.384V10.584C80.7871 10.584 81.4166 10.7189 81.9605 10.9749L82.4715 9.88911ZM80.06 9.384C79.1602 9.384 78.3379 9.55825 77.6077 9.92334L78.1443 10.9967C78.6835 10.7271 79.3171 10.584 80.06 10.584V9.384ZM77.6205 9.91711C76.901 10.2557 76.2874 10.7433 75.7835 11.3732L76.7205 12.1228C77.1126 11.6327 77.5816 11.2616 78.1315 11.0029L77.6205 9.91711ZM75.7819 11.3752C75.2986 11.9845 74.9314 12.7167 74.6708 13.5586L75.8172 13.9134C76.0419 13.1873 76.3467 12.5942 76.7221 12.1208L75.7819 11.3752ZM74.6682 13.5675C74.4257 14.3959 74.308 15.3031 74.308 16.284H75.508C75.508 15.3983 75.6143 14.6067 75.8198 13.9045L74.6682 13.5675ZM89.12 16.284C89.12 17.8855 88.877 19.2732 88.4064 20.4586L89.5217 20.9014C90.059 19.5482 90.32 18.0052 90.32 16.284H89.12ZM88.4046 20.4629C87.9463 21.6441 87.3176 22.6259 86.5237 23.4197L87.3723 24.2683C88.2958 23.3448 89.0111 22.2172 89.5234 20.8971L88.4046 20.4629ZM86.5284 23.4151C85.7349 24.1914 84.7833 24.7815 83.6651 25.1834L84.0709 26.3126C85.342 25.8558 86.4438 25.1766 87.3676 24.2729L86.5284 23.4151ZM83.6622 25.1844C82.5578 25.5876 81.3587 25.792 80.06 25.792V26.992C81.4866 26.992 82.8262 26.7671 84.0738 26.3116L83.6622 25.1844ZM80.06 25.792C78.8007 25.792 77.62 25.5883 76.5138 25.1844L76.1022 26.3116C77.348 26.7664 78.6686 26.992 80.06 26.992V25.792ZM76.5138 25.1844C75.4133 24.7826 74.4585 24.1914 73.6429 23.4106L72.8131 24.2774C73.7522 25.1766 74.8507 25.8547 76.1022 26.3116L76.5138 25.1844ZM73.6477 23.4152C72.8352 22.62 72.1886 21.6371 71.7125 20.4557L70.5995 20.9043C71.1314 22.2242 71.8661 23.3507 72.8083 24.2728L73.6477 23.4152ZM71.7136 20.4586C71.243 19.2732 71 17.8855 71 16.284H69.8C69.8 18.0052 70.061 19.5482 70.5984 20.9014L71.7136 20.4586ZM71 16.284C71 14.6847 71.2516 13.3102 71.7376 12.1474L70.6304 11.6846C70.071 13.0231 69.8 14.5607 69.8 16.284H71ZM71.7388 12.1444C72.2342 10.9415 72.891 9.94817 73.7037 9.1528L72.8643 8.2952C71.9223 9.21716 71.1792 10.3519 70.6292 11.6875L71.7388 12.1444ZM73.6991 9.15719C74.5362 8.35499 75.4927 7.75517 76.5727 7.35454L76.1553 6.22946C74.9206 6.68749 73.8238 7.37567 72.8689 8.29081L73.6991 9.15719ZM76.5698 7.35561C77.6779 6.95104 78.8401 6.748 80.06 6.748V5.548C78.7039 5.548 77.4021 5.77429 76.1582 6.22838L76.5698 7.35561ZM80.06 6.748C81.3193 6.748 82.5 6.95173 83.6062 7.35561L84.0178 6.22838C82.772 5.7736 81.4514 5.548 80.06 5.548V6.748ZM83.6062 7.35561C84.7038 7.75631 85.6571 8.35496 86.4723 9.1528L87.3117 8.2952C86.3722 7.3757 85.2722 6.68635 84.0178 6.22838L83.6062 7.35561ZM86.4723 9.1528C87.2832 9.94646 87.9298 10.9373 88.4064 12.1374L89.5217 11.6946C88.9902 10.356 88.2554 9.21887 87.3117 8.2952L86.4723 9.1528ZM88.4075 12.1403C88.8769 13.3052 89.12 14.6822 89.12 16.284H90.32C90.32 14.5631 90.0591 13.0281 89.5205 11.6917L88.4075 12.1403ZM101.957 14.968L101.812 15.5501L102.42 15.7022L102.545 15.0875L101.957 14.968ZM100.641 14.688L100.511 15.2737L100.521 15.276L100.532 15.278L100.641 14.688ZM98.0651 14.604L98.1279 15.2007L98.141 15.1993L98.1541 15.1974L98.0651 14.604ZM97.2531 14.744L97.0807 14.1693L96.6531 14.2976V14.744H97.2531ZM97.2531 26V26.6H97.8531V26H97.2531ZM93.0811 26H92.4811V26.6H93.0811V26ZM93.0811 12.056L92.8829 11.4897L92.4811 11.6303V12.056H93.0811ZM95.7131 11.328L95.8433 11.9138L95.8511 11.9119L95.7131 11.328ZM99.9411 11.02L99.871 11.6159L99.8884 11.6179L99.9059 11.619L99.9411 11.02ZM100.893 11.132L100.789 11.7229L100.806 11.7259L100.823 11.7279L100.893 11.132ZM101.845 11.3L101.708 11.884L101.724 11.8879L101.741 11.8909L101.845 11.3ZM102.657 11.524L103.245 11.6435L103.343 11.1599L102.888 10.9702L102.657 11.524ZM102.103 14.3859C101.714 14.2888 101.263 14.1929 100.75 14.098L100.532 15.278C101.027 15.3697 101.453 15.4605 101.812 15.5501L102.103 14.3859ZM100.771 14.1023C100.22 13.9797 99.6344 13.92 99.0171 13.92V15.12C99.5572 15.12 100.054 15.1723 100.511 15.2737L100.771 14.1023ZM99.0171 13.92C98.7161 13.92 98.3671 13.952 97.9761 14.0106L98.1541 15.1974C98.5097 15.144 98.7954 15.12 99.0171 15.12V13.92ZM98.0023 14.0073C97.6356 14.0459 97.3211 14.0972 97.0807 14.1693L97.4255 15.3187C97.5584 15.2788 97.7852 15.2368 98.1279 15.2007L98.0023 14.0073ZM96.6531 14.744V26H97.8531V14.744H96.6531ZM97.2531 25.4H93.0811V26.6H97.2531V25.4ZM93.6811 26V12.056H92.4811V26H93.6811ZM93.2793 12.6223C93.9982 12.3707 94.8518 12.134 95.8433 11.9137L95.5829 10.7423C94.5584 10.97 93.6574 11.2186 92.8829 11.4897L93.2793 12.6223ZM95.8511 11.9119C96.8251 11.6817 97.9166 11.564 99.1291 11.564V10.364C97.8403 10.364 96.6544 10.489 95.5751 10.7441L95.8511 11.9119ZM99.1291 11.564C99.3221 11.564 99.568 11.5802 99.871 11.6159L100.011 10.4241C99.6795 10.3851 99.3841 10.364 99.1291 10.364V11.564ZM99.9059 11.619C100.2 11.6363 100.494 11.6708 100.789 11.7229L100.997 10.5411C100.658 10.4812 100.317 10.4411 99.9763 10.421L99.9059 11.619ZM100.823 11.7279C101.117 11.7625 101.412 11.8145 101.708 11.884L101.983 10.7159C101.643 10.6362 101.304 10.5762 100.963 10.5361L100.823 11.7279ZM101.741 11.8909C102.028 11.9415 102.254 12.0059 102.426 12.0778L102.888 10.9702C102.612 10.8554 102.297 10.7705 101.949 10.7091L101.741 11.8909ZM102.069 11.4045L101.369 14.8485L102.545 15.0875L103.245 11.6435L102.069 11.4045ZM109.066 26V26.6H109.666V26H109.066ZM104.894 26H104.294V26.6H104.894V26ZM104.894 11.272V10.672H104.294V11.272H104.894ZM109.066 11.272H109.666V10.672H109.066V11.272ZM108.702 8.836L109.099 9.2854L109.1 9.28444L108.702 8.836ZM105.202 8.836L104.795 9.27688L104.803 9.28499L104.813 9.29274L105.202 8.836ZM105.202 5.224L105.599 5.6734L105.6 5.67244L105.202 5.224ZM108.702 5.224L108.295 5.66488L108.303 5.67299L108.313 5.68074L108.702 5.224ZM109.066 25.4H104.894V26.6H109.066V25.4ZM105.494 26V11.272H104.294V26H105.494ZM104.894 11.872H109.066V10.672H104.894V11.872ZM108.466 11.272V26H109.666V11.272H108.466ZM108.858 7.016C108.858 7.63562 108.661 8.06942 108.303 8.38755L109.1 9.28444C109.75 8.70657 110.058 7.92705 110.058 7.016H108.858ZM108.304 8.3866C107.933 8.71503 107.497 8.88 106.966 8.88V10.08C107.778 10.08 108.5 9.81564 109.099 9.2854L108.304 8.3866ZM106.966 8.88C106.434 8.88 105.984 8.71461 105.591 8.37925L104.813 9.29274C105.427 9.81606 106.153 10.08 106.966 10.08V8.88ZM105.609 8.39512C105.266 8.07906 105.074 7.64301 105.074 7.016H103.874C103.874 7.91966 104.166 8.69694 104.795 9.27688L105.609 8.39512ZM105.074 7.016C105.074 6.38839 105.266 5.96801 105.599 5.6734L104.804 4.7746C104.166 5.33865 103.874 6.11294 103.874 7.016H105.074ZM105.6 5.67244C105.995 5.3217 106.441 5.152 106.966 5.152V3.952C106.146 3.952 105.416 4.2303 104.803 4.77555L105.6 5.67244ZM106.966 5.152C107.49 5.152 107.922 5.32115 108.295 5.66488L109.109 4.78312C108.51 4.23085 107.786 3.952 106.966 3.952V5.152ZM108.313 5.68074C108.661 5.97769 108.858 6.39598 108.858 7.016H110.058C110.058 6.10535 109.75 5.32897 109.091 4.76725L108.313 5.68074ZM112.875 15.332L112.321 15.102L112.319 15.1073L112.875 15.332ZM114.471 12.868L114.047 12.4437L114.047 12.4437L114.471 12.868ZM116.711 11.384L116.493 10.8252L116.489 10.8269L116.711 11.384ZM124.299 12.812L123.863 13.2234L123.866 13.2266L124.299 12.812ZM126.091 19.252L126.69 19.2919L126.69 19.2894L126.091 19.252ZM126.035 20.008V20.608H126.587L126.633 20.0578L126.035 20.008ZM116.571 20.008V19.408H115.903L115.975 20.0728L116.571 20.008ZM117.775 22.052L117.428 22.5411L117.428 22.5411L117.775 22.052ZM122.871 22.612L122.977 23.2027L122.989 23.2003L122.871 22.612ZM124.691 22.08L125.283 21.9822L125.157 21.2195L124.45 21.5308L124.691 22.08ZM125.251 25.468L125.52 26.0047L125.915 25.8068L125.843 25.3702L125.251 25.468ZM124.355 25.804L124.183 25.2293L124.183 25.2293L124.355 25.804ZM123.095 26.084L123.001 25.4915L122.987 25.4938L122.973 25.4966L123.095 26.084ZM121.639 26.308L121.703 26.9046L121.703 26.9046L121.639 26.308ZM116.599 25.804L116.375 26.3604L116.378 26.3618L116.599 25.804ZM114.163 24.208L113.722 24.614L113.727 24.6202L113.733 24.6262L114.163 24.208ZM112.735 21.772L112.164 21.9549L112.167 21.9651L112.735 21.772ZM122.087 17.152V17.752H122.72L122.687 17.1205L122.087 17.152ZM121.891 16.116L121.313 16.2766L121.317 16.2913L121.322 16.3057L121.891 16.116ZM121.415 15.22L120.944 15.5907L120.951 15.6008L120.96 15.6105L121.415 15.22ZM120.603 14.576L120.323 15.1064L120.335 15.1127L120.603 14.576ZM118.195 14.576L118.439 15.1243L118.451 15.1188L118.464 15.1127L118.195 14.576ZM116.823 16.116L116.26 15.9086L116.257 15.9174L116.254 15.9263L116.823 16.116ZM116.571 17.152L115.979 17.0584L115.869 17.752H116.571V17.152ZM112.887 18.748C112.887 17.4999 113.075 16.4406 113.432 15.5567L112.319 15.1073C111.892 16.1647 111.687 17.3828 111.687 18.748H112.887ZM113.429 15.562C113.815 14.6339 114.306 13.8819 114.896 13.2923L114.047 12.4437C113.33 13.1608 112.757 14.0514 112.321 15.102L113.429 15.562ZM114.896 13.2923C115.493 12.6951 116.171 12.2463 116.934 11.9411L116.489 10.8269C115.571 11.1937 114.757 11.7342 114.047 12.4437L114.896 13.2923ZM116.93 11.9427C117.721 11.6332 118.524 11.48 119.343 11.48V10.28C118.37 10.28 117.419 10.4628 116.493 10.8253L116.93 11.9427ZM119.343 11.48C121.301 11.48 122.783 12.0776 123.863 13.2234L124.736 12.4006C123.389 10.9704 121.567 10.28 119.343 10.28V11.48ZM123.866 13.2266C124.935 14.3452 125.519 16.0476 125.519 18.44H126.719C126.719 15.8671 126.09 13.8175 124.733 12.3974L123.866 13.2266ZM125.519 18.44C125.519 18.6677 125.511 18.9256 125.493 19.2146L126.69 19.2894C126.709 18.981 126.719 18.6976 126.719 18.44H125.519ZM125.493 19.2121C125.474 19.4896 125.456 19.7382 125.437 19.9582L126.633 20.0578C126.652 19.8298 126.671 19.5744 126.69 19.2919L125.493 19.2121ZM126.035 19.408H116.571V20.608H126.035V19.408ZM115.975 20.0728C116.087 21.1035 116.58 21.9386 117.428 22.5411L118.123 21.5629C117.552 21.1574 117.242 20.6299 117.168 19.9432L115.975 20.0728ZM117.428 22.5411C118.27 23.1397 119.357 23.408 120.631 23.408V22.208C119.516 22.208 118.699 21.9723 118.123 21.5629L117.428 22.5411ZM120.631 23.408C121.431 23.408 122.213 23.3397 122.977 23.2026L122.765 22.0214C122.074 22.1456 121.362 22.208 120.631 22.208V23.408ZM122.989 23.2003C123.76 23.0462 124.412 22.8583 124.933 22.6292L124.45 21.5308C124.037 21.7123 123.476 21.8791 122.754 22.0237L122.989 23.2003ZM124.099 22.1778L124.659 25.5658L125.843 25.3702L125.283 21.9822L124.099 22.1778ZM124.983 24.9313C124.802 25.0219 124.539 25.1224 124.183 25.2293L124.528 26.3787C124.918 26.2616 125.253 26.1381 125.52 26.0047L124.983 24.9313ZM124.183 25.2293C123.84 25.3323 123.446 25.4202 123.001 25.4915L123.19 26.6765C123.678 26.5984 124.124 26.4997 124.528 26.3787L124.183 25.2293ZM122.973 25.4966C122.547 25.5854 122.081 25.6572 121.575 25.7114L121.703 26.9046C122.243 26.8468 122.748 26.7693 123.218 26.6714L122.973 25.4966ZM121.575 25.7114C121.074 25.7652 120.573 25.792 120.071 25.792V26.992C120.615 26.992 121.159 26.9628 121.703 26.9046L121.575 25.7114ZM120.071 25.792C118.804 25.792 117.724 25.6044 116.82 25.2462L116.378 26.3618C117.453 26.7876 118.688 26.992 120.071 26.992V25.792ZM116.824 25.2477C115.922 24.8832 115.182 24.3953 114.594 23.7898L113.733 24.6262C114.451 25.3647 115.336 25.9408 116.375 26.3603L116.824 25.2477ZM114.605 23.802C114.03 23.1759 113.595 22.4373 113.303 21.5789L112.167 21.9651C112.51 22.9733 113.028 23.8588 113.722 24.614L114.605 23.802ZM113.307 21.5891C113.029 20.7208 112.887 19.7751 112.887 18.748H111.687C111.687 19.8863 111.844 20.9566 112.164 21.9549L113.307 21.5891ZM122.687 17.1205C122.665 16.7121 122.59 16.3136 122.461 15.9263L121.322 16.3057C121.417 16.5904 121.472 16.8826 121.488 17.1835L122.687 17.1205ZM122.469 15.9554C122.353 15.5359 122.153 15.1585 121.871 14.8295L120.96 15.6105C121.126 15.8042 121.243 16.0241 121.313 16.2766L122.469 15.9554ZM121.887 14.8493C121.62 14.5097 121.277 14.2418 120.872 14.0393L120.335 15.1127C120.602 15.2462 120.8 15.4076 120.944 15.5907L121.887 14.8493ZM120.884 14.0457C120.455 13.8187 119.95 13.724 119.399 13.724V14.924C119.82 14.924 120.117 14.9973 120.323 15.1063L120.884 14.0457ZM119.399 13.724C118.862 13.724 118.364 13.8208 117.927 14.0393L118.464 15.1127C118.699 14.9952 119.004 14.924 119.399 14.924V13.724ZM117.952 14.0277C117.54 14.2107 117.186 14.4679 116.9 14.8015L117.811 15.5825C117.973 15.3934 118.179 15.2399 118.439 15.1243L117.952 14.0277ZM116.9 14.8015C116.625 15.1221 116.413 15.4936 116.26 15.9086L117.386 16.3234C117.495 16.0291 117.638 15.7846 117.811 15.5825L116.9 14.8015ZM116.254 15.9263C116.132 16.294 116.04 16.6716 115.979 17.0584L117.164 17.2456C117.215 16.9231 117.291 16.61 117.393 16.3057L116.254 15.9263ZM116.571 17.752H122.087V16.552H116.571V17.752ZM129.339 11.776L129.172 11.1997L128.739 11.3251V11.776H129.339ZM132.083 11.216L132.172 11.8094L132.182 11.8078L132.083 11.216ZM138.719 11.44L138.492 11.9953L138.499 11.9984L138.507 12.0013L138.719 11.44ZM140.707 12.812L140.241 13.1904L140.241 13.1904L140.707 12.812ZM141.743 14.94L141.161 15.0855L141.161 15.0855L141.743 14.94ZM142.051 26V26.6H142.651V26H142.051ZM137.879 26H137.279V26.6H137.879V26ZM137.347 15.332L136.84 15.653L136.84 15.653L137.347 15.332ZM134.407 14.548L134.44 15.1471L134.457 15.1462L134.473 15.1443L134.407 14.548ZM133.511 14.632L133.426 14.038L132.911 14.1116V14.632H133.511ZM133.511 26V26.6H134.111V26H133.511ZM129.339 26H128.739V26.6H129.339V26ZM129.506 12.3523C130.18 12.1572 131.066 11.9753 132.172 11.8094L131.994 10.6226C130.86 10.7927 129.917 10.9841 129.172 11.1997L129.506 12.3523ZM132.182 11.8078C133.266 11.627 134.409 11.536 135.611 11.536V10.336C134.349 10.336 133.139 10.4316 131.984 10.6242L132.182 11.8078ZM135.611 11.536C136.813 11.536 137.766 11.6983 138.492 11.9953L138.946 10.8847C138.03 10.5097 136.91 10.336 135.611 10.336V11.536ZM138.507 12.0013C139.264 12.2874 139.833 12.6882 140.241 13.1904L141.173 12.4336C140.61 11.7411 139.853 11.2272 138.931 10.8787L138.507 12.0013ZM140.241 13.1904C140.666 13.713 140.975 14.3408 141.161 15.0855L142.325 14.7945C142.101 13.8966 141.719 13.1057 141.173 12.4336L140.241 13.1904ZM141.161 15.0855C141.352 15.8513 141.451 16.716 141.451 17.684H142.651C142.651 16.636 142.544 15.6714 142.325 14.7945L141.161 15.0855ZM141.451 17.684V26H142.651V17.684H141.451ZM142.051 25.4H137.879V26.6H142.051V25.4ZM138.479 26V18.188H137.279V26H138.479ZM138.479 18.188C138.479 16.8257 138.306 15.7243 137.854 15.011L136.84 15.653C137.098 16.0597 137.279 16.8623 137.279 18.188H138.479ZM137.854 15.011C137.343 14.2052 136.432 13.892 135.359 13.892V15.092C136.227 15.092 136.641 15.3388 136.84 15.653L137.854 15.011ZM135.359 13.892C135.035 13.892 134.696 13.9122 134.341 13.9517L134.473 15.1443C134.79 15.1091 135.085 15.092 135.359 15.092V13.892ZM134.374 13.9489C134.025 13.9683 133.708 13.9977 133.426 14.038L133.596 15.226C133.836 15.1916 134.117 15.165 134.44 15.1471L134.374 13.9489ZM132.911 14.632V26H134.111V14.632H132.911ZM133.511 25.4H129.339V26.6H133.511V25.4ZM129.939 26V11.776H128.739V26H129.939ZM145.687 7.604L145.592 7.01164L145.087 7.09291V7.604H145.687ZM149.859 6.932H150.459V6.22762L149.764 6.33963L149.859 6.932ZM149.859 11.272H149.259V11.872H149.859V11.272ZM154.871 11.272H155.471V10.672H154.871V11.272ZM154.871 14.744V15.344H155.471V14.744H154.871ZM149.859 14.744V14.144H149.259V14.744H149.859ZM150.307 22.024L149.786 22.3217L149.79 22.3286L149.794 22.3354L150.307 22.024ZM153.555 22.696L153.65 23.2885L153.659 23.287L153.668 23.2852L153.555 22.696ZM154.871 22.332L155.462 22.2251L155.333 21.5141L154.658 21.7713L154.871 22.332ZM155.459 25.58L155.686 26.1357L156.136 25.952L156.05 25.4731L155.459 25.58ZM153.779 26.112L153.638 25.5289L153.638 25.5289L153.779 26.112ZM148.683 25.888L148.448 26.4403L148.46 26.4451L148.683 25.888ZM146.891 24.6L146.423 24.9749L146.429 24.9825L146.891 24.6ZM145.939 22.584L145.352 22.7097L145.356 22.723L145.939 22.584ZM145.783 8.19636L149.955 7.52436L149.764 6.33963L145.592 7.01164L145.783 8.19636ZM149.259 6.932V11.272H150.459V6.932H149.259ZM149.859 11.872H154.871V10.672H149.859V11.872ZM154.271 11.272V14.744H155.471V11.272H154.271ZM154.871 14.144H149.859V15.344H154.871V14.144ZM149.259 14.744V19.924H150.459V14.744H149.259ZM149.259 19.924C149.259 20.8611 149.417 21.6762 149.786 22.3217L150.828 21.7263C150.6 21.3265 150.459 20.7416 150.459 19.924H149.259ZM149.794 22.3354C150.27 23.1191 151.158 23.408 152.183 23.408V22.208C151.341 22.208 150.979 21.9742 150.82 21.7126L149.794 22.3354ZM152.183 23.408C152.665 23.408 153.154 23.3679 153.65 23.2885L153.46 22.1035C153.023 22.1735 152.598 22.208 152.183 22.208V23.408ZM153.668 23.2852C154.182 23.1864 154.655 23.0564 155.085 22.8927L154.658 21.7713C154.303 21.9063 153.899 22.0189 153.442 22.1068L153.668 23.2852ZM154.281 22.4389L154.869 25.6869L156.05 25.4731L155.462 22.2251L154.281 22.4389ZM155.233 25.0243C154.76 25.2168 154.229 25.3855 153.638 25.5289L153.921 26.6951C154.561 26.5399 155.15 26.3539 155.686 26.1357L155.233 25.0243ZM153.638 25.5289C153.083 25.6635 152.377 25.736 151.511 25.736V26.936C152.437 26.936 153.244 26.8592 153.921 26.6951L153.638 25.5289ZM151.511 25.736C150.42 25.736 149.559 25.5921 148.906 25.3309L148.46 26.4451C149.301 26.7813 150.326 26.936 151.511 26.936V25.736ZM148.918 25.3358C148.246 25.0502 147.731 24.6742 147.353 24.2175L146.429 24.9825C146.947 25.6085 147.627 26.0912 148.449 26.4402L148.918 25.3358ZM147.36 24.2252C146.974 23.7425 146.692 23.1536 146.523 22.445L145.356 22.723C145.56 23.5824 145.913 24.3375 146.423 24.9748L147.36 24.2252ZM146.526 22.4583C146.368 21.7224 146.287 20.8974 146.287 19.98H145.087C145.087 20.9666 145.174 21.8776 145.353 22.7097L146.526 22.4583ZM146.287 19.98V7.604H145.087V19.98H146.287ZM157.61 15.332L157.056 15.102L157.053 15.1073L157.61 15.332ZM159.206 12.868L158.781 12.4437L158.781 12.4437L159.206 12.868ZM161.446 11.384L161.227 10.8252L161.223 10.8269L161.446 11.384ZM169.034 12.812L168.597 13.2234L168.6 13.2266L169.034 12.812ZM170.826 19.252L171.424 19.2919L171.425 19.2894L170.826 19.252ZM170.77 20.008V20.608H171.322L171.368 20.0578L170.77 20.008ZM161.306 20.008V19.408H160.637L160.709 20.0728L161.306 20.008ZM162.51 22.052L162.162 22.5411L162.162 22.5411L162.51 22.052ZM167.606 22.612L167.712 23.2027L167.723 23.2003L167.606 22.612ZM169.426 22.08L170.018 21.9822L169.892 21.2195L169.184 21.5308L169.426 22.08ZM169.986 25.468L170.254 26.0047L170.65 25.8068L170.578 25.3702L169.986 25.468ZM169.09 25.804L168.917 25.2293L168.917 25.2293L169.09 25.804ZM167.83 26.084L167.735 25.4915L167.721 25.4938L167.707 25.4966L167.83 26.084ZM166.374 26.308L166.438 26.9046L166.438 26.9046L166.374 26.308ZM161.334 25.804L161.109 26.3604L161.113 26.3618L161.334 25.804ZM158.898 24.208L158.456 24.614L158.462 24.6202L158.468 24.6262L158.898 24.208ZM157.47 21.772L156.898 21.9549L156.902 21.9651L157.47 21.772ZM166.822 17.152V17.752H167.454L167.421 17.1205L166.822 17.152ZM166.626 16.116L166.048 16.2766L166.052 16.2913L166.057 16.3057L166.626 16.116ZM166.15 15.22L165.678 15.5907L165.686 15.6008L165.694 15.6105L166.15 15.22ZM165.338 14.576L165.057 15.1064L165.069 15.1127L165.338 14.576ZM162.93 14.576L163.173 15.1243L163.186 15.1188L163.198 15.1127L162.93 14.576ZM161.558 16.116L160.995 15.9086L160.991 15.9174L160.989 15.9263L161.558 16.116ZM161.306 17.152L160.713 17.0584L160.604 17.752H161.306V17.152ZM157.622 18.748C157.622 17.4999 157.809 16.4406 158.166 15.5567L157.053 15.1073C156.626 16.1647 156.422 17.3828 156.422 18.748H157.622ZM158.164 15.562C158.549 14.6339 159.04 13.8819 159.63 13.2923L158.781 12.4437C158.064 13.1608 157.492 14.0514 157.056 15.102L158.164 15.562ZM159.63 13.2923C160.227 12.6951 160.906 12.2463 161.669 11.9411L161.223 10.8269C160.306 11.1937 159.491 11.7342 158.781 12.4437L159.63 13.2923ZM161.664 11.9427C162.455 11.6332 163.259 11.48 164.078 11.48V10.28C163.105 10.28 162.153 10.4628 161.227 10.8253L161.664 11.9427ZM164.078 11.48C166.036 11.48 167.518 12.0776 168.597 13.2234L169.47 12.4006C168.123 10.9704 166.301 10.28 164.078 10.28V11.48ZM168.6 13.2266C169.669 14.3452 170.254 16.0476 170.254 18.44H171.454C171.454 15.8671 170.825 13.8175 169.467 12.3974L168.6 13.2266ZM170.254 18.44C170.254 18.6677 170.245 18.9256 170.227 19.2146L171.425 19.2894C171.444 18.981 171.454 18.6976 171.454 18.44H170.254ZM170.227 19.2121C170.209 19.4896 170.19 19.7382 170.172 19.9582L171.368 20.0578C171.387 19.8298 171.406 19.5744 171.424 19.2919L170.227 19.2121ZM170.77 19.408H161.306V20.608H170.77V19.408ZM160.709 20.0728C160.821 21.1035 161.314 21.9386 162.162 22.5411L162.857 21.5629C162.287 21.1574 161.977 20.6299 161.902 19.9432L160.709 20.0728ZM162.162 22.5411C163.005 23.1397 164.092 23.408 165.366 23.408V22.208C164.25 22.208 163.433 21.9723 162.857 21.5629L162.162 22.5411ZM165.366 23.408C166.165 23.408 166.948 23.3397 167.712 23.2026L167.5 22.0214C166.808 22.1456 166.097 22.208 165.366 22.208V23.408ZM167.723 23.2003C168.494 23.0462 169.147 22.8583 169.667 22.6292L169.184 21.5308C168.772 21.7123 168.211 21.8791 167.488 22.0237L167.723 23.2003ZM168.834 22.1778L169.394 25.5658L170.578 25.3702L170.018 21.9822L168.834 22.1778ZM169.717 24.9313C169.536 25.0219 169.274 25.1224 168.917 25.2293L169.262 26.3787C169.652 26.2616 169.987 26.1381 170.254 26.0047L169.717 24.9313ZM168.917 25.2293C168.574 25.3323 168.181 25.4202 167.735 25.4915L167.925 26.6765C168.412 26.5984 168.859 26.4997 169.262 26.3787L168.917 25.2293ZM167.707 25.4966C167.281 25.5854 166.816 25.6572 166.31 25.7114L166.438 26.9046C166.977 26.8468 167.482 26.7693 167.952 26.6714L167.707 25.4966ZM166.31 25.7114C165.808 25.7652 165.307 25.792 164.806 25.792V26.992C165.35 26.992 165.894 26.9628 166.438 26.9046L166.31 25.7114ZM164.806 25.792C163.538 25.792 162.459 25.6044 161.555 25.2462L161.113 26.3618C162.187 26.7876 163.423 26.992 164.806 26.992V25.792ZM161.558 25.2477C160.656 24.8832 159.917 24.3953 159.328 23.7898L158.468 24.6262C159.185 25.3647 160.07 25.9408 161.109 26.3603L161.558 25.2477ZM159.34 23.802C158.764 23.1759 158.33 22.4373 158.038 21.5789L156.902 21.9651C157.244 22.9733 157.762 23.8588 158.456 24.614L159.34 23.802ZM158.041 21.5891C157.763 20.7208 157.622 19.7751 157.622 18.748H156.422C156.422 19.8863 156.579 20.9566 156.898 21.9549L158.041 21.5891ZM167.421 17.1205C167.399 16.7121 167.324 16.3136 167.195 15.9263L166.057 16.3057C166.151 16.5904 166.207 16.8826 166.223 17.1835L167.421 17.1205ZM167.204 15.9554C167.087 15.5359 166.887 15.1585 166.605 14.8295L165.694 15.6105C165.86 15.8042 165.977 16.0241 166.048 16.2766L167.204 15.9554ZM166.622 14.8493C166.355 14.5097 166.011 14.2418 165.606 14.0393L165.069 15.1127C165.337 15.2462 165.534 15.4076 165.678 15.5907L166.622 14.8493ZM165.618 14.0457C165.19 13.8187 164.684 13.724 164.134 13.724V14.924C164.554 14.924 164.851 14.9973 165.057 15.1063L165.618 14.0457ZM164.134 13.724C163.596 13.724 163.098 13.8208 162.661 14.0393L163.198 15.1127C163.433 14.9952 163.738 14.924 164.134 14.924V13.724ZM162.686 14.0277C162.274 14.2107 161.92 14.4679 161.634 14.8015L162.545 15.5825C162.707 15.3934 162.913 15.2399 163.173 15.1243L162.686 14.0277ZM161.634 14.8015C161.359 15.1221 161.148 15.4936 160.995 15.9086L162.121 16.3234C162.229 16.0291 162.372 15.7846 162.545 15.5825L161.634 14.8015ZM160.989 15.9263C160.866 16.294 160.774 16.6716 160.713 17.0584L161.898 17.2456C161.949 16.9231 162.026 16.61 162.127 16.3057L160.989 15.9263ZM161.306 17.752H166.822V16.552H161.306V17.752Z" fill="#384359"/>
<path d="M6.91269 22.444C7.11802 22.4627 7.35135 22.4813 7.61269 22.5C7.89269 22.5 8.21935 22.5 8.59269 22.5C10.7767 22.5 12.3914 21.9493 13.4367 20.848C14.5007 19.7467 15.0327 18.2253 15.0327 16.284C15.0327 14.2493 14.5287 12.7093 13.5207 11.664C12.5127 10.6187 10.9167 10.096 8.73269 10.096C8.43402 10.096 8.12602 10.1053 7.80869 10.124C7.49135 10.124 7.19269 10.1427 6.91269 10.18V22.444ZM19.5407 16.284C19.5407 17.964 19.2794 19.4293 18.7567 20.68C18.234 21.9307 17.4874 22.9667 16.5167 23.788C15.5647 24.6093 14.398 25.2253 13.0167 25.636C11.6354 26.0467 10.086 26.252 8.36869 26.252C7.58469 26.252 6.67002 26.2147 5.62469 26.14C4.57935 26.084 3.55269 25.9533 2.54469 25.748V6.848C3.55269 6.66133 4.59802 6.54 5.68069 6.484C6.78202 6.40933 7.72469 6.372 8.50869 6.372C10.17 6.372 11.6727 6.55867 13.0167 6.932C14.3794 7.30533 15.546 7.89333 16.5167 8.696C17.4874 9.49867 18.234 10.5253 18.7567 11.776C19.2794 13.0267 19.5407 14.5293 19.5407 16.284ZM22.2092 18.748C22.2092 17.4413 22.4052 16.3027 22.7972 15.332C23.2079 14.3427 23.7399 13.5213 24.3932 12.868C25.0466 12.2147 25.7932 11.72 26.6332 11.384C27.4919 11.048 28.3692 10.88 29.2652 10.88C31.3559 10.88 33.0079 11.524 34.2212 12.812C35.4346 14.0813 36.0412 15.9573 36.0412 18.44C36.0412 18.6827 36.0319 18.9533 36.0132 19.252C35.9946 19.532 35.9759 19.784 35.9572 20.008H26.4932C26.5866 20.8667 26.9879 21.548 27.6972 22.052C28.4066 22.556 29.3586 22.808 30.5532 22.808C31.3186 22.808 32.0652 22.7427 32.7932 22.612C33.5399 22.4627 34.1466 22.2853 34.6132 22.08L35.1732 25.468C34.9492 25.58 34.6506 25.692 34.2772 25.804C33.9039 25.916 33.4839 26.0093 33.0172 26.084C32.5692 26.1773 32.0839 26.252 31.5612 26.308C31.0386 26.364 30.5159 26.392 29.9932 26.392C28.6679 26.392 27.5106 26.196 26.5212 25.804C25.5506 25.412 24.7386 24.88 24.0852 24.208C23.4506 23.5173 22.9746 22.7053 22.6572 21.772C22.3586 20.8387 22.2092 19.8307 22.2092 18.748ZM32.0092 17.152C31.9906 16.7973 31.9252 16.452 31.8132 16.116C31.7199 15.78 31.5612 15.4813 31.3372 15.22C31.1319 14.9587 30.8612 14.744 30.5252 14.576C30.2079 14.408 29.8066 14.324 29.3212 14.324C28.8546 14.324 28.4532 14.408 28.1172 14.576C27.7812 14.7253 27.5012 14.9307 27.2772 15.192C27.0532 15.4533 26.8759 15.7613 26.7452 16.116C26.6332 16.452 26.5492 16.7973 26.4932 17.152H32.0092ZM43.2648 26C42.3128 24.1333 41.3421 21.9493 40.3528 19.448C39.3821 16.9467 38.4581 14.2213 37.5808 11.272H42.0048C42.1914 12 42.4061 12.7933 42.6488 13.652C42.9101 14.492 43.1714 15.3507 43.4328 16.228C43.7128 17.0867 43.9834 17.9267 44.2448 18.748C44.5248 19.5693 44.7954 20.316 45.0568 20.988C45.2994 20.316 45.5608 19.5693 45.8408 18.748C46.1208 17.9267 46.3914 17.0867 46.6528 16.228C46.9328 15.3507 47.1941 14.492 47.4368 13.652C47.6981 12.7933 47.9221 12 48.1088 11.272H52.4208C51.5434 14.2213 50.6101 16.9467 49.6208 19.448C48.6501 21.9493 47.6888 24.1333 46.7368 26H43.2648Z" fill="#384359"/>
<rect x="61" y="7" width="2" height="19" fill="#A6442E"/>
</svg>
