<svg width="25" height="25" viewBox="0 0 25 25" fill="none" xmlns="http://www.w3.org/2000/svg">
<path d="M22.2811 0.888184H2.24871C1.2891 0.888184 0.513153 1.64577 0.513153 2.58242V22.6975C0.513153 23.6341 1.2891 24.3963 2.24871 24.3963H22.2811C23.2407 24.3963 24.0213 23.6341 24.0213 22.7021V2.58242C24.0213 1.64577 23.2407 0.888184 22.2811 0.888184ZM7.48753 20.9206H3.99805V9.69914H7.48753V20.9206ZM5.74279 8.17019C4.62248 8.17019 3.71797 7.26568 3.71797 6.14996C3.71797 5.03424 4.62248 4.12973 5.74279 4.12973C6.85851 4.12973 7.76302 5.03424 7.76302 6.14996C7.76302 7.26109 6.85851 8.17019 5.74279 8.17019ZM20.5456 20.9206H17.0607V15.466C17.0607 14.1666 17.0377 12.4907 15.2471 12.4907C13.4334 12.4907 13.158 13.9095 13.158 15.3741V20.9206H9.67765V9.69914H13.0202V11.2327H13.0661C13.5299 10.3511 14.6685 9.41906 16.3628 9.41906C19.8936 9.41906 20.5456 11.7423 20.5456 14.7635V20.9206Z" fill="#F0F0F0"/>
</svg>
