<svg width="173" height="33" viewBox="0 0 173 33" fill="none" xmlns="http://www.w3.org/2000/svg">
<path d="M75.244 19.6998L74.2843 19.9807L74.2874 19.9915L74.2908 20.0021L75.244 19.6998ZM76.252 21.6878L75.4584 22.2963L75.4697 22.3111L75.4816 22.3254L76.252 21.6878ZM77.876 22.9478L78.3018 22.043L77.876 22.9478ZM82.216 22.9478L81.8002 22.0383L81.7902 22.043L82.216 22.9478ZM83.84 21.6878L83.0591 21.0631L83.0565 21.0664L83.84 21.6878ZM84.848 19.6998L83.8948 19.3976L83.8914 19.4082L83.8883 19.4189L84.848 19.6998ZM84.848 14.5478L83.8865 14.8226L83.8904 14.8364L83.8948 14.8501L84.848 14.5478ZM83.84 12.5598L83.0464 13.1683L83.0577 13.1831L83.0696 13.1974L83.84 12.5598ZM82.216 11.2718L81.7902 12.1767L81.8002 12.1813L82.216 11.2718ZM77.876 11.2998L78.3018 12.2047L78.3126 12.1996L78.3232 12.1943L77.876 11.2998ZM76.252 12.5878L75.4711 11.9631L75.4685 11.9664L76.252 12.5878ZM75.244 14.5758L74.2887 14.2802L74.2864 14.2875L74.2843 14.2949L75.244 14.5758ZM88.964 21.5198L88.0346 21.1508L88.0317 21.1581L88.964 21.5198ZM86.948 24.6838L87.6473 25.3987L87.6551 25.391L86.948 24.6838ZM83.868 26.5878L83.5298 25.6468L83.5251 25.6485L83.868 26.5878ZM73.228 24.6838L72.5285 25.3986L72.5364 25.4062L73.228 24.6838ZM71.156 21.5198L70.2266 21.8889L70.2285 21.8936L71.156 21.5198ZM71.184 12.7558L72.1067 13.1414L72.1087 13.1366L71.184 12.7558ZM73.284 9.56384L72.5921 8.84181L72.5845 8.84917L73.284 9.56384ZM76.364 7.63184L76.0211 6.69247L76.0162 6.69428L76.364 7.63184ZM83.812 7.63184L84.1549 6.69249V6.69248L83.812 7.63184ZM86.892 9.56384L87.5915 8.84917L86.892 9.56384ZM88.964 12.7558L88.0346 13.1249L88.0365 13.1296L88.964 12.7558ZM73.908 17.1238C73.908 18.1531 74.029 19.1085 74.2843 19.9807L76.2037 19.4189C76.011 18.7605 75.908 17.9986 75.908 17.1238H73.908ZM74.2908 20.0021C74.5637 20.8629 74.9495 21.6325 75.4584 22.2963L77.0456 21.0794C76.6958 20.6232 76.4096 20.0674 76.1972 19.3976L74.2908 20.0021ZM75.4816 22.3254C76.0232 22.9799 76.6822 23.4912 77.4502 23.8527L78.3018 22.043C77.8005 21.8071 77.3768 21.4785 77.0224 21.0503L75.4816 22.3254ZM77.4502 23.8527C78.239 24.2238 79.1164 24.3958 80.06 24.3958V22.3958C79.3609 22.3958 78.7824 22.2692 78.3018 22.043L77.4502 23.8527ZM80.06 24.3958C80.9886 24.3958 81.856 24.2225 82.6418 23.8527L81.7902 22.043C81.3067 22.2706 80.7367 22.3958 80.06 22.3958V24.3958ZM82.6318 23.8573C83.4228 23.4957 84.0921 22.9793 84.6235 22.3092L83.0565 21.0664C82.7292 21.4791 82.3159 21.8027 81.8002 22.0384L82.6318 23.8573ZM84.6209 22.3125C85.159 21.6399 85.5512 20.8572 85.8077 19.9807L83.8883 19.4189C83.6968 20.0731 83.417 20.6158 83.0591 21.0631L84.6209 22.3125ZM85.8012 20.0021C86.08 19.1228 86.212 18.1599 86.212 17.1238H84.212C84.212 17.9918 84.1013 18.7462 83.8948 19.3976L85.8012 20.0021ZM86.212 17.1238C86.212 16.0878 86.08 15.1249 85.8012 14.2456L83.8948 14.8501C84.1013 15.5015 84.212 16.2559 84.212 17.1238H86.212ZM85.8095 14.2731C85.5536 13.3774 85.1595 12.5858 84.6104 11.9223L83.0696 13.1974C83.4165 13.6166 83.6944 14.1503 83.8865 14.8226L85.8095 14.2731ZM84.6336 11.9514C84.103 11.2593 83.431 10.7277 82.6318 10.3624L81.8002 12.1813C82.3077 12.4133 82.7184 12.7404 83.0464 13.1683L84.6336 11.9514ZM82.6418 10.367C81.856 9.99722 80.9886 9.82384 80.06 9.82384V11.8238C80.7367 11.8238 81.3067 11.9491 81.7902 12.1767L82.6418 10.367ZM80.06 9.82384C79.1079 9.82384 78.2227 10.0085 77.4288 10.4054L78.3232 12.1943C78.7987 11.9565 79.3694 11.8238 80.06 11.8238V9.82384ZM77.4502 10.395C76.6742 10.7602 76.0123 11.2866 75.4711 11.9631L77.0329 13.2125C77.3877 12.769 77.8085 12.4368 78.3018 12.2047L77.4502 10.395ZM75.4685 11.9664C74.9493 12.6211 74.5613 13.3996 74.2887 14.2802L76.1993 14.8715C76.4121 14.1841 76.6961 13.6372 77.0355 13.2092L75.4685 11.9664ZM74.2843 14.2949C74.0295 15.1655 73.908 16.1112 73.908 17.1238H75.908C75.908 16.2698 76.0105 15.5169 76.2037 14.8567L74.2843 14.2949ZM88.72 17.1238C88.72 18.6854 88.4831 20.0213 88.0346 21.1508L89.8934 21.8889C90.4529 20.4797 90.72 18.885 90.72 17.1238H88.72ZM88.0317 21.1581C87.5914 22.2929 86.9915 23.2261 86.2409 23.9767L87.6551 25.391C88.6218 24.4242 89.366 23.2481 89.8963 21.8816L88.0317 21.1581ZM86.2487 23.969C85.4985 24.7029 84.5971 25.2632 83.5298 25.6468L84.2062 27.5289C85.5282 27.0538 86.6801 26.3448 87.6473 25.3987L86.2487 23.969ZM83.5251 25.6485C82.4683 26.0343 81.316 26.2318 80.06 26.2318V28.2318C81.5293 28.2318 82.9157 28.0001 84.2109 27.5272L83.5251 25.6485ZM80.06 26.2318C78.8447 26.2318 77.7107 26.0354 76.6509 25.6485L75.9651 27.5272C77.2573 27.999 78.6246 28.2318 80.06 28.2318V26.2318ZM76.6509 25.6485C75.6008 25.2651 74.6939 24.7029 73.9196 23.9615L72.5364 25.4062C73.5168 26.3448 74.6632 27.0519 75.9651 27.5272L76.6509 25.6485ZM73.9275 23.9692C73.1582 23.2163 72.541 22.2813 72.0835 21.1461L70.2285 21.8936C70.779 23.2597 71.5431 24.434 72.5285 25.3985L73.9275 23.9692ZM72.0854 21.1508C71.6369 20.0213 71.4 18.6854 71.4 17.1238H69.4C69.4 18.885 69.6671 20.4797 70.2266 21.8889L72.0854 21.1508ZM71.4 17.1238C71.4 15.5658 71.6452 14.2457 72.1067 13.1414L70.2613 12.3702C69.6775 13.7673 69.4 15.3592 69.4 17.1238H71.4ZM72.1087 13.1366C72.5858 11.9778 73.2139 11.0317 73.9835 10.2785L72.5845 8.84917C71.5994 9.81334 70.8275 10.9952 70.2593 12.3751L72.1087 13.1366ZM73.9759 10.2858C74.7737 9.52128 75.6834 8.95091 76.7118 8.56941L76.0162 6.69428C74.7299 7.17144 73.5863 7.88908 72.5921 8.84185L73.9759 10.2858ZM76.7069 8.5712C77.7699 8.18314 78.8856 7.98784 80.06 7.98784V5.98784C78.6584 5.98784 77.3101 6.22188 76.0211 6.69248L76.7069 8.5712ZM80.06 7.98784C81.2753 7.98784 82.4093 8.18429 83.4691 8.5712L84.1549 6.69248C82.8627 6.22073 81.4954 5.98784 80.06 5.98784V7.98784ZM83.4691 8.5712C84.5143 8.95281 85.4188 9.52122 86.1925 10.2785L87.5915 8.84917C86.6105 7.88913 85.4617 7.16955 84.1549 6.69249L83.4691 8.5712ZM86.1925 10.2785C86.9592 11.0288 87.5764 11.9709 88.0346 13.1249L89.8934 12.3868C89.3436 11.0021 88.5795 9.81618 87.5915 8.84917L86.1925 10.2785ZM88.0365 13.1296C88.4829 14.2374 88.72 15.5618 88.72 17.1238H90.72C90.72 15.3632 90.4531 13.7756 89.8915 12.3821L88.0365 13.1296ZM101.957 15.8078L101.715 16.778L102.729 17.0316L102.937 16.007L101.957 15.8078ZM100.641 15.5278L100.424 16.504L100.442 16.5079L100.459 16.5111L100.641 15.5278ZM98.0651 15.4438L98.1698 16.4383L98.1917 16.436L98.2134 16.4328L98.0651 15.4438ZM97.2531 15.5838L96.9657 14.626L96.2531 14.8398V15.5838H97.2531ZM97.2531 26.8398V27.8398H98.2531V26.8398H97.2531ZM93.0811 26.8398H92.0811V27.8398H93.0811V26.8398ZM93.0811 12.8958L92.7507 11.952L92.0811 12.1864V12.8958H93.0811ZM95.7131 12.1678L95.93 13.1441L95.9431 13.141L95.7131 12.1678ZM99.9411 11.8598L99.8243 12.853L99.8532 12.8564L99.8824 12.8581L99.9411 11.8598ZM100.893 11.9718L100.719 12.9566L100.748 12.9616L100.776 12.965L100.893 11.9718ZM101.845 12.1398L101.616 13.1133L101.644 13.1197L101.671 13.1246L101.845 12.1398ZM102.657 12.3638L103.637 12.563L103.801 11.7571L103.042 11.4408L102.657 12.3638ZM102.2 14.8377C101.801 14.738 101.341 14.6405 100.823 14.5446L100.459 16.5111C100.949 16.6018 101.367 16.691 101.715 16.778L102.2 14.8377ZM100.858 14.5517C100.275 14.4221 99.6601 14.3598 99.0171 14.3598V16.3598C99.5314 16.3598 99.9993 16.4096 100.424 16.504L100.858 14.5517ZM99.0171 14.3598C98.6896 14.3598 98.3196 14.3945 97.9168 14.4549L98.2134 16.4328C98.5572 16.3812 98.8219 16.3598 99.0171 16.3598V14.3598ZM97.9604 14.4493C97.5857 14.4888 97.2421 14.5431 96.9657 14.626L97.5404 16.5417C97.6375 16.5126 97.8351 16.4736 98.1698 16.4383L97.9604 14.4493ZM96.2531 15.5838V26.8398H98.2531V15.5838H96.2531ZM97.2531 25.8398H93.0811V27.8398H97.2531V25.8398ZM94.0811 26.8398V12.8958H92.0811V26.8398H94.0811ZM93.4114 13.8397C94.1118 13.5946 94.9496 13.3619 95.93 13.144L95.4962 11.1917C94.4606 11.4218 93.5438 11.6744 92.7507 11.952L93.4114 13.8397ZM95.9431 13.141C96.882 12.9191 97.942 12.8038 99.1291 12.8038V10.8038C97.8148 10.8038 96.5975 10.9312 95.4831 11.1947L95.9431 13.141ZM99.1291 12.8038C99.3015 12.8038 99.5308 12.8185 99.8243 12.853L100.058 10.8667C99.7167 10.8265 99.4047 10.8038 99.1291 10.8038V12.8038ZM99.8824 12.8581C100.161 12.8745 100.44 12.9073 100.719 12.9566L101.067 10.9871C100.712 10.9244 100.356 10.8825 99.9998 10.8616L99.8824 12.8581ZM100.776 12.965C101.055 12.9978 101.335 13.0471 101.616 13.1133L102.074 11.1664C101.721 11.0832 101.366 11.0206 101.01 10.9787L100.776 12.965ZM101.671 13.1246C101.938 13.1717 102.134 13.2293 102.272 13.2869L103.042 11.4408C102.732 11.3117 102.387 11.2199 102.019 11.1551L101.671 13.1246ZM101.677 12.1647L100.977 15.6087L102.937 16.007L103.637 12.563L101.677 12.1647ZM109.066 26.8398V27.8398H110.066V26.8398H109.066ZM104.894 26.8398H103.894V27.8398H104.894V26.8398ZM104.894 12.1118V11.1118H103.894V12.1118H104.894ZM109.066 12.1118H110.066V11.1118H109.066V12.1118ZM108.702 9.67584L109.364 10.4248L109.366 10.4233L108.702 9.67584ZM105.202 9.67584L104.523 10.4106L104.538 10.4242L104.553 10.4371L105.202 9.67584ZM105.202 6.06384L105.864 6.81284L105.866 6.81125L105.202 6.06384ZM108.702 6.06384L108.023 6.79865L108.038 6.81216L108.053 6.82509L108.702 6.06384ZM109.066 25.8398H104.894V27.8398H109.066V25.8398ZM105.894 26.8398V12.1118H103.894V26.8398H105.894ZM104.894 13.1118H109.066V11.1118H104.894V13.1118ZM108.066 12.1118V26.8398H110.066V12.1118H108.066ZM108.458 7.85584C108.458 8.37832 108.298 8.69688 108.037 8.92843L109.366 10.4233C110.113 9.7588 110.458 8.86403 110.458 7.85584H108.458ZM108.039 8.92685C107.744 9.188 107.403 9.31984 106.966 9.31984V11.3198C107.872 11.3198 108.689 11.0224 109.364 10.4248L108.039 8.92685ZM106.966 9.31984C106.527 9.31984 106.17 9.1873 105.85 8.9146L104.553 10.4371C105.241 11.023 106.06 11.3198 106.966 11.3198V9.31984ZM105.88 8.94104C105.633 8.71294 105.474 8.39063 105.474 7.85584H103.474C103.474 8.85172 103.8 9.74274 104.523 10.4106L105.88 8.94104ZM105.474 7.85584C105.474 7.32005 105.633 7.01765 105.864 6.81284L104.539 5.31485C103.8 5.96871 103.474 6.86097 103.474 7.85584H105.474ZM105.866 6.81125C106.188 6.52534 106.539 6.39184 106.966 6.39184V4.39184C106.048 4.39184 105.224 4.70635 104.537 5.31643L105.866 6.81125ZM106.966 6.39184C107.391 6.39184 107.726 6.52442 108.023 6.79865L109.38 5.32904C108.706 4.70726 107.884 4.39184 106.966 4.39184V6.39184ZM108.053 6.82509C108.298 7.03378 108.458 7.3327 108.458 7.85584H110.458C110.458 6.84832 110.113 5.95258 109.35 5.3026L108.053 6.82509ZM112.875 16.1718L111.952 15.7884L111.948 15.7974L112.875 16.1718ZM114.471 13.7078L113.764 13.0007L114.471 13.7078ZM116.711 12.2238L116.347 11.2926L116.34 11.2954L116.711 12.2238ZM124.299 13.6518L123.571 14.3376L123.576 14.3428L124.299 13.6518ZM126.091 20.0918L127.089 20.1584L127.089 20.1542L126.091 20.0918ZM126.035 20.8478V21.8478H126.955L127.032 20.9309L126.035 20.8478ZM116.571 20.8478V19.8478H115.457L115.577 20.9559L116.571 20.8478ZM117.775 22.8918L117.196 23.707L117.775 22.8918ZM122.871 23.4518L123.048 24.4361L123.058 24.4344L123.067 24.4324L122.871 23.4518ZM124.691 22.9198L125.678 22.7568L125.468 21.4857L124.289 22.0045L124.691 22.9198ZM125.251 26.3078L125.699 27.2023L126.358 26.8724L126.238 26.1448L125.251 26.3078ZM124.355 26.6438L124.068 25.686L124.355 26.6438ZM123.095 26.9238L122.937 25.9364L122.914 25.9401L122.891 25.9449L123.095 26.9238ZM121.639 27.1478L121.746 28.1422L121.639 27.1478ZM116.599 26.6438L116.225 27.5711L116.231 27.5735L116.599 26.6438ZM114.163 25.0478L113.427 25.7245L113.437 25.7348L113.446 25.7449L114.163 25.0478ZM112.735 22.6118L111.783 22.9166L111.786 22.9252L111.789 22.9337L112.735 22.6118ZM122.087 17.9918V18.9918H123.141L123.086 17.9393L122.087 17.9918ZM121.891 16.9558L120.928 17.2235L120.935 17.248L120.943 17.2721L121.891 16.9558ZM121.415 16.0598L120.629 16.6777L120.642 16.6944L120.656 16.7106L121.415 16.0598ZM120.603 15.4158L120.135 16.2996L120.146 16.3051L120.156 16.3103L120.603 15.4158ZM118.195 15.4158L118.601 16.3297L118.622 16.3204L118.643 16.3103L118.195 15.4158ZM116.823 16.9558L115.885 16.6101L115.88 16.6248L115.875 16.6396L116.823 16.9558ZM116.571 17.9918L115.584 17.8359L115.401 18.9918H116.571V17.9918ZM113.287 19.5878C113.287 18.3788 113.469 17.3725 113.803 16.5463L111.948 15.7974C111.498 16.9126 111.287 18.1836 111.287 19.5878H113.287ZM113.799 16.5552C114.167 15.6679 114.631 14.962 115.178 14.415L113.764 13.0007C113.005 13.7603 112.405 14.6971 111.952 15.7885L113.799 16.5552ZM115.178 14.415C115.738 13.8553 116.371 13.4369 117.083 13.1523L116.34 11.2954C115.371 11.6827 114.511 12.2537 113.764 13.0007L115.178 14.415ZM117.076 13.1551C117.822 12.8632 118.576 12.7198 119.343 12.7198V10.7198C118.319 10.7198 117.318 10.9125 116.347 11.2926L117.076 13.1551ZM119.343 12.7198C121.213 12.7198 122.581 13.2865 123.571 14.3375L125.027 12.9661C123.591 11.4412 121.655 10.7198 119.343 10.7198V12.7198ZM123.576 14.3428C124.55 15.3609 125.119 16.9476 125.119 19.2798H127.119C127.119 16.6468 126.476 14.4814 125.022 12.9609L123.576 14.3428ZM125.119 19.2798C125.119 19.4976 125.111 19.747 125.093 20.0295L127.089 20.1542C127.109 19.8394 127.119 19.5474 127.119 19.2798H125.119ZM125.094 20.0253C125.075 20.3011 125.057 20.5475 125.039 20.7648L127.032 20.9309C127.051 20.7002 127.07 20.4426 127.089 20.1584L125.094 20.0253ZM126.035 19.8478H116.571V21.8478H126.035V19.8478ZM115.577 20.9559C115.702 22.1012 116.256 23.0389 117.196 23.707L118.355 22.0767C117.876 21.7368 117.628 21.3119 117.565 20.7398L115.577 20.9559ZM117.196 23.707C118.127 24.3687 119.305 24.6478 120.631 24.6478V22.6478C119.569 22.6478 118.842 22.423 118.355 22.0767L117.196 23.707ZM120.631 24.6478C121.454 24.6478 122.26 24.5776 123.048 24.4361L122.695 22.4676C122.027 22.5874 121.339 22.6478 120.631 22.6478V24.6478ZM123.067 24.4324C123.854 24.2751 124.537 24.0802 125.094 23.8352L124.289 22.0045C123.912 22.1702 123.382 22.3299 122.675 22.4713L123.067 24.4324ZM123.705 23.0829L124.265 26.4709L126.238 26.1448L125.678 22.7568L123.705 23.0829ZM124.804 25.4134C124.652 25.4897 124.413 25.5825 124.068 25.686L124.643 27.6017C125.044 27.4812 125.403 27.35 125.699 27.2023L124.804 25.4134ZM124.068 25.686C123.745 25.783 123.369 25.8673 122.937 25.9364L123.253 27.9113C123.755 27.831 124.219 27.7287 124.643 27.6017L124.068 25.686ZM122.891 25.9449C122.48 26.0306 122.027 26.1005 121.533 26.1535L121.746 28.1422C122.297 28.0832 122.815 28.0038 123.299 27.9028L122.891 25.9449ZM121.533 26.1535C121.045 26.2058 120.558 26.2318 120.071 26.2318V28.2318C120.63 28.2318 121.188 28.2019 121.746 28.1422L121.533 26.1535ZM120.071 26.2318C118.842 26.2318 117.815 26.0498 116.968 25.7142L116.231 27.5735C117.362 28.0218 118.65 28.2318 120.071 28.2318V26.2318ZM116.974 25.7166C116.117 25.3706 115.426 24.912 114.88 24.3508L113.446 25.7449C114.207 26.5277 115.14 27.1331 116.225 27.5711L116.974 25.7166ZM114.9 24.3712C114.364 23.7881 113.957 23.0985 113.682 22.2899L111.789 22.9337C112.148 23.9918 112.694 24.9263 113.427 25.7245L114.9 24.3712ZM113.688 22.3071C113.424 21.482 113.287 20.5778 113.287 19.5878H111.287C111.287 20.7632 111.45 21.875 111.783 22.9166L113.688 22.3071ZM123.086 17.9393C123.063 17.4951 122.981 17.0611 122.84 16.6396L120.943 17.2721C121.026 17.5226 121.075 17.7792 121.089 18.0444L123.086 17.9393ZM122.855 16.6882C122.723 16.213 122.495 15.7831 122.175 15.4091L120.656 16.7106C120.783 16.8593 120.873 17.0267 120.928 17.2235L122.855 16.6882ZM122.202 15.442C121.894 15.0503 121.501 14.7468 121.051 14.5214L120.156 16.3103C120.377 16.4209 120.526 16.5467 120.629 16.6777L122.202 15.442ZM121.071 14.5321C120.568 14.2657 119.993 14.1638 119.399 14.1638V16.1638C119.776 16.1638 120.004 16.23 120.135 16.2996L121.071 14.5321ZM119.399 14.1638C118.814 14.1638 118.253 14.2692 117.748 14.5214L118.643 16.3103C118.81 16.2265 119.051 16.1638 119.399 16.1638V14.1638ZM117.789 14.502C117.327 14.7075 116.923 14.9993 116.596 15.3811L118.115 16.6826C118.235 16.5417 118.392 16.4228 118.601 16.3297L117.789 14.502ZM116.596 15.3811C116.287 15.7411 116.053 16.1549 115.885 16.6101L117.762 17.3015C117.855 17.0475 117.975 16.8453 118.115 16.6826L116.596 15.3811ZM115.875 16.6396C115.745 17.0286 115.648 17.4276 115.584 17.8359L117.559 18.1478C117.607 17.8468 117.678 17.5551 117.772 17.2721L115.875 16.6396ZM116.571 18.9918H122.087V16.9918H116.571V18.9918ZM129.339 12.6158L129.061 11.6553L128.339 11.8643V12.6158H129.339ZM132.083 12.0558L132.231 13.0448L132.239 13.0436L132.247 13.0422L132.083 12.0558ZM138.719 12.2798L138.34 13.2054L138.353 13.2105L138.366 13.2153L138.719 12.2798ZM140.707 13.6518L139.931 14.2824V14.2824L140.707 13.6518ZM141.743 15.7798L140.773 16.0224V16.0224L141.743 15.7798ZM142.051 26.8398V27.8398H143.051V26.8398H142.051ZM137.879 26.8398H136.879V27.8398H137.879V26.8398ZM137.347 16.1718L136.502 16.7069V16.7069L137.347 16.1718ZM134.407 15.3878L134.462 16.3863L134.49 16.3848L134.517 16.3817L134.407 15.3878ZM133.511 15.4718L133.369 14.4819L132.511 14.6045V15.4718H133.511ZM133.511 26.8398V27.8398H134.511V26.8398H133.511ZM129.339 26.8398H128.339V27.8398H129.339V26.8398ZM129.617 13.5764C130.268 13.3881 131.135 13.2093 132.231 13.0448L131.935 11.0669C130.791 11.2384 129.829 11.433 129.061 11.6553L129.617 13.5764ZM132.247 13.0422C133.309 12.8654 134.429 12.7758 135.611 12.7758V10.7758C134.328 10.7758 133.097 10.873 131.919 11.0695L132.247 13.0422ZM135.611 12.7758C136.781 12.7758 137.678 12.9343 138.34 13.2054L139.098 11.3543C138.118 10.9534 136.942 10.7758 135.611 10.7758V12.7758ZM138.366 13.2153C139.068 13.4807 139.574 13.8437 139.931 14.2824L141.483 13.0213C140.869 12.2653 140.05 11.7137 139.072 11.3444L138.366 13.2153ZM139.931 14.2824C140.315 14.7552 140.599 15.3287 140.773 16.0224L142.713 15.5373C142.476 14.5883 142.07 13.7431 141.483 13.0213L139.931 14.2824ZM140.773 16.0224C140.955 16.751 141.051 17.5826 141.051 18.5238H143.051C143.051 17.4491 142.942 16.4513 142.713 15.5373L140.773 16.0224ZM141.051 18.5238V26.8398H143.051V18.5238H141.051ZM142.051 25.8398H137.879V27.8398H142.051V25.8398ZM138.879 26.8398V19.0278H136.879V26.8398H138.879ZM138.879 19.0278C138.879 17.6534 138.708 16.4523 138.192 15.6368L136.502 16.7069C136.695 17.0114 136.879 17.7143 136.879 19.0278H138.879ZM138.192 15.6368C137.578 14.6671 136.501 14.3318 135.359 14.3318V16.3318C136.159 16.3318 136.407 16.5565 136.502 16.7069L138.192 15.6368ZM135.359 14.3318C135.019 14.3318 134.664 14.3531 134.296 14.394L134.517 16.3817C134.821 16.3479 135.102 16.3318 135.359 16.3318V14.3318ZM134.351 14.3894C133.994 14.4092 133.666 14.4396 133.369 14.4819L133.652 16.4618C133.879 16.4295 134.148 16.4038 134.462 16.3863L134.351 14.3894ZM132.511 15.4718V26.8398H134.511V15.4718H132.511ZM133.511 25.8398H129.339V27.8398H133.511V25.8398ZM130.339 26.8398V12.6158H128.339V26.8398H130.339ZM145.687 8.44384L145.528 7.45657L144.687 7.59203V8.44384H145.687ZM149.859 7.77184H150.859V6.59788L149.7 6.78457L149.859 7.77184ZM149.859 12.1118H148.859V13.1118H149.859V12.1118ZM154.871 12.1118H155.871V11.1118H154.871V12.1118ZM154.871 15.5838V16.5838H155.871V15.5838H154.871ZM149.859 15.5838V14.5838H148.859V15.5838H149.859ZM150.307 22.8638L149.439 23.36L149.446 23.3715L149.452 23.3828L150.307 22.8638ZM153.555 23.5358L153.713 24.5233L153.729 24.5208L153.744 24.5179L153.555 23.5358ZM154.871 23.1718L155.855 22.9937L155.641 21.8086L154.515 22.2374L154.871 23.1718ZM155.459 26.4198L155.836 27.3459L156.588 27.0399L156.443 26.2417L155.459 26.4198ZM153.779 26.9518L153.544 25.98L153.779 26.9518ZM148.683 26.7278L148.292 27.6482L148.302 27.6524L148.312 27.6563L148.683 26.7278ZM146.891 25.4398L146.11 26.0645L146.116 26.071L146.121 26.0774L146.891 25.4398ZM145.939 23.4238L144.961 23.6334L144.964 23.6444L144.966 23.6555L145.939 23.4238ZM145.846 9.43112L150.018 8.75912L149.7 6.78457L145.528 7.45657L145.846 9.43112ZM148.859 7.77184V12.1118H150.859V7.77184H148.859ZM149.859 13.1118H154.871V11.1118H149.859V13.1118ZM153.871 12.1118V15.5838H155.871V12.1118H153.871ZM154.871 14.5838H149.859V16.5838H154.871V14.5838ZM148.859 15.5838V20.7638H150.859V15.5838H148.859ZM148.859 20.7638C148.859 21.7408 149.023 22.6326 149.439 23.36L151.175 22.3677C150.994 22.0498 150.859 21.5416 150.859 20.7638H148.859ZM149.452 23.3828C150.034 24.3406 151.097 24.6478 152.183 24.6478V22.6478C151.403 22.6478 151.215 22.4324 151.162 22.3449L149.452 23.3828ZM152.183 24.6478C152.687 24.6478 153.197 24.6059 153.713 24.5233L153.397 22.5484C152.98 22.6152 152.575 22.6478 152.183 22.6478V24.6478ZM153.744 24.5179C154.277 24.4154 154.772 24.2796 155.227 24.1063L154.515 22.2374C154.186 22.3628 153.804 22.4696 153.366 22.5538L153.744 24.5179ZM153.887 23.35L154.475 26.598L156.443 26.2417L155.855 22.9937L153.887 23.35ZM155.082 25.4938C154.631 25.6776 154.119 25.8405 153.544 25.98L154.015 27.9237C154.671 27.7645 155.28 27.5728 155.836 27.3459L155.082 25.4938ZM153.544 25.98C153.029 26.1047 152.358 26.1758 151.511 26.1758V28.1758C152.457 28.1758 153.297 28.0976 154.015 27.9237L153.544 25.98ZM151.511 26.1758C150.451 26.1758 149.645 26.0355 149.055 25.7994L148.312 27.6563C149.215 28.0175 150.294 28.1758 151.511 28.1758V26.1758ZM149.074 25.8075C148.452 25.543 147.993 25.2026 147.662 24.8023L146.121 26.0774C146.686 26.7598 147.421 27.278 148.292 27.6482L149.074 25.8075ZM147.672 24.8151C147.327 24.3839 147.069 23.8505 146.912 23.1922L144.966 23.6555C145.183 24.5652 145.559 25.3758 146.11 26.0645L147.672 24.8151ZM146.917 23.2143C146.766 22.5106 146.687 21.7141 146.687 20.8198H144.687C144.687 21.8296 144.776 22.7691 144.961 23.6334L146.917 23.2143ZM146.687 20.8198V8.44384H144.687V20.8198H146.687ZM157.61 16.1718L156.686 15.7884L156.682 15.7974L157.61 16.1718ZM159.206 13.7078L158.499 13.0007L159.206 13.7078ZM161.446 12.2238L161.081 11.2926L161.074 11.2954L161.446 12.2238ZM169.034 13.6518L168.306 14.3376L168.311 14.3428L169.034 13.6518ZM170.826 20.0918L171.824 20.1584L171.824 20.1542L170.826 20.0918ZM170.77 20.8478V21.8478H171.69L171.766 20.9309L170.77 20.8478ZM161.306 20.8478V19.8478H160.191L160.312 20.9559L161.306 20.8478ZM162.51 22.8918L161.931 23.707L162.51 22.8918ZM167.606 23.4518L167.782 24.4361L167.792 24.4344L167.802 24.4324L167.606 23.4518ZM169.426 22.9198L170.412 22.7568L170.202 21.4857L169.023 22.0045L169.426 22.9198ZM169.986 26.3078L170.433 27.2023L171.093 26.8724L170.972 26.1448L169.986 26.3078ZM169.09 26.6438L168.802 25.686L169.09 26.6438ZM167.83 26.9238L167.672 25.9364L167.649 25.9401L167.626 25.9449L167.83 26.9238ZM166.374 27.1478L166.48 28.1422L166.374 27.1478ZM161.334 26.6438L160.959 27.5711L160.965 27.5735L161.334 26.6438ZM158.898 25.0478L158.161 25.7245L158.171 25.7348L158.181 25.7449L158.898 25.0478ZM157.47 22.6118L156.517 22.9166L156.52 22.9252L156.523 22.9337L157.47 22.6118ZM166.822 17.9918V18.9918H167.876L167.82 17.9393L166.822 17.9918ZM166.626 16.9558L165.662 17.2235L165.669 17.248L165.677 17.2721L166.626 16.9558ZM166.15 16.0598L165.363 16.6777L165.377 16.6944L165.39 16.7106L166.15 16.0598ZM165.338 15.4158L164.87 16.2996L164.88 16.3051L164.891 16.3103L165.338 15.4158ZM162.93 15.4158L163.336 16.3297L163.357 16.3204L163.377 16.3103L162.93 15.4158ZM161.558 16.9558L160.619 16.6101L160.614 16.6248L160.609 16.6396L161.558 16.9558ZM161.306 17.9918L160.318 17.8359L160.135 18.9918H161.306V17.9918ZM158.022 19.5878C158.022 18.3788 158.203 17.3725 158.537 16.5463L156.682 15.7974C156.232 16.9126 156.022 18.1836 156.022 19.5878H158.022ZM158.533 16.5552C158.902 15.6679 159.366 14.962 159.913 14.415L158.499 13.0007C157.739 13.7603 157.139 14.6971 156.686 15.7885L158.533 16.5552ZM159.913 14.415C160.472 13.8553 161.106 13.4369 161.817 13.1523L161.074 11.2954C160.106 11.6827 159.246 12.2537 158.499 13.0007L159.913 14.415ZM161.81 13.1551C162.556 12.8632 163.31 12.7198 164.078 12.7198V10.7198C163.053 10.7198 162.053 10.9125 161.081 11.2926L161.81 13.1551ZM164.078 12.7198C165.947 12.7198 167.316 13.2865 168.306 14.3375L169.762 12.9661C168.325 11.4412 166.39 10.7198 164.078 10.7198V12.7198ZM168.311 14.3428C169.284 15.3609 169.854 16.9476 169.854 19.2798H171.854C171.854 16.6468 171.21 14.4814 169.757 12.9609L168.311 14.3428ZM169.854 19.2798C169.854 19.4976 169.845 19.747 169.828 20.0295L171.824 20.1542C171.843 19.8394 171.854 19.5474 171.854 19.2798H169.854ZM169.828 20.0253C169.81 20.3011 169.791 20.5475 169.773 20.7648L171.766 20.9309C171.785 20.7002 171.805 20.4426 171.824 20.1584L169.828 20.0253ZM170.77 19.8478H161.306V21.8478H170.77V19.8478ZM160.312 20.9559C160.436 22.1012 160.99 23.0389 161.931 23.707L163.089 22.0767C162.611 21.7368 162.362 21.3119 162.3 20.7398L160.312 20.9559ZM161.931 23.707C162.862 24.3687 164.039 24.6478 165.366 24.6478V22.6478C164.303 22.6478 163.576 22.423 163.089 22.0767L161.931 23.707ZM165.366 24.6478C166.188 24.6478 166.994 24.5776 167.782 24.4361L167.429 22.4676C166.761 22.5874 166.074 22.6478 165.366 22.6478V24.6478ZM167.802 24.4324C168.588 24.2751 169.272 24.0802 169.828 23.8352L169.023 22.0045C168.646 22.1702 168.116 22.3299 167.41 22.4713L167.802 24.4324ZM168.439 23.0829L168.999 26.4709L170.972 26.1448L170.412 22.7568L168.439 23.0829ZM169.539 25.4134C169.386 25.4897 169.147 25.5825 168.802 25.686L169.377 27.6017C169.779 27.4812 170.138 27.35 170.433 27.2023L169.539 25.4134ZM168.802 25.686C168.479 25.783 168.104 25.8673 167.672 25.9364L167.988 27.9113C168.489 27.831 168.954 27.7287 169.377 27.6017L168.802 25.686ZM167.626 25.9449C167.214 26.0306 166.762 26.1005 166.267 26.1535L166.48 28.1422C167.031 28.0832 167.549 28.0038 168.034 27.9028L167.626 25.9449ZM166.267 26.1535C165.78 26.2058 165.293 26.2318 164.806 26.2318V28.2318C165.364 28.2318 165.922 28.2019 166.48 28.1422L166.267 26.1535ZM164.806 26.2318C163.577 26.2318 162.549 26.0498 161.702 25.7142L160.965 27.5735C162.097 28.0218 163.384 28.2318 164.806 28.2318V26.2318ZM161.708 25.7166C160.851 25.3706 160.16 24.912 159.615 24.3508L158.181 25.7449C158.942 26.5277 159.875 27.1331 160.959 27.5711L161.708 25.7166ZM159.634 24.3712C159.098 23.7881 158.691 23.0985 158.416 22.2899L156.523 22.9337C156.883 23.9918 157.428 24.9263 158.161 25.7245L159.634 24.3712ZM158.422 22.3071C158.158 21.482 158.022 20.5778 158.022 19.5878H156.022C156.022 20.7632 156.184 21.875 156.517 22.9166L158.422 22.3071ZM167.82 17.9393C167.797 17.4951 167.715 17.0611 167.574 16.6396L165.677 17.2721C165.761 17.5226 165.809 17.7792 165.823 18.0444L167.82 17.9393ZM167.589 16.6882C167.457 16.213 167.23 15.7831 166.909 15.4091L165.39 16.7106C165.518 16.8593 165.608 17.0267 165.662 17.2235L167.589 16.6882ZM166.936 15.442C166.628 15.0503 166.236 14.7468 165.785 14.5214L164.891 16.3103C165.112 16.4209 165.261 16.5467 165.363 16.6777L166.936 15.442ZM165.806 14.5321C165.302 14.2657 164.727 14.1638 164.134 14.1638V16.1638C164.511 16.1638 164.738 16.23 164.87 16.2996L165.806 14.5321ZM164.134 14.1638C163.549 14.1638 162.987 14.2692 162.483 14.5214L163.377 16.3103C163.545 16.2265 163.785 16.1638 164.134 16.1638V14.1638ZM162.524 14.502C162.061 14.7075 161.658 14.9993 161.33 15.3811L162.849 16.6826C162.97 16.5417 163.126 16.4228 163.336 16.3297L162.524 14.502ZM161.33 15.3811C161.022 15.7411 160.787 16.1549 160.619 16.6101L162.496 17.3015C162.59 17.0475 162.71 16.8453 162.849 16.6826L161.33 15.3811ZM160.609 16.6396C160.479 17.0286 160.382 17.4276 160.318 17.8359L162.293 18.1478C162.341 17.8468 162.412 17.5551 162.506 17.2721L160.609 16.6396ZM161.306 18.9918H166.822V16.9918H161.306V18.9918Z" fill="#FFFFFA"/>
<path d="M6.91269 23.2838C7.11802 23.3025 7.35135 23.3212 7.61269 23.3398C7.89269 23.3398 8.21935 23.3398 8.59269 23.3398C10.7767 23.3398 12.3914 22.7892 13.4367 21.6878C14.5007 20.5865 15.0327 19.0652 15.0327 17.1238C15.0327 15.0892 14.5287 13.5492 13.5207 12.5038C12.5127 11.4585 10.9167 10.9358 8.73269 10.9358C8.43402 10.9358 8.12602 10.9452 7.80869 10.9638C7.49135 10.9638 7.19269 10.9825 6.91269 11.0198V23.2838ZM19.5407 17.1238C19.5407 18.8038 19.2794 20.2692 18.7567 21.5198C18.234 22.7705 17.4874 23.8065 16.5167 24.6278C15.5647 25.4492 14.398 26.0652 13.0167 26.4758C11.6354 26.8865 10.086 27.0918 8.36869 27.0918C7.58469 27.0918 6.67002 27.0545 5.62469 26.9798C4.57935 26.9238 3.55269 26.7932 2.54469 26.5878V7.68784C3.55269 7.50118 4.59802 7.37984 5.68069 7.32384C6.78202 7.24918 7.72469 7.21184 8.50869 7.21184C10.17 7.21184 11.6727 7.39851 13.0167 7.77184C14.3794 8.14518 15.546 8.73318 16.5167 9.53584C17.4874 10.3385 18.234 11.3652 18.7567 12.6158C19.2794 13.8665 19.5407 15.3692 19.5407 17.1238ZM22.2092 19.5878C22.2092 18.2812 22.4052 17.1425 22.7972 16.1718C23.2079 15.1825 23.7399 14.3612 24.3932 13.7078C25.0466 13.0545 25.7932 12.5598 26.6332 12.2238C27.4919 11.8878 28.3692 11.7198 29.2652 11.7198C31.3559 11.7198 33.0079 12.3638 34.2212 13.6518C35.4346 14.9212 36.0412 16.7972 36.0412 19.2798C36.0412 19.5225 36.0319 19.7932 36.0132 20.0918C35.9946 20.3718 35.9759 20.6238 35.9572 20.8478H26.4932C26.5866 21.7065 26.9879 22.3878 27.6972 22.8918C28.4066 23.3958 29.3586 23.6478 30.5532 23.6478C31.3186 23.6478 32.0652 23.5825 32.7932 23.4518C33.5399 23.3025 34.1466 23.1252 34.6132 22.9198L35.1732 26.3078C34.9492 26.4198 34.6506 26.5318 34.2772 26.6438C33.9039 26.7558 33.4839 26.8492 33.0172 26.9238C32.5692 27.0172 32.0839 27.0918 31.5612 27.1478C31.0386 27.2038 30.5159 27.2318 29.9932 27.2318C28.6679 27.2318 27.5106 27.0358 26.5212 26.6438C25.5506 26.2518 24.7386 25.7198 24.0852 25.0478C23.4506 24.3572 22.9746 23.5452 22.6572 22.6118C22.3586 21.6785 22.2092 20.6705 22.2092 19.5878ZM32.0092 17.9918C31.9906 17.6372 31.9252 17.2918 31.8132 16.9558C31.7199 16.6198 31.5612 16.3212 31.3372 16.0598C31.1319 15.7985 30.8612 15.5838 30.5252 15.4158C30.2079 15.2478 29.8066 15.1638 29.3212 15.1638C28.8546 15.1638 28.4532 15.2478 28.1172 15.4158C27.7812 15.5652 27.5012 15.7705 27.2772 16.0318C27.0532 16.2932 26.8759 16.6012 26.7452 16.9558C26.6332 17.2918 26.5492 17.6372 26.4932 17.9918H32.0092ZM43.2648 26.8398C42.3128 24.9732 41.3421 22.7892 40.3528 20.2878C39.3821 17.7865 38.4581 15.0612 37.5808 12.1118H42.0048C42.1914 12.8398 42.4061 13.6332 42.6488 14.4918C42.9101 15.3318 43.1714 16.1905 43.4328 17.0678C43.7128 17.9265 43.9834 18.7665 44.2448 19.5878C44.5248 20.4092 44.7954 21.1558 45.0568 21.8278C45.2994 21.1558 45.5608 20.4092 45.8408 19.5878C46.1208 18.7665 46.3914 17.9265 46.6528 17.0678C46.9328 16.1905 47.1941 15.3318 47.4368 14.4918C47.6981 13.6332 47.9221 12.8398 48.1088 12.1118H52.4208C51.5434 15.0612 50.6101 17.7865 49.6208 20.2878C48.6501 22.7892 47.6888 24.9732 46.7368 26.8398H43.2648Z" fill="#FFFFFA"/>
<rect x="61" y="7.83984" width="2" height="19" fill="#A0B9D9"/>
</svg>
