<svg width="30" height="30" viewBox="0 0 30 30" fill="none" xmlns="http://www.w3.org/2000/svg">
<path d="M28.328 8.50704C27.5976 6.88442 26.5491 5.42762 25.2178 4.17217C23.8866 2.92856 22.3433 1.94552 20.6233 1.25858C18.8443 0.547944 16.9594 0.192627 15.0155 0.192627C13.0716 0.192627 11.1867 0.547944 9.40772 1.25858C7.6877 1.94552 6.14438 2.91672 4.81313 4.17217C3.48188 5.42762 2.43338 6.88442 1.70296 8.50704C0.948977 10.1889 0.560181 11.9891 0.560181 13.8368C0.560181 17.0702 1.76183 20.1733 3.96488 22.6368L2.78678 29.0917L9.05429 26.2847C10.9275 27.0901 12.9185 27.4928 15.0037 27.4928C16.9476 27.4928 18.8325 27.1375 20.6115 26.4268C22.3315 25.7399 23.8748 24.7687 25.206 23.5132C26.5373 22.2578 27.5858 20.801 28.3162 19.1784C29.0702 17.4965 29.459 15.6963 29.459 13.8486C29.4708 11.9891 29.082 10.2007 28.328 8.50704Z" fill="#F0F0F0"/>
<path d="M20.8825 16.5608C20.2698 16.2529 19.8222 16.0634 19.5041 15.945C19.3038 15.8739 18.8326 15.6607 18.6677 15.791C18.1493 16.2174 17.5956 17.4254 17.0065 17.6505C15.5457 17.3662 14.1909 16.3595 13.1306 15.3291C12.6593 14.879 11.7875 13.5999 11.5991 13.2564C11.5637 12.9011 12.1999 12.4273 12.3412 12.1549C13.0717 11.3258 12.518 10.8047 12.4237 10.4612C12.2588 10.1059 11.9761 9.46635 11.7287 8.94522C11.5166 8.60175 11.4694 8.09246 11.0924 7.90296C9.49022 7.07388 8.57135 8.73203 8.19435 9.59663C5.92062 15.104 19.5866 25.5859 22.3669 18.3611C22.5082 17.7334 22.4493 17.4965 22.2373 17.2123C21.8132 16.9162 21.3184 16.7859 20.8825 16.5608Z" fill="#1F1C24"/>
</svg>
