<svg width="22" height="17" viewBox="0 0 22 17" fill="none" xmlns="http://www.w3.org/2000/svg">
<path d="M2.2 17C1.595 17 1.07727 16.7921 0.6468 16.3763C0.2156 15.9598 0 15.4594 0 14.875V2.125C0 1.54062 0.2156 1.04054 0.6468 0.62475C1.07727 0.20825 1.595 0 2.2 0H19.8C20.405 0 20.9231 0.20825 21.3543 0.62475C21.7848 1.04054 22 1.54062 22 2.125V14.875C22 15.4594 21.7848 15.9598 21.3543 16.3763C20.9231 16.7921 20.405 17 19.8 17H2.2ZM11 9.5625L19.8 4.25V2.125L11 7.4375L2.2 2.125V4.25L11 9.5625Z" fill="white"/>
</svg>
