<svg width="68" height="67" viewBox="0 0 68 67" fill="none" xmlns="http://www.w3.org/2000/svg">
<g clip-path="url(#clip0_145_407)">
<path d="M46.6582 46.3711C48.7126 45.5021 51.1622 45.1858 54.3228 45.2647C54.2339 44.6733 53.1045 43.9709 52.277 43.4563C51.9993 43.2836 51.7556 43.132 51.5967 43.0129C50.3324 42.1043 48.989 41.1557 47.6459 40.3264C47.2132 40.062 46.5902 39.8414 45.9907 39.6291C45.605 39.4925 45.2291 39.3594 44.9197 39.2203C44.6037 39.0915 44.1732 38.9627 43.7084 38.8236C42.6045 38.4933 41.3071 38.1051 40.8899 37.5215C39.8156 36.1248 39.0659 34.436 38.3173 32.7496C38.2399 32.5753 38.1626 32.4012 38.0849 32.2273C37.693 31.3315 37.2571 30.418 36.8187 29.4994C36.329 28.4735 35.8363 27.441 35.3984 26.4196C35.2077 26.0035 35.0626 25.6102 34.9198 25.223C34.7372 24.7279 34.5583 24.2428 34.2923 23.7331C31.408 18.1626 27.1414 13.5005 21.9658 10.2214C20.2667 9.1546 18.3706 8.16665 16.2765 7.49522C15.637 7.30345 14.9286 7.27258 14.2132 7.24141C13.6026 7.21481 12.987 7.18798 12.4048 7.06073H11.575C11.096 6.92766 10.6707 6.54354 10.2751 6.18622C10.0835 6.01311 9.89877 5.8463 9.71831 5.71736C8.49342 4.8878 7.26877 4.33433 5.80693 3.74197C5.29339 3.50502 3.83155 2.95181 3.31799 3.38655C3.00173 3.46561 2.84385 3.58409 2.76478 3.9001C2.44877 4.37425 2.72563 5.08534 2.92292 5.51982C3.31452 6.35527 3.80969 6.96647 4.31711 7.59278C4.57758 7.91429 4.84128 8.23979 5.09586 8.60164C5.21745 8.77326 5.34421 8.94876 5.47311 9.12721C6.05624 9.93453 6.68294 10.8022 7.07125 11.6435C7.6192 12.8239 8.00977 14.0718 8.39891 15.315C8.7392 16.4022 9.0784 17.4859 9.52078 18.518C9.8762 19.3478 10.4294 20.2959 10.943 21.0466C11.104 21.2663 11.314 21.4643 11.5266 21.6647C11.8874 22.0048 12.2557 22.352 12.4048 22.8245C12.789 23.4648 12.0836 25.2983 11.655 26.4124C11.5547 26.6731 11.4696 26.8945 11.4171 27.0519C10.3898 30.2913 10.5873 34.7953 11.7725 37.6003C11.8149 37.6991 11.8569 37.7995 11.8993 37.9007C12.331 38.9317 12.7944 40.0384 13.9455 40.3264C13.9813 40.2906 13.9847 40.2792 13.9924 40.2736C14.0017 40.267 14.0172 40.2691 14.1036 40.2473C14.1614 39.7932 14.2106 39.3425 14.2591 38.8982C14.4427 37.2165 14.6163 35.6255 15.2098 34.2818C15.4925 33.5879 15.959 33.0277 16.4137 32.4818C16.658 32.1884 16.8989 31.899 17.1061 31.5953C17.3568 31.7457 17.4484 32.0869 17.5425 32.4375C17.5967 32.6393 17.6517 32.8441 17.7384 33.0175C17.7757 33.1064 17.8132 33.196 17.8509 33.2861C18.3327 34.4366 18.851 35.6744 19.4372 36.8101C20.7409 39.3387 22.203 41.788 23.8621 44.0006C24.4151 44.7907 25.2055 45.66 25.9166 46.3711C26.0247 46.4657 26.1374 46.5465 26.2485 46.626C26.462 46.7789 26.6692 46.9273 26.8252 47.1612H26.9042V47.2799C26.1542 47.0048 25.5782 46.4132 25.016 45.8358C24.6898 45.5007 24.3682 45.1705 24.02 44.9095C22.2421 43.5661 20.1089 41.551 18.884 39.6153C18.4982 38.7844 18.0902 37.9756 17.6765 37.1557C17.5395 36.8842 17.4019 36.6114 17.2642 36.3362C17.2642 36.3362 17.2644 36.2966 17.2642 36.2572C17.1133 36.4585 17.0906 36.6598 17.0633 36.902C17.0477 37.04 17.0307 37.1912 16.9876 37.3633C16.8412 37.9266 16.7686 38.5124 16.6985 39.0785C16.5227 40.4977 16.3622 41.7935 15.0913 42.3018C13.0765 43.1316 11.575 40.9582 10.943 39.9707C8.92817 36.6917 8.37496 31.1605 9.79714 26.6962C9.90717 26.3526 9.98372 25.9851 10.0601 25.6186C10.2031 24.9316 10.3454 24.2484 10.706 23.7331C10.6268 23.2583 10.3539 23.0124 10.0872 22.772C9.95452 22.6524 9.82334 22.5341 9.71833 22.3897C9.16512 21.6392 8.69122 20.77 8.25649 19.9405C7.6248 18.7073 7.13071 17.2908 6.65187 15.9181C6.50168 15.4875 6.35299 15.0612 6.20203 14.6463C6.06717 14.2996 5.97933 13.9528 5.89265 13.6106C5.80156 13.2509 5.71175 12.8964 5.57 12.5524C5.19653 11.7432 4.57809 10.9341 4.00394 10.183C3.84917 9.98052 3.69762 9.78225 3.55495 9.58933C3.40104 9.36846 3.19726 9.11246 2.97009 8.82708C1.85613 7.42771 0.179944 5.32205 1.06601 3.18901C2.72539 -0.880253 8.53335 2.20107 10.7848 3.6235C11.01 3.76826 11.2482 3.97841 11.4942 4.1954C11.8527 4.51157 12.2276 4.84224 12.6024 5.00628C13.0963 5.02611 13.5903 5.05574 14.0843 5.08536C14.5781 5.11497 15.0718 5.14458 15.5655 5.16441C15.7272 5.20225 15.888 5.2395 16.0479 5.27651C17.7231 5.66445 19.2879 6.02682 20.6224 6.78413C27.4178 10.7746 31.8428 14.8438 35.912 21.5602C36.4645 22.464 36.8414 23.4159 37.2253 24.3852C37.4454 24.941 37.6677 25.5026 37.9268 26.0642C38.9145 28.3556 40.0212 30.7652 41.1665 32.9384C41.3105 33.2265 41.4452 33.5238 41.5801 33.8218C41.9265 34.5865 42.2746 35.3551 42.7865 35.9805C42.9704 36.2435 43.3821 36.3838 43.7766 36.5183C43.9748 36.5858 44.1687 36.6519 44.3271 36.7313C44.8381 36.9945 45.3916 37.2334 45.9495 37.4743C46.815 37.848 47.6912 38.2262 48.436 38.7067C50.7274 40.1289 52.94 41.8274 54.9548 43.5661C55.3621 43.9305 55.6997 44.3763 56.0368 44.8214C56.3211 45.1968 56.605 45.5718 56.9302 45.8972V46.2526C56.2982 46.4501 55.6659 46.6477 55.0339 46.8058C54.3462 46.9826 53.6976 47.0519 53.054 47.1206C52.4036 47.1901 51.7584 47.2591 51.0831 47.4378C50.998 47.4622 50.9108 47.4873 50.8219 47.513C50.0442 47.7374 49.137 47.9992 48.357 48.0701C48.3964 48.1095 48.436 48.1489 48.436 48.1489C48.8169 49.2329 50.436 50.1648 51.763 50.9285C52.2256 51.1947 52.6527 51.4405 52.9795 51.6652C54.5203 52.7714 55.9425 54.1148 57.0884 55.6554C57.2853 55.8524 57.4824 56.0396 57.6793 56.2267C57.8775 56.4149 58.0756 56.6031 58.2736 56.8012C58.4074 56.9925 58.495 57.2116 58.5811 57.427C58.6728 57.6566 58.7629 57.8821 58.9056 58.0656V58.184C58.56 58.0606 58.3224 57.8137 58.0867 57.5688C57.9452 57.4217 57.8044 57.2754 57.6413 57.1569C57.2692 56.9032 56.8972 56.6277 56.5252 56.3522C56.0282 55.9842 55.5312 55.6161 55.0339 55.3C54.2694 54.8171 53.4435 54.4368 52.6134 54.0545C51.8134 53.6861 51.0096 53.3159 50.2533 52.8505C49.3843 52.2973 48.5545 51.6652 47.7249 51.0332C46.9742 50.48 46.1449 49.413 45.6705 48.6231C45.5509 48.4353 45.4757 48.2327 45.4032 48.0377C45.3081 47.7815 45.2178 47.5383 45.0382 47.3588C45.0973 46.7975 45.6426 46.6559 46.1617 46.521C46.3367 46.4755 46.5087 46.4308 46.6582 46.3711Z" fill="#384359"/>
<path d="M12.4046 11.13C12.8788 11.0115 13.3527 10.9322 14.0243 10.9322C14.1496 11.0575 14.3058 11.1641 14.4636 11.2718C14.7041 11.4359 14.948 11.6024 15.0911 11.8411C15.1789 11.964 15.2354 12.0869 15.292 12.2098C15.3627 12.3635 15.4334 12.5172 15.5653 12.6709C15.5653 13.6189 15.2889 14.251 14.7354 14.6463C14.7354 14.6463 14.696 14.6857 14.6566 14.7254C14.4987 14.4097 14.3508 14.094 14.2028 13.7784C14.0545 13.4618 13.9061 13.1453 13.7477 12.8288C13.5939 12.6135 13.4161 12.4161 13.2378 12.218C12.9581 11.9073 12.6768 11.595 12.4837 11.2091H12.4046V11.13Z" fill="#384359"/>
</g>
<defs>
<clipPath id="clip0_145_407">
<rect width="66.9694" height="66.9694" fill="white" transform="translate(0.113586)"/>
</clipPath>
</defs>
</svg>
