<svg width="68" height="68" viewBox="0 0 68 68" fill="none" xmlns="http://www.w3.org/2000/svg">
<g clip-path="url(#clip0_145_416)">
<path fill-rule="evenodd" clip-rule="evenodd" d="M44.9945 21.3363C45.1001 21.2759 45.251 21.2759 45.3718 21.3363L49.1898 23.4641C49.4313 23.6 49.5822 23.8565 49.5822 24.1432V42.5394C49.5822 42.811 49.4313 43.0676 49.1898 43.2034L42.7912 46.9007C42.5497 47.0366 42.263 47.0366 42.0215 46.9007L35.6229 43.2034C35.3814 43.0676 35.2305 42.811 35.2305 42.5394V35.1598C35.2305 34.8882 35.3814 34.6316 35.6229 34.4958L42.0215 30.7985C42.263 30.6626 42.5497 30.6626 42.7912 30.7985L44.3908 31.719C44.4814 31.7643 44.5719 31.7643 44.6625 31.719C44.753 31.6587 44.7983 31.5681 44.7983 31.4776V21.6683C44.7983 21.5325 44.8738 21.4117 44.9945 21.3363ZM42.5044 41.5434L44.6926 40.2757C44.753 40.2455 44.7832 40.1852 44.7832 40.1097V37.5744C44.7832 37.514 44.753 37.4386 44.6926 37.4084L42.5044 36.1407C42.444 36.1106 42.3686 36.1106 42.3082 36.1407L40.12 37.4084C40.0596 37.4386 40.0294 37.4989 40.0294 37.5744V40.1097C40.0294 40.1701 40.0596 40.2455 40.12 40.2757L42.3082 41.5434C42.3686 41.5736 42.444 41.5736 42.5044 41.5434Z" fill="#384359"/>
<path d="M14.616 34.9636C14.616 34.692 14.4651 34.4354 14.2237 34.2996L7.82501 30.6174C7.71937 30.557 7.59864 30.5268 7.47791 30.5117H7.41754C7.29682 30.5117 7.17609 30.557 7.07045 30.6174L0.67179 34.2996C0.430331 34.4354 0.279419 34.692 0.279419 34.9636L0.29451 44.8634C0.29451 44.9993 0.369966 45.1351 0.490695 45.1954C0.611425 45.2709 0.762337 45.2709 0.867975 45.1954L4.67095 43.0223C4.91241 42.8865 5.06332 42.6299 5.06332 42.3583V37.7253C5.06332 37.4537 5.21423 37.1971 5.45569 37.0613L7.07045 36.1256C7.19118 36.0502 7.327 36.02 7.46282 36.02C7.59864 36.02 7.73446 36.0502 7.8401 36.1256L9.45485 37.0613C9.69631 37.1971 9.84722 37.4537 9.84722 37.7253V42.3583C9.84722 42.6299 9.99814 42.8865 10.2396 43.0223L14.0426 45.1954C14.1633 45.2709 14.3142 45.2709 14.4349 45.1954C14.5557 45.1351 14.6311 44.9993 14.6311 44.8634L14.616 34.9636Z" fill="#384359"/>
<path d="M62.8625 39.7324L66.6655 37.514C66.9069 37.3782 67.0428 37.1217 67.0428 36.85V35.0542C67.0428 34.7825 66.8919 34.526 66.6655 34.3902L60.3121 30.7079C60.0706 30.5721 59.7839 30.5721 59.5425 30.7079L53.1438 34.4053C52.9023 34.5411 52.7514 34.7976 52.7514 35.0693V42.4488C52.7514 42.7205 52.9023 42.977 53.1438 43.1129L59.4972 46.7347C59.7386 46.8706 60.0254 46.8706 60.2517 46.7347L64.1 44.5918C64.2207 44.5314 64.2962 44.3956 64.2962 44.2598C64.2962 44.124 64.2207 43.9881 64.1 43.9278L57.6712 40.2304C57.5504 40.155 57.475 40.0343 57.475 39.8984V37.5895C57.475 37.4537 57.5504 37.3178 57.6712 37.2575L59.6783 36.1106C59.799 36.0351 59.9499 36.0351 60.0706 36.1106L62.0778 37.2575C62.1985 37.3329 62.274 37.4537 62.274 37.5895V39.4004C62.274 39.5363 62.3494 39.6721 62.4701 39.7324C62.5909 39.8079 62.7418 39.8079 62.8625 39.7324Z" fill="#384359"/>
<path d="M59.9801 37.1669C59.9348 37.1367 59.8744 37.1367 59.8292 37.1669L58.6068 37.8762C58.5615 37.9064 58.5313 37.9517 58.5313 38.012V39.4306C58.5313 39.491 58.5615 39.5362 58.6068 39.5664L59.8292 40.2757C59.8744 40.3059 59.9348 40.3059 59.9801 40.2757L61.2025 39.5664C61.2477 39.5362 61.2779 39.491 61.2779 39.4306V38.012C61.2779 37.9517 61.2477 37.9064 61.2025 37.8762L59.9801 37.1669Z" fill="#384359"/>
<path d="M25.1001 30.655C25.1742 30.6717 25.2468 30.6993 25.3157 30.7381L28.4698 32.5587L31.6842 34.4052C31.7507 34.4426 31.8114 34.4891 31.8645 34.5426L31.8653 34.5411C31.9285 34.6042 31.9819 34.6804 32.0209 34.7636C32.0663 34.859 32.0917 34.963 32.0917 35.0693V42.4187L32.0917 42.4231C32.0913 42.48 32.0844 42.5363 32.0713 42.5909L32.0765 42.5998C32.0742 42.6074 32.0717 42.615 32.0691 42.6226L32.2274 42.8865V42.977L25.1648 47.0667L25.0545 46.8599C24.882 46.8912 24.7028 46.8563 24.5461 46.7649L18.1626 43.0978C18.0871 43.0525 18.0116 42.9921 17.9513 42.9167L17.9554 42.9096C17.9172 42.8663 17.883 42.8191 17.8541 42.7691C17.7914 42.663 17.755 42.5445 17.755 42.4187V35.0693C17.755 34.8316 17.8821 34.6054 18.0757 34.4616C18.1033 34.4411 18.1323 34.4222 18.1625 34.4052L24.531 30.7381C24.6526 30.6607 24.7904 30.6319 24.9266 30.6339C24.9876 30.633 25.0475 30.6381 25.1044 30.6475L25.1001 30.655Z" fill="#384359"/>
<path d="M24.2443 29.4402L24.3348 29.395L24.365 29.4402H24.2443Z" fill="#384359"/>
<path d="M32.2425 42.8865L32.2878 42.9619L32.2425 42.9921V42.8865Z" fill="#384359"/>
</g>
<defs>
<clipPath id="clip0_145_416">
<rect width="66.7634" height="66.7634" fill="white" transform="translate(0.279419 0.818848)"/>
</clipPath>
</defs>
</svg>
