<svg width="68" height="68" viewBox="0 0 68 68" fill="none" xmlns="http://www.w3.org/2000/svg">
<path d="M49.324 29.1814C50.7503 29.1814 51.6926 29.4361 52.1765 29.9709C52.6604 30.5058 52.7622 31.3972 52.5076 32.6706C52.2529 33.9949 51.7435 34.9627 51.0049 35.523C50.2664 36.0833 49.1458 36.3635 47.6431 36.3635H45.3765L46.7772 29.1814H49.324Z" fill="#384359"/>
<path d="M20.112 29.1814C21.5382 29.1814 22.4806 29.4361 22.9644 29.9709C23.4483 30.5058 23.5502 31.3972 23.2955 32.6706C23.0409 33.9949 22.5315 34.9627 21.7929 35.523C21.0543 36.0833 19.9337 36.3635 18.4311 36.3635H16.1644L17.5652 29.1814H20.112Z" fill="#384359"/>
<path fill-rule="evenodd" clip-rule="evenodd" d="M33.6611 49.9125C50.9619 49.9125 64.987 42.8088 64.987 34.0459C64.987 25.2829 50.9619 18.1792 33.6611 18.1792C16.3603 18.1792 2.33521 25.2829 2.33521 34.0459C2.33521 42.8088 16.3603 49.9125 33.6611 49.9125ZM43.9502 43.6474H40.2064L43.5428 26.4563H50.7503C52.915 26.4563 54.4941 27.0166 55.4873 28.1627C56.4806 29.3088 56.7862 30.8878 56.3787 32.9253C56.2259 33.7657 55.9458 34.5298 55.5637 35.2174C55.1817 35.905 54.6724 36.5417 54.0356 37.1275C53.2716 37.8406 52.4566 38.3245 51.5398 38.6301C50.6229 38.9358 49.4768 39.0886 48.0506 39.0886H44.8416L43.9502 43.6474ZM29.9173 21.8975H33.6356L32.7442 26.4563H36.0551C38.1435 26.4563 39.5697 26.8129 40.3592 27.5515C41.1487 28.29 41.378 29.4616 41.0723 31.0915L39.5188 39.0886H35.7495L37.2266 31.4736C37.4049 30.6077 37.3285 30.0219 37.0484 29.7163C36.7682 29.4106 36.1315 29.2324 35.1892 29.2324H32.2094L30.2993 39.0886H26.5809L29.9173 21.8975ZM14.7382 43.6474H10.9944L14.3307 26.4563H21.5382C23.703 26.4563 25.2821 27.0166 26.2753 28.1627C27.2686 29.3088 27.5742 30.8878 27.1667 32.9253C27.0139 33.7657 26.7337 34.5298 26.3517 35.2174C25.9697 35.905 25.4603 36.5417 24.8236 37.1275C24.0596 37.8406 23.2446 38.3245 22.3277 38.6301C21.4109 38.9358 20.2648 39.0886 18.8386 39.0886H15.6296L14.7382 43.6474Z" fill="#384359"/>
<path fill-rule="evenodd" clip-rule="evenodd" d="M66.2604 34.0459C66.2604 43.5121 51.6652 51.186 33.6611 51.186C15.657 51.186 1.0618 43.5121 1.0618 34.0459C1.0618 24.5796 15.657 16.9058 33.6611 16.9058C51.6652 16.9058 66.2604 24.5796 66.2604 34.0459ZM65.7388 34.0459C65.7388 38.4887 62.3042 42.6363 56.4695 45.7041C50.6591 48.7591 42.596 50.6644 33.6611 50.6644C24.7262 50.6644 16.6631 48.7591 10.8526 45.7041C5.01799 42.6363 1.58339 38.4887 1.58339 34.0459C1.58339 29.603 5.01799 25.4554 10.8526 22.3876C16.6631 19.3326 24.7262 17.4274 33.6611 17.4274C42.596 17.4274 50.6591 19.3326 56.4695 22.3876C62.3042 25.4554 65.7388 29.603 65.7388 34.0459Z" fill="#384359"/>
</svg>
