<svg width="67" height="70" viewBox="0 0 67 70" fill="none" xmlns="http://www.w3.org/2000/svg">
<g clip-path="url(#clip0_145_411)">
<path d="M66.6868 39.6326C69.0231 21.3427 56.1067 4.62152 37.8502 2.28523C19.5938 -0.0510691 2.80579 12.8653 0.469493 31.1218C-1.8668 49.3783 11.0496 66.1329 29.3061 68.5026C47.5959 70.8389 64.3172 57.9225 66.6868 39.6326Z" fill="#384359"/>
<path d="M45.6268 23.4457L31.5423 37.5303L27.5706 33.5586C41.4215 19.7077 42.7899 20.9092 45.6268 23.4457Z" fill="white"/>
<path d="M31.5423 37.8637C31.4421 37.8637 31.3754 37.8304 31.3086 37.7636L27.3036 33.7919C27.1701 33.6584 27.1701 33.4582 27.3036 33.3247C41.3881 19.2401 42.8566 20.5752 45.8271 23.2452C45.8938 23.312 45.9272 23.3787 45.9272 23.4788C45.9272 23.579 45.8938 23.6457 45.8271 23.7125L31.7425 37.7636C31.7091 37.8304 31.609 37.8637 31.5423 37.8637ZM28.0378 33.5583L31.5423 37.0627L45.1262 23.4788C42.6564 21.276 40.9876 20.6085 28.0378 33.5583Z" fill="#384359"/>
<path d="M35.5807 41.5687L31.7425 37.7305L45.827 23.646C49.5985 27.4508 43.958 33.6253 35.5807 41.5687Z" fill="white"/>
<path d="M35.5807 41.9023C35.4805 41.9023 35.4138 41.8689 35.347 41.8021L31.5088 37.9639C31.4421 37.8972 31.4421 37.8304 31.4421 37.7303C31.4421 37.6302 31.4755 37.5634 31.5422 37.4967L45.6267 23.4121C45.7602 23.2786 45.9605 23.2786 46.094 23.4121C46.9618 24.2132 47.429 25.3479 47.3956 26.5161C47.3289 30.2208 43.1236 34.9267 35.8477 41.8021C35.7475 41.8689 35.6474 41.9023 35.5807 41.9023ZM32.2097 37.7303C34.3458 39.8997 35.2469 40.7675 35.5807 41.1012C41.1878 35.7611 46.628 30.2875 46.6614 26.5161C46.6948 25.6483 46.361 24.7805 45.7936 24.113L32.2097 37.7303Z" fill="#384359"/>
<path d="M27.6373 33.6585L30.4742 36.4954C30.5409 36.5621 30.5409 36.6289 30.4742 36.6956C30.4408 36.729 30.4408 36.729 30.4074 36.729L24.5333 37.9973C24.2329 38.0307 23.9659 37.8304 23.8992 37.53C23.8658 37.3632 23.9326 37.1963 24.0327 37.0961L27.437 33.6918C27.5038 33.6251 27.6039 33.5917 27.6373 33.6585Z" fill="white"/>
<path d="M24.4333 38.3314C23.9326 38.3314 23.5655 37.9308 23.5655 37.4302C23.5655 37.1966 23.6656 36.963 23.8325 36.7961L27.2368 33.3918C27.4371 33.2249 27.7041 33.2249 27.9043 33.3918L30.7413 36.2287C30.9415 36.3956 30.9415 36.696 30.7413 36.8962C30.6745 36.963 30.6078 36.9963 30.5076 37.0297L24.6335 38.298C24.5668 38.298 24.5 38.3314 24.4333 38.3314ZM27.5372 34.0259L24.2664 37.2967C24.1996 37.3635 24.1663 37.4636 24.233 37.5637C24.2664 37.6638 24.3665 37.6972 24.4666 37.6638L29.9736 36.4623L27.5372 34.0259Z" fill="#384359"/>
<path d="M53.0695 15.6357C50.9335 13.5664 47.4958 13.6332 45.4265 15.8026C43.3572 17.972 43.4239 21.3763 45.5934 23.4456C47.3623 25.1478 50.0323 25.4481 52.135 24.1799L48.3302 20.375L53.0695 15.6357Z" fill="white"/>
<path d="M49.3315 25.2815C46.1608 25.2815 43.5909 22.7116 43.5909 19.5409C43.5909 16.3702 46.1608 13.8003 49.3315 13.8003C50.8 13.8003 52.2352 14.3677 53.3032 15.4023C53.37 15.4691 53.4033 15.5358 53.4033 15.636C53.4033 15.7361 53.37 15.8028 53.3032 15.8696L48.7975 20.3753L52.3353 23.9131C52.4688 24.0466 52.4688 24.2469 52.3353 24.3804C52.3019 24.4138 52.3019 24.4138 52.2686 24.4471C51.4008 24.9811 50.3661 25.2815 49.3315 25.2815ZM49.3315 14.5012C46.5279 14.5012 44.2584 16.7707 44.2918 19.5743C44.2918 22.3778 46.5613 24.6474 49.3649 24.614C50.1325 24.614 50.9002 24.4471 51.601 24.08L48.0966 20.6089C48.0298 20.5422 47.9965 20.4754 47.9965 20.3753C47.9965 20.2752 48.0298 20.2084 48.0966 20.1417L52.5689 15.6693C51.6678 14.9017 50.533 14.5012 49.3315 14.5012Z" fill="#384359"/>
<path d="M53.1697 15.7357L53.1029 15.6689L48.3302 20.3749L52.1017 24.1464C52.4688 23.9127 52.8359 23.6457 53.1363 23.3453C55.2723 21.2427 55.2723 17.8384 53.1697 15.7357Z" fill="white"/>
<path d="M52.135 24.5134C52.0349 24.5134 51.9681 24.4801 51.9014 24.4133L48.0965 20.6085C48.0298 20.5417 47.9964 20.475 47.9964 20.3749C47.9964 20.2747 48.0298 20.208 48.0965 20.1412L52.8359 15.4019C52.9694 15.2684 53.1696 15.2684 53.3031 15.4019L53.4033 15.4686C55.6394 17.7048 55.6394 21.3094 53.4366 23.5789C53.1029 23.9127 52.7357 24.2131 52.3352 24.4467C52.2351 24.4801 52.1684 24.5134 52.135 24.5134ZM48.7974 20.3749L52.1684 23.7458C52.4354 23.5789 52.7024 23.3453 52.9026 23.145C54.805 21.2426 54.9052 18.1387 53.0695 16.1361L48.7974 20.3749Z" fill="#384359"/>
<path d="M46.1941 24.0466C45.3931 23.2455 44.0915 23.2455 43.2905 24.0466L30.7078 36.6292L32.8105 38.7319L46.1274 27.0504C46.9952 26.3161 47.0619 25.0145 46.3276 24.1467C46.2609 24.1133 46.2275 24.0799 46.1941 24.0466Z" fill="white"/>
<path d="M32.7771 39.0654C32.677 39.0654 32.6102 39.032 32.5435 38.9653L30.4408 36.8626C30.3073 36.7291 30.3073 36.5288 30.4408 36.3953L43.0235 23.8127C43.958 22.8782 45.4599 22.8782 46.3944 23.8127C47.3289 24.7472 47.3289 26.2491 46.3944 27.1836C46.361 27.217 46.3276 27.2504 46.2943 27.2838L32.9774 38.9653C32.944 39.032 32.8773 39.0654 32.7771 39.0654ZM31.1751 36.629L32.8105 38.2644L45.8938 26.7831C46.628 26.1824 46.6948 25.081 46.094 24.3467C45.4933 23.6125 44.3919 23.5457 43.6576 24.1465C43.6242 24.1798 43.5908 24.2132 43.5241 24.2466L31.1751 36.629Z" fill="#384359"/>
<path d="M21.0623 50.9471C20.9288 51.0139 20.862 51.1474 20.8954 51.2809L21.4628 53.6839C21.5963 54.0177 21.396 54.4182 21.0289 54.5183C20.7619 54.6184 20.4615 54.5183 20.2946 54.3181L16.6233 50.6801L28.6052 38.6982L32.7437 38.765L35.5473 41.5685C34.8798 42.1359 30.8413 46.0409 21.0623 50.9471Z" fill="white"/>
<path d="M20.7953 54.8523C20.5283 54.8523 20.2613 54.7522 20.0944 54.552L16.4565 50.914C16.3897 50.8472 16.3563 50.7805 16.3563 50.6804C16.3563 50.5802 16.3897 50.5135 16.4565 50.4467L28.4383 38.4649C28.5051 38.3981 28.6052 38.3647 28.6719 38.3647L32.8105 38.4315C32.9107 38.4315 32.9774 38.4649 33.0442 38.5316L35.8477 41.3352C35.9145 41.4019 35.9478 41.5021 35.9478 41.6022C35.9478 41.7023 35.9145 41.7691 35.8143 41.8358L35.5807 42.0361C32.0429 45.14 27.2368 48.2439 21.2625 51.2144L21.8299 53.5841C21.9301 54.0179 21.7298 54.4852 21.3293 54.7188C21.129 54.819 20.9622 54.8523 20.7953 54.8523ZM17.124 50.6804L20.5617 54.0847C20.6618 54.2516 20.862 54.3183 21.0289 54.2182C21.1958 54.1181 21.2625 53.9178 21.1624 53.7509L20.595 51.3479C20.5283 51.0475 20.6618 50.7805 20.9288 50.647C26.8363 47.6766 31.609 44.606 35.1135 41.5688L32.6437 39.099L28.8054 39.0323L17.124 50.6804Z" fill="#384359"/>
<path d="M13.7864 53.5505L16.6567 50.6802L20.9288 54.9523L14.1201 54.485C13.8197 54.4516 13.6195 54.1846 13.6529 53.8842C13.6529 53.7507 13.6862 53.6172 13.7864 53.5505Z" fill="white"/>
<path d="M20.9288 55.2526L14.0868 54.7853C13.5861 54.752 13.2524 54.3181 13.2857 53.8174C13.3191 53.6172 13.3859 53.4169 13.5527 53.2834L16.4231 50.4131C16.5566 50.2796 16.7568 50.2796 16.8903 50.4131L21.1624 54.6852C21.2625 54.7853 21.2959 54.9188 21.2292 55.0523C21.1624 55.1858 21.0623 55.2526 20.9288 55.2526ZM16.6567 51.1474L14.02 53.7841C13.9199 53.8508 13.9199 54.0177 14.02 54.0844C14.0534 54.1178 14.0868 54.1512 14.1535 54.1512L20.061 54.5517L16.6567 51.1474Z" fill="#384359"/>
<path d="M27.437 40.2336C27.2368 40.2336 27.1033 40.0667 27.1033 39.8998C27.1033 39.7997 27.1366 39.7329 27.2034 39.6662L30.4408 36.4287C30.5743 36.2952 30.7746 36.2952 30.9081 36.4287L33.0108 38.5314C33.1109 38.6315 33.1443 38.7317 33.1109 38.8652C33.0775 38.9653 32.9774 39.0654 32.8439 39.0988L27.5038 40.2336C27.4704 40.2336 27.437 40.2336 27.437 40.2336ZM30.6745 37.1296L28.4717 39.3324L32.0762 38.5648L30.6745 37.1296Z" fill="#384359"/>
<path d="M32.7437 38.7651L29.0724 39.5661C28.8054 39.6329 28.5384 39.466 28.4716 39.199C28.4383 39.0321 28.4716 38.8652 28.6051 38.7317L30.6411 36.6958L32.7437 38.7651Z" fill="white"/>
<path d="M29.0057 39.8998C28.5384 39.8998 28.1713 39.5327 28.1713 39.0654C28.1713 38.8318 28.2714 38.6315 28.4049 38.4647L30.4408 36.4287C30.5743 36.2952 30.7746 36.2952 30.9081 36.4287L33.0107 38.5314C33.1109 38.6315 33.1442 38.7317 33.1109 38.8652C33.0775 38.9653 32.9774 39.0654 32.8439 39.0988L29.1725 39.8998C29.1058 39.8998 29.039 39.8998 29.0057 39.8998ZM30.6744 37.1296L28.8722 38.9319C28.8054 38.9987 28.8054 39.0654 28.8388 39.1322C28.8722 39.1989 28.9389 39.2323 29.039 39.2323L32.1096 38.5648L30.6744 37.1296Z" fill="#384359"/>
<path d="M53.2031 18.9398C53.1363 18.7395 52.9027 18.6394 52.7024 18.7061C52.5022 18.7729 52.4021 19.0065 52.4688 19.2068C52.4688 19.2402 52.5022 19.2735 52.5022 19.3069C52.7024 19.7074 52.6357 20.208 52.3687 20.5752C52.2352 20.7421 52.2686 20.9757 52.4021 21.1092C52.5689 21.2427 52.8026 21.2093 52.9361 21.0424C53.4367 20.4083 53.5368 19.6073 53.2031 18.9398Z" fill="#384359"/>
</g>
<defs>
<clipPath id="clip0_145_411">
<rect width="66.7634" height="68.8497" fill="white" transform="translate(0.196472 0.969238)"/>
</clipPath>
</defs>
</svg>
