<svg width="68" height="67" viewBox="0 0 68 67" fill="none" xmlns="http://www.w3.org/2000/svg">
<g clip-path="url(#clip0_145_406)">
<path d="M55.2157 22.9565C54.5216 22.7176 53.8022 22.4915 53.0616 22.2777C53.1833 21.7809 53.2951 21.2905 53.3944 20.8085C55.025 12.8932 53.9589 6.51653 50.3182 4.41707C46.8273 2.40397 41.1182 4.50295 35.3522 9.52088C34.7978 10.0034 34.2418 10.5143 33.686 11.0497C33.3157 10.6954 32.9459 10.3531 32.5772 10.0257C26.5343 4.66018 20.4772 2.39909 16.8402 4.50462C13.3526 6.52356 12.3198 12.5182 13.7876 20.0196C13.9293 20.7442 14.095 21.4841 14.2824 22.2364C13.4251 22.4797 12.5975 22.7392 11.8057 23.0151C4.72104 25.4852 0.196472 29.3563 0.196472 33.3716C0.196472 37.5188 5.0536 41.6784 12.4328 44.2006C13.0151 44.3996 13.6194 44.5878 14.2421 44.7665C14.04 45.5801 13.8642 46.3774 13.7166 47.1551C12.317 54.5263 13.41 60.3793 16.8883 62.3855C20.481 64.4574 26.5107 62.3278 32.3821 57.1955C32.8461 56.7898 33.3118 56.3596 33.7784 55.9086C34.3831 56.491 34.9869 57.0421 35.5875 57.559C41.2746 62.453 46.8915 64.4291 50.3666 62.4173C53.9558 60.3396 55.1222 54.052 53.6079 46.4022C53.4922 45.818 53.3576 45.2211 53.2064 44.6136C53.6299 44.4884 54.0456 44.3592 54.4509 44.2249C62.1223 41.6831 67.1135 37.5741 67.1135 33.3716C67.1135 29.3417 62.4431 25.4445 55.2157 22.9565ZM53.5519 41.5114C53.186 41.6325 52.8105 41.7496 52.4279 41.8631C51.5811 39.182 50.4381 36.3311 49.0393 33.3856C50.3741 30.5102 51.4729 27.6957 52.2961 25.0321C52.9806 25.2301 53.645 25.4391 54.2852 25.6595C60.4776 27.7913 64.2549 30.9431 64.2549 33.3716C64.2549 35.9585 60.1755 39.3166 53.5519 41.5114ZM50.8035 46.9574C51.4731 50.34 51.5688 53.3983 51.1252 55.7891C50.7267 57.9374 49.9252 59.3698 48.9342 59.9434C46.8253 61.1641 42.3155 59.5774 37.4518 55.392C36.8942 54.9123 36.3326 54.4 35.7692 53.8578C37.6548 51.7956 39.5392 49.3982 41.3784 46.7357C44.6134 46.4487 47.6697 45.9794 50.4413 45.3387C50.5778 45.8893 50.699 46.4294 50.8035 46.9574ZM23.01 59.7325C20.9496 60.4601 19.3086 60.481 18.3167 59.909C16.2059 58.6915 15.3284 53.9921 16.5253 47.6883C16.6624 46.9663 16.8256 46.2247 17.0137 45.4667C19.7549 46.0729 22.7888 46.5091 26.0315 46.7719C27.8831 49.3773 29.822 51.772 31.7759 53.8688C31.349 54.281 30.9238 54.6733 30.5009 55.043C27.9047 57.3125 25.3029 58.9226 23.01 59.7325ZM13.3573 41.4955C10.0944 40.3803 7.39974 38.9308 5.55268 37.3491C3.89298 35.9278 3.05503 34.5167 3.05503 33.3716C3.05503 30.935 6.68781 27.827 12.7467 25.7146C13.4818 25.4582 14.2514 25.2167 15.05 24.9898C15.8874 27.7136 16.9858 30.5615 18.3114 33.4412C16.9687 36.3637 15.8546 39.257 15.0091 42.0127C14.4397 41.8491 13.8881 41.6768 13.3573 41.4955ZM16.593 19.4706C15.3354 13.0436 16.1706 8.19529 18.2724 6.97869C20.5111 5.68263 25.4614 7.53053 30.679 12.1634C31.0125 12.4595 31.3473 12.7694 31.6831 13.0901C29.7389 15.1777 27.8177 17.5545 25.9826 20.1444C22.8354 20.4361 19.8228 20.9047 17.053 21.5322C16.8789 20.8317 16.7246 20.1435 16.593 19.4706ZM45.458 26.5981C44.7959 25.4544 44.1161 24.3378 43.4231 23.2516C45.5582 23.5215 47.6038 23.8798 49.5248 24.3182C48.9481 26.1666 48.2293 28.0992 47.3831 30.0804C46.7761 28.928 46.1341 27.766 45.458 26.5981ZM33.6869 15.1331C35.0055 16.5616 36.326 18.1565 37.6248 19.8869C36.316 19.8251 34.991 19.7929 33.655 19.7929C32.3317 19.7929 31.0165 19.8244 29.7158 19.8851C31.0159 18.1708 32.3478 16.578 33.6869 15.1331ZM21.8405 26.6179C21.179 27.7648 20.5489 28.9205 19.9515 30.0782C19.119 28.1039 18.4068 26.1625 17.8251 24.288C19.7343 23.8607 21.7703 23.5114 23.8918 23.2466C23.189 24.3428 22.5037 25.4676 21.8405 26.6177V26.6179ZM23.9529 43.7006C21.761 43.4561 19.6944 43.1247 17.7857 42.7093C18.3767 40.8012 19.1046 38.8184 19.9547 36.8016C20.5537 37.9585 21.1863 39.1146 21.8518 40.264H21.8519C22.5298 41.435 23.232 42.5821 23.9529 43.7006ZM33.766 51.8118C32.4111 50.3499 31.0597 48.7329 29.7398 46.9935C31.0211 47.0437 32.3274 47.0695 33.655 47.0695C35.019 47.0695 36.3673 47.0387 37.6944 46.9797C36.3914 48.7504 35.0757 50.3699 33.766 51.8118ZM47.4104 36.6988C48.3048 38.7374 49.0587 40.7099 49.6574 42.5854C47.7172 43.028 45.6224 43.3845 43.4152 43.6494C44.1099 42.5486 44.7956 41.4127 45.4694 40.2444C46.1511 39.0623 46.7984 37.8785 47.4104 36.6988ZM42.9932 38.8162C41.9472 40.6299 40.8733 42.3614 39.7831 43.9957C37.7974 44.1377 35.7459 44.2108 33.655 44.2108C31.5726 44.2108 29.547 44.1461 27.5964 44.0195C26.4622 42.3637 25.365 40.6272 24.3256 38.8318H24.3258C23.2892 37.0414 22.3351 35.2357 21.4706 33.4403C22.3349 31.6406 23.2865 29.833 24.3171 28.0457L24.3169 28.0461C25.3503 26.254 26.4379 24.526 27.5616 22.8805C29.5517 22.7301 31.5925 22.6516 33.6549 22.6516H33.655C35.7267 22.6516 37.7701 22.7307 39.7596 22.8825C40.8661 24.5158 41.9464 26.2383 42.9838 28.0306C44.0331 29.843 44.9969 31.6386 45.8686 33.3996C44.9995 35.191 44.0378 37.0047 42.9932 38.8162ZM48.8903 6.89364C51.1312 8.18588 52.0026 13.3975 50.5947 20.2315C50.5049 20.6676 50.4038 21.1117 50.2939 21.5619C47.5177 20.9213 44.503 20.4446 41.3466 20.1485C39.5079 17.5301 37.6025 15.1496 35.6899 13.0887C36.2041 12.5941 36.7176 12.1224 37.229 11.6773C42.1692 7.37795 46.7866 5.68049 48.8903 6.89364ZM33.655 27.3962C36.9551 27.3962 39.6305 30.0714 39.6305 33.3716C39.6305 36.6718 36.9551 39.3471 33.655 39.3471C30.3549 39.3471 27.6795 36.6718 27.6795 33.3716C27.6795 30.0714 30.3549 27.3962 33.655 27.3962Z" fill="#384359"/>
</g>
<defs>
<clipPath id="clip0_145_406">
<rect width="66.9171" height="66.9171" fill="white" transform="translate(0.196472)"/>
</clipPath>
</defs>
</svg>
