<svg id="eqOwfpvlrVA1" xmlns="http://www.w3.org/2000/svg" xmlns:xlink="http://www.w3.org/1999/xlink" viewBox="0 0 428 421" shape-rendering="geometricPrecision" text-rendering="geometricPrecision">
<style><![CDATA[
#eqOwfpvlrVA4_tr {animation: eqOwfpvlrVA4_tr__tr 2000ms linear infinite normal forwards}@keyframes eqOwfpvlrVA4_tr__tr { 0% {transform: translate(136.632874px,341.044464px) rotate(0deg)} 100% {transform: translate(136.632874px,341.044464px) rotate(179deg)}} #eqOwfpvlrVA5_tr {animation: eqOwfpvlrVA5_tr__tr 2000ms linear infinite normal forwards}@keyframes eqOwfpvlrVA5_tr__tr { 0% {transform: translate(54.295954px,272.141495px) rotate(0deg)} 100% {transform: translate(54.295954px,272.141495px) rotate(180deg)}} #eqOwfpvlrVA17_to {animation: eqOwfpvlrVA17_to__to 2000ms linear infinite normal forwards}@keyframes eqOwfpvlrVA17_to__to { 0% {transform: translate(0.000001px,0.000001px)} 50% {transform: translate(0.000001px,10.000001px)} 100% {transform: translate(0.000001px,0.000001px)}} #eqOwfpvlrVA33_tr {animation: eqOwfpvlrVA33_tr__tr 2000ms linear infinite normal forwards}@keyframes eqOwfpvlrVA33_tr__tr { 0% {transform: translate(355.731049px,32.495547px) rotate(0deg)} 20% {transform: translate(355.731049px,32.495547px) rotate(0deg)} 45% {transform: translate(355.731049px,32.495547px) rotate(-3deg)} 60% {transform: translate(355.731049px,32.495547px) rotate(-4deg)} 80% {transform: translate(355.731049px,32.495547px) rotate(0deg)} 100% {transform: translate(355.731049px,32.495547px) rotate(0deg)}} #eqOwfpvlrVA48_to {animation: eqOwfpvlrVA48_to__to 2000ms linear infinite normal forwards}@keyframes eqOwfpvlrVA48_to__to { 0% {transform: translate(70.445168px,65.030994px)} 50% {transform: translate(70.445168px,57.030994px)} 100% {transform: translate(70.445168px,65.030994px)}} #eqOwfpvlrVA73_tr {animation: eqOwfpvlrVA73_tr__tr 2000ms linear infinite normal forwards}@keyframes eqOwfpvlrVA73_tr__tr { 0% {transform: translate(138.168001px,78.47595px) rotate(0deg)} 25% {transform: translate(138.168001px,78.47595px) rotate(-21.169569deg)} 40% {transform: translate(138.168001px,78.47595px) rotate(-21.169569deg)} 60% {transform: translate(138.168001px,78.47595px) rotate(-9.98588deg)} 75% {transform: translate(138.168001px,78.47595px) rotate(-9.98588deg)} 100% {transform: translate(138.168001px,78.47595px) rotate(0deg)}}
]]></style>
<g clip-path="url(#eqOwfpvlrVA120)"><g><g id="eqOwfpvlrVA4_tr" transform="translate(136.632874,341.044464) rotate(0)"><path d="M172.475,332.873h-5.554c-.442.001-.873-.136-1.233-.391-.361-.255-.633-.616-.779-1.032-.425-1.221-.929-2.414-1.506-3.57-.2-.4-.268-.853-.195-1.294.073-.442.282-.849.599-1.164l3.949-3.948c.401-.401.626-.946.626-1.513c0-.568-.225-1.112-.626-1.514l-8.53-8.523c-.401-.402-.946-.627-1.513-.627-.568,0-1.112.225-1.514.627l-4.019,4.019c-.313.314-.716.522-1.153.596s-.886.01-1.285-.184c-1.134-.554-2.303-1.036-3.499-1.442-.421-.144-.786-.416-1.045-.778s-.398-.796-.397-1.241v-5.694c0-.281-.055-.559-.162-.819-.108-.259-.265-.495-.464-.694s-.435-.356-.694-.464c-.26-.107-.538-.162-.819-.162h-12.059c-.281,0-.559.055-.818.162-.26.108-.496.265-.694.464-.199.199-.356.435-.464.694-.107.26-.163.538-.163.819v5.694c.001.445-.137.879-.396,1.241s-.624.634-1.045.778c-1.196.406-2.364.888-3.499,1.442-.399.194-.848.258-1.285.184s-.84-.282-1.153-.596l-4.02-4.019c-.401-.402-.945-.627-1.513-.627s-1.112.225-1.514.627l-8.529,8.525c-.401.401-.626.946-.626,1.513c0,.568.225,1.112.626,1.514l3.948,3.948c.317.315.527.722.6,1.163s.004.894-.195,1.294c-.578,1.156-1.08,2.349-1.502,3.57-.148.417-.421.777-.782,1.032-.36.255-.792.392-1.233.392h-5.556c-.281,0-.559.055-.8189.163-.2596.107-.4954.265-.6941.463-.1986.199-.3561.435-.4636.694-.1075.26-.1627.538-.1627.819v12.062c0,.281.0552.559.1627.818.1075.26.265.496.4636.694.1987.199.4345.356.6941.464.2599.107.5379.163.8189.163h5.41c.45-.001.889.141,1.254.404.364.264.636.636.776,1.064.418,1.254.917,2.479,1.495,3.667.196.4.263.852.19,1.292-.072.44-.28.846-.594,1.162l-3.81,3.81c-.198.198-.356.434-.463.693-.108.259-.163.537-.163.818s.055.559.163.818c.107.259.265.495.463.693l8.53,8.53c.401.401.945.627,1.513.627s1.112-.226,1.513-.627l3.735-3.735c.318-.317.728-.526,1.172-.597.444-.072.899-.001,1.3.2c1.208.604,2.456,1.125,3.735,1.559.424.143.793.415,1.054.779.261.363.402.799.403,1.247v5.267c0,.281.055.56.162.819.107.26.265.496.464.695.198.199.434.357.694.465.259.108.538.163.819.163h12.057c.281,0,.56-.055.82-.163.259-.108.495-.265.694-.464s.356-.436.463-.695c.108-.26.163-.539.162-.82v-5.267c.001-.448.142-.884.403-1.247.262-.364.63-.636,1.054-.779c1.279-.434,2.527-.955,3.735-1.559.402-.201.857-.272,1.3-.2.444.071.854.28,1.172.597l3.735,3.735c.401.401.946.627,1.513.627.568,0,1.112-.226,1.514-.627l8.53-8.53c.198-.198.356-.434.463-.693s.163-.537.163-.818-.056-.559-.163-.818-.265-.495-.463-.693l-3.81-3.81c-.315-.316-.522-.723-.595-1.162-.073-.44-.006-.892.19-1.292.578-1.188,1.077-2.413,1.495-3.667.14-.428.412-.8.777-1.063.364-.264.803-.406,1.253-.405h5.409c.281,0,.559-.056.819-.163.259-.108.495-.265.694-.464.198-.198.356-.434.463-.694.108-.259.163-.537.163-.818v-12.062c0-.281-.055-.56-.162-.819-.108-.26-.265-.496-.464-.695s-.435-.356-.694-.464c-.26-.107-.538-.163-.82-.163Zm-35.841,25.995c-3.525,0-6.971-1.045-9.902-3.004-2.932-1.959-5.216-4.742-6.565-7.999s-1.702-6.841-1.015-10.299c.688-3.458,2.386-6.634,4.879-9.126c2.492-2.493,5.668-4.191,9.126-4.879c3.458-.687,7.042-.334,10.299,1.015s6.04,3.633,7.999,6.565c1.959,2.931,3.004,6.377,3.004,9.902c0,4.728-1.878,9.262-5.221,12.604-3.342,3.343-7.876,5.221-12.604,5.221Z" transform="translate(-136.632874,-341.044464)" fill="#f4f4f4"/></g><g id="eqOwfpvlrVA5_tr" transform="translate(54.295954,272.141495) rotate(0)"><path d="M103.095,261.019h-7.5629c-.6011.001-1.1877-.185-1.6783-.532-.4907-.347-.8613-.839-1.0604-1.406-.5791-1.662-1.2639-3.285-2.0501-4.86-.2717-.545-.3647-1.161-.2659-1.762.0989-.601.3845-1.155.8163-1.584l5.3756-5.375c.546-.546.8528-1.287.8528-2.06s-.3068-1.514-.8528-2.06L85.0567,229.772c-.5466-.546-1.2877-.852-2.0604-.852s-1.5137.306-2.0603.852l-5.472,5.472c-.426.428-.975.712-1.5702.813-.5953.1-1.207.012-1.7499-.252-1.5445-.754-3.1353-1.41-4.7628-1.963-.5735-.196-1.0713-.566-1.4235-1.059s-.541-1.084-.5399-1.69v-7.751c.0001-.383-.0752-.762-.2215-1.115s-.3608-.674-.6313-.945c-.2704-.27-.5914-.485-.9448-.631-.3533-.146-.732-.222-1.1145-.222h-16.4159c-.3825,0-.7612.076-1.1145.222s-.6744.361-.9448.631c-.2704.271-.4849.592-.6313.945-.1463.353-.2216.732-.2215,1.115v7.751c.0011.606-.1877,1.197-.5399,1.69s-.85.863-1.4235,1.059c-1.6276.553-3.2186,1.209-4.7633,1.963-.5429.264-1.1548.352-1.7502.252-.5953-.101-1.1444-.385-1.5704-.813l-5.472-5.472c-.5466-.546-1.2877-.852-2.0604-.852s-1.5137.306-2.0604.852L11.9255,241.38c-.5461.546-.8528,1.287-.8528,2.06s.3067,1.514.8528,2.06l5.375,5.375c.4319.429.7177.983.8166,1.584s.006,1.217-.2656,1.762c-.7867,1.574-1.4699,3.197-2.0452,4.86-.2008.567-.5724,1.058-1.0638,1.405-.4913.347-1.0782.533-1.6798.533h-7.56271c-.38243,0-.76116.075-1.11453.221-.35337.147-.67445.361-.9449.631-.27044.271-.48495.592-.63125.945-.1463.354-.22153.732-.22139,1.115v16.421c-.00021.383.07497.761.22123,1.115.14627.353.36077.674.63122.945.27045.27.59156.485.94497.631s.73218.221,1.11465.221h7.36391c.6124,0,1.2093.193,1.7055.552s.8663.866,1.0576,1.447c.568,1.707,1.2478,3.375,2.0349,4.993.267.545.3573,1.16.2586,1.758-.0988.599-.3818,1.152-.8096,1.582l-5.1865,5.187c-.2706.27-.4853.591-.6318.944-.1464.354-.2218.732-.2218,1.115c0,.382.0754.761.2218,1.114s.3612.674.6318.944l11.612,11.612c.5467.547,1.2877.853,2.0604.853s1.5138-.306,2.0604-.853l5.0846-5.084c.4332-.432.9914-.717,1.5956-.815.6041-.097,1.2236-.001,1.7705.273c1.6447.822,3.3435,1.53,5.0846,2.121.5772.195,1.0789.567,1.4346,1.061.3556.495.5476,1.089.5489,1.698v7.171c-.0006.383.0743.762.2204,1.116s.3605.675.6309.946c.2705.271.5917.486.9453.633.3536.146.7326.222,1.1155.222h16.4159c.3828,0,.7619-.076,1.1155-.222.3536-.147.6748-.362.9452-.633.2705-.271.4849-.592.631-.946s.221-.733.2204-1.116v-7.171c.0011-.609.193-1.203.5487-1.698s.8574-.866,1.4348-1.061c1.741-.591,3.4398-1.299,5.0846-2.121.5469-.274,1.1663-.37,1.7705-.273.6041.098,1.1624.383,1.5956.815l5.084,5.084c.5467.547,1.2877.853,2.0604.853s1.5138-.306,2.0604-.853L96.6676,302.9c.2707-.27.4854-.591.6318-.944s.2219-.732.2219-1.114c0-.383-.0754-.761-.2219-1.115-.1464-.353-.3611-.674-.6318-.944l-5.1864-5.187c-.4279-.43-.7109-.983-.8096-1.582-.0988-.598-.0084-1.213.2586-1.758.7868-1.618,1.4666-3.286,2.0349-4.993.1913-.581.5614-1.088,1.0576-1.447s1.0931-.552,1.7055-.552h7.3638c.383,0,.761-.075,1.115-.221.353-.146.674-.361.945-.631.27-.271.485-.592.631-.945.146-.354.221-.732.221-1.115v-16.421c0-.383-.075-.761-.221-1.114s-.36-.674-.631-.945c-.27-.27-.59-.485-.944-.631-.353-.146-.731-.222-1.113-.222ZM54.2977,296.407c-4.7997,0-9.4917-1.423-13.4825-4.09-3.9909-2.666-7.1014-6.456-8.9382-10.891-1.8368-4.434-2.3174-9.314-1.3811-14.021.9364-4.708,3.2476-9.032,6.6415-12.425c3.3939-3.394,7.718-5.706,12.4255-6.642s9.5869-.456,14.0212,1.381s8.2244,4.947,10.8909,8.938s4.0897,8.683,4.0896,13.483c-.0003,6.436-2.5571,12.608-7.108,17.159-4.5508,4.551-10.723,7.107-17.1589,7.108Z" transform="translate(-54.295954,-272.141495)" fill="#f4f4f4"/></g><g><path d="M60.0424,310.414l-.9355.102L70.6568,416.063l.9355-.102L60.0424,310.414Z" fill="#292a2e"/><path d="M66.3045,340.442c12.5649-9.699,15.98-26.333,7.6277-37.153-8.3523-10.821-25.309-11.73-37.8739-2.031-12.565,9.699-15.98,26.334-7.6277,37.154s25.309,11.729,37.8739,2.03Z" fill="#0cbc8b"/><path d="M62.3247,337.659c-9.7309,7.517-22.0976,8.662-31.062,3.769-1.0373-.914-1.9849-1.925-2.8297-3.019-8.3537-10.817-4.9389-27.453,7.6256-37.151c9.7309-7.511,22.0976-8.661,31.0576-3.772c1.0397.914,1.9886,1.926,2.8335,3.023c8.3543,10.817,4.9394,27.453-7.625,37.15Z" opacity="0.2" fill="#fff"/></g><g transform="translate(.000001 0)"><path d="M89.9562,356.492l-5.682,56.213.9363.094l5.682-56.212-.9363-.095Z" fill="#292a2e"/><path d="M125.145,380.716c7.987-10.616,4.18-26.957-8.504-36.501-12.684-9.543-29.4405-8.674-37.4275,1.941-7.9869,10.616-4.1795,26.957,8.5042,36.501c12.6833,9.543,29.4403,8.674,37.4273-1.941Z" fill="#0cbc8b"/><path d="M125.145,380.716c7.987-10.616,4.18-26.957-8.504-36.501-12.684-9.543-29.4405-8.674-37.4275,1.941-7.9869,10.616-4.1795,26.957,8.5042,36.501c12.6833,9.543,29.4403,8.674,37.4273-1.941Z" opacity="0.2" fill="#fff"/><path d="M125.143,380.718c-.536.716-1.121,1.394-1.751,2.029-8.792,5.617-21.77,4.733-32.0646-3.015-12.6826-9.541-16.4891-25.882-8.5011-36.497.5368-.715,1.1205-1.393,1.7472-2.03c8.7964-5.621,21.7695-4.733,32.0685,3.011c12.682,9.545,16.489,25.887,8.501,36.502Z" opacity="0.5" fill="#fff"/></g><path d="M99.7276,405.909h-42.1614v13.683h42.1614v-13.683Z" fill="#292a2e"/><path d="M99.7276,405.909h-42.1614v13.683h42.1614v-13.683Z" opacity="0.2" fill="#fff"/><g id="eqOwfpvlrVA17_to" transform="translate(0.000001,0.000001)"><g transform="translate(0,0)"><path d="M399.095,240.564h-141.399c-3.364,0-6.091,2.727-6.091,6.091v70.162c0,3.364,2.727,6.091,6.091,6.091h141.399c3.364,0,6.091-2.727,6.091-6.091v-70.162c0-3.364-2.727-6.091-6.091-6.091Z" fill="#f4f4f4"/><path d="M274.238,287.322h-9.803c-.597,0-1.081.484-1.081,1.081v21.727c0,.597.484,1.081,1.081,1.081h9.803c.596,0,1.08-.484,1.08-1.081v-21.727c0-.597-.484-1.081-1.08-1.081Z" fill="#fff"/><path d="M297.861,264.518h-9.802c-.597,0-1.081.484-1.081,1.081v44.531c0,.597.484,1.081,1.081,1.081h9.802c.597,0,1.081-.484,1.081-1.081v-44.531c0-.597-.484-1.081-1.081-1.081Z" fill="#fff"/><path d="M321.485,281.967h-9.802c-.597,0-1.081.484-1.081,1.081v27.083c0,.597.484,1.081,1.081,1.081h9.802c.597,0,1.081-.484,1.081-1.081v-27.083c0-.597-.484-1.081-1.081-1.081Z" fill="#fff"/></g></g><path d="M345.109,287.322h-9.803c-.597,0-1.081.484-1.081,1.081v21.727c0,.597.484,1.081,1.081,1.081h9.803c.597,0,1.08-.484,1.08-1.081v-21.727c0-.597-.483-1.081-1.08-1.081Z" fill="#fff"/><path d="M368.732,264.518h-9.802c-.597,0-1.081.484-1.081,1.081v44.531c0,.597.484,1.081,1.081,1.081h9.802c.597,0,1.081-.484,1.081-1.081v-44.531c0-.597-.484-1.081-1.081-1.081Z" fill="#fff"/><path d="M392.356,281.967h-9.802c-.597,0-1.081.484-1.081,1.081v27.083c0,.597.484,1.081,1.081,1.081h9.802c.597,0,1.081-.484,1.081-1.081v-27.083c0-.597-.484-1.081-1.081-1.081Z" fill="#fff"/><path d="M378.567,395.399c0,0-2.447,12.678-14.319,13.387s-9.298,10.164-9.298,10.164h45.369v-22.666l-21.752-.885Z" fill="#cedef2"/><path d="M403.396,164.097c0,0-.143-3.812-.113,4.835.113,32.251-.962,234.56-.962,234.56l-29.812-.25L354.45,162.786l48.946,1.311Z" fill="#262626"/><path d="M327.659,395.399c0,0-2.446,12.678-14.318,13.387s-9.297,10.164-9.297,10.164h45.368v-22.666l-21.753-.885Z" fill="#cedef2"/><path d="M321.893,166.601c0,0-3.724,110.228-3.337,115.616l3.502,120.438l29.319.542l4.728-125.338c0,0,3.099-34.574,11.453-66.679c4.274-16.477,6.846-33.35,7.676-50.352l-53.341,5.773Z" fill="#262626"/><path d="M360.572,244.753l-2.443-37.388c0,0-2.512,15.544-2.512,28.941c0,6.548,1.349,32.475,1.349,32.475l3.606-24.028Z" fill="#0a0a0a"/><path d="M341.826,68.4258c.092-.0119,1.104,16.7903,20.624,15.3253c13.513-1.012,18.331-15.3492,18.641-15.3492-1.457-.3093-3.258-.7796-3.973-.9405-1.56-.362-2.972-1.1902-4.05-2.3745-1.077-1.1843-1.768-2.6685-1.981-4.2553-.395-2.3838.275-14.5663.068-16.9761l-20.742,4.63c.29,5.089,2.318,16.8873-4.792,18.9754-1.183.3456-2.457.6631-3.795.9649Z" fill="#e98862"/><path d="M350.122,62.6395c.325-1.0472.534-2.127.624-3.2198.228-2.4933.182-5.004-.136-7.4874c4.216-.5692,8.188-2.3094,11.464-5.0229.386,1.4227,2.504,7.6391,1.917,8.9898-1.108,2.5556-6.318,6.7403-13.869,6.7403Z" opacity="0.52" fill="#0c0c0c"/><path d="M317.574,105.417c.615,7.223,3.606,52.287,4.197,61.184h81.469c.46-8.024,2.526-43.112,4.271-58.804c1.666-14.9737,4.935-22.4704,2.539-26.8972-3.915-7.235-14.613-11.4159-21.907-12.4036-4.454-.6024-11.154-1.0348-11.154-1.0348s-.567,11.4749-14.093,12.1137c-18.413.8669-17.183-12.1137-17.274-12.1137-2.983,0-20.024,1.8881-24.193,4.3592-11.36,6.7273-5.16,18.2894-3.855,33.5964Z" fill="#cedef2"/><g id="eqOwfpvlrVA33_tr" transform="translate(355.731049,32.495547) rotate(0)"><g transform="translate(-355.731049,-32.495547)"><path d="M339.695,29.0153c0,0-5.607-4.8533-6.38-15.2127-.601-8.01835,6.383-2.3838,6.383-2.3838s-.376-5.77975,3.757-4.93023c4.134.84951,6.068,7.02253,6.068,7.02253" transform="translate(-.218404 0)" fill="#0c0c0c"/><path d="M364.982,8.60474c0,0,20.56,3.60776,11.193,31.16816h-5.577" transform="translate(-.218403 0)" fill="#0c0c0c"/><path d="M353.804,58.5799c8.214-.1853,18.332-4.6897,19.216-15.7631l.797-9.9921c.884-11.074-4.217-20.5151-14.643-21.3462-10.427-.8321-18.936,7.5232-19.82,18.5972l-.353,4.4237c-.095,1.5208-.086,3.0464.027,4.5661.271,4.0189.692,10.1313,3.121,14.4076c2.293,4.0373,6.407,5.2249,11.655,5.1068Z" transform="translate(-.218403 0)" fill="#e98862"/><path d="M350.694,48.1952c-1.69-.0367-3.348-.47-4.84-1.2651-.062-.0318-.109-.087-.131-.1535-.022-.0666-.016-.139.016-.2014s.087-.1095.153-.1312c.067-.0216.139-.0159.202.0158c3.219,1.6351,6.242,1.6297,8.742-.0151.05-.0351.102-.0673.156-.0965.063-.0307.136-.0351.202-.0123s.121.071.151.134c.031.0629.035.1354.013.2016-.023.0662-.071.1206-.134.1513-.02.0109-.054.0331-.098.0629-1.314.8677-2.857,1.3237-4.432,1.3095Z" opacity="0.52" fill="#0c0c0c"/><path d="M350.605,50.697c-.305-.0016-.61-.0293-.911-.0829-.035-.006-.067-.0186-.096-.0372-.03-.0186-.055-.0428-.075-.0712-.02-.0283-.034-.0604-.042-.0942-.007-.0338-.008-.0688-.002-.103s.019-.0668.037-.096c.019-.0293.043-.0546.071-.0745.029-.02.061-.0341.095-.0416.033-.0076.068-.0084.103-.0024c1.81.3164,2.737-.4611,2.776-.4947.052-.0461.121-.0694.191-.0648s.135.0368.181.0895c.046.0526.07.1215.065.1913s-.037.135-.09.1812c-.663.4926-1.477.7402-2.303.7005Z" opacity="0.52" fill="#0c0c0c"/><path d="M342.447,36.867c.711,0,1.288-.5768,1.288-1.2884s-.577-1.2883-1.288-1.2883c-.712,0-1.289.5768-1.289,1.2883s.577,1.2884,1.289,1.2884Z" transform="translate(-.218404 0)" fill="#0c0c0c"/><path d="M355.47,36.9483c.711,0,1.288-.5768,1.288-1.2884s-.577-1.2883-1.288-1.2883c-.712,0-1.289.5768-1.289,1.2883s.577,1.2884,1.289,1.2884Z" transform="translate(-.218404 0)" fill="#0c0c0c"/><path d="M372.103,46.1382c3.168.253,6.008-2.9316,6.26-6.1005.253-3.1688-2.176-5.1209-5.345-5.3739l-1.802,1.9932-1.838,9.2645l2.725.2167Z" transform="translate(-.218403 0)" fill="#e98862"/><path d="M369.289,40.8309c0,0-.02-15.7544-4.71-17.0417-3.124-.8571-11.107,3.1207-18.129,1.2873-3.073-.8024-6.079-.2297-6.478,1.2201-.158.5743-1.536-7.9209,3.763-13.9428c4.219-4.79419,17.012-5.37064,22.68-3.32596c15.69,5.66106,7.211,26.37066,7.211,26.37066l-1.076,5.3593-3.261.0731Z" transform="translate(-.218403 0)" fill="#0c0c0c"/><g opacity="0.52"><path d="M349.027,44.3656h-.021c-1.021-.0785-2.725-.325-2.667-1.0889.049-.6328,2.309-7.3325,2.567-8.0942.022-.0656.069-.1196.131-.1503s.134-.0355.199-.0134c.066.0222.12.0694.151.1314.03.062.035.1336.013.1991-1.003,2.9674-2.507,7.5373-2.541,7.9675.087.1885,1.13.4469,2.187.5287.067.006.129.0374.173.0876s.067.1154.065.1823c-.003.0668-.031.1302-.079.1769-.047.0468-.111.0734-.178.0744v-.0011Z" fill="#0c0c0c"/></g><path d="M346.067,29.998c-.824-.3406-1.723-.4576-2.607-.3391-.45.0565-.888.1809-1.3.3689-.422.1896-.818.4314-1.18.7195l-.029.0217c-.093.0722-.21.1051-.328.0916-.117-.0135-.224-.0724-.298-.1639s-.11-.2084-.099-.3258.068-.2257.158-.3019c.4-.3723.846-.6925,1.326-.953.488-.2665,1.013-.4584,1.557-.5694.545-.1168,1.104-.1584,1.661-.1235.572.0299,1.138.1416,1.679.3315.168.0608.306.1856.383.3473.076.1616.086.3471.027.5159-.06.1688-.183.3073-.345.3853-.161.078-.346.0892-.515.0312-.016-.0059-.033-.0119-.048-.0189l-.042-.0174Z" transform="translate(-.218403 0)" fill="#0c0c0c"/><path d="M353.632,28.8628c1.074-.3698,2.228-.4415,3.34-.2075.544.1109,1.069.3028,1.557.5694.48.2605.926.5809,1.326.9535.089.0765.144.1845.155.301.01.1166-.025.2326-.099.3235-.073.091-.18.1498-.296.164s-.233-.0174-.326-.088l-.03-.0227c-.361-.2884-.758-.5301-1.18-.7195-.412-.1883-.85-.3129-1.3-.3695-.883-.1185-1.783-.0015-2.607.3391l-.038.0168c-.165.0738-.352.0791-.521.0148-.168-.0644-.305-.1932-.378-.358-.074-.1648-.079-.3522-.015-.5209s.193-.3049.358-.3787c.018-.0049.036-.0119.054-.0173Z" transform="translate(-.218403 0)" fill="#0c0c0c"/><path d="M354.731,13.1634c.954-3.4067-.15-6.69349-2.464-7.34121s-4.963,1.58893-5.917,4.99571c-.953,3.4067.15,6.6935,2.464,7.3412c2.315.6477,4.964-1.5889,5.917-4.9957Z" fill="#0c0c0c"/></g></g><g id="eqOwfpvlrVA48_to" transform="translate(70.445168,65.030994)"><g transform="translate(-70.445168,-64.030994)"><path d="M133.308,26.761h-125.72638c-3.67229,0-6.649277,2.977-6.649277,6.6493v61.2413c0,3.6723,2.976987,6.6494,6.649277,6.6494h125.72638c3.673,0,6.65-2.9771,6.65-6.6494v-61.2413c0-3.6723-2.977-6.6493-6.65-6.6493Z" fill="#f4f4f4"/><path d="M21.4203,69.0872h-8.8744c-.54,0-.9779.4378-.9779.9779v19.6693c0,.5401.4379.9779.9779.9779h8.8744c.5401,0,.9779-.4378.9779-.9779v-19.6693c0-.5401-.4378-.9779-.9779-.9779Z" fill="#fff"/><path d="M42.8049,48.4446h-8.8744c-.5401,0-.9779.4378-.9779.9779v40.3117c0,.5401.4378.978.9779.978h8.8744c.5401,0,.9779-.4379.9779-.978v-40.3117c0-.5401-.4378-.9779-.9779-.9779Z" fill="#fff"/><path d="M64.1896,64.2397h-8.8743c-.5401,0-.978.4379-.978.978v24.5166c0,.5401.4379.9779.978.9779h8.8743c.5401,0,.9779-.4378.9779-.9779v-24.5166c0-.5401-.4378-.978-.9779-.978Z" fill="#fff"/></g></g><path d="M85.5739,69.0872h-8.8744c-.5401,0-.9779.4378-.9779.9779v19.6693c0,.5401.4378.9779.9779.9779h8.8744c.5401,0,.9779-.4378.9779-.9779v-19.6693c0-.5401-.4378-.9779-.9779-.9779Z" fill="#fff"/><path d="M106.959,48.4446h-8.8739c-.5401,0-.9779.4378-.9779.9779v40.3117c0,.5401.4378.978.9779.978h8.8739c.541,0,.978-.4379.978-.978v-40.3117c0-.5401-.437-.9779-.978-.9779Z" fill="#fff"/><path d="M128.344,64.2397h-8.874c-.54,0-.978.4379-.978.978v24.5166c0,.5401.438.9779.978.9779h8.874c.54,0,.978-.4378.978-.9779v-24.5166c0-.5401-.438-.978-.978-.978Z" fill="#fff"/><path d="M300.026,0.544922h-227.9006c-4.8653,0-8.8094,3.944088-8.8094,8.809358v268.32872c0,4.865,3.9441,8.809,8.8094,8.809h227.9006c4.865,0,8.809-3.944,8.809-8.809v-268.32872c0-4.86527-3.944-8.809358-8.809-8.809358Z" fill="#fff"/><path d="M300.025,287.034h-227.8997c-2.4792-.003-4.8561-.989-6.6091-2.742s-2.7392-4.13-2.7421-6.609v-268.32869c.0029-2.47919.989-4.85603,2.7421-6.60908s4.1299-2.739188,6.6091-2.742056h227.8997c2.48.002868,4.856.988995,6.61,2.742056c1.753,1.75305,2.739,4.12989,2.742,6.60908v268.32869c-.003,2.479-.989,4.856-2.742,6.609-1.754,1.753-4.13,2.739-6.61,2.742ZM72.1253,1.08674c-2.1919.00258-4.2933.87445-5.8432,2.42436s-2.4218,3.65131-2.4244,5.84321v268.32869c.0026,2.192.8745,4.293,2.4244,5.843s3.6513,2.422,5.8432,2.424h227.8997c2.192-.002,4.294-.874,5.844-2.424s2.421-3.651,2.424-5.843v-268.32869c-.003-2.1919-.874-4.29329-2.424-5.84321s-3.652-2.42178-5.844-2.42436h-227.8997Z" fill="#292a2e"/><g><path d="M211.879,43.8071c2.917,0,5.281-2.3643,5.281-5.2808c0-2.9164-2.364-5.2807-5.281-5.2807-2.916,0-5.28,2.3643-5.28,5.2807c0,2.9165,2.364,5.2808,5.28,5.2808Z" fill="#367cff"/><path d="M285.339,38.9096h-61.167c-.102,0-.199-.0403-.271-.1122s-.112-.1692-.112-.2708.04-.199.112-.2709c.072-.0718.169-.1121.271-.1121h61.167c.102,0,.199.0403.271.1121.072.0719.112.1693.112.2709s-.04.199-.112.2708-.169.1122-.271.1122Z" fill="#367cff"/><path d="M211.879,43.8071c2.917,0,5.281-2.3643,5.281-5.2808c0-2.9164-2.364-5.2807-5.281-5.2807-2.916,0-5.28,2.3643-5.28,5.2807c0,2.9165,2.364,5.2808,5.28,5.2808Z" fill="#367cff"/></g><g><path d="M211.879,70.7248c2.917,0,5.281-2.3643,5.281-5.2807c0-2.9165-2.364-5.2808-5.281-5.2808-2.916,0-5.28,2.3643-5.28,5.2808c0,2.9164,2.364,5.2807,5.28,5.2807Z" fill="#292a2e"/><path d="M285.339,65.8296h-61.167c-.102,0-.199-.0404-.271-.1122-.072-.0719-.112-.1693-.112-.2709s.04-.199.112-.2708c.072-.0719.169-.1122.271-.1122h61.167c.102,0,.199.0403.271.1122.072.0718.112.1692.112.2708s-.04.199-.112.2709c-.072.0718-.169.1122-.271.1122Z" fill="#292a2e"/></g><g transform="translate(.000001 0.000001)"><path d="M211.879,97.643c2.917,0,5.281-2.3642,5.281-5.2807s-2.364-5.2808-5.281-5.2808c-2.916,0-5.28,2.3643-5.28,5.2808s2.364,5.2807,5.28,5.2807Z" opacity="0.5" fill="#367cff"/><g opacity="0.5"><path d="M285.339,92.7453h-61.167c-.099-.0037-.193-.0457-.261-.1171-.069-.0713-.108-.1666-.108-.2657s.039-.1943.108-.2657c.068-.0714.162-.1133.261-.117h61.167c.052-.002.103.0065.151.0249.048.0183.092.0462.129.0819s.067.0786.087.126.031.0984.031.1499-.011.1025-.031.1499-.05.0903-.087.126-.081.0636-.129.082-.099.0268-.151.0249Z" fill="#367cff"/></g></g><g transform="translate(.000001 0)"><path d="M211.879,124.561c2.917,0,5.281-2.365,5.281-5.281s-2.364-5.281-5.281-5.281c-2.916,0-5.28,2.365-5.28,5.281s2.364,5.281,5.28,5.281Z" opacity="0.2" fill="#367cff"/><g opacity="0.2"><path d="M285.339,119.663h-61.167c-.099-.004-.193-.046-.261-.117-.069-.071-.108-.167-.108-.266s.039-.194.108-.265c.068-.072.162-.114.261-.118h61.167c.052-.001.103.007.151.025.048.019.092.047.129.082.037.036.067.079.087.126.02.048.031.099.031.15c0,.052-.011.103-.031.15-.02.048-.05.09-.087.126s-.081.064-.129.082-.099.027-.151.025Z" fill="#367cff"/></g></g><g id="eqOwfpvlrVA73_tr" transform="translate(138.168001,78.47595) rotate(0)"><g transform="translate(-138.168,-78.475949)"><path d="M107.058,78.903c.002,6.4367,1.999,12.7145,5.717,17.9689c3.718,5.2541,8.973,9.2271,15.042,11.3701l-8.536,20.813c-11.74-4.424-21.5549-12.827-27.7357-23.745-6.1808-10.9173-8.3352-23.6573-6.088-36.0001s8.7537-23.506,18.3857-31.5445s21.779-12.4428,34.325-12.4456v22.4736c-8.251,0-16.164,3.2776-21.998,9.1118s-9.112,13.747-9.112,21.9978Z" fill="#292a2e"/><path d="M191.752,78.903h-22.474c0-8.2508-3.278-16.1636-9.112-21.9978s-13.747-9.1118-21.998-9.1118v-22.4736c14.211.0009,27.84,5.6465,37.888,15.6951c10.049,10.0486,15.695,23.6772,15.696,37.8881Z" fill="#367cff"/><path d="M191.752,78.9033c-.002,12.1412-4.125,23.9227-11.694,33.4147-7.57,9.493-18.137,16.135-29.974,18.839l-3.807-22.213c6.602-1.784,12.432-5.693,16.59-11.1223c4.158-5.4296,6.412-12.0775,6.413-18.9162l22.472-.0022Z" opacity="0.5" fill="#367cff"/><path d="M150.084,131.157c-10.251,2.322-20.959,1.592-30.801-2.099l8.536-20.816c5.942,2.086,12.375,2.329,18.458.7l3.807,22.215Z" opacity="0.2" fill="#367cff"/></g></g><g opacity="0.1"><path d="M285.603,265.958h-199.0541c-1.7306-.002-3.3898-.69-4.6135-1.914s-1.912-2.883-1.9139-4.614v-100.848c.0021-1.73.6904-3.39,1.9141-4.613c1.2237-1.224,2.8828-1.912,4.6133-1.914h199.0541c1.73.002,3.389.69,4.613,1.914c1.224,1.223,1.912,2.882,1.914,4.613v100.848c-.002,1.731-.69,3.39-1.914,4.614s-2.883,1.912-4.613,1.914Z" fill="#367cff"/></g><path d="M107.155,174.932h-3.875c-.583,0-1.056.472-1.056,1.056v74.029c0,.583.473,1.056,1.056,1.056h3.875c.584,0,1.056-.473,1.056-1.056v-74.029c0-.584-.472-1.056-1.056-1.056Z" opacity="0.5" fill="#367cff"/><path d="M101.168,198.847h-3.8756c-.5832,0-1.0559.472-1.0559,1.056v50.115c0,.583.4727,1.056,1.0559,1.056h3.8756c.583,0,1.056-.473,1.056-1.056v-50.115c0-.584-.473-1.056-1.056-1.056Z" fill="#367cff"/><path d="M155.071,241.439h-3.875c-.584,0-1.056.473-1.056,1.056v7.523c0,.583.472,1.056,1.056,1.056h3.875c.583,0,1.056-.473,1.056-1.056v-7.523c0-.583-.473-1.056-1.056-1.056Z" opacity="0.5" fill="#367cff"/><path d="M149.084,194.546h-3.876c-.583,0-1.056.473-1.056,1.056v54.415c0,.583.473,1.056,1.056,1.056h3.876c.583,0,1.056-.473,1.056-1.056v-54.415c0-.583-.473-1.056-1.056-1.056Z" fill="#367cff"/><path d="M131.113,205.497h-3.875c-.583,0-1.056.473-1.056,1.056v43.464c0,.583.473,1.056,1.056,1.056h3.875c.583,0,1.056-.473,1.056-1.056v-43.464c0-.583-.473-1.056-1.056-1.056Z" opacity="0.5" fill="#367cff"/><path d="M125.126,221.245h-3.876c-.583,0-1.056.472-1.056,1.056v27.716c0,.583.473,1.056,1.056,1.056h3.876c.583,0,1.055-.473,1.055-1.056v-27.716c0-.584-.472-1.056-1.055-1.056Z" fill="#367cff"/><path d="M226.944,189.658h-3.876c-.583,0-1.056.473-1.056,1.056v59.304c0,.583.473,1.056,1.056,1.056h3.876c.583,0,1.055-.473,1.055-1.056v-59.304c0-.583-.472-1.056-1.055-1.056Z" opacity="0.5" fill="#367cff"/><path d="M220.956,212.269h-3.875c-.583,0-1.056.473-1.056,1.056v36.693c0,.583.473,1.056,1.056,1.056h3.875c.583,0,1.056-.473,1.056-1.056v-36.693c0-.583-.473-1.056-1.056-1.056Z" fill="#367cff"/><path d="M179.028,199.238h-3.875c-.583,0-1.056.473-1.056,1.056v49.723c0,.583.473,1.056,1.056,1.056h3.875c.584,0,1.056-.473,1.056-1.056v-49.723c0-.583-.472-1.056-1.056-1.056Z" opacity="0.5" fill="#367cff"/><path d="M173.041,205.106h-3.875c-.584,0-1.056.473-1.056,1.056v43.855c0,.584.472,1.056,1.056,1.056h3.875c.583,0,1.056-.472,1.056-1.056v-43.855c0-.583-.473-1.056-1.056-1.056Z" fill="#367cff"/><path d="M202.986,174.932h-3.876c-.583,0-1.056.472-1.056,1.056v74.029c0,.583.473,1.056,1.056,1.056h3.876c.583,0,1.056-.473,1.056-1.056v-74.029c0-.584-.473-1.056-1.056-1.056Z" opacity="0.5" fill="#367cff"/><path d="M196.998,178.6h-3.875c-.583,0-1.056.473-1.056,1.056v70.361c0,.584.473,1.056,1.056,1.056h3.875c.583,0,1.056-.472,1.056-1.056v-70.361c0-.583-.473-1.056-1.056-1.056Z" fill="#367cff"/><path d="M250.901,174.932h-3.876c-.583,0-1.055.472-1.055,1.056v74.029c0,.583.472,1.056,1.055,1.056h3.876c.583,0,1.056-.473,1.056-1.056v-74.029c0-.584-.473-1.056-1.056-1.056Z" opacity="0.5" fill="#367cff"/><path d="M244.914,198.847h-3.876c-.583,0-1.056.472-1.056,1.056v50.115c0,.583.473,1.056,1.056,1.056h3.876c.583,0,1.056-.473,1.056-1.056v-50.115c0-.584-.473-1.056-1.056-1.056Z" fill="#367cff"/><path d="M274.859,205.497h-3.876c-.583,0-1.056.473-1.056,1.056v43.464c0,.583.473,1.056,1.056,1.056h3.876c.583,0,1.056-.473,1.056-1.056v-43.464c0-.583-.473-1.056-1.056-1.056Z" opacity="0.5" fill="#367cff"/><path d="M268.871,221.245h-3.875c-.583,0-1.056.472-1.056,1.056v27.716c0,.583.473,1.056,1.056,1.056h3.875c.583,0,1.056-.473,1.056-1.056v-27.716c0-.584-.473-1.056-1.056-1.056Z" fill="#367cff"/><path d="M299.691,160.453c-2.41-.004-4.778-.638-6.867-1.839-2.09-1.201-3.829-2.928-5.045-5.009-1.215-2.082-1.866-4.445-1.886-6.855s.59-4.783,1.77-6.885l32.93-58.5718c.885-1.59,2.075-2.9897,3.502-4.1186c1.427-1.1288,3.063-1.9647,4.814-2.4596s3.582-.6391,5.389-.4243c1.807.2149,3.553.7845,5.139,1.6762c1.586.8918,2.98,2.088,4.103,3.52c1.122,1.4321,1.951,3.0717,2.438,4.8249.487,1.7531.623,3.5851.4,5.3909s-.801,3.5498-1.7,5.1318l-32.93,58.5715c-1.202,2.14-2.953,3.921-5.072,5.16-2.119,1.238-4.53,1.89-6.985,1.887Z" fill="#cedef2"/><path d="M319.917,138.872l-.492-9.988" fill="none" stroke="#0c0c0c" stroke-width="0.75" stroke-linecap="round" stroke-linejoin="round"/><path d="M359.845,112.403l-8.521-9.974c-.183-.214-.408-.389-.661-.514-.253-.124-.529-.196-.81-.21-.282-.015-.563.028-.828.126-.264.098-.506.249-.71.443-.382.39-.602.911-.615,1.457s.181,1.076.544,1.484l1.821,2.131l9.109,6.919.671-1.862Z" fill="#e98862"/><path d="M346.48,115.032l-26.904,1.676c-1.08.067-2.146-.268-2.994-.941-.847-.673-1.415-1.636-1.593-2.704l-6.647-39.7029c-.101-.6043-.074-1.2232.079-1.8164.153-.5933.429-1.1478.81-1.6276.382-.4798.859-.8742,1.403-1.1576.543-.2835,1.14-.4497,1.751-.4878l26.904-1.6763c1.08-.0672,2.147.2682,2.994.9414s1.415,1.6364,1.594,2.7037l6.645,39.7025c.101.605.074,1.223-.079,1.816-.153.594-.429,1.148-.81,1.628s-.858.874-1.401,1.157c-.544.284-1.14.45-1.752.489Z" fill="#292a2e"/><path d="M350.065,107.346l-8.831-4.088c-.976-.471-2.472-.427-2.929.7-.204.423-.258.901-.155,1.359.103.457.359.866.724,1.16-.007.008-.013.017-.019.027-.002.008-.004.016-.005.024l-1.503-.728c-.276-.133-.579-.204-.887-.207-.307-.002-.611.063-.89.193-.279.129-.526.319-.723.555s-.339.513-.415.811c-.113.477-.058.978.157,1.419.214.44.574.793,1.019.999l.64.31c-.001.023.003.046.01.068-.475-.108-.974-.045-1.408.178-.433.223-.775.591-.964,1.041-.194.51-.186,1.075.021,1.581.207.505.598.913,1.095,1.141l1.571.758c-.03.005-.059.017-.083.036-.025.018-.045.041-.058.069-.015.035-.019.074-.012.111-.442.02-.866.181-1.21.46-.344.278-.59.659-.701,1.088-.113.477-.057.978.157,1.419s.574.794,1.019,1l13.396,6.487c1.874.907,3.976,1.234,6.037.939c2.062-.295,3.988-1.199,5.531-2.596l4.971-4.497-15.555-11.817Z" fill="#e98862"/><g opacity="0.2"><path d="M347.595,110.568c-.022.045-.061.079-.108.096-.048.016-.099.014-.145-.007l-8.397-3.901c-.023-.011-.044-.026-.061-.044-.017-.019-.03-.041-.038-.064-.009-.024-.013-.049-.012-.074.002-.025.008-.05.018-.073.011-.023.026-.043.045-.06.018-.017.04-.03.064-.039.023-.008.048-.012.074-.011.025.001.049.007.072.018l8.398,3.898c.046.021.082.06.099.108.018.048.015.1-.006.146l-.003.007Z" fill="#0c0c0c"/></g><g opacity="0.2"><path d="M345.978,114.319c-.022.045-.061.079-.108.096-.048.017-.099.014-.145-.007l-9.368-4.35c-.046-.022-.082-.061-.099-.108-.018-.048-.016-.101.005-.147.023-.045.062-.079.109-.097.048-.017.1-.016.146.004l9.369,4.35c.046.022.081.061.099.109.017.047.015.1-.006.146l-.002.004Z" fill="#0c0c0c"/></g><g opacity="0.2"><path d="M344.25,118.389c-.022.045-.061.079-.108.096s-.099.014-.145-.007l-7.473-3.47c-.023-.011-.043-.026-.06-.045-.017-.018-.03-.04-.039-.064-.009-.023-.012-.048-.011-.074.001-.025.007-.049.018-.072.01-.023.025-.043.044-.06s.04-.031.064-.039c.024-.009.049-.013.074-.011.025.001.05.007.073.017l7.473,3.471c.046.021.081.06.099.108.017.047.015.1-.006.146l-.003.004Z" fill="#0c0c0c"/></g><path d="M349.522,129.163l58.11,28.505c2.46,1.133,5.191,1.547,7.877,1.194c2.685-.352,5.216-1.457,7.301-3.186c2.084-1.73,3.637-4.014,4.48-6.588.842-2.574.939-5.334.28-7.962L412.053,85.3399c-.927-3.6947-3.283-6.8699-6.551-8.827-3.268-1.9572-7.18-2.5361-10.874-1.6094-7.693,1.9304-11.825,9.7315-9.894,17.4253l12.174,30.1632-37.236-15.611-10.15,22.282Z" fill="#cedef2"/><path d="M403.809,156.104c-.018-.004-.035-.009-.051-.017l-54.319-26.751c-.045-.021-.08-.06-.097-.107s-.015-.099.006-.144l10.149-22.283c.02-.046.057-.081.104-.1.046-.018.098-.017.144.003l36.327,14.915-7.19-21.6536c-.007-.0242-.009-.0495-.006-.0745s.011-.0491.023-.071.029-.0413.049-.0569c.019-.0156.042-.0272.066-.0341.024-.0068.05-.0089.075-.006.025.003.049.0108.071.023.022.0123.041.0287.057.0484.015.0198.027.0424.034.0666l7.297,22.0371c.01.035.01.071,0,.106s-.03.066-.057.09-.06.04-.096.045c-.036.006-.072.002-.106-.012L359.768,107.13l-9.994,21.942l54.151,26.669c.041.02.074.054.092.097.018.042.02.09.006.133-.014.044-.044.082-.083.105-.039.024-.086.034-.131.026v.002Z" fill="#0c0c0c"/><path d="M402.88,125.066c-.016-.003-.031-.008-.046-.014l-6.547-2.925c-.023-.011-.043-.025-.061-.044-.017-.018-.03-.039-.039-.063-.009-.023-.014-.048-.013-.073s.006-.05.017-.073c.01-.023.024-.044.043-.061.018-.017.039-.031.063-.04.023-.009.048-.013.074-.012.025,0,.049.006.072.016l6.548,2.926c.042.019.075.053.094.095s.023.089.009.133c-.013.045-.041.083-.08.107-.039.025-.086.035-.132.028h-.002Z" fill="#0c0c0c"/><path d="M328.864,85.9796c-.279-.3497-.664-.5997-1.097-.7126-.432-.1128-.89-.0826-1.304.0863-.003-.0258-.012-.0504-.027-.0718s-.034-.0389-.057-.051-.049-.0184-.074-.0183c-.026.0001-.052.0065-.075.0187l1.13-1.3653c.347-.4035.532-.9215.52-1.4537-.013-.5322-.223-1.0407-.589-1.427-.356-.352-.827-.5635-1.327-.5955s-.994.1178-1.392.4216c0-.0206-.019-.0358-.027-.0542l.462-.5586c.317-.3695.498-.8366.512-1.3234.014-.4867-.139-.9635-.435-1.3508-.192-.2418-.436-.4376-.714-.5732s-.582-.2075-.891-.2105-.615.063-.896.1931c-.28.1301-.528.3212-.725.5592l-1.067,1.2894c-.006-.0065-.005-.0168-.012-.0227-.007-.006-.022-.0049-.032-.0109.213-.4194.277-.8986.181-1.359s-.345-.8747-.707-1.1749c-.884-.8354-2.264-.2535-2.954.5808l-6.522,7.7394.188-.35.773-2.7046c.156-.5089.118-1.0577-.108-1.5401-.225-.4823-.621-.8639-1.112-1.0707-.269-.1036-.557-.15-.844-.1363-.288.0137-.57.0872-.828.2157s-.487.3095-.671.5311c-.184.2217-.32.4793-.399.7564l-3.605,12.6126-.875,3.0627c-.42,1.469-.25,3.0438.473,4.3895.723,1.346,1.942,2.357,3.398,2.819l.953.302c1.984.629,4.112.65,6.109.062c1.998-.588,3.774-1.759,5.101-3.363l9.488-11.4677c.318-.3693.498-.8364.513-1.3231.014-.4867-.14-.9635-.435-1.3506Z" fill="#e98862"/><g opacity="0.2"><path d="M314.519,86.0877c.038.0316.088.0468.138.0423.049-.0044.095-.0282.128-.0661l6.014-7.035c.018-.0189.032-.0412.041-.0656s.013-.0504.011-.0763c-.001-.026-.008-.0514-.019-.0748-.012-.0233-.028-.0441-.048-.061-.019-.0169-.042-.0296-.067-.0374s-.051-.0104-.077-.0077c-.026.0026-.051.0105-.074.0232-.022.0126-.042.0298-.058.0504l-6.014,7.035c-.016.0191-.029.0414-.037.0653-.007.024-.011.0494-.009.0745.002.0252.009.0497.021.0722.011.0225.027.0425.046.0589l.004.0021Z" fill="#0c0c0c"/></g><g opacity="0.2"><path d="M317.549,88.8262c.039.0315.089.0467.138.0422.05-.0044.096-.0281.129-.0661l6.712-7.8509c.017-.0192.029-.0414.037-.0654s.011-.0493.009-.0744c-.002-.0252-.009-.0498-.02-.0722-.012-.0225-.028-.0425-.047-.0589-.039-.0315-.089-.0469-.139-.0429-.051.0039-.098.0268-.132.064l-6.712,7.851c-.016.0191-.029.0413-.036.0653-.008.024-.011.0493-.009.0745s.008.0497.02.0722c.011.0225.027.0425.046.0589l.004.0027Z" fill="#0c0c0c"/></g><g opacity="0.2"><path d="M320.812,91.8108c.039.0315.089.0467.138.0422.05-.0044.096-.0281.129-.0661l5.354-6.2624c.018-.0189.032-.0412.041-.0656s.013-.0504.012-.0763c-.002-.026-.008-.0514-.02-.0748-.011-.0233-.027-.0441-.047-.061s-.043-.0296-.068-.0374c-.025-.0077-.051-.0104-.077-.0077-.025.0027-.05.0105-.073.0232-.023.0126-.043.0298-.059.0504l-5.355,6.263c-.016.0191-.029.0413-.037.0654-.007.024-.01.0493-.008.0745s.009.0498.02.0722c.012.0225.028.0425.047.0587l.003.0017Z" fill="#0c0c0c"/></g><path d="M324.573,99.7224L313.882,147.801c-.608,3.76-2.684,7.125-5.773,9.355-3.089,2.229-6.936,3.14-10.697,2.532-3.76-.607-7.125-2.684-9.354-5.773-2.23-3.088-3.141-6.936-2.533-10.696l14.68-51.366" fill="#cedef2"/><path d="M314.714,138.872l6.028-22.146" fill="none" stroke="#0c0c0c" stroke-width="0.75" stroke-linecap="round" stroke-linejoin="round"/><path d="M416.574,420.003h-377.1493c-.1437,0-.2815-.057-.3831-.158-.1016-.102-.1587-.24-.1587-.383c0-.144.0571-.282.1587-.383.1016-.102.2394-.159.3831-.159h377.1493c.144,0,.282.057.383.159.102.101.159.239.159.383c0,.143-.057.281-.159.383-.101.101-.239.158-.383.158Z" fill="#292a2e"/></g><clipPath id="eqOwfpvlrVA120"><rect width="427.068" height="420" rx="0" ry="0" transform="translate(.932312 0.003174)" fill="#fff"/></clipPath></g></svg>
