<svg id="ewvRIiB6nA01" xmlns="http://www.w3.org/2000/svg" xmlns:xlink="http://www.w3.org/1999/xlink" viewBox="0 0 428 421" shape-rendering="geometricPrecision" text-rendering="geometricPrecision" width="428" height="421"><g clip-path="url(#ewvRIiB6nA0119)"><g><path id="ewvRIiB6nA04" d="M172.475,332.873h-5.554c-.442.001-.873-.136-1.233-.391-.361-.255-.633-.616-.779-1.032-.425-1.221-.929-2.414-1.506-3.57-.2-.4-.268-.853-.195-1.294.073-.442.282-.849.599-1.164l3.949-3.948c.401-.401.626-.946.626-1.513c0-.568-.225-1.112-.626-1.514l-8.53-8.523c-.401-.402-.946-.627-1.513-.627-.568,0-1.112.225-1.514.627l-4.019,4.019c-.313.314-.716.522-1.153.596s-.886.01-1.285-.184c-1.134-.554-2.303-1.036-3.499-1.442-.421-.144-.786-.416-1.045-.778s-.398-.796-.397-1.241v-5.694c0-.281-.055-.559-.162-.819-.108-.259-.265-.495-.464-.694s-.435-.356-.694-.464c-.26-.107-.538-.162-.819-.162h-12.059c-.281,0-.559.055-.818.162-.26.108-.496.265-.694.464-.199.199-.356.435-.464.694-.107.26-.163.538-.163.819v5.694c.001.445-.137.879-.396,1.241s-.624.634-1.045.778c-1.196.406-2.364.888-3.499,1.442-.399.194-.848.258-1.285.184s-.84-.282-1.153-.596l-4.02-4.019c-.401-.402-.945-.627-1.513-.627s-1.112.225-1.514.627l-8.529,8.525c-.401.401-.626.946-.626,1.513c0,.568.225,1.112.626,1.514l3.948,3.948c.317.315.527.722.6,1.163s.004.894-.195,1.294c-.578,1.156-1.08,2.349-1.502,3.57-.148.417-.421.777-.782,1.032-.36.255-.792.392-1.233.392h-5.556c-.281,0-.559.055-.8189.163-.2596.107-.4954.265-.6941.463-.1986.199-.3561.435-.4636.694-.1075.26-.1627.538-.1627.819v12.062c0,.281.0552.559.1627.818.1075.26.265.496.4636.694.1987.199.4345.356.6941.464.2599.107.5379.163.8189.163h5.41c.45-.001.889.141,1.254.404.364.264.636.636.776,1.064.418,1.254.917,2.479,1.495,3.667.196.4.263.852.19,1.292-.072.44-.28.846-.594,1.162l-3.81,3.81c-.198.198-.356.434-.463.693-.108.259-.163.537-.163.818s.055.559.163.818c.107.259.265.495.463.693l8.53,8.53c.401.401.945.627,1.513.627s1.112-.226,1.513-.627l3.735-3.735c.318-.317.728-.526,1.172-.597.444-.072.899-.001,1.3.2c1.208.604,2.456,1.125,3.735,1.559.424.143.793.415,1.054.779.261.363.402.799.403,1.247v5.267c0,.281.055.56.162.819.107.26.265.496.464.695.198.199.434.357.694.465.259.108.538.163.819.163h12.057c.281,0,.56-.055.82-.163.259-.108.495-.265.694-.464s.356-.436.463-.695c.108-.26.163-.539.162-.82v-5.267c.001-.448.142-.884.403-1.247.262-.364.63-.636,1.054-.779c1.279-.434,2.527-.955,3.735-1.559.402-.201.857-.272,1.3-.2.444.071.854.28,1.172.597l3.735,3.735c.401.401.946.627,1.513.627.568,0,1.112-.226,1.514-.627l8.53-8.53c.198-.198.356-.434.463-.693s.163-.537.163-.818-.056-.559-.163-.818-.265-.495-.463-.693l-3.81-3.81c-.315-.316-.522-.723-.595-1.162-.073-.44-.006-.892.19-1.292.578-1.188,1.077-2.413,1.495-3.667.14-.428.412-.8.777-1.063.364-.264.803-.406,1.253-.405h5.409c.281,0,.559-.056.819-.163.259-.108.495-.265.694-.464.198-.198.356-.434.463-.694.108-.259.163-.537.163-.818v-12.062c0-.281-.055-.56-.162-.819-.108-.26-.265-.496-.464-.695s-.435-.356-.694-.464c-.26-.107-.538-.163-.82-.163Zm-35.841,25.995c-3.525,0-6.971-1.045-9.902-3.004-2.932-1.959-5.216-4.742-6.565-7.999s-1.702-6.841-1.015-10.299c.688-3.458,2.386-6.634,4.879-9.126c2.492-2.493,5.668-4.191,9.126-4.879c3.458-.687,7.042-.334,10.299,1.015s6.04,3.633,7.999,6.565c1.959,2.931,3.004,6.377,3.004,9.902c0,4.728-1.878,9.262-5.221,12.604-3.342,3.343-7.876,5.221-12.604,5.221Z" fill="#f4f4f4"/><path id="ewvRIiB6nA05" d="M103.095,261.019h-7.5629c-.6011.001-1.1877-.185-1.6783-.532-.4907-.347-.8613-.839-1.0604-1.406-.5791-1.662-1.2639-3.285-2.0501-4.86-.2717-.545-.3647-1.161-.2659-1.762.0989-.601.3845-1.155.8163-1.584l5.3756-5.375c.546-.546.8528-1.287.8528-2.06s-.3068-1.514-.8528-2.06L85.0567,229.772c-.5466-.546-1.2877-.852-2.0604-.852s-1.5137.306-2.0603.852l-5.472,5.472c-.426.428-.975.712-1.5702.813-.5953.1-1.207.012-1.7499-.252-1.5445-.754-3.1353-1.41-4.7628-1.963-.5735-.196-1.0713-.566-1.4235-1.059s-.541-1.084-.5399-1.69v-7.751c.0001-.383-.0752-.762-.2215-1.115s-.3608-.674-.6313-.945c-.2704-.27-.5914-.485-.9448-.631-.3533-.146-.732-.222-1.1145-.222h-16.4159c-.3825,0-.7612.076-1.1145.222s-.6744.361-.9448.631c-.2704.271-.4849.592-.6313.945-.1463.353-.2216.732-.2215,1.115v7.751c.0011.606-.1877,1.197-.5399,1.69s-.85.863-1.4235,1.059c-1.6276.553-3.2186,1.209-4.7633,1.963-.5429.264-1.1548.352-1.7502.252-.5953-.101-1.1444-.385-1.5704-.813l-5.472-5.472c-.5466-.546-1.2877-.852-2.0604-.852s-1.5137.306-2.0604.852L11.9255,241.38c-.5461.546-.8528,1.287-.8528,2.06s.3067,1.514.8528,2.06l5.375,5.375c.4319.429.7177.983.8166,1.584s.006,1.217-.2656,1.762c-.7867,1.574-1.4699,3.197-2.0452,4.86-.2008.567-.5724,1.058-1.0638,1.405-.4913.347-1.0782.533-1.6798.533h-7.56271c-.38243,0-.76116.075-1.11453.221-.35337.147-.67445.361-.9449.631-.27044.271-.48495.592-.63125.945-.1463.354-.22153.732-.22139,1.115v16.421c-.00021.383.07497.761.22123,1.115.14627.353.36077.674.63122.945.27045.27.59156.485.94497.631s.73218.221,1.11465.221h7.36391c.6124,0,1.2093.193,1.7055.552s.8663.866,1.0576,1.447c.568,1.707,1.2478,3.375,2.0349,4.993.267.545.3573,1.16.2586,1.758-.0988.599-.3818,1.152-.8096,1.582l-5.1865,5.187c-.2706.27-.4853.591-.6318.944-.1464.354-.2218.732-.2218,1.115c0,.382.0754.761.2218,1.114s.3612.674.6318.944l11.612,11.612c.5467.547,1.2877.853,2.0604.853s1.5138-.306,2.0604-.853l5.0846-5.084c.4332-.432.9914-.717,1.5956-.815.6041-.097,1.2236-.001,1.7705.273c1.6447.822,3.3435,1.53,5.0846,2.121.5772.195,1.0789.567,1.4346,1.061.3556.495.5476,1.089.5489,1.698v7.171c-.0006.383.0743.762.2204,1.116s.3605.675.6309.946c.2705.271.5917.486.9453.633.3536.146.7326.222,1.1155.222h16.4159c.3828,0,.7619-.076,1.1155-.222.3536-.147.6748-.362.9452-.633.2705-.271.4849-.592.631-.946s.221-.733.2204-1.116v-7.171c.0011-.609.193-1.203.5487-1.698s.8574-.866,1.4348-1.061c1.741-.591,3.4398-1.299,5.0846-2.121.5469-.274,1.1663-.37,1.7705-.273.6041.098,1.1624.383,1.5956.815l5.084,5.084c.5467.547,1.2877.853,2.0604.853s1.5138-.306,2.0604-.853L96.6676,302.9c.2707-.27.4854-.591.6318-.944s.2219-.732.2219-1.114c0-.383-.0754-.761-.2219-1.115-.1464-.353-.3611-.674-.6318-.944l-5.1864-5.187c-.4279-.43-.7109-.983-.8096-1.582-.0988-.598-.0084-1.213.2586-1.758.7868-1.618,1.4666-3.286,2.0349-4.993.1913-.581.5614-1.088,1.0576-1.447s1.0931-.552,1.7055-.552h7.3638c.383,0,.761-.075,1.115-.221.353-.146.674-.361.945-.631.27-.271.485-.592.631-.945.146-.354.221-.732.221-1.115v-16.421c0-.383-.075-.761-.221-1.114s-.36-.674-.631-.945c-.27-.27-.59-.485-.944-.631-.353-.146-.731-.222-1.113-.222ZM54.2977,296.407c-4.7997,0-9.4917-1.423-13.4825-4.09-3.9909-2.666-7.1014-6.456-8.9382-10.891-1.8368-4.434-2.3174-9.314-1.3811-14.021.9364-4.708,3.2476-9.032,6.6415-12.425c3.3939-3.394,7.718-5.706,12.4255-6.642s9.5869-.456,14.0212,1.381s8.2244,4.947,10.8909,8.938s4.0897,8.683,4.0896,13.483c-.0003,6.436-2.5571,12.608-7.108,17.159-4.5508,4.551-10.723,7.107-17.1589,7.108Z" fill="#f4f4f4"/><g><path d="M60.0424,310.414l-.9355.102L70.6568,416.063l.9355-.102L60.0424,310.414Z" fill="#292a2e"/><path d="M66.3045,340.442c12.5649-9.699,15.98-26.333,7.6277-37.153-8.3523-10.821-25.309-11.73-37.8739-2.031-12.565,9.699-15.98,26.334-7.6277,37.154s25.309,11.729,37.8739,2.03Z" fill="#0cbc8b"/><path d="M62.3247,337.659c-9.7309,7.517-22.0976,8.662-31.062,3.769-1.0373-.914-1.9849-1.925-2.8297-3.019-8.3537-10.817-4.9389-27.453,7.6256-37.151c9.7309-7.511,22.0976-8.661,31.0576-3.772c1.0397.914,1.9886,1.926,2.8335,3.023c8.3543,10.817,4.9394,27.453-7.625,37.15Z" opacity="0.2" fill="#fff"/></g><g transform="translate(.000001 0)"><path d="M89.9562,356.492l-5.682,56.213.9363.094l5.682-56.212-.9363-.095Z" fill="#292a2e"/><path d="M125.145,380.716c7.987-10.616,4.18-26.957-8.504-36.501-12.684-9.543-29.4405-8.674-37.4275,1.941-7.9869,10.616-4.1795,26.957,8.5042,36.501c12.6833,9.543,29.4403,8.674,37.4273-1.941Z" fill="#0cbc8b"/><path d="M125.145,380.716c7.987-10.616,4.18-26.957-8.504-36.501-12.684-9.543-29.4405-8.674-37.4275,1.941-7.9869,10.616-4.1795,26.957,8.5042,36.501c12.6833,9.543,29.4403,8.674,37.4273-1.941Z" opacity="0.2" fill="#fff"/><path d="M125.143,380.718c-.536.716-1.121,1.394-1.751,2.029-8.792,5.617-21.77,4.733-32.0646-3.015-12.6826-9.541-16.4891-25.882-8.5011-36.497.5368-.715,1.1205-1.393,1.7472-2.03c8.7964-5.621,21.7695-4.733,32.0685,3.011c12.682,9.545,16.489,25.887,8.501,36.502Z" opacity="0.5" fill="#fff"/></g><path d="M99.7276,405.909h-42.1614v13.683h42.1614v-13.683Z" fill="#292a2e"/><path d="M99.7276,405.909h-42.1614v13.683h42.1614v-13.683Z" opacity="0.2" fill="#fff"/><g transform="translate(.000001 0.000001)"><path d="M399.095,240.564h-141.399c-3.364,0-6.091,2.727-6.091,6.091v70.162c0,3.364,2.727,6.091,6.091,6.091h141.399c3.364,0,6.091-2.727,6.091-6.091v-70.162c0-3.364-2.727-6.091-6.091-6.091Z" fill="#f4f4f4"/><path d="M274.238,287.322h-9.803c-.597,0-1.081.484-1.081,1.081v21.727c0,.597.484,1.081,1.081,1.081h9.803c.596,0,1.08-.484,1.08-1.081v-21.727c0-.597-.484-1.081-1.08-1.081Z" fill="#fff"/><path d="M297.861,264.518h-9.802c-.597,0-1.081.484-1.081,1.081v44.531c0,.597.484,1.081,1.081,1.081h9.802c.597,0,1.081-.484,1.081-1.081v-44.531c0-.597-.484-1.081-1.081-1.081Z" fill="#fff"/><path d="M321.485,281.967h-9.802c-.597,0-1.081.484-1.081,1.081v27.083c0,.597.484,1.081,1.081,1.081h9.802c.597,0,1.081-.484,1.081-1.081v-27.083c0-.597-.484-1.081-1.081-1.081Z" fill="#fff"/></g><path d="M345.109,287.322h-9.803c-.597,0-1.081.484-1.081,1.081v21.727c0,.597.484,1.081,1.081,1.081h9.803c.597,0,1.08-.484,1.08-1.081v-21.727c0-.597-.483-1.081-1.08-1.081Z" fill="#fff"/><path d="M368.732,264.518h-9.802c-.597,0-1.081.484-1.081,1.081v44.531c0,.597.484,1.081,1.081,1.081h9.802c.597,0,1.081-.484,1.081-1.081v-44.531c0-.597-.484-1.081-1.081-1.081Z" fill="#fff"/><path d="M392.356,281.967h-9.802c-.597,0-1.081.484-1.081,1.081v27.083c0,.597.484,1.081,1.081,1.081h9.802c.597,0,1.081-.484,1.081-1.081v-27.083c0-.597-.484-1.081-1.081-1.081Z" fill="#fff"/><path d="M339.695,29.0153c0,0-5.607-4.8533-6.38-15.2127-.601-8.01835,6.383-2.3838,6.383-2.3838s-.376-5.77975,3.757-4.93023c4.134.84951,6.068,7.02253,6.068,7.02253" fill="#0c0c0c"/><path d="M364.982,8.60474c0,0,20.56,3.60776,11.193,31.16816h-5.577" fill="#0c0c0c"/><path d="M378.567,395.399c0,0-2.447,12.678-14.319,13.387s-9.298,10.164-9.298,10.164h45.369v-22.666l-21.752-.885Z" fill="#cedef2"/><path d="M403.396,164.097c0,0-.143-3.812-.113,4.835.113,32.251-.962,234.56-.962,234.56l-29.812-.25L354.45,162.786l48.946,1.311Z" fill="#262626"/><path d="M327.659,395.399c0,0-2.446,12.678-14.318,13.387s-9.297,10.164-9.297,10.164h45.368v-22.666l-21.753-.885Z" fill="#cedef2"/><path d="M321.893,166.601c0,0-3.724,110.228-3.337,115.616l3.502,120.438l29.319.542l4.728-125.338c0,0,3.099-34.574,11.453-66.679c4.274-16.477,6.846-33.35,7.676-50.352l-53.341,5.773Z" fill="#262626"/><path d="M360.572,244.753l-2.443-37.388c0,0-2.512,15.544-2.512,28.941c0,6.548,1.349,32.475,1.349,32.475l3.606-24.028Z" fill="#0a0a0a"/><path d="M341.826,68.4258c.092-.0119,1.104,16.7903,20.624,15.3253c13.513-1.012,18.331-15.3492,18.641-15.3492-1.457-.3093-3.258-.7796-3.973-.9405-1.56-.362-2.972-1.1902-4.05-2.3745-1.077-1.1843-1.768-2.6685-1.981-4.2553-.395-2.3838.275-14.5663.068-16.9761l-20.742,4.63c.29,5.089,2.318,16.8873-4.792,18.9754-1.183.3456-2.457.6631-3.795.9649Z" fill="#e98862"/><path d="M350.122,62.6395c.325-1.0472.534-2.127.624-3.2198.228-2.4933.182-5.004-.136-7.4874c4.216-.5692,8.188-2.3094,11.464-5.0229.386,1.4227,2.504,7.6391,1.917,8.9898-1.108,2.5556-6.318,6.7403-13.869,6.7403Z" opacity="0.52" fill="#0c0c0c"/><path d="M353.804,58.5799c8.214-.1853,18.332-4.6897,19.216-15.7631l.797-9.9921c.884-11.074-4.217-20.5151-14.643-21.3462-10.427-.8321-18.936,7.5232-19.82,18.5972l-.353,4.4237c-.095,1.5208-.086,3.0464.027,4.5661.271,4.0189.692,10.1313,3.121,14.4076c2.293,4.0373,6.407,5.2249,11.655,5.1068Z" fill="#e98862"/><path d="M350.694,48.1952c-1.69-.0367-3.348-.47-4.84-1.2651-.062-.0318-.109-.087-.131-.1535-.022-.0666-.016-.139.016-.2014s.087-.1095.153-.1312c.067-.0216.139-.0159.202.0158c3.219,1.6351,6.242,1.6297,8.742-.0151.05-.0351.102-.0673.156-.0965.063-.0307.136-.0351.202-.0123s.121.071.151.134c.031.0629.035.1354.013.2016-.023.0662-.071.1206-.134.1513-.02.0109-.054.0331-.098.0629-1.314.8677-2.857,1.3237-4.432,1.3095Z" opacity="0.52" fill="#0c0c0c"/><path d="M350.605,50.697c-.305-.0016-.61-.0293-.911-.0829-.035-.006-.067-.0186-.096-.0372-.03-.0186-.055-.0428-.075-.0712-.02-.0283-.034-.0604-.042-.0942-.007-.0338-.008-.0688-.002-.103s.019-.0668.037-.096c.019-.0293.043-.0546.071-.0745.029-.02.061-.0341.095-.0416.033-.0076.068-.0084.103-.0024c1.81.3164,2.737-.4611,2.776-.4947.052-.0461.121-.0694.191-.0648s.135.0368.181.0895c.046.0526.07.1215.065.1913s-.037.135-.09.1812c-.663.4926-1.477.7402-2.303.7005Z" opacity="0.52" fill="#0c0c0c"/><path d="M342.447,36.867c.711,0,1.288-.5768,1.288-1.2884s-.577-1.2883-1.288-1.2883c-.712,0-1.289.5768-1.289,1.2883s.577,1.2884,1.289,1.2884Z" fill="#0c0c0c"/><path d="M355.47,36.9483c.711,0,1.288-.5768,1.288-1.2884s-.577-1.2883-1.288-1.2883c-.712,0-1.289.5768-1.289,1.2883s.577,1.2884,1.289,1.2884Z" fill="#0c0c0c"/><path d="M372.103,46.1382c3.168.253,6.008-2.9316,6.26-6.1005.253-3.1688-2.176-5.1209-5.345-5.3739l-1.802,1.9932-1.838,9.2645l2.725.2167Z" fill="#e98862"/><path d="M317.574,105.417c.615,7.223,3.606,52.287,4.197,61.184h81.469c.46-8.024,2.526-43.112,4.271-58.804c1.666-14.9737,4.935-22.4704,2.539-26.8972-3.915-7.235-14.613-11.4159-21.907-12.4036-4.454-.6024-11.154-1.0348-11.154-1.0348s-.567,11.4749-14.093,12.1137c-18.413.8669-17.183-12.1137-17.274-12.1137-2.983,0-20.024,1.8881-24.193,4.3592-11.36,6.7273-5.16,18.2894-3.855,33.5964Z" fill="#cedef2"/><path d="M369.289,40.8309c0,0-.02-15.7544-4.71-17.0417-3.124-.8571-11.107,3.1207-18.129,1.2873-3.073-.8024-6.079-.2297-6.478,1.2201-.158.5743-1.536-7.9209,3.763-13.9428c4.219-4.79419,17.012-5.37064,22.68-3.32596c15.69,5.66106,7.211,26.37066,7.211,26.37066l-1.076,5.3593-3.261.0731Z" fill="#0c0c0c"/><g opacity="0.52"><path d="M349.027,44.3656h-.021c-1.021-.0785-2.725-.325-2.667-1.0889.049-.6328,2.309-7.3325,2.567-8.0942.022-.0656.069-.1196.131-.1503s.134-.0355.199-.0134c.066.0222.12.0694.151.1314.03.062.035.1336.013.1991-1.003,2.9674-2.507,7.5373-2.541,7.9675.087.1885,1.13.4469,2.187.5287.067.006.129.0374.173.0876s.067.1154.065.1823c-.003.0668-.031.1302-.079.1769-.047.0468-.111.0734-.178.0744v-.0011Z" fill="#0c0c0c"/></g><path d="M346.067,29.998c-.824-.3406-1.723-.4576-2.607-.3391-.45.0565-.888.1809-1.3.3689-.422.1896-.818.4314-1.18.7195l-.029.0217c-.093.0722-.21.1051-.328.0916-.117-.0135-.224-.0724-.298-.1639s-.11-.2084-.099-.3258.068-.2257.158-.3019c.4-.3723.846-.6925,1.326-.953.488-.2665,1.013-.4584,1.557-.5694.545-.1168,1.104-.1584,1.661-.1235.572.0299,1.138.1416,1.679.3315.168.0608.306.1856.383.3473.076.1616.086.3471.027.5159-.06.1688-.183.3073-.345.3853-.161.078-.346.0892-.515.0312-.016-.0059-.033-.0119-.048-.0189l-.042-.0174Z" fill="#0c0c0c"/><path d="M353.632,28.8628c1.074-.3698,2.228-.4415,3.34-.2075.544.1109,1.069.3028,1.557.5694.48.2605.926.5809,1.326.9535.089.0765.144.1845.155.301.01.1166-.025.2326-.099.3235-.073.091-.18.1498-.296.164s-.233-.0174-.326-.088l-.03-.0227c-.361-.2884-.758-.5301-1.18-.7195-.412-.1883-.85-.3129-1.3-.3695-.883-.1185-1.783-.0015-2.607.3391l-.038.0168c-.165.0738-.352.0791-.521.0148-.168-.0644-.305-.1932-.378-.358-.074-.1648-.079-.3522-.015-.5209s.193-.3049.358-.3787c.018-.0049.036-.0119.054-.0173Z" fill="#0c0c0c"/><path d="M354.731,13.1634c.954-3.4067-.15-6.69349-2.464-7.34121s-4.963,1.58893-5.917,4.99571c-.953,3.4067.15,6.6935,2.464,7.3412c2.315.6477,4.964-1.5889,5.917-4.9957Z" fill="#0c0c0c"/><g id="ewvRIiB6nA047"><path d="M133.308,26.761h-125.72638c-3.67229,0-6.649277,2.977-6.649277,6.6493v61.2413c0,3.6723,2.976987,6.6494,6.649277,6.6494h125.72638c3.673,0,6.65-2.9771,6.65-6.6494v-61.2413c0-3.6723-2.977-6.6493-6.65-6.6493Z" fill="#f4f4f4"/><path d="M21.4203,69.0872h-8.8744c-.54,0-.9779.4378-.9779.9779v19.6693c0,.5401.4379.9779.9779.9779h8.8744c.5401,0,.9779-.4378.9779-.9779v-19.6693c0-.5401-.4378-.9779-.9779-.9779Z" fill="#fff"/><path d="M42.8049,48.4446h-8.8744c-.5401,0-.9779.4378-.9779.9779v40.3117c0,.5401.4378.978.9779.978h8.8744c.5401,0,.9779-.4379.9779-.978v-40.3117c0-.5401-.4378-.9779-.9779-.9779Z" fill="#fff"/><path d="M64.1896,64.2397h-8.8743c-.5401,0-.978.4379-.978.978v24.5166c0,.5401.4379.9779.978.9779h8.8743c.5401,0,.9779-.4378.9779-.9779v-24.5166c0-.5401-.4378-.978-.9779-.978Z" fill="#fff"/></g><path d="M85.5739,69.0872h-8.8744c-.5401,0-.9779.4378-.9779.9779v19.6693c0,.5401.4378.9779.9779.9779h8.8744c.5401,0,.9779-.4378.9779-.9779v-19.6693c0-.5401-.4378-.9779-.9779-.9779Z" fill="#fff"/><path d="M106.959,48.4446h-8.8739c-.5401,0-.9779.4378-.9779.9779v40.3117c0,.5401.4378.978.9779.978h8.8739c.541,0,.978-.4379.978-.978v-40.3117c0-.5401-.437-.9779-.978-.9779Z" fill="#fff"/><path d="M128.344,64.2397h-8.874c-.54,0-.978.4379-.978.978v24.5166c0,.5401.438.9779.978.9779h8.874c.54,0,.978-.4378.978-.9779v-24.5166c0-.5401-.438-.978-.978-.978Z" fill="#fff"/><path d="M300.026,0.544922h-227.9006c-4.8653,0-8.8094,3.944088-8.8094,8.809358v268.32872c0,4.865,3.9441,8.809,8.8094,8.809h227.9006c4.865,0,8.809-3.944,8.809-8.809v-268.32872c0-4.86527-3.944-8.809358-8.809-8.809358Z" fill="#fff"/><path d="M300.025,287.034h-227.8997c-2.4792-.003-4.8561-.989-6.6091-2.742s-2.7392-4.13-2.7421-6.609v-268.32869c.0029-2.47919.989-4.85603,2.7421-6.60908s4.1299-2.739188,6.6091-2.742056h227.8997c2.48.002868,4.856.988995,6.61,2.742056c1.753,1.75305,2.739,4.12989,2.742,6.60908v268.32869c-.003,2.479-.989,4.856-2.742,6.609-1.754,1.753-4.13,2.739-6.61,2.742ZM72.1253,1.08674c-2.1919.00258-4.2933.87445-5.8432,2.42436s-2.4218,3.65131-2.4244,5.84321v268.32869c.0026,2.192.8745,4.293,2.4244,5.843s3.6513,2.422,5.8432,2.424h227.8997c2.192-.002,4.294-.874,5.844-2.424s2.421-3.651,2.424-5.843v-268.32869c-.003-2.1919-.874-4.29329-2.424-5.84321s-3.652-2.42178-5.844-2.42436h-227.8997Z" fill="#292a2e"/><g id="ewvRIiB6nA057"><path d="M211.879,43.8071c2.917,0,5.281-2.3643,5.281-5.2808c0-2.9164-2.364-5.2807-5.281-5.2807-2.916,0-5.28,2.3643-5.28,5.2807c0,2.9165,2.364,5.2808,5.28,5.2808Z" fill="#367cff"/><path d="M285.339,38.9096h-61.167c-.102,0-.199-.0403-.271-.1122s-.112-.1692-.112-.2708.04-.199.112-.2709c.072-.0718.169-.1121.271-.1121h61.167c.102,0,.199.0403.271.1121.072.0719.112.1693.112.2709s-.04.199-.112.2708-.169.1122-.271.1122Z" fill="#367cff"/><path d="M211.879,43.8071c2.917,0,5.281-2.3643,5.281-5.2808c0-2.9164-2.364-5.2807-5.281-5.2807-2.916,0-5.28,2.3643-5.28,5.2807c0,2.9165,2.364,5.2808,5.28,5.2808Z" fill="#367cff"/></g><g id="ewvRIiB6nA061"><path d="M211.879,70.7248c2.917,0,5.281-2.3643,5.281-5.2807c0-2.9165-2.364-5.2808-5.281-5.2808-2.916,0-5.28,2.3643-5.28,5.2808c0,2.9164,2.364,5.2807,5.28,5.2807Z" fill="#292a2e"/><path d="M285.339,65.8296h-61.167c-.102,0-.199-.0404-.271-.1122-.072-.0719-.112-.1693-.112-.2709s.04-.199.112-.2708c.072-.0719.169-.1122.271-.1122h61.167c.102,0,.199.0403.271.1122.072.0718.112.1692.112.2708s-.04.199-.112.2709c-.072.0718-.169.1122-.271.1122Z" fill="#292a2e"/></g><g id="ewvRIiB6nA064" transform="translate(.000001 0.000001)"><path d="M211.879,97.643c2.917,0,5.281-2.3642,5.281-5.2807s-2.364-5.2808-5.281-5.2808c-2.916,0-5.28,2.3643-5.28,5.2808s2.364,5.2807,5.28,5.2807Z" opacity="0.5" fill="#367cff"/><g opacity="0.5"><path d="M285.339,92.7453h-61.167c-.099-.0037-.193-.0457-.261-.1171-.069-.0713-.108-.1666-.108-.2657s.039-.1943.108-.2657c.068-.0714.162-.1133.261-.117h61.167c.052-.002.103.0065.151.0249.048.0183.092.0462.129.0819s.067.0786.087.126.031.0984.031.1499-.011.1025-.031.1499-.05.0903-.087.126-.081.0636-.129.082-.099.0268-.151.0249Z" fill="#367cff"/></g></g><g id="ewvRIiB6nA068" transform="translate(.000001 0)"><path d="M211.879,124.561c2.917,0,5.281-2.365,5.281-5.281s-2.364-5.281-5.281-5.281c-2.916,0-5.28,2.365-5.28,5.281s2.364,5.281,5.28,5.281Z" opacity="0.2" fill="#367cff"/><g opacity="0.2"><path d="M285.339,119.663h-61.167c-.099-.004-.193-.046-.261-.117-.069-.071-.108-.167-.108-.266s.039-.194.108-.265c.068-.072.162-.114.261-.118h61.167c.052-.001.103.007.151.025.048.019.092.047.129.082.037.036.067.079.087.126.02.048.031.099.031.15c0,.052-.011.103-.031.15-.02.048-.05.09-.087.126s-.081.064-.129.082-.099.027-.151.025Z" fill="#367cff"/></g></g><g transform="translate(0 0.000001)"><path d="M107.058,78.903c.002,6.4367,1.999,12.7145,5.717,17.9689c3.718,5.2541,8.973,9.2271,15.042,11.3701l-8.536,20.813c-11.74-4.424-21.5549-12.827-27.7357-23.745-6.1808-10.9173-8.3352-23.6573-6.088-36.0001s8.7537-23.506,18.3857-31.5445s21.779-12.4428,34.325-12.4456v22.4736c-8.251,0-16.164,3.2776-21.998,9.1118s-9.112,13.747-9.112,21.9978Z" fill="#292a2e"/><path d="M191.752,78.903h-22.474c0-8.2508-3.278-16.1636-9.112-21.9978s-13.747-9.1118-21.998-9.1118v-22.4736c14.211.0009,27.84,5.6465,37.888,15.6951c10.049,10.0486,15.695,23.6772,15.696,37.8881Z" fill="#367cff"/><path d="M191.752,78.9033c-.002,12.1412-4.125,23.9227-11.694,33.4147-7.57,9.493-18.137,16.135-29.974,18.839l-3.807-22.213c6.602-1.784,12.432-5.693,16.59-11.1223c4.158-5.4296,6.412-12.0775,6.413-18.9162l22.472-.0022Z" opacity="0.5" fill="#367cff"/><path d="M150.084,131.157c-10.251,2.322-20.959,1.592-30.801-2.099l8.536-20.816c5.942,2.086,12.375,2.329,18.458.7l3.807,22.215Z" opacity="0.2" fill="#367cff"/></g><g opacity="0.1"><path d="M285.603,265.958h-199.0541c-1.7306-.002-3.3898-.69-4.6135-1.914s-1.912-2.883-1.9139-4.614v-100.848c.0021-1.73.6904-3.39,1.9141-4.613c1.2237-1.224,2.8828-1.912,4.6133-1.914h199.0541c1.73.002,3.389.69,4.613,1.914c1.224,1.223,1.912,2.882,1.914,4.613v100.848c-.002,1.731-.69,3.39-1.914,4.614s-2.883,1.912-4.613,1.914Z" fill="#367cff"/></g><path d="M107.155,174.932h-3.875c-.583,0-1.056.472-1.056,1.056v74.029c0,.583.473,1.056,1.056,1.056h3.875c.584,0,1.056-.473,1.056-1.056v-74.029c0-.584-.472-1.056-1.056-1.056Z" opacity="0.5" fill="#367cff"/><path d="M101.168,198.847h-3.8756c-.5832,0-1.0559.472-1.0559,1.056v50.115c0,.583.4727,1.056,1.0559,1.056h3.8756c.583,0,1.056-.473,1.056-1.056v-50.115c0-.584-.473-1.056-1.056-1.056Z" fill="#367cff"/><path d="M155.071,241.439h-3.875c-.584,0-1.056.473-1.056,1.056v7.523c0,.583.472,1.056,1.056,1.056h3.875c.583,0,1.056-.473,1.056-1.056v-7.523c0-.583-.473-1.056-1.056-1.056Z" opacity="0.5" fill="#367cff"/><path d="M149.084,194.546h-3.876c-.583,0-1.056.473-1.056,1.056v54.415c0,.583.473,1.056,1.056,1.056h3.876c.583,0,1.056-.473,1.056-1.056v-54.415c0-.583-.473-1.056-1.056-1.056Z" fill="#367cff"/><path d="M131.113,205.497h-3.875c-.583,0-1.056.473-1.056,1.056v43.464c0,.583.473,1.056,1.056,1.056h3.875c.583,0,1.056-.473,1.056-1.056v-43.464c0-.583-.473-1.056-1.056-1.056Z" opacity="0.5" fill="#367cff"/><path d="M125.126,221.245h-3.876c-.583,0-1.056.472-1.056,1.056v27.716c0,.583.473,1.056,1.056,1.056h3.876c.583,0,1.055-.473,1.055-1.056v-27.716c0-.584-.472-1.056-1.055-1.056Z" fill="#367cff"/><path d="M226.944,189.658h-3.876c-.583,0-1.056.473-1.056,1.056v59.304c0,.583.473,1.056,1.056,1.056h3.876c.583,0,1.055-.473,1.055-1.056v-59.304c0-.583-.472-1.056-1.055-1.056Z" opacity="0.5" fill="#367cff"/><path d="M220.956,212.269h-3.875c-.583,0-1.056.473-1.056,1.056v36.693c0,.583.473,1.056,1.056,1.056h3.875c.583,0,1.056-.473,1.056-1.056v-36.693c0-.583-.473-1.056-1.056-1.056Z" fill="#367cff"/><path d="M179.028,199.238h-3.875c-.583,0-1.056.473-1.056,1.056v49.723c0,.583.473,1.056,1.056,1.056h3.875c.584,0,1.056-.473,1.056-1.056v-49.723c0-.583-.472-1.056-1.056-1.056Z" opacity="0.5" fill="#367cff"/><path d="M173.041,205.106h-3.875c-.584,0-1.056.473-1.056,1.056v43.855c0,.584.472,1.056,1.056,1.056h3.875c.583,0,1.056-.472,1.056-1.056v-43.855c0-.583-.473-1.056-1.056-1.056Z" fill="#367cff"/><path d="M202.986,174.932h-3.876c-.583,0-1.056.472-1.056,1.056v74.029c0,.583.473,1.056,1.056,1.056h3.876c.583,0,1.056-.473,1.056-1.056v-74.029c0-.584-.473-1.056-1.056-1.056Z" opacity="0.5" fill="#367cff"/><path d="M196.998,178.6h-3.875c-.583,0-1.056.473-1.056,1.056v70.361c0,.584.473,1.056,1.056,1.056h3.875c.583,0,1.056-.472,1.056-1.056v-70.361c0-.583-.473-1.056-1.056-1.056Z" fill="#367cff"/><path d="M250.901,174.932h-3.876c-.583,0-1.055.472-1.055,1.056v74.029c0,.583.472,1.056,1.055,1.056h3.876c.583,0,1.056-.473,1.056-1.056v-74.029c0-.584-.473-1.056-1.056-1.056Z" opacity="0.5" fill="#367cff"/><path d="M244.914,198.847h-3.876c-.583,0-1.056.472-1.056,1.056v50.115c0,.583.473,1.056,1.056,1.056h3.876c.583,0,1.056-.473,1.056-1.056v-50.115c0-.584-.473-1.056-1.056-1.056Z" fill="#367cff"/><path d="M274.859,205.497h-3.876c-.583,0-1.056.473-1.056,1.056v43.464c0,.583.473,1.056,1.056,1.056h3.876c.583,0,1.056-.473,1.056-1.056v-43.464c0-.583-.473-1.056-1.056-1.056Z" opacity="0.5" fill="#367cff"/><path d="M268.871,221.245h-3.875c-.583,0-1.056.472-1.056,1.056v27.716c0,.583.473,1.056,1.056,1.056h3.875c.583,0,1.056-.473,1.056-1.056v-27.716c0-.584-.473-1.056-1.056-1.056Z" fill="#367cff"/><path d="M299.691,160.453c-2.41-.004-4.778-.638-6.867-1.839-2.09-1.201-3.829-2.928-5.045-5.009-1.215-2.082-1.866-4.445-1.886-6.855s.59-4.783,1.77-6.885l32.93-58.5718c.885-1.59,2.075-2.9897,3.502-4.1186c1.427-1.1288,3.063-1.9647,4.814-2.4596s3.582-.6391,5.389-.4243c1.807.2149,3.553.7845,5.139,1.6762c1.586.8918,2.98,2.088,4.103,3.52c1.122,1.4321,1.951,3.0717,2.438,4.8249.487,1.7531.623,3.5851.4,5.3909s-.801,3.5498-1.7,5.1318l-32.93,58.5715c-1.202,2.14-2.953,3.921-5.072,5.16-2.119,1.238-4.53,1.89-6.985,1.887Z" fill="#cedef2"/><path d="M319.917,138.872l-.492-9.988" fill="none" stroke="#0c0c0c" stroke-width="0.75" stroke-linecap="round" stroke-linejoin="round"/><path d="M359.845,112.403l-8.521-9.974c-.183-.214-.408-.389-.661-.514-.253-.124-.529-.196-.81-.21-.282-.015-.563.028-.828.126-.264.098-.506.249-.71.443-.382.39-.602.911-.615,1.457s.181,1.076.544,1.484l1.821,2.131l9.109,6.919.671-1.862Z" fill="#e98862"/><path d="M346.48,115.032l-26.904,1.676c-1.08.067-2.146-.268-2.994-.941-.847-.673-1.415-1.636-1.593-2.704l-6.647-39.7029c-.101-.6043-.074-1.2232.079-1.8164.153-.5933.429-1.1478.81-1.6276.382-.4798.859-.8742,1.403-1.1576.543-.2835,1.14-.4497,1.751-.4878l26.904-1.6763c1.08-.0672,2.147.2682,2.994.9414s1.415,1.6364,1.594,2.7037l6.645,39.7025c.101.605.074,1.223-.079,1.816-.153.594-.429,1.148-.81,1.628s-.858.874-1.401,1.157c-.544.284-1.14.45-1.752.489Z" fill="#292a2e"/><path d="M350.065,107.346l-8.831-4.088c-.976-.471-2.472-.427-2.929.7-.204.423-.258.901-.155,1.359.103.457.359.866.724,1.16-.007.008-.013.017-.019.027-.002.008-.004.016-.005.024l-1.503-.728c-.276-.133-.579-.204-.887-.207-.307-.002-.611.063-.89.193-.279.129-.526.319-.723.555s-.339.513-.415.811c-.113.477-.058.978.157,1.419.214.44.574.793,1.019.999l.64.31c-.001.023.003.046.01.068-.475-.108-.974-.045-1.408.178-.433.223-.775.591-.964,1.041-.194.51-.186,1.075.021,1.581.207.505.598.913,1.095,1.141l1.571.758c-.03.005-.059.017-.083.036-.025.018-.045.041-.058.069-.015.035-.019.074-.012.111-.442.02-.866.181-1.21.46-.344.278-.59.659-.701,1.088-.113.477-.057.978.157,1.419s.574.794,1.019,1l13.396,6.487c1.874.907,3.976,1.234,6.037.939c2.062-.295,3.988-1.199,5.531-2.596l4.971-4.497-15.555-11.817Z" fill="#e98862"/><g opacity="0.2"><path d="M347.595,110.568c-.022.045-.061.079-.108.096-.048.016-.099.014-.145-.007l-8.397-3.901c-.023-.011-.044-.026-.061-.044-.017-.019-.03-.041-.038-.064-.009-.024-.013-.049-.012-.074.002-.025.008-.05.018-.073.011-.023.026-.043.045-.06.018-.017.04-.03.064-.039.023-.008.048-.012.074-.011.025.001.049.007.072.018l8.398,3.898c.046.021.082.06.099.108.018.048.015.1-.006.146l-.003.007Z" fill="#0c0c0c"/></g><g opacity="0.2"><path d="M345.978,114.319c-.022.045-.061.079-.108.096-.048.017-.099.014-.145-.007l-9.368-4.35c-.046-.022-.082-.061-.099-.108-.018-.048-.016-.101.005-.147.023-.045.062-.079.109-.097.048-.017.1-.016.146.004l9.369,4.35c.046.022.081.061.099.109.017.047.015.1-.006.146l-.002.004Z" fill="#0c0c0c"/></g><g opacity="0.2"><path d="M344.25,118.389c-.022.045-.061.079-.108.096s-.099.014-.145-.007l-7.473-3.47c-.023-.011-.043-.026-.06-.045-.017-.018-.03-.04-.039-.064-.009-.023-.012-.048-.011-.074.001-.025.007-.049.018-.072.01-.023.025-.043.044-.06s.04-.031.064-.039c.024-.009.049-.013.074-.011.025.001.05.007.073.017l7.473,3.471c.046.021.081.06.099.108.017.047.015.1-.006.146l-.003.004Z" fill="#0c0c0c"/></g><path d="M349.522,129.163l58.11,28.505c2.46,1.133,5.191,1.547,7.877,1.194c2.685-.352,5.216-1.457,7.301-3.186c2.084-1.73,3.637-4.014,4.48-6.588.842-2.574.939-5.334.28-7.962L412.053,85.3399c-.927-3.6947-3.283-6.8699-6.551-8.827-3.268-1.9572-7.18-2.5361-10.874-1.6094-7.693,1.9304-11.825,9.7315-9.894,17.4253l12.174,30.1632-37.236-15.611-10.15,22.282Z" fill="#cedef2"/><path d="M403.809,156.104c-.018-.004-.035-.009-.051-.017l-54.319-26.751c-.045-.021-.08-.06-.097-.107s-.015-.099.006-.144l10.149-22.283c.02-.046.057-.081.104-.1.046-.018.098-.017.144.003l36.327,14.915-7.19-21.6536c-.007-.0242-.009-.0495-.006-.0745s.011-.0491.023-.071.029-.0413.049-.0569c.019-.0156.042-.0272.066-.0341.024-.0068.05-.0089.075-.006.025.003.049.0108.071.023.022.0123.041.0287.057.0484.015.0198.027.0424.034.0666l7.297,22.0371c.01.035.01.071,0,.106s-.03.066-.057.09-.06.04-.096.045c-.036.006-.072.002-.106-.012L359.768,107.13l-9.994,21.942l54.151,26.669c.041.02.074.054.092.097.018.042.02.09.006.133-.014.044-.044.082-.083.105-.039.024-.086.034-.131.026v.002Z" fill="#0c0c0c"/><path d="M402.88,125.066c-.016-.003-.031-.008-.046-.014l-6.547-2.925c-.023-.011-.043-.025-.061-.044-.017-.018-.03-.039-.039-.063-.009-.023-.014-.048-.013-.073s.006-.05.017-.073c.01-.023.024-.044.043-.061.018-.017.039-.031.063-.04.023-.009.048-.013.074-.012.025,0,.049.006.072.016l6.548,2.926c.042.019.075.053.094.095s.023.089.009.133c-.013.045-.041.083-.08.107-.039.025-.086.035-.132.028h-.002Z" fill="#0c0c0c"/><path d="M328.864,85.9796c-.279-.3497-.664-.5997-1.097-.7126-.432-.1128-.89-.0826-1.304.0863-.003-.0258-.012-.0504-.027-.0718s-.034-.0389-.057-.051-.049-.0184-.074-.0183c-.026.0001-.052.0065-.075.0187l1.13-1.3653c.347-.4035.532-.9215.52-1.4537-.013-.5322-.223-1.0407-.589-1.427-.356-.352-.827-.5635-1.327-.5955s-.994.1178-1.392.4216c0-.0206-.019-.0358-.027-.0542l.462-.5586c.317-.3695.498-.8366.512-1.3234.014-.4867-.139-.9635-.435-1.3508-.192-.2418-.436-.4376-.714-.5732s-.582-.2075-.891-.2105-.615.063-.896.1931c-.28.1301-.528.3212-.725.5592l-1.067,1.2894c-.006-.0065-.005-.0168-.012-.0227-.007-.006-.022-.0049-.032-.0109.213-.4194.277-.8986.181-1.359s-.345-.8747-.707-1.1749c-.884-.8354-2.264-.2535-2.954.5808l-6.522,7.7394.188-.35.773-2.7046c.156-.5089.118-1.0577-.108-1.5401-.225-.4823-.621-.8639-1.112-1.0707-.269-.1036-.557-.15-.844-.1363-.288.0137-.57.0872-.828.2157s-.487.3095-.671.5311c-.184.2217-.32.4793-.399.7564l-3.605,12.6126-.875,3.0627c-.42,1.469-.25,3.0438.473,4.3895.723,1.346,1.942,2.357,3.398,2.819l.953.302c1.984.629,4.112.65,6.109.062c1.998-.588,3.774-1.759,5.101-3.363l9.488-11.4677c.318-.3693.498-.8364.513-1.3231.014-.4867-.14-.9635-.435-1.3506Z" fill="#e98862"/><g opacity="0.2"><path d="M314.519,86.0877c.038.0316.088.0468.138.0423.049-.0044.095-.0282.128-.0661l6.014-7.035c.018-.0189.032-.0412.041-.0656s.013-.0504.011-.0763c-.001-.026-.008-.0514-.019-.0748-.012-.0233-.028-.0441-.048-.061-.019-.0169-.042-.0296-.067-.0374s-.051-.0104-.077-.0077c-.026.0026-.051.0105-.074.0232-.022.0126-.042.0298-.058.0504l-6.014,7.035c-.016.0191-.029.0414-.037.0653-.007.024-.011.0494-.009.0745.002.0252.009.0497.021.0722.011.0225.027.0425.046.0589l.004.0021Z" fill="#0c0c0c"/></g><g opacity="0.2"><path d="M317.549,88.8262c.039.0315.089.0467.138.0422.05-.0044.096-.0281.129-.0661l6.712-7.8509c.017-.0192.029-.0414.037-.0654s.011-.0493.009-.0744c-.002-.0252-.009-.0498-.02-.0722-.012-.0225-.028-.0425-.047-.0589-.039-.0315-.089-.0469-.139-.0429-.051.0039-.098.0268-.132.064l-6.712,7.851c-.016.0191-.029.0413-.036.0653-.008.024-.011.0493-.009.0745s.008.0497.02.0722c.011.0225.027.0425.046.0589l.004.0027Z" fill="#0c0c0c"/></g><g opacity="0.2"><path d="M320.812,91.8108c.039.0315.089.0467.138.0422.05-.0044.096-.0281.129-.0661l5.354-6.2624c.018-.0189.032-.0412.041-.0656s.013-.0504.012-.0763c-.002-.026-.008-.0514-.02-.0748-.011-.0233-.027-.0441-.047-.061s-.043-.0296-.068-.0374c-.025-.0077-.051-.0104-.077-.0077-.025.0027-.05.0105-.073.0232-.023.0126-.043.0298-.059.0504l-5.355,6.263c-.016.0191-.029.0413-.037.0654-.007.024-.01.0493-.008.0745s.009.0498.02.0722c.012.0225.028.0425.047.0587l.003.0017Z" fill="#0c0c0c"/></g><path d="M324.573,99.7224L313.882,147.801c-.608,3.76-2.684,7.125-5.773,9.355-3.089,2.229-6.936,3.14-10.697,2.532-3.76-.607-7.125-2.684-9.354-5.773-2.23-3.088-3.141-6.936-2.533-10.696l14.68-51.366" fill="#cedef2"/><path d="M314.714,138.872l6.028-22.146" fill="none" stroke="#0c0c0c" stroke-width="0.75" stroke-linecap="round" stroke-linejoin="round"/><path d="M416.574,420.003h-377.1493c-.1437,0-.2815-.057-.3831-.158-.1016-.102-.1587-.24-.1587-.383c0-.144.0571-.282.1587-.383.1016-.102.2394-.159.3831-.159h377.1493c.144,0,.282.057.383.159.102.101.159.239.159.383c0,.143-.057.281-.159.383-.101.101-.239.158-.383.158Z" fill="#292a2e"/></g><clipPath id="ewvRIiB6nA0119"><rect width="427.068" height="420" rx="0" ry="0" transform="translate(.932312 0.003174)" fill="#fff"/></clipPath></g>
<script><![CDATA[
!function(t,n){"object"==typeof exports&&"undefined"!=typeof module?module.exports=n():"function"==typeof define&&define.amd?define(n):((t="undefined"!=typeof globalThis?globalThis:t||self).__SVGATOR_PLAYER__=t.__SVGATOR_PLAYER__||{},t.__SVGATOR_PLAYER__["5c7f360c"]=n())}(this,(function(){"use strict";function t(t,n){var e=Object.keys(t);if(Object.getOwnPropertySymbols){var r=Object.getOwnPropertySymbols(t);n&&(r=r.filter((function(n){return Object.getOwnPropertyDescriptor(t,n).enumerable}))),e.push.apply(e,r)}return e}function n(n){for(var e=1;e<arguments.length;e++){var r=null!=arguments[e]?arguments[e]:{};e%2?t(Object(r),!0).forEach((function(t){o(n,t,r[t])})):Object.getOwnPropertyDescriptors?Object.defineProperties(n,Object.getOwnPropertyDescriptors(r)):t(Object(r)).forEach((function(t){Object.defineProperty(n,t,Object.getOwnPropertyDescriptor(r,t))}))}return n}function e(t){return(e="function"==typeof Symbol&&"symbol"==typeof Symbol.iterator?function(t){return typeof t}:function(t){return t&&"function"==typeof Symbol&&t.constructor===Symbol&&t!==Symbol.prototype?"symbol":typeof t})(t)}function r(t,n){if(!(t instanceof n))throw new TypeError("Cannot call a class as a function")}function i(t,n){for(var e=0;e<n.length;e++){var r=n[e];r.enumerable=r.enumerable||!1,r.configurable=!0,"value"in r&&(r.writable=!0),Object.defineProperty(t,r.key,r)}}function u(t,n,e){return n&&i(t.prototype,n),e&&i(t,e),t}function o(t,n,e){return n in t?Object.defineProperty(t,n,{value:e,enumerable:!0,configurable:!0,writable:!0}):t[n]=e,t}function a(t){return(a=Object.setPrototypeOf?Object.getPrototypeOf:function(t){return t.__proto__||Object.getPrototypeOf(t)})(t)}function l(t,n){return(l=Object.setPrototypeOf||function(t,n){return t.__proto__=n,t})(t,n)}function s(){if("undefined"==typeof Reflect||!Reflect.construct)return!1;if(Reflect.construct.sham)return!1;if("function"==typeof Proxy)return!0;try{return Boolean.prototype.valueOf.call(Reflect.construct(Boolean,[],(function(){}))),!0}catch(t){return!1}}function f(t,n,e){return(f=s()?Reflect.construct:function(t,n,e){var r=[null];r.push.apply(r,n);var i=new(Function.bind.apply(t,r));return e&&l(i,e.prototype),i}).apply(null,arguments)}function c(t,n){if(n&&("object"==typeof n||"function"==typeof n))return n;if(void 0!==n)throw new TypeError("Derived constructors may only return object or undefined");return function(t){if(void 0===t)throw new ReferenceError("this hasn't been initialised - super() hasn't been called");return t}(t)}function h(t,n,e){return(h="undefined"!=typeof Reflect&&Reflect.get?Reflect.get:function(t,n,e){var r=function(t,n){for(;!Object.prototype.hasOwnProperty.call(t,n)&&null!==(t=a(t)););return t}(t,n);if(r){var i=Object.getOwnPropertyDescriptor(r,n);return i.get?i.get.call(e):i.value}})(t,n,e||t)}function v(t){return function(t){if(Array.isArray(t))return y(t)}(t)||function(t){if("undefined"!=typeof Symbol&&null!=t[Symbol.iterator]||null!=t["@@iterator"])return Array.from(t)}(t)||function(t,n){if(!t)return;if("string"==typeof t)return y(t,n);var e=Object.prototype.toString.call(t).slice(8,-1);"Object"===e&&t.constructor&&(e=t.constructor.name);if("Map"===e||"Set"===e)return Array.from(t);if("Arguments"===e||/^(?:Ui|I)nt(?:8|16|32)(?:Clamped)?Array$/.test(e))return y(t,n)}(t)||function(){throw new TypeError("Invalid attempt to spread non-iterable instance.\nIn order to be iterable, non-array objects must have a [Symbol.iterator]() method.")}()}function y(t,n){(null==n||n>t.length)&&(n=t.length);for(var e=0,r=new Array(n);e<n;e++)r[e]=t[e];return r}Number.isInteger||(Number.isInteger=function(t){return"number"==typeof t&&isFinite(t)&&Math.floor(t)===t}),Number.EPSILON||(Number.EPSILON=2220446049250313e-31);var g=d(Math.pow(10,-6));function d(t){var n=arguments.length>1&&void 0!==arguments[1]?arguments[1]:6;if(Number.isInteger(t))return t;var e=Math.pow(10,n);return Math.round((+t+Number.EPSILON)*e)/e}function p(t,n){var e=arguments.length>2&&void 0!==arguments[2]?arguments[2]:g;return Math.abs(t-n)<e}var m=Math.PI/180;function b(t){return t}function w(t,n,e){var r=1-e;return 3*e*r*(t*r+n*e)+e*e*e}function x(){var t=arguments.length>0&&void 0!==arguments[0]?arguments[0]:0,n=arguments.length>1&&void 0!==arguments[1]?arguments[1]:0,e=arguments.length>2&&void 0!==arguments[2]?arguments[2]:1,r=arguments.length>3&&void 0!==arguments[3]?arguments[3]:1;return t<0||t>1||e<0||e>1?null:p(t,n)&&p(e,r)?b:function(i){if(i<=0)return t>0?i*n/t:0===n&&e>0?i*r/e:0;if(i>=1)return e<1?1+(i-1)*(r-1)/(e-1):1===e&&t<1?1+(i-1)*(n-1)/(t-1):1;for(var u,o=0,a=1;o<a;){var l=w(t,e,u=(o+a)/2);if(p(i,l))break;l<i?o=u:a=u}return w(n,r,u)}}function A(){return 1}function k(t){return 1===t?1:0}function _(){var t=arguments.length>0&&void 0!==arguments[0]?arguments[0]:1,n=arguments.length>1&&void 0!==arguments[1]?arguments[1]:0;if(1===t){if(0===n)return k;if(1===n)return A}var e=1/t;return function(t){return t>=1?1:(t+=n*e)-t%e}}var S=Math.sin,O=Math.cos,j=Math.acos,M=Math.asin,P=Math.tan,E=Math.atan2,I=Math.PI/180,R=180/Math.PI,F=Math.sqrt,N=function(){function t(){var n=arguments.length>0&&void 0!==arguments[0]?arguments[0]:1,e=arguments.length>1&&void 0!==arguments[1]?arguments[1]:0,i=arguments.length>2&&void 0!==arguments[2]?arguments[2]:0,u=arguments.length>3&&void 0!==arguments[3]?arguments[3]:1,o=arguments.length>4&&void 0!==arguments[4]?arguments[4]:0,a=arguments.length>5&&void 0!==arguments[5]?arguments[5]:0;r(this,t),this.m=[n,e,i,u,o,a],this.i=null,this.w=null,this.s=null}return u(t,[{key:"determinant",get:function(){var t=this.m;return t[0]*t[3]-t[1]*t[2]}},{key:"isIdentity",get:function(){if(null===this.i){var t=this.m;this.i=1===t[0]&&0===t[1]&&0===t[2]&&1===t[3]&&0===t[4]&&0===t[5]}return this.i}},{key:"point",value:function(t,n){var e=this.m;return{x:e[0]*t+e[2]*n+e[4],y:e[1]*t+e[3]*n+e[5]}}},{key:"translateSelf",value:function(){var t=arguments.length>0&&void 0!==arguments[0]?arguments[0]:0,n=arguments.length>1&&void 0!==arguments[1]?arguments[1]:0;if(!t&&!n)return this;var e=this.m;return e[4]+=e[0]*t+e[2]*n,e[5]+=e[1]*t+e[3]*n,this.w=this.s=this.i=null,this}},{key:"rotateSelf",value:function(){var t=arguments.length>0&&void 0!==arguments[0]?arguments[0]:0;if(t%=360){var n=S(t*=I),e=O(t),r=this.m,i=r[0],u=r[1];r[0]=i*e+r[2]*n,r[1]=u*e+r[3]*n,r[2]=r[2]*e-i*n,r[3]=r[3]*e-u*n,this.w=this.s=this.i=null}return this}},{key:"scaleSelf",value:function(){var t=arguments.length>0&&void 0!==arguments[0]?arguments[0]:1,n=arguments.length>1&&void 0!==arguments[1]?arguments[1]:1;if(1!==t||1!==n){var e=this.m;e[0]*=t,e[1]*=t,e[2]*=n,e[3]*=n,this.w=this.s=this.i=null}return this}},{key:"skewSelf",value:function(t,n){if(n%=360,(t%=360)||n){var e=this.m,r=e[0],i=e[1],u=e[2],o=e[3];t&&(t=P(t*I),e[2]+=r*t,e[3]+=i*t),n&&(n=P(n*I),e[0]+=u*n,e[1]+=o*n),this.w=this.s=this.i=null}return this}},{key:"resetSelf",value:function(){var t=arguments.length>0&&void 0!==arguments[0]?arguments[0]:1,n=arguments.length>1&&void 0!==arguments[1]?arguments[1]:0,e=arguments.length>2&&void 0!==arguments[2]?arguments[2]:0,r=arguments.length>3&&void 0!==arguments[3]?arguments[3]:1,i=arguments.length>4&&void 0!==arguments[4]?arguments[4]:0,u=arguments.length>5&&void 0!==arguments[5]?arguments[5]:0,o=this.m;return o[0]=t,o[1]=n,o[2]=e,o[3]=r,o[4]=i,o[5]=u,this.w=this.s=this.i=null,this}},{key:"recomposeSelf",value:function(){var t=arguments.length>0&&void 0!==arguments[0]?arguments[0]:null,n=arguments.length>1&&void 0!==arguments[1]?arguments[1]:null,e=arguments.length>2&&void 0!==arguments[2]?arguments[2]:null,r=arguments.length>3&&void 0!==arguments[3]?arguments[3]:null,i=arguments.length>4&&void 0!==arguments[4]?arguments[4]:null;return this.isIdentity||this.resetSelf(),t&&(t.x||t.y)&&this.translateSelf(t.x,t.y),n&&this.rotateSelf(n),e&&(e.x&&this.skewSelf(e.x,0),e.y&&this.skewSelf(0,e.y)),!r||1===r.x&&1===r.y||this.scaleSelf(r.x,r.y),i&&(i.x||i.y)&&this.translateSelf(i.x,i.y),this}},{key:"decompose",value:function(){var t=arguments.length>0&&void 0!==arguments[0]?arguments[0]:0,n=arguments.length>1&&void 0!==arguments[1]?arguments[1]:0,e=this.m,r=e[0]*e[0]+e[1]*e[1],i=[[e[0],e[1]],[e[2],e[3]]],u=F(r);if(0===u)return{origin:{x:d(e[4]),y:d(e[5])},translate:{x:d(t),y:d(n)},scale:{x:0,y:0},skew:{x:0,y:0},rotate:0};i[0][0]/=u,i[0][1]/=u;var o=e[0]*e[3]-e[1]*e[2]<0;o&&(u=-u);var a=i[0][0]*i[1][0]+i[0][1]*i[1][1];i[1][0]-=i[0][0]*a,i[1][1]-=i[0][1]*a;var l=F(i[1][0]*i[1][0]+i[1][1]*i[1][1]);if(0===l)return{origin:{x:d(e[4]),y:d(e[5])},translate:{x:d(t),y:d(n)},scale:{x:d(u),y:0},skew:{x:0,y:0},rotate:0};i[1][0]/=l,i[1][1]/=l,a/=l;var s=0;return i[1][1]<0?(s=j(i[1][1])*R,i[0][1]<0&&(s=360-s)):s=M(i[0][1])*R,o&&(s=-s),a=E(a,F(i[0][0]*i[0][0]+i[0][1]*i[0][1]))*R,o&&(a=-a),{origin:{x:d(e[4]),y:d(e[5])},translate:{x:d(t),y:d(n)},scale:{x:d(u),y:d(l)},skew:{x:d(a),y:0},rotate:d(s)}}},{key:"clone",value:function(){var t=this.m;return new this.constructor(t[0],t[1],t[2],t[3],t[4],t[5])}},{key:"toString",value:function(){var t=arguments.length>0&&void 0!==arguments[0]?arguments[0]:" ";if(null===this.s){var n=this.m.map((function(t){return d(t)}));1===n[0]&&0===n[1]&&0===n[2]&&1===n[3]?this.s="translate("+n[4]+t+n[5]+")":this.s="matrix("+n.join(t)+")"}return this.s}}],[{key:"create",value:function(t){return t?Array.isArray(t)?f(this,v(t)):t instanceof this?t.clone():(new this).recomposeSelf(t.origin,t.rotate,t.skew,t.scale,t.translate):new this}}]),t}();function T(t,n,e){return t>=.5?e:n}function q(t,n,e){return 0===t||n===e?n:t*(e-n)+n}function B(t,n,e){var r=q(t,n,e);return r<=0?0:r}function L(t,n,e){var r=q(t,n,e);return r<=0?0:r>=1?1:r}function C(t,n,e){return 0===t?n:1===t?e:{x:q(t,n.x,e.x),y:q(t,n.y,e.y)}}function D(t,n,e){var r=function(t,n,e){return Math.round(q(t,n,e))}(t,n,e);return r<=0?0:r>=255?255:r}function z(t,n,e){return 0===t?n:1===t?e:{r:D(t,n.r,e.r),g:D(t,n.g,e.g),b:D(t,n.b,e.b),a:q(t,null==n.a?1:n.a,null==e.a?1:e.a)}}function V(t,n){for(var e=[],r=0;r<t;r++)e.push(n);return e}function G(t,n){if(--n<=0)return t;var e=(t=Object.assign([],t)).length;do{for(var r=0;r<e;r++)t.push(t[r])}while(--n>0);return t}var Y,$=function(){function t(n){r(this,t),this.list=n,this.length=n.length}return u(t,[{key:"setAttribute",value:function(t,n){for(var e=this.list,r=0;r<this.length;r++)e[r].setAttribute(t,n)}},{key:"removeAttribute",value:function(t){for(var n=this.list,e=0;e<this.length;e++)n[e].removeAttribute(t)}},{key:"style",value:function(t,n){for(var e=this.list,r=0;r<this.length;r++)e[r].style[t]=n}}]),t}(),U=/-./g,Q=function(t,n){return n.toUpperCase()};function H(t){return"function"==typeof t?t:T}function J(t){return t?"function"==typeof t?t:Array.isArray(t)?function(t){var n=arguments.length>1&&void 0!==arguments[1]?arguments[1]:b;if(!Array.isArray(t))return n;switch(t.length){case 1:return _(t[0])||n;case 2:return _(t[0],t[1])||n;case 4:return x(t[0],t[1],t[2],t[3])||n}return n}(t,null):function(t,n){var e=arguments.length>2&&void 0!==arguments[2]?arguments[2]:b;switch(t){case"linear":return b;case"steps":return _(n.steps||1,n.jump||0)||e;case"bezier":case"cubic-bezier":return x(n.x1||0,n.y1||0,n.x2||0,n.y2||0)||e}return e}(t.type,t.value,null):null}function Z(t,n,e){var r=arguments.length>3&&void 0!==arguments[3]&&arguments[3],i=n.length-1;if(t<=n[0].t)return r?[0,0,n[0].v]:n[0].v;if(t>=n[i].t)return r?[i,1,n[i].v]:n[i].v;var u,o=n[0],a=null;for(u=1;u<=i;u++){if(!(t>n[u].t)){a=n[u];break}o=n[u]}return null==a?r?[i,1,n[i].v]:n[i].v:o.t===a.t?r?[u,1,a.v]:a.v:(t=(t-o.t)/(a.t-o.t),o.e&&(t=o.e(t)),r?[u,t,e(t,o.v,a.v)]:e(t,o.v,a.v))}function K(t,n){var e=arguments.length>2&&void 0!==arguments[2]?arguments[2]:null;return t&&t.length?"function"!=typeof n?null:("function"!=typeof e&&(e=null),function(r){var i=Z(r,t,n);return null!=i&&e&&(i=e(i)),i}):null}function W(t,n){return t.t-n.t}function X(t,n,r,i,u){var o,a="@"===r[0],l="#"===r[0],s=Y[r],f=T;switch(a?(o=r.substr(1),r=o.replace(U,Q)):l&&(r=r.substr(1)),e(s)){case"function":if(f=s(i,u,Z,J,r,a,n,t),l)return f;break;case"string":f=K(i,H(s));break;case"object":if((f=K(i,H(s.i),s.f))&&"function"==typeof s.u)return s.u(n,f,r,a,t)}return f?function(t,n,e){if(arguments.length>3&&void 0!==arguments[3]&&arguments[3])return t instanceof $?function(r){return t.style(n,e(r))}:function(r){return t.style[n]=e(r)};if(Array.isArray(n)){var r=n.length;return function(i){var u=e(i);if(null==u)for(var o=0;o<r;o++)t[o].removeAttribute(n);else for(var a=0;a<r;a++)t[a].setAttribute(n,u)}}return function(r){var i=e(r);null==i?t.removeAttribute(n):t.setAttribute(n,i)}}(n,r,f,a):null}function tt(t,n,r,i){if(!i||"object"!==e(i))return null;var u=null,o=null;return Array.isArray(i)?o=function(t){if(!t||!t.length)return null;for(var n=0;n<t.length;n++)t[n].e&&(t[n].e=J(t[n].e));return t.sort(W)}(i):(o=i.keys,u=i.data||null),o?X(t,n,r,o,u):null}function nt(t,n,e){if(!e)return null;var r=[];for(var i in e)if(e.hasOwnProperty(i)){var u=tt(t,n,i,e[i]);u&&r.push(u)}return r.length?r:null}function et(t,n){if(!n.settings.duration||n.settings.duration<0)return null;var e,r,i,u,o,a=function(t,n){if(!n)return null;var e=[];if(Array.isArray(n))for(var r=n.length,i=0;i<r;i++){var u=n[i];if(2===u.length){var o=null;if("string"==typeof u[0])o=t.getElementById(u[0]);else if(Array.isArray(u[0])){o=[];for(var a=0;a<u[0].length;a++)if("string"==typeof u[0][a]){var l=t.getElementById(u[0][a]);l&&o.push(l)}o=o.length?1===o.length?o[0]:new $(o):null}if(o){var s=nt(t,o,u[1]);s&&(e=e.concat(s))}}}else for(var f in n)if(n.hasOwnProperty(f)){var c=t.getElementById(f);if(c){var h=nt(t,c,n[f]);h&&(e=e.concat(h))}}return e.length?e:null}(t,n.elements);return a?(e=a,r=n.settings,i=r.duration,u=e.length,o=null,function(t,n){var a=r.iterations||1/0,l=(r.alternate&&a%2==0)^r.direction>0?i:0,s=t%i,f=1+(t-s)/i;n*=r.direction,r.alternate&&f%2==0&&(n=-n);var c=!1;if(f>a)s=l,c=!0,-1===r.fill&&(s=r.direction>0?0:i);else if(n<0&&(s=i-s),s===o)return!1;o=s;for(var h=0;h<u;h++)e[h](s);return c}):null}function rt(t,n){if(Y=n,!t||!t.root||!Array.isArray(t.animations))return null;var e=function(t){for(var n=document.getElementsByTagName("svg"),e=0;e<n.length;e++)if(n[e].id===t.root&&!n[e].svgatorAnimation)return n[e].svgatorAnimation=!0,n[e];return null}(t);if(!e)return null;var r=t.animations.map((function(t){return et(e,t)})).filter((function(t){return!!t}));return r.length?{svg:e,animations:r,animationSettings:t.animationSettings,options:t.options||void 0}:null}function it(t){return+("0x"+(t.replace(/[^0-9a-fA-F]+/g,"")||27))}function ut(t,n,e){return!t||!e||n>t.length?t:t.substring(0,n)+ut(t.substring(n+1),e,e)}function ot(t){var n=arguments.length>1&&void 0!==arguments[1]?arguments[1]:27;return!t||t%n?t%n:ot(t/n,n)}function at(t,n,e){if(t&&t.length){var r=it(e),i=it(n),u=ot(r)+5,o=ut(t,ot(r,5),u);return o=o.replace(/\x7c$/g,"==").replace(/\x2f$/g,"="),o=function(t,n,e){var r=+("0x"+t.substring(0,4));t=t.substring(4);for(var i=n%r+e%27,u=[],o=0;o<t.length;o+=2)if("|"!==t[o]){var a=+("0x"+t[o]+t[o+1])-i;u.push(a)}else{var l=+("0x"+t.substring(o+1,o+1+4))-i;o+=3,u.push(l)}return String.fromCharCode.apply(String,u)}(o=(o=atob(o)).replace(/[\x41-\x5A]/g,""),i,r),o=JSON.parse(o)}}var lt=[{key:"alternate",def:!1},{key:"fill",def:1},{key:"iterations",def:0},{key:"direction",def:1},{key:"speed",def:1},{key:"fps",def:100}],st=function(){function t(n,e){var i=this,u=arguments.length>2&&void 0!==arguments[2]?arguments[2]:null;r(this,t),this._id=0,this._running=!1,this._rollingBack=!1,this._animations=n,this._settings=e,(!u||u<"2022-05-02")&&delete this._settings.speed,lt.forEach((function(t){i._settings[t.key]=i._settings[t.key]||t.def})),this.duration=e.duration,this.offset=e.offset||0,this.rollbackStartOffset=0}return u(t,[{key:"alternate",get:function(){return this._settings.alternate}},{key:"fill",get:function(){return this._settings.fill}},{key:"iterations",get:function(){return this._settings.iterations}},{key:"direction",get:function(){return this._settings.direction}},{key:"speed",get:function(){return this._settings.speed}},{key:"fps",get:function(){return this._settings.fps}},{key:"maxFiniteDuration",get:function(){return this.iterations>0?this.iterations*this.duration:this.duration}},{key:"_apply",value:function(t){for(var n=arguments.length>1&&void 0!==arguments[1]?arguments[1]:{},e=this._animations,r=e.length,i=0,u=0;u<r;u++)n[u]?i++:(n[u]=e[u](t,1),n[u]&&i++);return i}},{key:"_rollback",value:function(t){var n=this,e=1/0,r=null;this.rollbackStartOffset=t,this._rollingBack=!0,this._running=!0;this._id=window.requestAnimationFrame((function i(u){if(n._rollingBack){null==r&&(r=u);var o=Math.round(t-(u-r)*n.speed);if(o>n.duration&&e!==1/0){var a=!!n.alternate&&o/n.duration%2>1,l=o%n.duration;o=(l+=a?n.duration:0)||n.duration}var s=(n.fps?1e3/n.fps:0)*n.speed,f=Math.max(0,o);f<=e-s&&(n.offset=f,e=f,n._apply(f));var c=n.iterations>0&&-1===n.fill&&o>=n.maxFiniteDuration;(o<=0||n.offset<o||c)&&n.stop(),n._id=window.requestAnimationFrame(i)}}))}},{key:"_start",value:function(){var t=this,n=arguments.length>0&&void 0!==arguments[0]?arguments[0]:0,e=-1/0,r=null,i={};this._running=!0;var u=function u(o){null==r&&(r=o);var a=Math.round((o-r)*t.speed+n),l=(t.fps?1e3/t.fps:0)*t.speed;if(a>=e+l&&!t._rollingBack&&(t.offset=a,e=a,t._apply(a,i)===t._animations.length))return void t.pause(!0);t._id=window.requestAnimationFrame(u)};this._id=window.requestAnimationFrame(u)}},{key:"_pause",value:function(){this._id&&window.cancelAnimationFrame(this._id),this._running=!1}},{key:"play",value:function(){if(!this._running)return this._rollingBack?this._rollback(this.offset):this._start(this.offset)}},{key:"stop",value:function(){this._pause(),this.offset=0,this.rollbackStartOffset=0,this._rollingBack=!1,this._apply(0)}},{key:"reachedToEnd",value:function(){return this.iterations>0&&this.offset>=this.iterations*this.duration}},{key:"restart",value:function(){var t=arguments.length>0&&void 0!==arguments[0]&&arguments[0];this.stop(t),this.play(t)}},{key:"pause",value:function(){this._pause()}},{key:"reverse",value:function(){this.direction=-this.direction}}],[{key:"build",value:function(t,n){delete t.animationSettings,t.options=at(t.options,t.root,"5c7f360c"),t.animations.map((function(n){n.settings=at(n.s,t.root,"5c7f360c"),delete n.s,t.animationSettings||(t.animationSettings=n.settings)}));var e=t.version;if(!(t=rt(t,n)))return null;var r=t.options||{},i=new this(t.animations,t.animationSettings,e);return{el:t.svg,options:r,player:i}}},{key:"push",value:function(t){return this.build(t)}},{key:"init",value:function(){var t=this,n=window.__SVGATOR_PLAYER__&&window.__SVGATOR_PLAYER__["5c7f360c"];Array.isArray(n)&&n.splice(0).forEach((function(n){return t.build(n)}))}}]),t}();function ft(t){return d(t)+""}function ct(t){var n=arguments.length>1&&void 0!==arguments[1]?arguments[1]:" ";return t&&t.length?t.map(ft).join(n):""}function ht(t){if(!t)return"transparent";if(null==t.a||t.a>=1){var n=function(t){return 1===(t=parseInt(t).toString(16)).length?"0"+t:t},e=function(t){return t.charAt(0)===t.charAt(1)},r=n(t.r),i=n(t.g),u=n(t.b);return e(r)&&e(i)&&e(u)&&(r=r.charAt(0),i=i.charAt(0),u=u.charAt(0)),"#"+r+i+u}return"rgba("+t.r+","+t.g+","+t.b+","+t.a+")"}function vt(t){return t?"url(#"+t+")":"none"}!function(){for(var t=0,n=["ms","moz","webkit","o"],e=0;e<n.length&&!window.requestAnimationFrame;++e)window.requestAnimationFrame=window[n[e]+"RequestAnimationFrame"],window.cancelAnimationFrame=window[n[e]+"CancelAnimationFrame"]||window[n[e]+"CancelRequestAnimationFrame"];window.requestAnimationFrame||(window.requestAnimationFrame=function(n){var e=Date.now(),r=Math.max(0,16-(e-t)),i=window.setTimeout((function(){n(e+r)}),r);return t=e+r,i},window.cancelAnimationFrame=window.clearTimeout)}();var yt={f:null,i:function(t,n,e){return 0===t?n:1===t?e:{x:B(t,n.x,e.x),y:B(t,n.y,e.y)}},u:function(t,n){return function(e){var r=n(e);t.setAttribute("rx",ft(r.x)),t.setAttribute("ry",ft(r.y))}}},gt={f:null,i:function(t,n,e){return 0===t?n:1===t?e:{width:B(t,n.width,e.width),height:B(t,n.height,e.height)}},u:function(t,n){return function(e){var r=n(e);t.setAttribute("width",ft(r.width)),t.setAttribute("height",ft(r.height))}}};Object.freeze({M:2,L:2,Z:0,H:1,V:1,C:6,Q:4,T:2,S:4,A:7});var dt={},pt=null;function mt(t){var n=function(){if(pt)return pt;if("object"!==("undefined"==typeof document?"undefined":e(document))||!document.createElementNS)return{};var t=document.createElementNS("http://www.w3.org/2000/svg","svg");return t&&t.style?(t.style.position="absolute",t.style.opacity="0.01",t.style.zIndex="-9999",t.style.left="-9999px",t.style.width="1px",t.style.height="1px",pt={svg:t}):{}}().svg;if(!n)return function(t){return null};var r=document.createElementNS(n.namespaceURI,"path");r.setAttributeNS(null,"d",t),r.setAttributeNS(null,"fill","none"),r.setAttributeNS(null,"stroke","none"),n.appendChild(r);var i=r.getTotalLength();return function(t){var n=r.getPointAtLength(i*t);return{x:n.x,y:n.y}}}function bt(t){return dt[t]?dt[t]:dt[t]=mt(t)}function wt(t,n,e,r){if(!t||!r)return!1;var i=["M",t.x,t.y];if(n&&e&&(i.push("C"),i.push(n.x),i.push(n.y),i.push(e.x),i.push(e.y)),n?!e:e){var u=n||e;i.push("Q"),i.push(u.x),i.push(u.y)}return n||e||i.push("L"),i.push(r.x),i.push(r.y),i.join(" ")}function xt(t,n,e,r){var i=arguments.length>4&&void 0!==arguments[4]?arguments[4]:1,u=wt(t,n,e,r),o=bt(u);try{return o(i)}catch(t){return null}}function At(t,n,e){return t+(n-t)*e}function kt(t,n,e){var r=arguments.length>3&&void 0!==arguments[3]&&arguments[3],i={x:At(t.x,n.x,e),y:At(t.y,n.y,e)};return r&&(i.a=_t(t,n)),i}function _t(t,n){return Math.atan2(n.y-t.y,n.x-t.x)}function St(t,n,e,r){var i=1-r;return i*i*t+2*i*r*n+r*r*e}function Ot(t,n,e,r){return 2*(1-r)*(n-t)+2*r*(e-n)}function jt(t,n,e,r){var i=arguments.length>4&&void 0!==arguments[4]&&arguments[4],u=xt(t,n,null,e,r);return u||(u={x:St(t.x,n.x,e.x,r),y:St(t.y,n.y,e.y,r)}),i&&(u.a=Mt(t,n,e,r)),u}function Mt(t,n,e,r){return Math.atan2(Ot(t.y,n.y,e.y,r),Ot(t.x,n.x,e.x,r))}function Pt(t,n,e,r,i){var u=i*i;return i*u*(r-t+3*(n-e))+3*u*(t+e-2*n)+3*i*(n-t)+t}function Et(t,n,e,r,i){var u=1-i;return 3*(u*u*(n-t)+2*u*i*(e-n)+i*i*(r-e))}function It(t,n,e,r,i){var u=arguments.length>5&&void 0!==arguments[5]&&arguments[5],o=xt(t,n,e,r,i);return o||(o={x:Pt(t.x,n.x,e.x,r.x,i),y:Pt(t.y,n.y,e.y,r.y,i)}),u&&(o.a=Rt(t,n,e,r,i)),o}function Rt(t,n,e,r,i){return Math.atan2(Et(t.y,n.y,e.y,r.y,i),Et(t.x,n.x,e.x,r.x,i))}function Ft(t,n,e){var r=arguments.length>3&&void 0!==arguments[3]&&arguments[3];if(Tt(n)){if(qt(e))return jt(n,e.start,e,t,r)}else if(Tt(e)){if(Bt(n))return jt(n,n.end,e,t,r)}else{if(Bt(n))return qt(e)?It(n,n.end,e.start,e,t,r):jt(n,n.end,e,t,r);if(qt(e))return jt(n,e.start,e,t,r)}return kt(n,e,t,r)}function Nt(t,n,e){var r=Ft(t,n,e,!0);return r.a=function(t){return arguments.length>1&&void 0!==arguments[1]&&arguments[1]?t+Math.PI:t}(r.a)/m,r}function Tt(t){return!t.type||"corner"===t.type}function qt(t){return null!=t.start&&!Tt(t)}function Bt(t){return null!=t.end&&!Tt(t)}var Lt=new N;var Ct={f:ft,i:q},Dt={f:ft,i:L};function zt(t,n,e){return t.map((function(t){return function(t,n,e){var r=t.v;if(!r||"g"!==r.t||r.s||!r.v||!r.r)return t;var i=e.getElementById(r.r),u=i&&i.querySelectorAll("stop")||[];return r.s=r.v.map((function(t,n){var e=u[n]&&u[n].getAttribute("offset");return{c:t,o:e=d(parseInt(e)/100)}})),delete r.v,t}(t,0,e)}))}var Vt={gt:"gradientTransform",c:{x:"cx",y:"cy"},rd:"r",f:{x:"x1",y:"y1"},to:{x:"x2",y:"y2"}};function Gt(t,n,r,i,u,o,a,l){return zt(t,0,l),n=function(t,n,e){for(var r,i,u,o=t.length-1,a={},l=0;l<=o;l++)(r=t[l]).e&&(r.e=n(r.e)),r.v&&"g"===(i=r.v).t&&i.r&&(u=e.getElementById(i.r))&&(a[i.r]={e:u,s:u.querySelectorAll("stop")});return a}(t,i,l),function(i){var u=r(i,t,Yt);if(!u)return"none";if("c"===u.t)return ht(u.v);if("g"===u.t){if(!n[u.r])return vt(u.r);var o=n[u.r];return function(t,n){for(var e=t.s,r=e.length;r<n.length;r++){var i=e[e.length-1].cloneNode();i.id=Qt(i.id),t.e.appendChild(i),e=t.s=t.e.querySelectorAll("stop")}for(var u=0,o=e.length,a=n.length-1;u<o;u++)e[u].setAttribute("stop-color",ht(n[Math.min(u,a)].c)),e[u].setAttribute("offset",n[Math.min(u,a)].o)}(o,u.s),Object.keys(Vt).forEach((function(t){if(void 0!==u[t])if("object"!==e(Vt[t])){var n,r="gt"===t?(n=u[t],Array.isArray(n)?"matrix("+n.join(" ")+")":""):u[t],i=Vt[t];o.e.setAttribute(i,r)}else Object.keys(Vt[t]).forEach((function(n){if(void 0!==u[t][n]){var e=u[t][n],r=Vt[t][n];o.e.setAttribute(r,e)}}))})),vt(u.r)}return"none"}}function Yt(t,e,r){if(0===t)return e;if(1===t)return r;if(e&&r){var i=e.t;if(i===r.t)switch(e.t){case"c":return{t:i,v:z(t,e.v,r.v)};case"g":if(e.r===r.r){var u={t:i,s:$t(t,e.s,r.s),r:e.r};return e.gt&&r.gt&&(u.gt=function(t,n,e){var r=n.length;if(r!==e.length)return T(t,n,e);for(var i=new Array(r),u=0;u<r;u++)i[u]=q(t,n[u],e[u]);return i}(t,e.gt,r.gt)),e.c?(u.c=C(t,e.c,r.c),u.rd=B(t,e.rd,r.rd)):e.f&&(u.f=C(t,e.f,r.f),u.to=C(t,e.to,r.to)),u}}if("c"===e.t&&"g"===r.t||"c"===r.t&&"g"===e.t){var o="c"===e.t?e:r,a="g"===e.t?n({},e):n({},r),l=a.s.map((function(t){return{c:o.v,o:t.o}}));return a.s="c"===e.t?$t(t,l,a.s):$t(t,a.s,l),a}}return T(t,e,r)}function $t(t,n,e){if(n.length===e.length)return n.map((function(n,r){return Ut(t,n,e[r])}));for(var r=Math.max(n.length,e.length),i=[],u=0;u<r;u++){var o=Ut(t,n[Math.min(u,n.length-1)],e[Math.min(u,e.length-1)]);i.push(o)}return i}function Ut(t,n,e){return{o:L(t,n.o,e.o||0),c:z(t,n.c,e.c||{})}}function Qt(t){return t.replace(/-fill-([0-9]+)$/,(function(t,n){return"-fill-"+(+n+1)}))}var Ht={fill:Gt,"fill-opacity":Dt,stroke:Gt,"stroke-opacity":Dt,"stroke-width":Ct,"stroke-dashoffset":{f:ft,i:q},"stroke-dasharray":{f:function(t){var n=arguments.length>1&&void 0!==arguments[1]?arguments[1]:" ";return t&&t.length>0&&(t=t.map((function(t){return d(t,4)}))),ct(t,n)},i:function(t,n,e){var r,i,u,o=n.length,a=e.length;if(o!==a)if(0===o)n=V(o=a,0);else if(0===a)a=o,e=V(o,0);else{var l=(u=(r=o)*(i=a)/function(t,n){for(var e;n;)e=n,n=t%n,t=e;return t||1}(r,i))<0?-u:u;n=G(n,Math.floor(l/o)),e=G(e,Math.floor(l/a)),o=a=l}for(var s=[],f=0;f<o;f++)s.push(d(B(t,n[f],e[f])));return s}},opacity:Dt,transform:function(t,n,r,i){if(!(t=function(t,n){if(!t||"object"!==e(t))return null;var r=!1;for(var i in t)t.hasOwnProperty(i)&&(t[i]&&t[i].length?(t[i].forEach((function(t){t.e&&(t.e=n(t.e))})),r=!0):delete t[i]);return r?t:null}(t,i)))return null;var u=function(e,i,u){var o=arguments.length>3&&void 0!==arguments[3]?arguments[3]:null;return t[e]?r(i,t[e],u):n&&n[e]?n[e]:o};return n&&n.a&&t.o?function(n){var e=r(n,t.o,Nt);return Lt.recomposeSelf(e,u("r",n,q,0)+e.a,u("k",n,C),u("s",n,C),u("t",n,C)).toString()}:function(t){return Lt.recomposeSelf(u("o",t,Ft,null),u("r",t,q,0),u("k",t,C),u("s",t,C),u("t",t,C)).toString()}},r:Ct,"#size":gt,"#radius":yt,_:function(t,n){if(Array.isArray(t))for(var e=0;e<t.length;e++)this[t[e]]=n;else this[t]=n}},Jt=function(t){!function(t,n){if("function"!=typeof n&&null!==n)throw new TypeError("Super expression must either be null or a function");t.prototype=Object.create(n&&n.prototype,{constructor:{value:t,writable:!0,configurable:!0}}),n&&l(t,n)}(o,t);var n,e,i=(n=o,e=s(),function(){var t,r=a(n);if(e){var i=a(this).constructor;t=Reflect.construct(r,arguments,i)}else t=r.apply(this,arguments);return c(this,t)});function o(){return r(this,o),i.apply(this,arguments)}return u(o,null,[{key:"build",value:function(t){var n=h(a(o),"build",this).call(this,t,Ht);if(!n)return null;n.el,n.options,function(t,n,e){t.play()}(n.player)}}]),o}(st);return Jt.init(),Jt}));
(function(s,i,o,w,a,b){w[o]=w[o]||{};w[o][s]=w[o][s]||[];w[o][s].push(i);})('5c7f360c',{"root":"ewvRIiB6nA01","version":"2022-05-04","animations":[{"elements":{"ewvRIiB6nA04":{"transform":{"data":{"o":{"x":136.632854,"y":341.04451,"type":"corner"},"t":{"x":-136.632854,"y":-341.04451}},"keys":{"r":[{"t":0,"v":0},{"t":3000,"v":180}]}}},"ewvRIiB6nA05":{"transform":{"data":{"o":{"x":54.295958,"y":272.141502,"type":"corner"},"t":{"x":-54.295958,"y":-272.141502}},"keys":{"r":[{"t":0,"v":0},{"t":3000,"v":180}]}}},"ewvRIiB6nA047":{"transform":{"data":{"t":{"x":-70.445168,"y":-64.031001}},"keys":{"o":[{"t":0,"v":{"x":70.445168,"y":64.031001,"type":"corner"}},{"t":1500,"v":{"x":70.445168,"y":84.031001,"type":"corner"}},{"t":3000,"v":{"x":70.445168,"y":64.03,"type":"corner"}}],"s":[{"t":0,"v":{"x":1,"y":1}},{"t":1500,"v":{"x":0.91,"y":0.91}},{"t":3000,"v":{"x":1,"y":1}}]}}},"ewvRIiB6nA057":{"opacity":[{"t":700,"v":1},{"t":1000,"v":0.14},{"t":1300,"v":1}]},"ewvRIiB6nA061":{"opacity":[{"t":500,"v":1},{"t":800,"v":0.14},{"t":1100,"v":1}]},"ewvRIiB6nA064":{"opacity":[{"t":200,"v":1},{"t":500,"v":0.14},{"t":800,"v":1}]},"ewvRIiB6nA068":{"opacity":[{"t":0,"v":1},{"t":300,"v":0.14},{"t":600,"v":1}]}},"s":"MSDA1ZGI3NWVhMGIxYWOU5ZFZiMGE1YWJhYTVXlRjc2NmY2YzZjNmM2EODVlYTBhNUxhZWExOKWZiMGE1YWJhYTVlNzCY2ZDY4NWVhNWIwYTFYhZTlkYjBGYTVhYmFhDYWY1ZTc2NmM2ODVlYVTJQYTVhOEFhODVlNzHY2ZDY4NWU5ZFBhOGIPwYTFhZWFhOWRiMEJhOMTVlNzZhMjlkYThhZTmExNjg1ZWFmYWNhMWMExYTA1ZTc2VzZkNjgA1ZVhhMmFjYWY1ZTc2HNmQ2YzZjYjlT"}],"options":"MRDAxMDg4MmY4MDgxNmFU3ZjgxMmY0NzJmNzlWVN2M2ZTcxMmZEOGE/Q"},'__SVGATOR_PLAYER__',window)
]]></script>
</svg>
