<svg id="euqWBC4gb7I1" xmlns="http://www.w3.org/2000/svg" xmlns:xlink="http://www.w3.org/1999/xlink" viewBox="0 0 559 375" shape-rendering="geometricPrecision" text-rendering="geometricPrecision">
<style><![CDATA[
#euqWBC4gb7I40_to {animation: euqWBC4gb7I40_to__to 2000ms linear infinite normal forwards}@keyframes euqWBC4gb7I40_to__to { 0% {transform: translate(165.063995px,141.226501px)} 10% {transform: translate(165.063995px,142.226501px)} 55% {transform: translate(165.063995px,142.226501px)} 65% {transform: translate(165.063995px,141.226501px)} 100% {transform: translate(165.063995px,141.226501px)}} #euqWBC4gb7I41_to {animation: euqWBC4gb7I41_to__to 2000ms linear infinite normal forwards}@keyframes euqWBC4gb7I41_to__to { 0% {transform: translate(143.772003px,141.371994px)} 10% {transform: translate(143.772003px,142.371994px)} 55% {transform: translate(143.772003px,142.371994px)} 65% {transform: translate(143.772003px,141.371994px)} 100% {transform: translate(143.772003px,141.371994px)}} #euqWBC4gb7I46_to {animation: euqWBC4gb7I46_to__to 2000ms linear infinite normal forwards}@keyframes euqWBC4gb7I46_to__to { 0% {transform: translate(162.963058px,130.568542px)} 10% {transform: translate(162.963058px,131.568542px)} 55% {transform: translate(162.963058px,131.568542px)} 65% {transform: translate(162.963058px,130.568542px)} 100% {transform: translate(162.963058px,130.568542px)}} #euqWBC4gb7I47_to {animation: euqWBC4gb7I47_to__to 2000ms linear infinite normal forwards}@keyframes euqWBC4gb7I47_to__to { 0% {transform: translate(139.525665px,130.762077px)} 10% {transform: translate(139.525665px,131.762077px)} 55% {transform: translate(139.525665px,131.762077px)} 65% {transform: translate(139.525665px,130.762077px)} 100% {transform: translate(139.525665px,130.762077px)}} #euqWBC4gb7I64_to {animation: euqWBC4gb7I64_to__to 2000ms linear infinite normal forwards}@keyframes euqWBC4gb7I64_to__to { 0% {transform: translate(462.2025px,176.410004px)} 15% {transform: translate(462.2025px,176.410004px)} 50% {transform: translate(462.2025px,178.410004px)} 100% {transform: translate(462.2025px,176.410004px)}} #euqWBC4gb7I70 {animation: euqWBC4gb7I70_c_o 2000ms linear infinite normal forwards}@keyframes euqWBC4gb7I70_c_o { 0% {opacity: 0.2} 15% {opacity: 1} 75% {opacity: 1} 90% {opacity: 0.2} 100% {opacity: 0.2}} #euqWBC4gb7I80_to {animation: euqWBC4gb7I80_to__to 2000ms linear infinite normal forwards}@keyframes euqWBC4gb7I80_to__to { 0% {transform: translate(300.287003px,116.321503px)} 45% {transform: translate(300.287003px,113.321503px)} 100% {transform: translate(300.287003px,116.321503px)}} #euqWBC4gb7I82_tr {animation: euqWBC4gb7I82_tr__tr 2000ms linear infinite normal forwards}@keyframes euqWBC4gb7I82_tr__tr { 0% {transform: translate(301.637131px,114.927158px) rotate(0deg)} 15% {transform: translate(301.637131px,114.927158px) rotate(-12.181808deg)} 25% {transform: translate(301.637131px,114.927158px) rotate(12.18deg)} 40% {transform: translate(301.637131px,114.927158px) rotate(0deg)} 100% {transform: translate(301.637131px,114.927158px) rotate(0deg)}} #euqWBC4gb7I86_to {animation: euqWBC4gb7I86_to__to 2000ms linear infinite normal forwards}@keyframes euqWBC4gb7I86_to__to { 0% {transform: translate(403.792511px,71.686799px)} 50% {transform: translate(403.792511px,76.686799px)} 100% {transform: translate(403.792511px,71.686799px)}}
]]></style>
<g clip-path="url(#euqWBC4gb7I113)"><g><path d="M440.605,0.77002h-111.168v144.69898h111.168v-144.69898Z" fill="#f4f4f4"/><path d="M440.605,145.469h3.607v-144.69898h-3.607v144.69898Z" fill="#f4f4f4"/><path d="M440.605,145.469h3.607v-144.69898h-3.607v144.69898Z" opacity="0.05" fill="#292a2e"/><path d="M420.355,27.1289h-70.667v91.9811h70.667v-91.9811Z" opacity="0.05" fill="#292a2e"/><path d="M420.354,27.1289h-3.683v91.9811h3.683v-91.9811Z" opacity="0.03" fill="#292a2e"/><path d="M531.523,181.053h-90.918v91.752h90.918v-91.752Z" fill="#f4f4f4"/><path d="M514.961,197.767h-57.794v58.324h57.794v-58.324Z" opacity="0.05" fill="#292a2e"/><path d="M531.523,272.805h3.606v-91.752h-3.606v91.752Z" fill="#f4f4f4"/><path d="M531.523,272.805h3.606v-91.752h-3.606v91.752Z" opacity="0.05" fill="#292a2e"/><path d="M514.96,197.767h-3.682v58.324h3.682v-58.324Z" opacity="0.03" fill="#292a2e"/><path d="M245.893,14.2036h-232.9804v232.9804h232.9804v-232.9804Z" fill="#f4f4f4"/><path d="M12.9134,14.2036h-2.6705v232.9804h2.6705v-232.9804Z" fill="#f4f4f4"/><path d="M12.9134,14.2036h-2.6705v232.9804h2.6705v-232.9804Z" opacity="0.05" fill="#292a2e"/><path d="M69.3533,174.746v-60.955h49.9317v35.413h77.344v62.705h32.872v35.275h-32.872-6.333-166.1756v-72.438h45.2329Z" opacity="0.05" fill="#292a2e"/><path d="M112.876,120.409h-36.3608v6.618h36.3608v-6.618Z" opacity="0.34" fill="#fffffa"/><path d="M112.876,134.124h-36.3608v6.618h36.3608v-6.618Z" opacity="0.34" fill="#fffffa"/><path d="M112.876,147.838h-36.3608v6.619h36.3608v-6.619Z" opacity="0.34" fill="#fffffa"/><path d="M37.2701,181.171h-6.702v6.618h6.702v-6.618Z" opacity="0.34" fill="#fffffa"/><path d="M37.2701,194.885h-6.702v6.618h6.702v-6.618Z" opacity="0.34" fill="#fffffa"/><path d="M37.2701,208.6h-6.702v6.618h6.702v-6.618Z" opacity="0.34" fill="#fffffa"/><path d="M49.6684,181.171h-6.702v6.618h6.702v-6.618Z" opacity="0.34" fill="#fffffa"/><path d="M49.6684,194.885h-6.702v6.618h6.702v-6.618Z" opacity="0.34" fill="#fffffa"/><path d="M49.6684,208.6h-6.702v6.618h6.702v-6.618Z" opacity="0.34" fill="#fffffa"/><path d="M61.7315,181.171h-6.702v6.618h6.702v-6.618Z" opacity="0.34" fill="#fffffa"/><path d="M61.7315,194.885h-6.702v6.618h6.702v-6.618Z" opacity="0.34" fill="#fffffa"/><path d="M61.7315,208.6h-6.702v6.618h6.702v-6.618Z" opacity="0.34" fill="#fffffa"/><path d="M12.9126,129.387h46.8798v-115.1834h3.8768v115.1834h126.6268v-115.1834h3.877v115.1834h51.721v3.877h-51.721v113.92h-3.877v-113.92h-126.6268v113.92h-3.8768v-113.92h-46.8798v-3.877Z" fill="#fff"/><path d="M255.175,246.903h-251.54319v7.748h251.54319v-7.748Z" fill="#f4f4f4"/><path d="M255.175,246.903h-251.54319v7.748h251.54319v-7.748Z" opacity="0.1" fill="#292a2e"/><path d="M3.63181,246.903h-3.63181v7.748h3.63181v-7.748Z" opacity="0.1" fill="#292a2e"/><path d="M3.63181,246.903h-3.63181v7.748h3.63181v-7.748Z" opacity="0.1" fill="#292a2e"/><path d="M170.017,129.413c0,0,10.092-8.739,11.489-27.382c1.081-14.4368-11.489-4.2885-11.489-4.2885s.677-10.4026-6.764-8.8768c-7.44,1.5258-10.925,12.6403-10.925,12.6403" fill="#0c0c0c"/><path d="M124.502,92.6758c0,0-37.0076,6.4935-20.148,56.1012h10.039" fill="#0c0c0c"/><path d="M166.182,200.35c-.165-.021-1.988,30.222-37.122,27.586-24.323-1.823-32.9961-27.629-33.5534-27.629c2.6225-.557,7.0384-1.367,8.2034-1.989c3.83-2.058,8.569-4.2,9.803-11.638.712-4.286-.495-26.217-.124-30.555l37.336,8.333c-.521,9.161-4.172,30.397,8.625,34.156c2.13.622,4.423,1.193,6.832,1.736Z" fill="#e98862"/><path d="M151.249,189.935c-.585-1.885-.961-3.828-1.123-5.795-.411-4.488-.329-9.007.244-13.478-7.589-1.024-14.738-4.156-20.636-9.04-.692,2.56-4.505,13.747-3.449,16.181c1.995,4.599,11.372,12.132,24.964,12.132Z" opacity="0.52" fill="#0c0c0c"/><path d="M144.622,182.627c-14.785-.333-32.997-8.44-34.587-28.372l-1.433-17.986c-1.59-19.932,7.593-36.9263,26.357-38.4234c18.768-1.4979,34.084,13.5384,35.673,33.4734l.636,7.963c.17,2.738.154,5.484-.049,8.219-.484,7.235-1.247,18.234-5.618,25.931-4.129,7.271-11.533,9.409-20.979,9.195Z" fill="#e98862"/><g id="euqWBC4gb7I40_to" transform="translate(165.063995,141.226501)"><path d="M165.064,143.545c1.281,0,2.319-1.038,2.319-2.319c0-1.28-1.038-2.318-2.319-2.318s-2.319,1.038-2.319,2.318c0,1.281,1.038,2.319,2.319,2.319Z" transform="translate(-165.063995,-141.226501)" fill="#0c0c0c"/></g><g id="euqWBC4gb7I41_to" transform="translate(143.772003,141.371994)"><path d="M143.772,143.691c1.28,0,2.319-1.038,2.319-2.319s-1.039-2.319-2.319-2.319c-1.281,0-2.319,1.038-2.319,2.319s1.038,2.319,2.319,2.319Z" transform="translate(-143.772003,-141.371994)" fill="#0c0c0c"/></g><path d="M111.684,160.234c-5.703.455-10.816-5.278-11.268-10.981-.4523-5.703,3.917-9.218,9.621-9.67l3.243,3.586l3.308,16.676-4.904.389Z" fill="#e98862"/><path d="M116.749,150.681c0,0,.036-28.358,8.478-30.674c5.624-1.543,19.99,5.617,32.631,2.316c5.531-1.444,10.942-.414,11.661,2.197.286,1.033,2.765-14.255-6.774-25.0963-7.593-8.6304-30.624-9.6705-40.823-5.9871-28.2406,10.1894-12.979,47.4664-12.979,47.4664l1.934,9.646l5.872.132Z" fill="#0c0c0c"/><g opacity="0.52"><path d="M153.596,157.522h.037c1.838-.143,4.906-.585,4.799-1.96-.089-1.14-4.154-13.199-4.621-14.57-.043-.113-.129-.206-.239-.258s-.235-.059-.351-.02c-.115.039-.21.121-.266.229s-.068.234-.034.35c1.806,5.341,4.513,13.567,4.574,14.341-.155.339-2.033.804-3.94.952-.123.006-.239.06-.322.151-.084.091-.128.211-.124.335.005.123.058.24.148.324.09.085.21.13.334.127l.005-.001Z" fill="#0c0c0c"/></g><g id="euqWBC4gb7I46_to" transform="translate(162.963058,130.568542)"><path d="M157.708,129.241c1.874-.657,3.891-.797,5.837-.405.958.186,1.882.516,2.742.977.851.452,1.641,1.009,2.353,1.659.117.101.189.244.203.398.013.155-.034.308-.131.428-.098.12-.238.198-.392.216-.153.019-.308-.023-.431-.116l-.038-.029c-.66-.539-1.385-.993-2.158-1.351-.761-.358-1.572-.598-2.405-.712-1.647-.24-3.327-.04-4.871.579l-.059.025c-.109.051-.228.08-.348.084-.12.005-.24-.015-.353-.058s-.215-.109-.302-.192c-.087-.084-.156-.184-.203-.295s-.071-.23-.071-.351c0-.12.025-.24.072-.351.048-.11.117-.21.204-.294.087-.083.19-.148.302-.191l.049-.021Z" transform="translate(-162.963058,-130.568542)" fill="#0c0c0c"/></g><g id="euqWBC4gb7I47_to" transform="translate(139.525665,130.762077)"><path d="M144.097,131.078c-1.544-.618-3.225-.818-4.871-.578-.833.115-1.644.355-2.406.712-.773.359-1.497.813-2.157,1.352l-.037.028c-.123.093-.277.134-.43.115s-.293-.096-.391-.216c-.097-.119-.144-.272-.132-.425.013-.154.085-.297.2-.399.712-.65,1.502-1.208,2.354-1.66.86-.461,1.784-.791,2.742-.977c1.946-.392,3.963-.252,5.836.405.219.084.396.25.494.463.097.213.108.456.028.677-.079.22-.241.401-.452.503s-.453.118-.676.043l-.043-.016-.059-.027Z" transform="translate(-139.525665,-130.762077)" fill="#0c0c0c"/></g><path d="M155.848,162.192c-5.348.617-10.749-.565-15.35-3.36-.159-.096-.343-.145-.529-.14-.187.004-.368.062-.523.165-.154.104-.277.249-.352.42-.075.17-.1.359-.072.543.513,3.152,2.364,8.903,9.048,9.322c4.316.27,7.266-3.179,8.728-5.445.101-.157.156-.34.157-.527s-.051-.371-.151-.529-.243-.285-.412-.364c-.17-.08-.359-.109-.544-.085Z" fill="#fff"/><path d="M153.604,109.871c4.166-1.166,6.152-7.082,4.436-13.2135-1.716-6.1319-6.485-10.1577-10.651-8.9917-4.166,1.1659-6.152,7.0819-4.436,13.2142c1.716,6.132,6.485,10.157,10.651,8.991Z" fill="#0c0c0c"/><path d="M128.362,220.394c-24.421-1.151-25.449-21.88-25.449-21.88s-12.1005.782-20.1442,1.87c-13.1691,1.782-21.8568,6.248-28.7701,13.162-6.432,6.431-10.3475,13.389-6.2035,57.815c3,32.168.8883,102.923.8883,102.923h147.3855c0,0,8.839-92.74,10.07-107.221c2.352-27.643,4.261-51.724-1.478-57.463-11.799-11.799-34.957-11.086-45.099-11.084-.165,0,2.058,23.445-31.2,21.878Z" fill="#65728c"/><path d="M343.461,373.33l-106.447.526c-5.107-.37-10.002-2.191-14.109-5.25-4.106-3.058-7.253-7.227-9.069-12.014L161.334,240.116c-2.528-6.661-2.306-14.053.617-20.55c2.922-6.497,8.306-11.568,14.967-14.095c13.872-5.265,27.567-1.725,32.831,12.144l48.234,103.891l87.634,1.422c0,0-1.497,50.449-2.156,50.402Z" transform="translate(-.945312-1.654516)" fill="#65728c"/><path d="M204.056,273.526c.006-.095.049-.184.12-.247.072-.063.165-.095.26-.089s.184.05.247.121.095.165.089.26l-2.997,47.871c-.005.086-.041.167-.102.229-.06.061-.141.099-.227.106-.017.001-.034.001-.051,0-.047-.003-.093-.015-.135-.036s-.08-.05-.111-.085c-.032-.035-.055-.077-.071-.121-.015-.045-.021-.092-.018-.139" fill="#0c0c0c"/><g transform="translate(.000001 0.000001)"><path d="M222.207,324.863l-21.587-7.567l3.099-.215c.999-.089,1.927-.554,2.596-1.301.67-.747,1.031-1.72,1.01-2.723-.028-.517-.162-1.023-.392-1.487-.231-.464-.554-.876-.949-1.212-.395-.335-.854-.586-1.35-.738-.495-.151-1.016-.201-1.531-.144l-38.19,4.059.991,12.272c.309,3.812,1.748,7.445,4.135,10.434c2.387,2.988,5.611,5.195,9.261,6.339l16.539,5.152c.854.284,1.78.265,2.621-.055.842-.32,1.547-.922,1.996-1.702.391-.713.543-1.532.435-2.337-.107-.806-.47-1.556-1.034-2.141.05-.037.09-.086.114-.144.02-.053.026-.111.019-.167-.008-.057-.029-.111-.061-.157l3.048.955c.951.32,1.988.266,2.9-.149.913-.416,1.634-1.162,2.017-2.089.314-.84.321-1.764.021-2.609s-.889-1.558-1.662-2.011c.035-.02.067-.045.093-.076l1.253.393c.854.284,1.781.265,2.622-.055.842-.32,1.547-.921,1.996-1.702.474-.865.595-1.88.337-2.832s-.875-1.768-1.721-2.275c.007-.025.011-.051.012-.077l8.989,3.151c.447.164.923.236,1.398.214.476-.022.942-.138,1.372-.341.431-.204.816-.491,1.135-.845.318-.354.563-.767.721-1.216.157-.45.224-.926.196-1.401s-.15-.94-.359-1.368c-.209-.427-.501-.809-.858-1.123-.358-.314-.775-.554-1.226-.706l-.006-.004Z" fill="#e98862"/><path d="M210.488,328.851c-.042,0-.084-.007-.123-.021l-8.696-3.162c-.046-.015-.088-.038-.125-.07-.037-.031-.067-.07-.088-.113-.022-.044-.034-.091-.037-.139s.004-.097.021-.142c.016-.046.042-.087.075-.123.033-.035.073-.063.117-.083.045-.019.092-.03.141-.03.048-.001.096.009.141.027l8.696,3.162c.079.029.145.085.187.158.041.072.056.158.042.24-.015.083-.058.158-.122.212s-.146.084-.229.084Z" opacity="0.2" fill="#0a0a0a"/><path d="M206.089,335.172c-.041,0-.081-.007-.119-.021l-6.854-2.435c-.087-.034-.157-.101-.195-.185-.039-.085-.043-.181-.012-.269.031-.087.095-.159.178-.201.083-.041.179-.048.268-.02l6.854,2.432c.079.028.146.083.189.156.042.073.058.159.044.242-.015.083-.058.158-.122.213-.065.054-.146.084-.231.084v.004Z" opacity="0.2" fill="#0a0a0a"/><path d="M199.638,341.587c-.044-.001-.087-.009-.128-.024l-3.21-1.224c-.086-.036-.155-.104-.192-.189-.036-.086-.038-.182-.005-.269.033-.088.099-.158.183-.198.084-.039.181-.044.269-.013l3.21,1.224c.079.03.144.086.185.159s.055.158.04.24c-.015.083-.059.157-.123.211-.064.053-.145.083-.229.083Z" opacity="0.2" fill="#0a0a0a"/><path d="M180.915,351.58L47.0767,373.765c-4.126.449-8.3001-.064-12.1945-1.499s-7.4034-3.753-10.2515-6.772c-2.8482-3.019-4.958-6.657-6.164-10.628-1.206-3.972-1.4753-8.168-.7869-12.261L46.2193,228.278c1.182-7.026,5.1065-13.294,10.9102-17.427c5.8037-4.132,13.0111-5.789,20.0368-4.607s13.2941,5.106,17.4262,10.91c4.1322,5.804,5.7895,13.011,4.6076,20.037L77.3125,316.872l97.2515-13.285l6.351,47.993Z" fill="#65728c"/><path d="M59.8662,319.373c-.09-.001-.1763-.035-.242-.097-.0656-.061-.1057-.145-.1123-.235-.0066-.089.0208-.178.0768-.249.0559-.07.1363-.117.2252-.131l16.682-2.498c.0465-.007.0942-.005.1401.006s.0891.031.1271.059.0699.063.094.104c.0241.04.0399.085.0463.132.014.094-.0099.19-.0665.266-.0565.076-.1411.127-.235.141l-16.682,2.498c-.0178.003-.0357.004-.0537.004Z" fill="#0c0c0c"/><path d="M50.8024,374.284c-.095.006-.1885-.026-.26-.089s-.115-.152-.1211-.247.0258-.188.0887-.26c.0629-.071.1516-.115.2465-.121L180.165,351.308l-6.273-47.278-96.5795,12.842c-.0555.007-.1119.001-.1647-.017s-.1006-.049-.1398-.089c-.0391-.04-.0681-.089-.0848-.143-.0167-.053-.0205-.11-.0112-.165l10.4506-45.087c.0072-.047.0237-.092.0485-.132.0247-.04.0573-.075.0957-.102.0385-.028.0821-.047.1282-.058.0461-.01.0938-.011.1402-.003.0465.008.0909.025.1308.05s.0745.058.1018.096c.0273.039.0467.082.0572.128s.0118.093.0039.14L77.6986,316.1l96.4624-12.829c.047-.007.095-.003.141.009.047.013.09.034.127.064.038.029.069.066.092.108s.038.088.043.135l6.351,47.995c.01.093-.016.186-.074.26-.058.073-.142.121-.235.134L50.8489,374.281c-.0154.002-.0309.003-.0465.003Z" fill="#0c0c0c"/></g><path d="M283.784,361.19l35.045-107.729c.616-1.893,1.815-3.543,3.426-4.713s3.551-1.8,5.542-1.8h142.778c1.488,0,2.955.353,4.281,1.028c1.326.676,2.474,1.656,3.348,2.861.875,1.204,1.452,2.598,1.684,4.068.233,1.47.114,2.975-.347,4.39L444.496,367.024c-.616,1.892-1.815,3.542-3.425,4.712-1.61,1.169-3.55,1.8-5.54,1.8h-142.78c-1.489,0-2.956-.352-4.282-1.028s-2.473-1.656-3.348-2.86-1.452-2.598-1.684-4.069c-.233-1.47-.114-2.974.347-4.389Z" fill="#292a2e"/><path d="M312.372,364.801h-95.575c-2.382,0-4.312,1.93-4.312,4.312v.11c0,2.382,1.93,4.313,4.312,4.313h95.575c2.381,0,4.312-1.931,4.312-4.313v-.11c0-2.382-1.931-4.312-4.312-4.312Z" fill="#292a2e"/><path d="M381.663,330.473c8.27,0,14.975-6.705,14.975-14.975c0-8.271-6.705-14.975-14.975-14.975-8.271,0-14.975,6.704-14.975,14.975c0,8.27,6.704,14.975,14.975,14.975Z" fill="#fff"/><g id="euqWBC4gb7I64_to" transform="translate(462.2025,176.410004)"><g transform="translate(-462.202499,-176.410003)"><path d="M544.541,206.984h-157.641l-20.209,15.139v-78.253c0-3.494,1.388-6.844,3.858-9.315c2.471-2.47,5.821-3.858,9.315-3.858h164.677c3.494,0,6.844,1.388,9.315,3.858c2.47,2.471,3.858,5.821,3.858,9.315v49.942c0,3.493-1.388,6.844-3.859,9.314-2.47,2.47-5.82,3.858-9.314,3.858Z" fill="#fff"/><path d="M544.041,167.967h-103.241c-.135,0-.263-.054-.358-.149s-.149-.224-.149-.358.054-.263.149-.358.223-.148.358-.148h103.241c.134,0,.263.053.358.148s.148.224.148.358-.053.263-.148.358-.224.149-.358.149Z" fill="#367cff"/><path d="M544.041,180.627h-103.241c-.067,0-.133-.013-.194-.038-.062-.026-.117-.063-.164-.11s-.085-.103-.11-.164c-.026-.062-.039-.128-.039-.194c0-.067.013-.133.039-.194.025-.062.063-.117.11-.164s.102-.085.164-.11c.061-.026.127-.039.194-.039h103.241c.066,0,.132.013.193.039.062.025.118.063.165.11s.084.102.109.164c.026.061.039.127.039.194c0,.066-.013.132-.039.194-.025.061-.062.117-.109.164s-.103.084-.165.11c-.061.025-.127.038-.193.038Z" fill="#367cff"/><path d="M496.945,193.287h-56.145c-.135,0-.263-.054-.358-.149-.095-.094-.149-.223-.149-.358c0-.134.054-.263.149-.358s.223-.148.358-.148h56.145c.067,0,.133.013.194.038.061.026.117.063.164.11s.085.103.11.165c.026.061.039.127.039.193c0,.067-.013.133-.039.194-.025.062-.063.117-.11.164-.047.048-.103.085-.164.11-.061.026-.127.039-.194.039Z" fill="#367cff"/><path d="M403.79,196.472c14.039,0,25.419-11.38,25.419-25.419s-11.38-25.42-25.419-25.42-25.42,11.381-25.42,25.42s11.381,25.419,25.42,25.419Z" fill="#292a2e"/><g id="euqWBC4gb7I70" opacity="0.2"><path d="M448.095,143.52l2.071,5.355l5.732.313-4.454,3.624l1.474,5.549-4.823-3.117-4.822,3.117l1.474-5.549-4.454-3.624l5.733-.313l2.069-5.355Z" fill="#367cff"/><path d="M468.59,143.52l2.07,5.355l5.733.313-4.454,3.624l1.473,5.549-4.822-3.117-4.823,3.117l1.474-5.549-4.454-3.624l5.733-.313l2.07-5.355Z" fill="#367cff"/><path d="M489.084,143.52l2.07,5.355l5.733.313-4.454,3.624l1.473,5.549-4.822-3.117-4.822,3.117l1.473-5.549-4.453-3.624l5.733-.313l2.069-5.355Z" fill="#367cff"/><path d="M509.578,143.52l2.071,5.355l5.732.313-4.453,3.624l1.473,5.549-4.823-3.117-4.822,3.117l1.474-5.549-4.454-3.624l5.733-.313l2.069-5.355Z" fill="#367cff"/><path d="M530.073,143.52l2.07,5.355l5.733.313-4.454,3.624l1.473,5.549-4.822-3.117-4.823,3.117l1.474-5.549-4.454-3.624l5.733-.313l2.07-5.355Z" fill="#367cff"/></g><path d="M403.79,172.204c5.871,0,10.631-4.76,10.631-10.632s-4.76-10.632-10.631-10.632c-5.872,0-10.632,4.76-10.632,10.632s4.76,10.632,10.632,10.632Z" fill="#fff"/><path d="M423.961,186.528c-2.375,3.092-5.429,5.597-8.926,7.321-3.497,1.723-7.344,2.62-11.243,2.62-3.898,0-7.745-.897-11.242-2.62-3.497-1.724-6.551-4.229-8.926-7.321c2.507-2.887,5.606-5.203,9.085-6.79c3.48-1.586,7.259-2.407,11.083-2.407c3.825,0,7.604.821,11.084,2.407c3.479,1.587,6.577,3.903,9.085,6.79Z" fill="#fff"/><path d="M366.691,222.481c-.055,0-.11-.013-.16-.038-.06-.03-.11-.076-.144-.132-.035-.057-.054-.122-.054-.188v-78.253c.004-3.588,1.431-7.027,3.968-9.563c2.536-2.537,5.976-3.964,9.563-3.968h164.677c3.588.004,7.027,1.431,9.563,3.968c2.537,2.536,3.964,5.975,3.968,9.563v49.941c-.004,3.587-1.431,7.027-3.968,9.563-2.536,2.537-5.975,3.964-9.563,3.968h-157.522l-20.113,15.067c-.062.047-.137.072-.215.072Zm13.173-91.426c-3.397.004-6.655,1.355-9.057,3.758-2.402,2.402-3.754,5.659-3.758,9.057v77.537l19.64-14.71c.062-.046.138-.071.215-.071h157.637c3.398-.004,6.655-1.356,9.057-3.758c2.403-2.402,3.754-5.66,3.758-9.057v-49.941c-.004-3.398-1.355-6.655-3.758-9.057-2.402-2.403-5.659-3.754-9.057-3.758h-164.677Z" fill="#292a2e"/><path d="M403.79,196.83c-5.099.001-10.083-1.511-14.322-4.344-4.239-2.832-7.544-6.858-9.495-11.568-1.951-4.711-2.462-9.894-1.467-14.894.995-5.001,3.45-9.594,7.055-13.199s8.198-6.06,13.198-7.055c5.001-.995,10.184-.484,14.894,1.467c4.711,1.951,8.737,5.255,11.569,9.494c2.833,4.239,4.345,9.223,4.345,14.321-.008,6.835-2.726,13.387-7.559,18.22-4.832,4.832-11.384,7.551-18.218,7.558Zm0-50.839c-4.957,0-9.803,1.469-13.924,4.223-4.122,2.754-7.334,6.668-9.231,11.247-1.897,4.58-2.393,9.619-1.426,14.48.967,4.862,3.353,9.327,6.858,12.832s7.971,5.892,12.832,6.859c4.862.968,9.901.471,14.48-1.426c4.58-1.896,8.494-5.109,11.248-9.23s4.223-8.967,4.223-13.924c-.007-6.644-2.65-13.014-7.348-17.712-4.698-4.699-11.068-7.342-17.712-7.349Z" fill="#292a2e"/></g></g><g id="euqWBC4gb7I80_to" transform="translate(300.287003,116.321503)"><g transform="translate(-300.287002,-116.321502)"><path d="M328.747,88.25h-56.92c-4,0-7.243,3.2427-7.243,7.2429v41.6581c0,4,3.243,7.242,7.243,7.242h56.92c4,0,7.243-3.242,7.243-7.242v-41.6581c0-4.0002-3.243-7.2429-7.243-7.2429Z" fill="#292a2e"/><g id="euqWBC4gb7I82_tr" transform="translate(301.637131,114.927158) rotate(0)"><g transform="translate(-301.637131,-114.927158)"><path d="M318.271,120.426h-.257c.8.17,1.518.611,2.03,1.248.513.638.79,1.433.784,2.251-.02.949-.413,1.851-1.095,2.512-.681.66-1.595,1.025-2.544,1.016h-.595c.731.25,1.36.731,1.793,1.371.432.64.645,1.404.604,2.175-.062.92-.473,1.781-1.15,2.407-.676.626-1.567.969-2.489.96h-1.096l-21.92-.02.031-28.031c2.149-3.308,5.929-8.8978,5.929-8.8978.585-.928,1.514-1.5857,2.584-1.8284c1.069-.2426,2.192-.0505,3.12.5343s1.585,1.5142,1.828,2.5839.05,2.192-.534,3.12l-2.804,4.451l3.306.005h2.35l10.86.012c.929-.007,1.826.345,2.503.983.676.638,1.08,1.512,1.128,2.441.017.476-.062.951-.232,1.396s-.428.852-.758,1.195-.727.617-1.165.804-.91.284-1.386.285c.8.17,1.517.611,2.03,1.249.513.637.791,1.432.786,2.25-.021.949-.415,1.851-1.096,2.511-.681.661-1.596,1.026-2.545,1.017Z" fill="#fff"/><path d="M292.365,106.18v.132l-.021,28.032v.024l-11.709-.019.022-28.189l11.708.02Z" fill="#367cff"/><path d="M286.5,113.563c1.336,0,2.419-1.083,2.419-2.419s-1.083-2.419-2.419-2.419-2.419,1.083-2.419,2.419s1.083,2.419,2.419,2.419Z" opacity="0.65" fill="#fff"/></g></g></g></g><g id="euqWBC4gb7I86_to" transform="translate(403.792511,71.686799)"><g transform="translate(-403.792511,-71.686798)"><path d="M403.792,101.671c16.56,0,29.985-13.4242,29.985-29.9841c0-16.5598-13.425-29.9843-29.985-29.9843-16.559,0-29.984,13.4245-29.984,29.9843c0,16.5599,13.425,29.9841,29.984,29.9841Z" fill="#367cff"/><path d="M419.132,71.6353c.014,2.0232-.373,4.0293-1.138,5.9025-.764,1.8733-1.892,3.5768-3.318,5.0124s-3.121,2.5749-4.989,3.3524-3.872,1.1778-5.895,1.1778-4.027-.4003-5.895-1.1778-3.563-1.9168-4.989-3.3524-2.554-3.1391-3.318-5.0124c-.765-1.8732-1.152-3.8793-1.138-5.9025h30.68Z" fill="#fff"/><path d="M392.964,62.266c1.443,0,2.613-1.1697,2.613-2.6125s-1.17-2.6125-2.613-2.6125-2.612,1.1697-2.612,2.6125s1.169,2.6125,2.612,2.6125Z" fill="#0c0c0c"/><path d="M414.62,62.266c1.443,0,2.612-1.1697,2.612-2.6125s-1.169-2.6125-2.612-2.6125-2.613,1.1697-2.613,2.6125s1.17,2.6125,2.613,2.6125Z" fill="#0c0c0c"/></g></g><path d="M462.992,362.715c-.102,0-.201-.028-.287-.082s-.155-.13-.2-.222l-14.261-29.249c-.06-.129-.068-.276-.021-.41.048-.134.146-.244.274-.307.127-.062.275-.071.409-.026.135.045.246.142.311.269l14.26,29.249c.031.064.05.133.054.204s-.005.142-.028.21c-.024.067-.06.129-.107.182s-.104.097-.168.128c-.074.036-.154.054-.236.054Z" fill="#292a2e"/><path d="M487.098,361.014c-.12,0-.236-.039-.33-.112-.095-.073-.162-.175-.193-.291l-16.502-62.999c-.02-.07-.027-.143-.019-.215s.031-.142.066-.205c.036-.063.084-.119.141-.163.058-.044.124-.077.194-.095s.143-.022.215-.012c.072.011.141.036.203.073.062.038.115.088.158.147.042.058.072.125.088.196l16.502,63.002c.022.08.024.164.008.245-.017.081-.052.157-.102.223-.051.065-.116.118-.19.155-.075.036-.156.055-.239.054v-.003Z" fill="#292a2e"/><path d="M518.577,363.808c-.072,0-.144-.014-.211-.043-.065-.027-.124-.068-.174-.118-.05-.051-.089-.111-.116-.177-.026-.066-.04-.136-.039-.207s.015-.141.043-.207l17.059-40.175c.059-.127.165-.226.296-.276s.276-.048.405.007.232.158.287.287.057.274.007.405l-17.059,40.175c-.042.098-.111.181-.199.239-.089.059-.193.09-.299.09Z" fill="#292a2e"/><path d="M487.71,373.115c-.044,0-.089-.005-.132-.017-.069-.017-.133-.047-.19-.09-.057-.042-.106-.095-.142-.156-.037-.061-.061-.128-.071-.198-.011-.071-.007-.142.01-.211l19.822-79.298c.035-.139.123-.259.246-.333.123-.073.271-.095.41-.06.139.034.259.123.332.246.074.123.096.271.061.41l-19.822,79.298c-.03.117-.097.22-.192.294s-.211.115-.332.115Z" fill="#292a2e"/><path d="M522.054,321.496c9.708-4.617,13.217-17.526,7.839-28.832-5.378-11.305-17.607-16.727-27.314-12.11-9.707,4.618-13.217,17.526-7.839,28.832s17.607,16.728,27.314,12.11Z" fill="#0cbc8b"/><path d="M522.054,321.496c9.708-4.617,13.217-17.526,7.839-28.832-5.378-11.305-17.607-16.727-27.314-12.11-9.707,4.618-13.217,17.526-7.839,28.832s17.607,16.728,27.314,12.11Z" opacity="0.4" fill="#fff"/><path d="M543.749,343.844c5.837-2.351,8.295-9.903,5.489-16.868-2.805-6.965-9.811-10.706-15.647-8.355-5.837,2.35-8.295,9.902-5.489,16.868c2.805,6.965,9.811,10.705,15.647,8.355Z" fill="#0cbc8b"/><path d="M480.766,311.949c3.224-10.642-1.19-21.399-9.861-24.026-8.67-2.627-18.313,3.869-21.538,14.511-3.225,10.641,1.19,21.398,9.861,24.026c8.67,2.627,18.313-3.87,21.538-14.511Z" fill="#0cbc8b"/><path d="M455.242,338.337c1.141-6.812-1.858-12.991-6.698-13.801-4.84-.811-9.688,4.054-10.829,10.866s1.858,12.991,6.698,13.802c4.84.81,9.688-4.055,10.829-10.867Z" fill="#0cbc8b"/><path d="M534.487,352.875h-84.2v20.983h84.2v-20.983Z" fill="#292a2e"/><path d="M534.487,352.875h-84.2v20.983h84.2v-20.983Z" opacity="0.3" fill="#fff"/><path d="M514.082,357.699c7.156-2.884,10.18-12.113,6.754-20.614-3.426-8.5-12.004-13.053-19.16-10.169-7.157,2.884-10.181,12.113-6.755,20.613c3.426,8.501,12.005,13.054,19.161,10.17Z" fill="#0cbc8b"/><path d="M475.891,355.666c7.124,0,12.899-5.776,12.899-12.9s-5.775-12.9-12.899-12.9c-7.125,0-12.9,5.776-12.9,12.9s5.775,12.9,12.9,12.9Z" fill="#0cbc8b"/><path d="M543.749,343.844c5.837-2.351,8.295-9.903,5.489-16.868-2.805-6.965-9.811-10.706-15.647-8.355-5.837,2.35-8.295,9.902-5.489,16.868c2.805,6.965,9.811,10.705,15.647,8.355Z" opacity="0.68" fill="#fff"/><path d="M480.766,311.949c3.224-10.642-1.19-21.399-9.861-24.026-8.67-2.627-18.313,3.869-21.538,14.511-3.225,10.641,1.19,21.398,9.861,24.026c8.67,2.627,18.313-3.87,21.538-14.511Z" opacity="0.68" fill="#fff"/><path d="M455.242,338.337c1.141-6.812-1.858-12.991-6.698-13.801-4.84-.811-9.688,4.054-10.829,10.866s1.858,12.991,6.698,13.802c4.84.81,9.688-4.055,10.829-10.867Z" opacity="0.68" fill="#fff"/><path d="M514.082,357.699c7.156-2.884,10.18-12.113,6.754-20.614-3.426-8.5-12.004-13.053-19.16-10.169-7.157,2.884-10.181,12.113-6.755,20.613c3.426,8.501,12.005,13.054,19.161,10.17Z" opacity="0.68" fill="#fff"/><path d="M475.891,355.666c7.124,0,12.899-5.776,12.899-12.9s-5.775-12.9-12.899-12.9c-7.125,0-12.9,5.776-12.9,12.9s5.775,12.9,12.9,12.9Z" opacity="0.4" fill="#fff"/><path d="M517.325,331.906c-9.791,2.735-14.944-5.266-14.944-5.266l.006-.011c5.223-1.557,11.013.633,14.938,5.277Z" fill="#292a2e"/><path d="M455.479,335.182c-4.819-1.845-8.813-5.364-11.25-9.913c1.32-.705,2.835-.961,4.314-.729c4.077.678,6.845,5.171,6.936,10.642Z" fill="#292a2e"/><path d="M478.193,330.073c-3.755,3.383-8.447,5.548-13.457,6.212c1.334-2.291,3.341-4.117,5.749-5.228c2.407-1.112,5.099-1.455,7.708-.984Z" fill="#292a2e"/><path d="M549.869,375h-548.80382c-.189983,0-.372186-.075-.506524-.21-.134339-.134-.20981-.316-.20981-.506s.075471-.372.20981-.507c.134338-.134.316541-.21.506524-.21h548.80382c.19,0,.373.076.507.21.134.135.21.317.21.507s-.076.372-.21.506c-.134.135-.317.21-.507.21Z" fill="#292a2e"/></g><clipPath id="euqWBC4gb7I113"><rect width="558.072" height="374.23" rx="0" ry="0" transform="translate(0 0.77002)" fill="#fff"/></clipPath></g></svg>
