<svg width="68" height="68" viewBox="0 0 68 68" fill="none" xmlns="http://www.w3.org/2000/svg">
<g clip-path="url(#clip0_145_410)">
<path fill-rule="evenodd" clip-rule="evenodd" d="M22.0415 40.3256C21.039 40.9526 19.5285 41.9682 18.36 43.073C16.4416 44.8846 16.0401 47.3977 17.0521 47.9847C17.9883 48.5274 20.1738 47.8817 21.738 46.1757C23.3795 44.3845 24.0565 42.1138 23.3573 39.5361C23.2752 39.585 23.1945 39.6342 23.1154 39.6799L23.1171 39.6833L23.0111 39.7435C22.6029 39.9871 22.2694 40.188 22.0415 40.3256V40.3256V40.3256ZM50.214 39.5124C49.6461 40.7464 49.6177 41.1436 49.7902 41.2671C50.6142 40.9711 51.9774 40.2577 51.9882 38.346C51.9899 38.0597 51.9267 37.7524 51.8254 37.4314C50.9445 38.2114 50.4367 39.0281 50.214 39.5124V39.5124V39.5124ZM59.0557 35.7808C56.8545 35.5242 55.1368 35.8329 53.8037 36.3883C54.0506 37.0308 54.2403 37.7 54.2671 38.3742C54.3289 39.8538 53.3105 40.9489 52.2491 41.7306C51.6292 42.1864 50.9697 42.4902 50.416 42.6737C49.9734 42.8604 49.3851 43.0533 48.9674 42.9682C48.0468 42.781 47.5568 41.9633 48.1831 40.1594C48.5214 39.1831 49.4972 37.697 51.0723 36.417C50.7134 35.6779 50.3132 34.9248 50.1092 34.233C49.7074 32.8691 49.586 32.0446 49.586 32.0446C49.586 32.0446 48.2877 34.7364 46.6127 37.1843C46.5161 37.3266 46.4197 37.4661 46.3231 37.6052C46.6521 38.3697 46.9113 39.1782 46.9464 39.9933C47.0081 41.4728 46.3675 42.5915 45.3046 43.3716C44.7292 43.7959 44.1154 44.0889 43.5887 44.2753C43.2519 44.4224 42.567 44.6643 41.5929 44.7294C41.0601 44.7658 40.5477 44.7328 40.2616 44.516C39.8677 44.2184 39.8202 43.8513 40.0242 43.3496C40.1967 42.9238 41.487 41.4508 42.5689 40.1611C42.8677 39.8049 43.1523 39.441 43.4069 39.104L43.4007 39.0896C43.4007 39.0898 43.5967 38.8367 43.9147 38.3951C43.5193 37.5437 43.018 36.6574 42.7823 35.8536C42.3805 34.4898 42.2589 33.6651 42.2589 33.6651C42.2589 33.6651 40.9429 37.039 39.5719 39.7323C38.5109 41.8182 37.8022 43.0822 37.4829 43.6361L37.4797 43.6583C37.4797 43.6583 37.432 43.7391 37.3499 43.8657L37.2885 43.9683L37.2867 43.9588C36.9308 44.4845 36.1322 45.5144 35.3384 45.5144C33.1591 45.5144 33.9592 41.0884 33.9592 41.0884C33.9592 41.0884 33.3221 42.7278 32.6039 44.1346C32.019 45.2818 31.486 46.2537 30.3205 46.2537C29.9853 46.2537 29.4538 46.244 29.0125 45.8244C28.0115 44.8734 27.2461 42.4585 27.3961 40.5882C27.5242 38.9979 27.7693 37.8964 28.1046 36.9773C27.5067 37.3031 26.8158 37.6895 26.112 38.1025L25.0302 38.7401L25.0651 38.8035C25.96 40.5347 26.1989 44.3277 24.2473 47.2394C22.2959 50.1526 18.6633 51.925 15.124 50.9408C13.982 50.6226 12.2568 48.26 13.7449 44.967C15.0574 42.0631 20.3032 39.3177 21.6856 38.6325L22.065 38.4236C19.3088 36.0119 12.426 32.7585 11.4615 27.7611C11.1894 26.3544 11.8489 22.9901 15.9795 19.1227C19.4539 15.8709 24.287 13.3801 28.7516 11.7928C36.2523 9.12651 44.1773 10.6993 45.3965 15.4815C46.5952 20.1846 42.5152 25.8102 37.29 27.8325C32.6246 29.6379 28.7674 29.3516 27.1827 28.8311C25.3814 28.2393 24.3249 27.0507 24.0673 26.3798C23.966 26.1172 23.7918 25.6759 24.0673 25.5239C24.2363 25.4305 24.3042 25.4527 24.7566 25.9527C25.1869 26.4274 26.9169 27.7014 30.2032 27.3325C38.8272 26.3658 44.022 19.6609 42.3805 16.0528C41.2309 13.5273 34.584 12.3879 26.2796 16.5291C16.1423 21.5834 15.5921 25.75 15.5052 27.3325C15.2679 31.6857 20.8741 33.9755 23.9075 37.213L24.0244 37.3413C24.5921 37.028 25.1916 36.6973 25.7798 36.3745C27.3093 35.5341 28.7516 34.7459 29.4236 34.3787C30.4913 32.8268 32.6576 31.1143 34.2218 31.1143C36.7221 31.1143 35.8634 34.7082 35.8634 34.7082C35.8634 34.7082 35.914 34.5437 35.9819 34.5421C36.0531 34.5402 36.3284 34.0687 37.1002 34.3503C37.8941 34.6415 37.7136 35.1986 37.7186 35.2556C37.7281 35.3662 36.7807 38.5611 36.387 40.6104C36.1986 41.5883 36.3077 42.3007 36.3633 42.3007C36.4407 42.3007 36.599 42.0521 36.746 41.7847L36.7428 41.7768C36.7428 41.7768 36.8534 41.5743 37.0386 41.2104L37.075 41.1343L37.0765 41.1377C37.2949 40.7104 37.6015 40.0822 37.9557 39.3036C38.65 37.7735 41.2988 31.8661 41.5235 31.2127C41.7479 30.5592 41.865 29.8835 41.9758 29.5937C42.0849 29.3042 43.0212 29.0858 44.1154 29.0937C45.2098 29.1017 45.3208 29.5685 45.3283 29.6651C45.3363 29.7615 44.8081 31.0576 44.6863 31.9737C44.5662 32.89 44.6818 33.3471 44.7814 34.1163C44.8463 34.6193 45.1608 35.2573 45.5327 35.9804C46.6651 34.1288 48.6574 30.5874 48.8489 29.5952C48.9799 28.9165 49.1904 28.2661 49.3012 27.9763C49.4118 27.6868 50.3466 27.4686 51.4408 27.4763C52.5352 27.4843 52.6458 27.9511 52.6537 28.0477C52.6617 28.1443 52.1318 29.4402 52.0117 30.3565C51.8914 31.2711 52.0072 31.7301 52.1066 32.4991C52.1921 33.1574 52.7012 34.042 53.2059 35.0482C54.5831 34.3692 56.2042 33.9137 58.1021 33.9042C58.888 33.8997 59.8006 33.9786 60.2719 34.1256V18.9865C60.2719 17.9184 59.7245 16.9342 58.7996 16.401L34.1034 2.12709C33.18 1.5937 32.0492 1.5937 31.1256 2.12709L6.49751 16.3941C5.57389 16.9275 5.08038 17.9134 5.08038 18.9798V47.5399C5.08038 48.6063 5.57691 49.5922 6.49902 50.1254L31.1667 64.4036C32.0902 64.9388 33.21 64.9388 34.1334 64.4036L58.8123 50.1254C59.7357 49.5905 60.2737 48.6061 60.2737 47.5399V35.9977C59.9604 35.9054 59.5018 35.8327 59.0557 35.7808V35.7808V35.7808ZM32.4871 34.2854C31.9573 34.8787 31.0544 36.4088 30.632 37.6895C29.7923 40.2323 30.156 42.8164 30.7506 42.9716C31.4449 43.1534 32.5836 39.7545 33.1289 38.4251C33.4706 37.5927 34.7991 33.898 34.5081 33.4042C34.2808 33.0181 33.3395 33.3299 32.4871 34.2854V34.2854V34.2854ZM42.0948 42.8559C42.0948 42.8559 41.9273 43.0143 41.9997 43.0585C42.0978 43.1172 42.3097 43.0411 42.5406 42.9208C43.1939 42.5096 44.6598 41.484 44.663 39.9664C44.663 39.9222 44.6613 39.8795 44.6583 39.8336C44.3183 40.2799 44.005 40.677 43.7346 41.014C43.2728 41.5884 42.0948 42.8559 42.0948 42.8559V42.8559V42.8559Z" fill="#384359"/>
</g>
<defs>
<clipPath id="clip0_145_410">
<rect width="55.2109" height="63.1704" fill="white" transform="translate(5.08038 1.72705)"/>
</clipPath>
</defs>
</svg>
