<svg id="eZAD9oT5O8R1" xmlns="http://www.w3.org/2000/svg" xmlns:xlink="http://www.w3.org/1999/xlink" viewBox="0 0 600 401" shape-rendering="geometricPrecision" text-rendering="geometricPrecision">
<style><![CDATA[
#eZAD9oT5O8R10_to {animation: eZAD9oT5O8R10_to__to 2000ms linear infinite normal forwards}@keyframes eZAD9oT5O8R10_to__to { 0% {transform: translate(65.789554px,268.264077px)} 45% {transform: translate(65.789554px,263.264077px)} 100% {transform: translate(65.789554px,268.264077px)}} #eZAD9oT5O8R21_to {animation: eZAD9oT5O8R21_to__to 2000ms linear infinite normal forwards}@keyframes eZAD9oT5O8R21_to__to { 0% {transform: translate(47.266454px,80.465014px)} 50% {transform: translate(47.266454px,83.465014px)} 100% {transform: translate(47.266454px,80.465014px)}} #eZAD9oT5O8R21_tr {animation: eZAD9oT5O8R21_tr__tr 2000ms linear infinite normal forwards}@keyframes eZAD9oT5O8R21_tr__tr { 0% {transform: rotate(0deg)} 50% {transform: rotate(3.450817deg)} 100% {transform: rotate(0deg)}} #eZAD9oT5O8R32_ts {animation: eZAD9oT5O8R32_ts__ts 2000ms linear infinite normal forwards}@keyframes eZAD9oT5O8R32_ts__ts { 0% {transform: translate(559.016022px,109.647652px) scale(1,1)} 40% {transform: translate(559.016022px,109.647652px) scale(1,1)} 55% {transform: translate(559.016022px,109.647652px) scale(0.95,0.95)} 70% {transform: translate(559.016022px,109.647652px) scale(1,1)} 100% {transform: translate(559.016022px,109.647652px) scale(1,1)}} #eZAD9oT5O8R34_ts {animation: eZAD9oT5O8R34_ts__ts 2000ms linear infinite normal forwards}@keyframes eZAD9oT5O8R34_ts__ts { 0% {transform: translate(559.015991px,109.647949px) scale(1,1)} 30% {transform: translate(559.015991px,109.647949px) scale(1,1)} 40% {transform: translate(559.015991px,109.647949px) scale(0.8,0.8)} 50% {transform: translate(559.015991px,109.647949px) scale(1,1)} 100% {transform: translate(559.015991px,109.647949px) scale(1,1)}} #eZAD9oT5O8R36_tr {animation: eZAD9oT5O8R36_tr__tr 2000ms linear infinite normal forwards}@keyframes eZAD9oT5O8R36_tr__tr { 0% {transform: translate(521.023514px,312.295495px) rotate(0deg)} 100% {transform: translate(521.023514px,312.295495px) rotate(360deg)}} #eZAD9oT5O8R57_tr {animation: eZAD9oT5O8R57_tr__tr 2000ms linear infinite normal forwards}@keyframes eZAD9oT5O8R57_tr__tr { 0% {transform: translate(489.999512px,167.001599px) rotate(0deg)} 20% {transform: translate(489.999512px,167.001599px) rotate(0deg)} 30% {transform: translate(489.999512px,167.001599px) rotate(-10.545253deg)} 40% {transform: translate(489.999512px,167.001599px) rotate(10.55deg)} 50% {transform: translate(489.999512px,167.001599px) rotate(0deg)} 100% {transform: translate(489.999512px,167.001599px) rotate(0deg)}}
]]></style>
<g clip-path="url(#eZAD9oT5O8R66)"><g><path d="M489.229,326.891l-1.128-.238c.235-1.115.454-2.25.648-3.374l1.135.196c-.198,1.138-.419,2.287-.655,3.416Z" fill="#292a2e"/><path d="M399.278,400.488l-.009-1.152c2.286-.019,4.601-.125,6.88-.316l.096,1.148c-2.308.194-4.652.302-6.967.32Zm-6.974-.207c-2.308-.155-4.642-.403-6.937-.728l.162-1.14c2.268.323,4.573.565,6.855.719l-.08,1.149Zm20.862-.958l-.182-1.137c2.256-.363,4.529-.817,6.753-1.35l.268,1.12c-2.253.54-4.553,1-6.839,1.367Zm-34.663-1.009c-2.268-.497-4.54-1.084-6.754-1.745l.33-1.104c2.189.654,4.431,1.233,6.67,1.723l-.246,1.126Zm48.219-2.237l-.353-1.095c2.174-.697,4.352-1.488,6.475-2.35l.434,1.067c-2.15.871-4.356,1.672-6.556,2.378Zm-61.579-1.755c-2.164-.829-4.323-1.75-6.417-2.74l.492-1.042c2.067.98,4.199,1.887,6.336,2.708l-.411,1.074Zm74.495-3.49l-.513-1.032c2.047-1.017,4.083-2.124,6.048-3.292l.588.99c-1.99,1.183-4.051,2.303-6.124,3.334h.001Zm-87.103-2.467c-2.012-1.144-4.008-2.381-5.933-3.676l.644-.956c1.901,1.279,3.869,2.5,5.856,3.629l-.567,1.003Zm99.092-4.65l-.66-.943c1.875-1.312,3.723-2.707,5.493-4.157l.729.892c-1.794,1.465-3.665,2.881-5.564,4.208h.002ZM340.97,380.574c-1.817-1.434-3.603-2.956-5.31-4.526l.78-.847c1.685,1.549,3.449,3.053,5.242,4.47l-.712.903Zm121.45-5.681l-.793-.835c1.658-1.575,3.277-3.234,4.812-4.93l.854.774c-1.555,1.717-3.194,3.396-4.873,4.991Zm-131.717-3.755c-1.583-1.692-3.121-3.465-4.572-5.268l.897-.723c1.433,1.782,2.953,3.533,4.516,5.204l-.841.787Zm141.076-6.579l-.91-.708c1.403-1.806,2.756-3.686,4.019-5.595l.96.636c-1.279,1.93-2.648,3.836-4.07,5.666l.001.001Zm-149.815-4.284c-1.313-1.907-2.57-3.888-3.737-5.889l.995-.581c1.152,1.976,2.394,3.933,3.691,5.818l-.949.652Zm157.515-7.34l-1.006-.562c1.115-1.996,2.168-4.061,3.129-6.138l1.046.483c-.974,2.102-2.04,4.194-3.169,6.217Zm-164.54-4.701c-1.015-2.083-1.962-4.231-2.817-6.38l1.071-.426c.844,2.124,1.78,4.244,2.782,6.302l-1.036.504Zm170.398-7.949l-1.079-.403c.8-2.138,1.529-4.337,2.168-6.538l1.107.321c-.648,2.224-1.387,4.451-2.196,6.616v.004Z" fill="#292a2e"/><path d="M309.779,335.228c-.346-1.1-.672-2.224-.973-3.341l1.111-.301c.299,1.1.622,2.21.961,3.297l-1.099.345Z" fill="#292a2e"/><path d="M44.9246,234.402c-1.1146-.33-2.231-.698-3.3168-1.092l.3934-1.082c1.064.386,2.1579.748,3.2506,1.069l-.3272,1.105Z" fill="#292a2e"/><path d="M35.196,230.527c-2.0776-1.059-4.0878-2.245-6.0191-3.552l.6458-.954c1.8921,1.28,3.8614,2.442,5.8969,3.479l-.5236,1.027Zm-11.5531-7.82c-1.7539-1.536-3.4118-3.178-4.9642-4.917l.8594-.768c1.5209,1.704,3.1451,3.313,4.8635,4.818l-.7587.867Zm-9.2874-10.406c-1.327-1.916-2.5359-3.912-3.6198-5.975l1.0196-.536c1.0623,2.022,2.2469,3.977,3.5472,5.855l-.947.656ZM7.87162,199.954c-.8237-2.18-1.51278-4.409-2.06337-6.674l1.11982-.272c.53919,2.219,1.21423,4.403,2.02131,6.539l-1.07776.407ZM4.58014,186.405c-.24823-2.149-.37343-4.31-.375-6.474v-.503l1.15207.01v.493c.00082,2.119.12295,4.237.36579,6.342l-1.14286.132Zm1.26728-13.794l-1.1417-.152c.30889-2.31.75865-4.6,1.34677-6.855l1.11463.288c-.57656,2.211-1.01786,4.455-1.32143,6.719h.00173Zm3.4424-13.225l-1.072-.424c.85707-2.168,1.84648-4.281,2.96258-6.328l1.0115.552c-1.0936,2.005-2.0628,4.076-2.90208,6.2Zm6.54548-11.994l-.9355-.673c1.3616-1.892,2.8387-3.699,4.4229-5.409l.8444.783c-1.5516,1.676-2.9983,3.445-4.3318,5.299Zm9.284-10.023l-.7425-.881c1.7826-1.502,3.6552-2.894,5.6072-4.167l.6296.964c-1.9128,1.248-3.7476,2.612-5.4943,4.083v.001Zm11.4453-7.465l-.5069-1.037c2.0939-1.026,4.2485-1.922,6.4516-2.685l.3767,1.088c-2.1587.748-4.2697,1.627-6.3214,2.632v.002Z" fill="#292a2e"/><path d="M49.501,125.429l-.2402-1.127c1.1331-.241,2.2892-.45,3.4361-.622l.1728,1.14c-1.1262.168-2.2587.372-3.3687.609Z" fill="#292a2e"/><g id="eZAD9oT5O8R10_to" transform="translate(65.789554,268.264077)"><g transform="translate(-65.789554,-268.264076)"><path d="M102.797,252.079c.009-6.171-1.526-12.246-4.4647-17.673s-7.1875-10.032-12.3602-13.398c-5.1727-3.365-11.105-5.384-17.2569-5.872-6.1518-.488-12.3281.571-17.9666,3.079s-10.5603,6.386-14.3174,11.282-6.2304,10.653-7.1946,16.749c-.9642,6.095-.3889,12.335,1.6738,18.151c2.0626,5.816,5.547,11.025,10.136,15.151c4.1197,3.646,7.4239,8.121,9.6969,13.131c2.273,5.011,3.4637,10.444,3.4944,15.946v.04l22.9747.027v-.04c.0381-5.496,1.2363-10.922,3.516-15.924c2.2797-5.001,5.5896-9.464,9.7132-13.098c3.8859-3.461,6.9957-7.705,9.1251-12.454c2.1293-4.748,3.2303-9.893,3.2303-15.097Z" fill="#367cff"/><path d="M102.797,252.079c.009-6.171-1.526-12.246-4.4647-17.673s-7.1875-10.032-12.3602-13.398c-5.1727-3.365-11.105-5.384-17.2569-5.872-6.1518-.488-12.3281.571-17.9666,3.079s-10.5603,6.386-14.3174,11.282-6.2304,10.653-7.1946,16.749c-.9642,6.095-.3889,12.335,1.6738,18.151c2.0626,5.816,5.547,11.025,10.136,15.151c4.1197,3.646,7.4239,8.121,9.6969,13.131c2.273,5.011,3.4637,10.444,3.4944,15.946v.04l22.9747.027v-.04c.0381-5.496,1.2363-10.922,3.516-15.924c2.2797-5.001,5.5896-9.464,9.7132-13.098c3.8859-3.461,6.9957-7.705,9.1251-12.454c2.1293-4.748,3.2303-9.893,3.2303-15.097Z" opacity="0.8" fill="#fff"/><path d="M61.1782,308.772l-9.0046-51.47c-.0783-.452.0112-.917.2516-1.307.2405-.391.6154-.68,1.0542-.814.8818-.31,1.8192-.43,2.7508-.353.9315.077,1.8362.351,2.6548.802.2902.177.5638.38.8174.606.8507-.76,1.8602-1.32,2.955-1.64c3.3468-1.034,5.4223.284,6.5732,1.573.2462.277.4709.572.6722.883c1.5709-1.728,3.3727-2.625,5.0237-2.438.4032.013.7996.108,1.1653.278.3656.171.6931.414.9625.714.2806.352.4136.8.371,1.249l-7.3514,51.91-1.1411-.161l7.352-51.911c.0046-.064.0161-.764-1.4879-.934-1.3693-.157-2.9257.717-4.3054,2.368c1.0369,2.255,1.1446,4.944.4505,6.528-.1283.391-.3709.736-.6966.988s-.7194.401-1.1306.428c-.3832.029-.7669-.051-1.1057-.233-.3388-.181-.6185-.456-.8061-.791-.8699-1.605.216-4.533,1.5927-6.575.1087-.162.2193-.319.3318-.471-.214-.381-.4675-.738-.7563-1.065-1.3468-1.508-3.155-1.926-5.3733-1.24-.9304.265-1.7895.735-2.5139,1.376.9875,1.387,1.6329,2.987,1.8837,4.671.4372,2.342-.2702,3.328-.731,3.707-.2312.194-.511.322-.8092.369s-.6038.012-.8838-.101c-1.3249-.526-2.33-2.787-2.2419-5.04.0312-1.295.4602-2.548,1.2287-3.591-.1994-.177-.4143-.336-.6423-.475-.6811-.365-1.4311-.583-2.2017-.64s-1.5445.048-2.2718.309c-.1699.052-.3149.164-.4078.316-.093.151-.1274.332-.0968.507l9.0046,51.47-1.1365.198Zm8.5057-49.558c-1.3387,2.028-1.9827,4.331-1.4677,5.281.0855.153.2159.275.3735.35s.3345.1.5067.071c.3157-.005.5818-.25.7903-.726.5133-1.175.4476-3.184-.2028-4.976Zm-9.9706-1.245c-.5355.821-.8345,1.774-.864,2.754-.0795,2.027.8294,3.652,1.5161,3.926.0886.036.1855.047.2799.031.0945-.015.1828-.056.2552-.119.1659-.137.6809-.729.3307-2.606-.2137-1.423-.7314-2.782-1.5179-3.987v.001Z" fill="#fff"/><path d="M54.2376,308.665l22.9753.026-.0016,1.342c-.0035,3.047-1.2171,5.968-3.3739,8.119-2.1568,2.152-5.08,3.359-8.1267,3.356-1.5085-.002-3.002-.301-4.3951-.88-1.3932-.579-2.6586-1.426-3.7241-2.494-1.0656-1.068-1.9103-2.335-2.486-3.73-.5757-1.394-.8712-2.888-.8694-4.397l.0015-1.342Z" fill="#367cff"/><path d="M54.2376,308.665l22.9753.026-.0016,1.342c-.0035,3.047-1.2171,5.968-3.3739,8.119-2.1568,2.152-5.08,3.359-8.1267,3.356-1.5085-.002-3.002-.301-4.3951-.88-1.3932-.579-2.6586-1.426-3.7241-2.494-1.0656-1.068-1.9103-2.335-2.486-3.73-.5757-1.394-.8712-2.888-.8694-4.397l.0015-1.342Z" opacity="0.5" fill="#fff"/></g></g><path d="M64.4587,34.9265l-1.03-.5156c.5184-1.0368,1.0789-2.0737,1.6607-3.0731l.996.5795c-.5697.9787-1.1175,1.9913-1.6267,3.0092Z" fill="#292a2e"/><path d="M164.754,50.3609c-.347-2.1538-.825-4.2845-1.43-6.3802l1.106-.3203c.619,2.1408,1.107,4.3173,1.462,6.5173l-1.138.1832Zm-3.629-12.5392c-.857-2.006-1.836-3.9579-2.93-5.8451l.996-.576c1.119,1.9276,2.119,3.9218,2.995,5.9712l-1.061.4499Zm-6.553-11.2904c-1.318-1.7369-2.742-3.3913-4.263-4.9539l.826-.8064c1.554,1.5969,3.01,3.2879,4.357,5.0633l-.92.697Zm-84.8578-.0576l-.9171-.697c1.3494-1.7741,2.8064-3.4638,4.3629-5.0593l.8243.8065c-1.5229,1.5613-2.9483,3.2149-4.2678,4.9516l-.0023-.0018ZM145.463,17.184c-1.704-1.3627-3.49-2.6195-5.348-3.7633l.604-.9792c1.898,1.1687,3.723,2.4526,5.464,3.8444l-.72.8981Zm-66.6302-.0484l-.7189-.9003c1.7419-1.3904,3.5675-2.6724,5.4666-3.8388l.6032.9793c-1.8582,1.1431-3.6444,2.3993-5.3486,3.7615l-.0023-.0017ZM134.35,10.3384c-1.982-.91124-4.018-1.70091-6.096-2.36467l.35-1.09736c2.123.67785,4.202,1.48445,6.227,2.41533l-.481,1.0467Zm-44.3927-.0306l-.4781-1.04778c2.0274-.92501,4.1092-1.72584,6.2338-2.39805l.3457,1.09851c-2.0795.65811-4.1171,1.44201-6.1014,2.34732ZM121.918,6.37637c-2.144-.40162-4.311-.67094-6.488-.80645l.071-1.15207c2.224.13776,4.438.41247,6.629.82258l-.212,1.13594Zm-19.515-.00345l-.211-1.13422c2.191-.40744,4.405-.68079,6.629-.81855l.071,1.15208c-2.177.13414-4.344.40096-6.489.79896v.00173Z" fill="#292a2e"/><path d="M166.562,60.3426l-1.153-.0323c.032-1.1325.028-2.2828-.014-3.4188l1.152-.042c.043,1.1607.047,2.3364.015,3.4931Z" fill="#292a2e"/><path d="M47.2669,127.732c26.1047,0,47.2667-21.162,47.2667-47.2663c0-26.1047-21.162-47.2667-47.2667-47.2667s-47.266793,21.162-47.266793,47.2667c0,26.1043,21.162093,47.2663,47.266793,47.2663Z" fill="#367cff"/><path d="M47.2669,127.732c26.1047,0,47.2667-21.162,47.2667-47.2663c0-26.1047-21.162-47.2667-47.2667-47.2667s-47.266793,21.162-47.266793,47.2667c0,26.1043,21.162093,47.2663,47.266793,47.2663Z" opacity="0.8" fill="#fff"/><g id="eZAD9oT5O8R21_to" transform="translate(47.266454,80.465014)"><g id="eZAD9oT5O8R21_tr" transform="rotate(0)"><g transform="translate(-47.266454,-80.465013)"><path d="M57.4586,81.1028c-1.5819,3.4298-4.2021,6.2754-7.4899,8.1343s-7.077,2.637-10.8314,2.2242c-3.7543-.4127-7.2839-1.9955-10.0894-4.5243-2.8054-2.5288-4.7448-5.8757-5.5437-9.5672s-.4169-7.5408,1.0919-11.0034s4.0681-6.363,7.3159-8.2911s7.0195-2.7864,10.7818-2.4532c3.7623.3331,7.3246,1.8407,10.183,4.3096c2.9525,2.5573,4.9954,6.0037,5.8216,9.8214s.3911,7.8004-1.2398,11.3497ZM28.4055,67.7306c-1.4863,3.2183-1.6973,6.8803-.5904,10.2479c1.1069,3.3677,3.4493,6.1904,6.5551,7.8993s6.7439,2.1768,10.181,1.3093s6.4176-3.0056,8.3405-5.9836c1.923-2.978,2.6454-6.5743,2.0218-10.0638-.6237-3.4896-2.5472-6.613-5.3826-8.7405-2.8355-2.1275-6.372-3.101-9.8968-2.7241s-6.7757,2.076-9.0972,4.7549c-.8617.9948-1.5792,2.1059-2.1314,3.3006Z" fill="#fff"/><path d="M71.2512,104.205c-.1384.3-.348.561-.6103.76-.2624.2-.5696.333-.8949.386-.3254.054-.6589.027-.9716-.077-.3126-.105-.5949-.285-.8222-.524L50.8641,86.7613c-.1827-.1922-.3258-.4186-.4209-.6662s-.1407-.5115-.1339-.7766c.0067-.2652.0657-.5264.1734-.7687.1078-.2424.2622-.4612.4545-.6439s.4187-.3257.6663-.4209.5114-.1407.7766-.1339.5263.0658.7687.1735.4611.2622.6438.4545l17.087,17.9889c.2787.293.463.663.5293,1.062.0662.399.0113.808-.1577,1.175Z" fill="#fff"/></g></g></g><path d="M328.695,81.4698l-1.094-.3531c.353-1.0945.726-2.2022,1.112-3.2909l1.086.3848c-.384,1.0783-.754,2.1745-1.104,3.2592Z" fill="#292a2e"/><path d="M551.371,92.4237c-.478-2.2022-1.028-4.4176-1.634-6.5853l1.109-.3105c.612,2.189,1.168,4.4275,1.651,6.651l-1.126.2448Zm-3.652-13.064c-.733-2.1313-1.538-4.2661-2.394-6.3502l1.065-.4378c.864,2.1049,1.678,4.2627,2.419,6.413l-1.09.375ZM332.25,71.8793l-1.062-.4476c.883-2.0956,1.84-4.1929,2.845-6.2344l1.033.5086c-.995,2.0213-1.944,4.0985-2.816,6.1734Zm210.311-5.0691c-.979-2.0311-2.027-4.0588-3.119-6.0271l1.007-.5593c1.104,1.9873,2.163,4.0357,3.151,6.087l-1.039.4994ZM338.24,59.7094l-1.001-.5686c1.124-1.9792,2.321-3.9499,3.559-5.8571l.965.6302c-1.224,1.8853-2.409,3.8364-3.522,5.7955h-.001Zm197.738-4.7587c-1.21-1.9009-2.486-3.7949-3.802-5.6233l.935-.6728c1.329,1.8434,2.62,3.757,3.839,5.6786l-.972.6175ZM345.63,48.3263l-.928-.6838c1.351-1.8329,2.774-3.6492,4.231-5.3986l.885.7373c-1.442,1.7322-2.851,3.53-4.188,5.3451ZM528.053,43.934c-1.419-1.7477-2.911-3.4764-4.435-5.1388l.85-.7782c1.537,1.6791,3.043,3.4256,4.478,5.1901l-.893.7269ZM354.315,37.8943l-.84-.7886c1.555-1.6596,3.184-3.295,4.839-4.8601l.792.8364c-1.638,1.5502-3.25,3.1688-4.791,4.8123Zm164.574-3.9689c-1.618-1.5709-3.303-3.1106-5.011-4.5818l.752-.8727c1.722,1.4844,3.424,3.0414,5.059,4.6278l-.8.8267ZM364.171,28.5613l-.742-.8819c1.74-1.4631,3.548-2.8958,5.374-4.2575l.691.9217c-1.813,1.3502-3.604,2.7684-5.323,4.2177ZM508.61,25.0659c-1.79-1.3675-3.646-2.6993-5.515-3.9585l.643-.9557c1.889,1.2719,3.763,2.6175,5.571,3.9983l-.699.9159ZM375.047,20.4495l-.634-.9619c1.901-1.2506,3.863-2.4614,5.834-3.5991l.576.9977c-1.952,1.1261-3.895,2.3254-5.776,3.5633Zm122.304-2.9677c-1.936-1.144-3.936-2.2465-5.942-3.2765l.527-1.0254c2.026,1.0409,4.045,2.155,6.001,3.31l-.586.9919ZM386.797,13.6661l-.518-1.0299c2.033-1.0202,4.123-1.9937,6.212-2.89347l.456,1.05817c-2.067.8894-4.137,1.8549-6.15,2.8652Zm98.49-2.379c-2.058-.9084-4.174-1.76902-6.285-2.55761l.403-1.0795c2.132.79666,4.269,1.66533,6.348,2.58291l-.466,1.0542Zm-86.03-2.98734l-.393-1.08295c2.139-.7765,4.328-1.4977,6.509-2.14862l.33,1.10426c-2.161.64344-4.329,1.35888-6.446,2.12731Zm73.324-1.7621c-2.158-.66647-4.359-1.2765-6.54-1.81336l.275-1.11924c2.203.54262,4.425,1.15898,6.605,1.83179l-.34,1.10081ZM412.256,4.42764l-.264-1.12155c2.217-.51843,4.476-.97926,6.713-1.37039l.197,1.13537c-2.216.38191-4.451.84274-6.646,1.35657Zm47.147-1.13307c-2.218-.41014-4.475-.75922-6.707-1.03687l.143-1.14285c2.254.28053,4.533.63364,6.773,1.04723l-.209,1.13249ZM425.616,2.10736l-.13-1.144587c2.26-.256337,4.556-.448157,6.825-.570277l.062,1.152074c-2.246.11924-4.52.30933-6.757.56279Zm20.323-.48963c-2.246-.14574-4.527-.22639-6.781-.23848l.005-1.152077c2.278.012097,4.583.093318,6.851.240783l-.075,1.149774Z" fill="#292a2e"/><path d="M553.099,102.534c-.142-1.133-.303-2.279-.479-3.4053l1.139-.1768c.177,1.1371.34,2.2941.483,3.4391l-1.143.143Z" fill="#292a2e"/><path d="M573.351,141.624c-.835-.775-1.698-1.542-2.565-2.281l.749-.877c.88.749,1.755,1.528,2.602,2.314l-.786.844Z" fill="#292a2e"/><path d="M521.074,281.148l-.03-1.153c2.241-.057,4.507-.214,6.734-.46l.128,1.145c-2.26.25-4.558.408-6.832.468Zm-6.847-.107c-2.273-.131-4.565-.361-6.813-.683l.163-1.14c2.216.317,4.477.544,6.717.673l-.067,1.15Zm20.449-1.401l-.223-1.13c2.202-.434,4.41-.967,6.563-1.583l.318,1.108c-2.188.625-4.427,1.167-6.66,1.605h.002Zm13.156-3.766l-.409-1.077c2.098-.797,4.185-1.694,6.204-2.664l.499,1.036c-2.052.987-4.168,1.896-6.296,2.705h.002Zm12.336-5.933l-.586-.993c1.932-1.14,3.838-2.378,5.663-3.677l.669.939c-1.855,1.32-3.788,2.575-5.749,3.733l.003-.002Zm11.153-7.938l-.745-.879c1.708-1.448,3.377-2.99,4.962-4.583l.817.813c-1.61,1.618-3.304,3.185-5.036,4.652l.002-.003Zm9.655-9.701l-.881-.742c1.447-1.719,2.835-3.513,4.127-5.341l.941.665c-1.313,1.855-2.722,3.677-4.189,5.421l.002-.003Zm7.902-11.167l-.992-.584c1.135-1.931,2.202-3.935,3.168-5.957l1.037.497c-.98,2.054-2.063,4.088-3.215,6.046l.002-.002Zm5.909-12.34l-1.078-.407c.792-2.097,1.504-4.254,2.115-6.41l1.109.315c-.622,2.189-1.345,4.375-2.148,6.506l.002-.004Zm3.733-13.164l-1.132-.219c.427-2.198.764-4.444,1.004-6.675l1.146.123c-.246,2.265-.588,4.543-1.021,6.774l.003-.003Zm1.462-13.605l-1.152-.025c.013-.61.02-1.219.02-1.828c0-1.636-.05-3.291-.151-4.922l1.152-.07c.102,1.654.154,3.333.154,4.992-.003.619-.011,1.237-.026,1.856l.003-.003Zm-1.978-13.489c-.325-2.22-.749-4.452-1.257-6.633l1.121-.262c.519,2.213.946,4.476,1.276,6.728l-1.14.167ZM594.932,175.4c-.692-2.131-1.484-4.262-2.354-6.326l1.063-.448c.881,2.096,1.685,4.256,2.387,6.419l-1.096.355Zm-5.234-12.432c-1.043-1.985-2.184-3.95-3.39-5.838l.971-.621c1.224,1.916,2.381,3.909,3.439,5.924l-1.02.535ZM582.433,151.6c-1.362-1.777-2.818-3.52-4.33-5.18l.852-.776c1.534,1.685,3.012,3.453,4.393,5.256l-.915.7Z" fill="#292a2e"/><path d="M500.662,279.099c-1.125-.26-2.26-.548-3.374-.856l.307-1.11c1.098.303,2.218.587,3.326.843l-.259,1.123Z" fill="#292a2e"/><path d="M559.016,150.056c22.317,0,40.408-18.092,40.408-40.408c0-22.3169-18.091-40.4081-40.408-40.4081s-40.408,18.0912-40.408,40.4081c0,22.316,18.091,40.408,40.408,40.408Z" fill="#fff"/><path d="M559.016,150.056c22.317,0,40.408-18.092,40.408-40.408c0-22.3169-18.091-40.4081-40.408-40.4081s-40.408,18.0912-40.408,40.4081c0,22.316,18.091,40.408,40.408,40.408Z" opacity="0.2" fill="#367cff"/><g id="eZAD9oT5O8R32_ts" transform="translate(559.016022,109.647652) scale(1,1)"><path d="M559.016,140.548c17.066,0,30.9-13.835,30.9-30.9c0-17.0661-13.834-30.9007-30.9-30.9007s-30.9,13.8346-30.9,30.9007c0,17.065,13.834,30.9,30.9,30.9Z" transform="translate(-559.016022,-109.647652)" fill="#fff"/></g><path d="M559.016,131.04c11.815,0,21.392-9.577,21.392-21.392c0-11.8147-9.577-21.3924-21.392-21.3924s-21.392,9.5777-21.392,21.3924c0,11.815,9.577,21.392,21.392,21.392Z" opacity="0.2" fill="#367cff"/><g id="eZAD9oT5O8R34_ts" transform="translate(559.015991,109.647949) scale(1,1)"><path d="M559.016,121.533c6.564,0,11.885-5.321,11.885-11.885s-5.321-11.8851-11.885-11.8851-11.885,5.3211-11.885,11.8851s5.321,11.885,11.885,11.885Z" transform="translate(-559.015991,-109.647949)" fill="#fff"/></g><path d="M559.016,113.405c2.075,0,3.757-1.682,3.757-3.757s-1.682-3.757-3.757-3.757-3.757,1.682-3.757,3.757s1.682,3.757,3.757,3.757Z" opacity="0.2" fill="#367cff"/><g id="eZAD9oT5O8R36_tr" transform="translate(521.023514,312.295495) rotate(0)"><g transform="translate(-521.023514,-312.295494)"><path d="M576.14,299.733h-8.542c-.679.001-1.342-.209-1.896-.602-.554-.392-.973-.946-1.198-1.587-.654-1.877-1.427-3.711-2.315-5.49-.307-.615-.412-1.311-.3-1.99.111-.678.434-1.304.922-1.789l6.071-6.071c.617-.617.964-1.454.964-2.327s-.347-1.71-.964-2.327l-13.116-13.111c-.618-.617-1.455-.963-2.327-.963-.873,0-1.71.346-2.328.963l-6.179,6.18c-.481.483-1.102.804-1.774.918-.672.113-1.363.014-1.976-.284-1.745-.852-3.542-1.593-5.38-2.218-.648-.221-1.21-.639-1.608-1.196s-.611-1.224-.61-1.909v-8.755c0-.432-.085-.86-.25-1.259s-.408-.762-.713-1.067c-.305-.306-.668-.548-1.067-.713-.399-.166-.827-.251-1.259-.251h-18.543c-.432,0-.86.085-1.259.25-.399.166-.762.408-1.068.713-.305.306-.547.668-.713,1.068-.165.399-.25.827-.25,1.259v8.755c.002.685-.212,1.352-.609,1.909-.398.557-.96.975-1.608,1.196-1.839.625-3.636,1.366-5.381,2.218-.613.298-1.304.397-1.976.284-.673-.114-1.293-.435-1.774-.918l-6.181-6.18c-.617-.617-1.454-.964-2.327-.964s-1.71.347-2.327.964l-13.116,13.11c-.617.617-.964,1.454-.964,2.327s.347,1.71.964,2.327l6.071,6.072c.488.484.811,1.11.922,1.789.112.678.007,1.374-.299,1.99-.889,1.777-1.661,3.611-2.31,5.489-.227.641-.647,1.195-1.202,1.587s-1.218.603-1.898.602h-8.542c-.432,0-.86.085-1.259.251-.399.165-.762.407-1.067.713-.306.305-.548.668-.713,1.067s-.25.827-.25,1.258v18.549c0,.432.085.86.25,1.259s.407.761.713,1.067c.305.305.668.548,1.067.713s.827.25,1.259.25h8.318c.692-.001,1.366.217,1.927.623.56.405.979.978,1.195,1.635.642,1.928,1.41,3.812,2.299,5.64.301.615.403,1.309.292,1.986-.112.676-.432,1.301-.915,1.787l-5.858,5.858c-.305.305-.548.667-.713,1.066-.166.399-.251.826-.251,1.258s.085.86.251,1.258c.165.399.408.762.713,1.066l13.116,13.117c.617.617,1.454.963,2.327.963s1.71-.346,2.327-.963l5.744-5.743c.489-.488,1.12-.81,1.802-.919.683-.11,1.382-.002,2,.308c1.858.928,3.776,1.729,5.743,2.397.652.22,1.219.639,1.621,1.198s.618,1.229.62,1.918v8.099c-.001.432.084.861.249,1.261.165.399.407.763.712,1.069.306.306.669.548,1.068.714.4.166.828.251,1.261.251h18.542c.433,0,.861-.086,1.26-.251.399-.166.762-.409,1.068-.715.305-.306.547-.669.712-1.069.165-.399.25-.828.249-1.26v-8.099c.001-.689.218-1.359.62-1.918s.968-.978,1.621-1.198c1.966-.668,3.885-1.469,5.743-2.397.617-.31,1.317-.418,1.999-.308.682.109,1.313.431,1.803.919l5.743,5.743c.617.617,1.454.963,2.327.963s1.71-.346,2.327-.963l13.116-13.117c.306-.304.549-.667.714-1.066.165-.398.251-.826.251-1.258s-.086-.859-.251-1.258-.408-.761-.714-1.066l-5.858-5.858c-.483-.486-.803-1.111-.914-1.787-.112-.677-.01-1.371.292-1.986.889-1.828,1.656-3.712,2.298-5.64.216-.657.635-1.23,1.195-1.635.561-.406,1.235-.624,1.927-.623h8.318c.432,0,.86-.085,1.259-.25.4-.165.762-.407,1.068-.713.305-.305.547-.668.713-1.067.165-.399.25-.827.25-1.259v-18.549c0-.432-.085-.859-.251-1.259-.165-.399-.407-.761-.713-1.067-.305-.305-.668-.547-1.068-.713-.399-.165-.827-.25-1.259-.249Zm-55.115,39.971c-5.422.001-10.722-1.607-15.23-4.618-4.508-3.012-8.022-7.293-10.097-12.302-2.075-5.008-2.618-10.52-1.56-15.837c1.058-5.318,3.668-10.202,7.502-14.036c3.833-3.834,8.718-6.444,14.035-7.502c5.318-1.057,10.829-.514,15.838,1.561s9.29,5.588,12.302,10.097c3.011,4.508,4.618,9.808,4.618,15.229-.001,7.269-2.889,14.239-8.028,19.379-5.14,5.14-12.11,8.028-19.379,8.029h-.001Z" fill="#367cff"/><path d="M576.14,299.733h-8.542c-.679.001-1.342-.209-1.896-.602-.554-.392-.973-.946-1.198-1.587-.654-1.877-1.427-3.711-2.315-5.49-.307-.615-.412-1.311-.3-1.99.111-.678.434-1.304.922-1.789l6.071-6.071c.617-.617.964-1.454.964-2.327s-.347-1.71-.964-2.327l-13.116-13.111c-.618-.617-1.455-.963-2.327-.963-.873,0-1.71.346-2.328.963l-6.179,6.18c-.481.483-1.102.804-1.774.918-.672.113-1.363.014-1.976-.284-1.745-.852-3.542-1.593-5.38-2.218-.648-.221-1.21-.639-1.608-1.196s-.611-1.224-.61-1.909v-8.755c0-.432-.085-.86-.25-1.259s-.408-.762-.713-1.067c-.305-.306-.668-.548-1.067-.713-.399-.166-.827-.251-1.259-.251h-18.543c-.432,0-.86.085-1.259.25-.399.166-.762.408-1.068.713-.305.306-.547.668-.713,1.068-.165.399-.25.827-.25,1.259v8.755c.002.685-.212,1.352-.609,1.909-.398.557-.96.975-1.608,1.196-1.839.625-3.636,1.366-5.381,2.218-.613.298-1.304.397-1.976.284-.673-.114-1.293-.435-1.774-.918l-6.181-6.18c-.617-.617-1.454-.964-2.327-.964s-1.71.347-2.327.964l-13.116,13.11c-.617.617-.964,1.454-.964,2.327s.347,1.71.964,2.327l6.071,6.072c.488.484.811,1.11.922,1.789.112.678.007,1.374-.299,1.99-.889,1.777-1.661,3.611-2.31,5.489-.227.641-.647,1.195-1.202,1.587s-1.218.603-1.898.602h-8.542c-.432,0-.86.085-1.259.251-.399.165-.762.407-1.067.713-.306.305-.548.668-.713,1.067s-.25.827-.25,1.258v18.549c0,.432.085.86.25,1.259s.407.761.713,1.067c.305.305.668.548,1.067.713s.827.25,1.259.25h8.318c.692-.001,1.366.217,1.927.623.56.405.979.978,1.195,1.635.642,1.928,1.41,3.812,2.299,5.64.301.615.403,1.309.292,1.986-.112.676-.432,1.301-.915,1.787l-5.858,5.858c-.305.305-.548.667-.713,1.066-.166.399-.251.826-.251,1.258s.085.86.251,1.258c.165.399.408.762.713,1.066l13.116,13.117c.617.617,1.454.963,2.327.963s1.71-.346,2.327-.963l5.744-5.743c.489-.488,1.12-.81,1.802-.919.683-.11,1.382-.002,2,.308c1.858.928,3.776,1.729,5.743,2.397.652.22,1.219.639,1.621,1.198s.618,1.229.62,1.918v8.099c-.001.432.084.861.249,1.261.165.399.407.763.712,1.069.306.306.669.548,1.068.714.4.166.828.251,1.261.251h18.542c.433,0,.861-.086,1.26-.251.399-.166.762-.409,1.068-.715.305-.306.547-.669.712-1.069.165-.399.25-.828.249-1.26v-8.099c.001-.689.218-1.359.62-1.918s.968-.978,1.621-1.198c1.966-.668,3.885-1.469,5.743-2.397.617-.31,1.317-.418,1.999-.308.682.109,1.313.431,1.803.919l5.743,5.743c.617.617,1.454.963,2.327.963s1.71-.346,2.327-.963l13.116-13.117c.306-.304.549-.667.714-1.066.165-.398.251-.826.251-1.258s-.086-.859-.251-1.258-.408-.761-.714-1.066l-5.858-5.858c-.483-.486-.803-1.111-.914-1.787-.112-.677-.01-1.371.292-1.986.889-1.828,1.656-3.712,2.298-5.64.216-.657.635-1.23,1.195-1.635.561-.406,1.235-.624,1.927-.623h8.318c.432,0,.86-.085,1.259-.25.4-.165.762-.407,1.068-.713.305-.305.547-.668.713-1.067.165-.399.25-.827.25-1.259v-18.549c0-.432-.085-.859-.251-1.259-.165-.399-.407-.761-.713-1.067-.305-.305-.668-.547-1.068-.713-.399-.165-.827-.25-1.259-.249Zm-55.115,39.971c-5.422.001-10.722-1.607-15.23-4.618-4.508-3.012-8.022-7.293-10.097-12.302-2.075-5.008-2.618-10.52-1.56-15.837c1.058-5.318,3.668-10.202,7.502-14.036c3.833-3.834,8.718-6.444,14.035-7.502c5.318-1.057,10.829-.514,15.838,1.561s9.29,5.588,12.302,10.097c3.011,4.508,4.618,9.808,4.618,15.229-.001,7.269-2.889,14.239-8.028,19.379-5.14,5.14-12.11,8.028-19.379,8.029h-.001Z" opacity="0.8" fill="#fff"/></g></g><path d="M495.515,33.7751h-388.645c-9.5445,0-17.2815,7.7371-17.2815,17.2812v284.5477c0,9.544,7.737,17.281,17.2815,17.281h388.645c9.544,0,17.281-7.737,17.281-17.281v-284.5477c0-9.5441-7.737-17.2812-17.281-17.2812Z" fill="#fff"/><path d="M495.516,353.461h-388.646c-4.734-.005-9.2731-1.888-12.6208-5.236-3.3476-3.348-5.2308-7.886-5.2363-12.621v-284.5479c.0055-4.7343,1.8887-9.2731,5.2363-12.6208c3.3477-3.3477,7.8868-5.2308,12.6208-5.2363h388.646c4.735.0055,9.273,1.8886,12.621,5.2363s5.231,7.8865,5.236,12.6208v284.5479c-.005,4.735-1.888,9.273-5.236,12.621s-7.886,5.231-12.621,5.236ZM106.87,34.351c-4.429.0049-8.675,1.7665-11.8068,4.8982-3.1317,3.1318-4.8933,7.378-4.8982,11.8069v284.5479c.005,4.429,1.7667,8.675,4.8984,11.807s7.3776,4.893,11.8066,4.898h388.646c4.429-.005,8.675-1.767,11.807-4.898c3.131-3.132,4.893-7.378,4.898-11.807v-284.5479c-.005-4.4289-1.766-8.675-4.898-11.8067s-7.378-4.8933-11.807-4.8984h-388.646Z" fill="#292a2e"/><path d="M484.412,266.186h-367.614c-5.099,0-9.232,4.133-9.232,9.233v50.877c0,5.1,4.133,9.233,9.232,9.233h367.614c5.099,0,9.233-4.133,9.233-9.233v-50.877c0-5.1-4.134-9.233-9.233-9.233Z" fill="#367cff"/><path d="M484.412,176.885h-367.614c-5.099,0-9.232,4.134-9.232,9.233v50.878c0,5.099,4.133,9.233,9.232,9.233h367.614c5.099,0,9.233-4.134,9.233-9.233v-50.878c0-5.099-4.134-9.233-9.233-9.233Z" fill="#367cff"/><g opacity="0.9"><path d="M484.412,266.186h-367.614c-5.099,0-9.232,4.133-9.232,9.233v50.877c0,5.1,4.133,9.233,9.232,9.233h367.614c5.099,0,9.233-4.133,9.233-9.233v-50.877c0-5.1-4.134-9.233-9.233-9.233Z" fill="#fff"/></g><g opacity="0.9"><path d="M484.412,176.885h-367.614c-5.099,0-9.232,4.134-9.232,9.233v50.878c0,5.099,4.133,9.233,9.232,9.233h367.614c5.099,0,9.233-4.134,9.233-9.233v-50.878c0-5.099-4.134-9.233-9.233-9.233Z" fill="#fff"/></g><path d="M484.412,87.5837h-367.614c-5.099,0-9.232,4.1337-9.232,9.2328v50.8775c0,5.099,4.133,9.233,9.232,9.233h367.614c5.099,0,9.233-4.134,9.233-9.233v-50.8775c0-5.0991-4.134-9.2328-9.233-9.2328Z" fill="#367cff"/><path d="M484.412,87.5837h-367.614c-5.099,0-9.232,4.1337-9.232,9.2328v50.8775c0,5.099,4.133,9.233,9.232,9.233h367.614c5.099,0,9.233-4.134,9.233-9.233v-50.8775c0-5.0991-4.134-9.2328-9.233-9.2328Z" opacity="0.2" fill="#fff"/><path d="M484.412,157.503h-367.614c-2.601-.003-5.094-1.037-6.933-2.877-1.839-1.839-2.873-4.332-2.875-6.933v-50.8758c.003-2.6006,1.037-5.0939,2.876-6.9329c1.838-1.8389,4.332-2.8734,6.932-2.8765h367.614c2.601.0029,5.094,1.0373,6.933,2.8763s2.873,4.3323,2.876,6.9331v50.8758c-.002,2.601-1.037,5.094-2.876,6.934-1.839,1.839-4.332,2.873-6.933,2.876ZM116.798,88.1599c-2.295.0027-4.495.9158-6.118,2.5387-1.623,1.623-2.536,3.8234-2.538,6.1186v50.8758c.002,2.295.915,4.495,2.538,6.118s3.823,2.536,6.118,2.539h367.614c2.295-.003,4.496-.915,6.119-2.538s2.536-3.824,2.538-6.119v-50.8758c-.002-2.2953-.915-4.4958-2.538-6.1188s-3.824-2.5359-6.119-2.5385h-367.614Z" fill="#292a2e"/><path d="M226.261,99.6322h-99.625c-2.572,0-4.658,2.0858-4.658,4.6588c0,2.572,2.086,4.658,4.658,4.658h99.625c2.573,0,4.659-2.086,4.659-4.658c0-2.573-2.086-4.6588-4.659-4.6588Z" fill="#fff"/><path d="M309.361,145.511h-187.385c-.152,0-.299-.06-.407-.168s-.169-.255-.169-.408c0-.152.061-.299.169-.407s.255-.169.407-.169h187.385c.153,0,.3.061.408.169s.168.255.168.407c0,.153-.06.3-.168.408s-.255.168-.408.168Z" fill="#fff"/><path d="M477.564,133.269h-355.588c-.152,0-.299-.06-.407-.168s-.169-.255-.169-.408c0-.152.061-.299.169-.407s.255-.169.407-.169h355.588c.153,0,.3.061.408.169s.168.255.168.407c0,.153-.06.3-.168.408s-.255.168-.408.168Z" fill="#fff"/><path d="M477.564,121.027h-355.588c-.152,0-.299-.061-.407-.169s-.169-.254-.169-.407.061-.299.169-.408c.108-.108.255-.168.407-.168h355.588c.153,0,.3.06.408.168.108.109.168.255.168.408s-.06.299-.168.407-.255.169-.408.169Z" fill="#fff"/><path d="M484.412,246.805h-367.614c-2.6-.003-5.094-1.038-6.932-2.877-1.839-1.839-2.873-4.332-2.876-6.933v-50.877c.003-2.601,1.037-5.094,2.876-6.933s4.332-2.873,6.932-2.876h367.614c2.601.003,5.094,1.037,6.933,2.876s2.873,4.332,2.876,6.933v50.877c-.003,2.601-1.037,5.094-2.876,6.933s-4.332,2.874-6.933,2.877ZM116.798,177.461c-2.295.003-4.495.916-6.118,2.539s-2.535,3.823-2.538,6.118v50.877c.003,2.295.915,4.496,2.538,6.119s3.823,2.536,6.118,2.539h367.614c2.295-.003,4.496-.916,6.119-2.539s2.536-3.823,2.538-6.119v-50.877c-.002-2.295-.915-4.496-2.538-6.119-1.623-1.622-3.824-2.535-6.119-2.538h-367.614Z" fill="#292a2e"/><path d="M484.412,336.105h-367.614c-2.6-.003-5.093-1.037-6.932-2.876s-2.873-4.332-2.876-6.932v-50.878c.002-2.601,1.036-5.095,2.875-6.934c1.839-1.84,4.332-2.874,6.933-2.877h367.614c2.601.003,5.094,1.037,6.933,2.876s2.873,4.332,2.876,6.932v50.878c-.002,2.601-1.036,5.095-2.875,6.935-1.839,1.839-4.333,2.874-6.934,2.876ZM116.798,266.76c-2.295.002-4.495.915-6.118,2.538s-2.535,3.823-2.538,6.118v50.878c.003,2.295.915,4.496,2.538,6.119c1.623,1.622,3.823,2.535,6.118,2.538h367.614c2.295-.003,4.496-.915,6.119-2.538s2.536-3.823,2.538-6.119v-50.875c-.002-2.296-.915-4.497-2.538-6.12-1.623-1.624-3.823-2.537-6.119-2.539h-367.614Z" fill="#292a2e"/><path d="M512.796,51.0538v17.3894h-423.2051v-17.3894c0-4.5832,1.8207-8.9787,5.0616-12.2196c3.2408-3.2408,7.6365-5.0615,12.2195-5.0615h388.643c4.584,0,8.979,1.8207,12.22,5.0615s5.061,7.6364,5.061,12.2196Z" fill="#292a2e"/><g id="eZAD9oT5O8R57_tr" transform="translate(489.999512,167.001599) rotate(0)"><g transform="translate(-489.999512,-167.001598)"><path d="M481.191,209.752l-5.016-8.029-8.114,4.878l14.897-62.066l13.13,3.151-14.897,62.066Z" fill="#367cff"/><path d="M481.191,210.328c-.097,0-.193-.025-.279-.072-.085-.047-.157-.116-.209-.199l-4.717-7.546-7.629,4.586c-.097.059-.209.087-.323.082-.113-.005-.223-.044-.314-.111-.092-.067-.161-.159-.201-.266-.039-.107-.045-.222-.019-.333l14.898-62.066c.035-.148.128-.276.257-.355.13-.08.286-.105.434-.071l13.133,3.152c.074.018.143.05.205.094.061.045.113.101.152.166.04.064.066.136.078.21.012.075.009.152-.009.225l-14.897,62.063c-.026.11-.085.21-.168.287s-.187.128-.299.147c-.031.005-.062.007-.093.007Zm-5.017-9.181c.098,0,.194.025.28.072.085.048.157.116.209.199l4.289,6.864l14.44-60.17-12.01-2.88-14.441,60.167l6.937-4.169c.089-.054.192-.082.296-.081v-.002Z" fill="#292a2e"/><path d="M498.808,209.752l5.016-8.029l8.114,4.878-14.897-62.066-13.13,3.151l14.897,62.066Z" fill="#367cff"/><path d="M498.808,210.328c-.031,0-.062-.002-.093-.007-.112-.018-.216-.069-.299-.147-.083-.077-.142-.177-.168-.287l-14.895-62.066c-.017-.073-.02-.15-.009-.224.012-.075.039-.147.078-.211.04-.065.092-.121.153-.165.061-.045.13-.077.204-.094l13.134-3.152c.148-.036.305-.011.435.069s.223.208.259.356l14.894,62.067c.026.11.019.225-.02.332-.039.106-.108.199-.2.266-.091.067-.201.106-.314.111s-.226-.023-.323-.082l-7.629-4.585-4.716,7.546c-.052.083-.124.152-.21.2s-.183.073-.281.073Zm-14.203-62.216l14.442,60.17l4.288-6.864c.081-.128.208-.22.355-.255s.302-.011.431.067l6.937,4.169-14.442-60.17-12.011,2.883Z" fill="#292a2e"/><path d="M523.65,156.456c0,3.422-4.296,6.124-5.299,9.213-1.037,3.201.811,7.905-1.128,10.569-1.958,2.69-7.016,2.374-9.708,4.332-2.664,1.938-3.917,6.858-7.115,7.898-3.089,1.002-6.979-2.21-10.401-2.21-3.423,0-7.316,3.212-10.402,2.21-3.2-1.037-4.452-5.96-7.116-7.898-2.69-1.959-7.75-1.642-9.708-4.333-1.939-2.664-.087-7.368-1.126-10.568-1.003-3.089-5.3-5.791-5.3-9.213s4.296-6.124,5.3-9.213c1.036-3.201-.813-7.904,1.126-10.569c1.959-2.69,7.018-2.374,9.708-4.332c2.664-1.939,3.917-6.859,7.117-7.898c3.088-1.002,6.978,2.21,10.401,2.21c3.422,0,7.312-3.212,10.401-2.21c3.201,1.04,4.452,5.96,7.116,7.899c2.691,1.958,7.749,1.641,9.708,4.331c1.939,2.665.087,7.368,1.127,10.569c1.005,3.089,5.299,5.79,5.299,9.213Z" fill="#0cbc8b"/><path d="M499.114,189.237c-1.52,0-3.116-.618-4.673-1.221-1.501-.581-3.053-1.181-4.442-1.181-1.388,0-2.94.6-4.441,1.181-2.067.8-4.205,1.627-6.137,1-2.026-.658-3.291-2.633-4.514-4.543-.88-1.373-1.711-2.671-2.765-3.437-1.072-.781-2.65-1.196-4.171-1.596-2.177-.577-4.429-1.167-5.664-2.863-1.22-1.677-1.094-3.989-.969-6.226.087-1.583.177-3.221-.239-4.504-.393-1.21-1.357-2.382-2.377-3.625-1.451-1.765-2.951-3.591-2.951-5.766c0-2.174,1.498-4,2.951-5.767c1.02-1.241,1.984-2.415,2.377-3.623.417-1.284.326-2.922.239-4.506-.123-2.236-.251-4.55.97-6.224c1.234-1.697,3.486-2.29,5.663-2.863c1.523-.403,3.099-.816,4.171-1.597c1.053-.766,1.885-2.064,2.765-3.437c1.224-1.91,2.488-3.885,4.514-4.543c1.935-.626,4.071.2,6.138,1c1.5.581,3.053,1.182,4.441,1.182s2.938-.601,4.441-1.182c2.068-.8,4.205-1.627,6.138-1c2.026.659,3.291,2.633,4.514,4.543.879,1.374,1.71,2.671,2.765,3.438c1.072.78,2.65,1.195,4.17,1.596c2.178.576,4.43,1.166,5.665,2.863c1.22,1.677,1.094,3.988.969,6.224-.087,1.585-.177,3.222.24,4.506.392,1.209,1.356,2.382,2.376,3.624c1.451,1.766,2.95,3.592,2.95,5.766c0,2.175-1.497,4.001-2.95,5.766-1.02,1.243-1.984,2.416-2.376,3.625-.417,1.283-.327,2.921-.24,4.505.123,2.236.251,4.548-.969,6.225-1.235,1.696-3.487,2.289-5.665,2.863-1.523.403-3.098.815-4.171,1.596-1.053.766-1.883,2.064-2.765,3.437-1.223,1.91-2.488,3.885-4.514,4.543-.473.15-.967.225-1.464.221Zm-9.115-3.554c1.604,0,3.258.64,4.858,1.259c1.965.761,3.822,1.48,5.365.979c1.634-.53,2.735-2.246,3.9-4.068.898-1.403,1.827-2.854,3.053-3.745c1.248-.908,2.929-1.351,4.555-1.779c2.074-.546,4.033-1.062,5.026-2.426.98-1.345.869-3.355.749-5.484-.092-1.689-.189-3.436.294-4.924.461-1.416,1.539-2.729,2.582-4c1.322-1.609,2.689-3.273,2.689-5.035s-1.367-3.426-2.689-5.035c-1.043-1.267-2.122-2.584-2.582-4-.483-1.487-.386-3.234-.293-4.924.115-2.128.23-4.138-.749-5.483-.993-1.365-2.952-1.881-5.026-2.427-1.626-.428-3.308-.871-4.555-1.779-1.229-.894-2.157-2.344-3.053-3.748-1.166-1.819-2.266-3.537-3.9-4.068-1.544-.501-3.399.218-5.366.98-1.599.618-3.254,1.259-4.857,1.259s-3.257-.641-4.857-1.26c-1.966-.761-3.823-1.48-5.366-.979-1.634.53-2.734,2.249-3.899,4.068-.899,1.403-1.827,2.854-3.053,3.748-1.248.908-2.93,1.351-4.556,1.779-2.074.546-4.032,1.062-5.025,2.426-.98,1.345-.868,3.356-.749,5.484.093,1.69.189,3.436-.294,4.924-.461,1.416-1.539,2.73-2.582,4-1.325,1.609-2.689,3.273-2.689,5.035c0,1.763,1.367,3.426,2.688,5.035c1.044,1.268,2.123,2.584,2.583,4c.483,1.488.387,3.235.293,4.924-.115,2.128-.23,4.139.749,5.484.994,1.364,2.952,1.88,5.026,2.426c1.626.428,3.308.871,4.555,1.779c1.229.894,2.158,2.345,3.053,3.745c1.166,1.819,2.266,3.538,3.9,4.068c1.542.501,3.398-.217,5.365-.979c1.6-.619,3.254-1.259,4.857-1.259Z" fill="#292a2e"/><path d="M489.999,171.381c8.243,0,14.925-6.682,14.925-14.925s-6.682-14.925-14.925-14.925c-8.242,0-14.924,6.682-14.924,14.925s6.682,14.925,14.924,14.925Z" fill="#fff"/><path d="M489.999,171.957c-3.065,0-6.062-.909-8.611-2.613-2.549-1.703-4.536-4.124-5.709-6.956-1.174-2.832-1.481-5.949-.882-8.956.598-3.007,2.074-5.769,4.242-7.936c2.168-2.168,4.929-3.644,7.936-4.243c3.007-.598,6.124-.291,8.956.882c2.832,1.174,5.253,3.16,6.957,5.709c1.703,2.55,2.612,5.546,2.612,8.612-.005,4.11-1.639,8.05-4.545,10.956s-6.846,4.54-10.956,4.545Zm0-29.849c-2.838,0-5.612.841-7.971,2.418-2.36,1.576-4.199,3.817-5.285,6.439s-1.37,5.507-.816,8.29c.553,2.784,1.92,5.34,3.926,7.347c2.007,2.007,4.564,3.373,7.347,3.927s5.668.269,8.29-.817s4.863-2.925,6.44-5.284c1.576-2.36,2.418-5.134,2.418-7.972-.004-3.804-1.517-7.452-4.207-10.143-2.69-2.69-6.337-4.203-10.142-4.208v.003Z" fill="#292a2e"/></g></g></g><clipPath id="eZAD9oT5O8R66"><rect width="600" height="400.261" rx="0" ry="0" transform="translate(.000061 0.227173)" fill="#fff"/></clipPath></g></svg>
