<svg width="68" height="67" viewBox="0 0 68 67" fill="none" xmlns="http://www.w3.org/2000/svg">
<g clip-path="url(#clip0_145_423)">
<path fill-rule="evenodd" clip-rule="evenodd" d="M64.9967 7.74464L51.2941 1.14704C50.6025 0.814007 49.852 0.687471 49.1222 0.753899C48.163 0.831337 47.237 1.24175 46.5242 1.95449C46.6621 1.81659 46.8088 1.69986 46.9616 1.6032C46.8244 1.70947 46.6928 1.82521 46.5677 1.95026L20.3402 25.8637L8.91599 17.197C7.85253 16.3902 6.36501 16.4564 5.37727 17.3543L1.71317 20.6853C0.505007 21.7836 0.50362 23.6832 1.71017 24.7833L11.6176 33.8166L1.71017 42.8499C0.50362 43.95 0.505007 45.8496 1.71317 46.9479L5.37727 50.2788C6.36501 51.1769 7.85253 51.2428 8.91599 50.4362L20.3402 41.7696L46.5677 65.6829C46.7102 65.8254 46.8612 65.9558 47.0194 66.0739C46.8457 65.9707 46.6794 65.8424 46.5242 65.6872C47.4399 66.6029 48.7077 67.0195 49.9455 66.8721C50.4051 66.8222 50.8612 66.6946 51.2941 66.4862L64.9967 59.8886C66.4354 59.1957 67.3501 57.7402 67.3501 56.1436V55.9843C67.3501 56.2003 67.3266 56.4074 67.2826 56.6043C67.2985 56.4569 67.3066 56.3078 67.3066 56.1575V11.4844C67.3066 11.3282 67.2978 11.1734 67.2807 11.0205C67.3259 11.2198 67.3501 11.4297 67.3501 11.6487V11.4896C67.3501 9.89289 66.4354 8.43732 64.9967 7.74464ZM50.6807 18.7525L30.8236 33.8166L50.6807 48.8806V18.7525Z" fill="#384359"/>
</g>
<defs>
<clipPath id="clip0_145_423">
<rect width="66.7634" height="66.2418" fill="white" transform="translate(0.806152 0.736328)"/>
</clipPath>
</defs>
</svg>
