<svg width="23" height="23" viewBox="0 0 23 23" fill="none" xmlns="http://www.w3.org/2000/svg">
<path fill-rule="evenodd" clip-rule="evenodd" d="M19.1458 3.07357C20.1795 4.04321 20.9936 5.16836 21.5608 6.42157C22.1462 7.72967 22.4481 9.11095 22.4389 10.5471C22.4389 11.9741 22.1371 13.3646 21.5516 14.6635C20.9845 15.9167 20.1703 17.0419 19.1367 18.0115C18.103 18.9811 16.9047 19.7312 15.5691 20.2618C14.1879 20.8107 12.7242 21.0851 11.2149 21.0851C9.59578 21.0851 8.04984 20.7741 6.59539 20.152L1.72888 22.32L2.64363 17.3346C0.93304 15.4319 0 13.0352 0 10.538C0 9.11095 0.301887 7.72053 0.887329 6.42157C1.45448 5.16836 2.2686 4.04321 3.30227 3.07357C4.33594 2.10393 5.53427 1.35384 6.86981 0.823279C8.25109 0.274426 9.71471 0 11.224 0C12.7334 0 14.197 0.274426 15.5783 0.823279C16.9138 1.35384 18.1122 2.11308 19.1458 3.07357ZM14.7093 12.1658C14.9563 12.2573 15.3039 12.4036 15.7796 12.6415C15.9079 12.7073 16.0428 12.7627 16.1787 12.8185C16.4014 12.91 16.6271 13.0026 16.8315 13.1446C16.9962 13.3641 17.0419 13.5471 16.9322 14.0319C14.7733 19.6119 4.1622 11.5163 5.92768 7.2627C6.2204 6.59493 6.93387 5.31427 8.17794 5.9546C8.37243 6.05185 8.45387 6.25813 8.53492 6.46343C8.57585 6.56712 8.61669 6.67056 8.67194 6.75958C8.79234 7.01183 8.9235 7.30001 9.03618 7.54756C9.10329 7.695 9.16383 7.82803 9.21164 7.93047C9.22666 7.98494 9.25673 8.04519 9.29011 8.11209C9.41933 8.37105 9.59829 8.72971 9.14759 9.23857C9.10864 9.31321 9.02134 9.40743 8.92613 9.51019C8.75296 9.69707 8.5536 9.91222 8.57131 10.0893C8.71767 10.3546 9.39459 11.3425 9.76049 11.6901C10.5838 12.4859 11.6357 13.2635 12.77 13.483C13.0377 13.3813 13.296 13.0195 13.5449 12.6709C13.7212 12.4239 13.8929 12.1834 14.0598 12.0469C14.1693 11.9608 14.4526 12.0687 14.6296 12.1361C14.6597 12.1475 14.6867 12.1578 14.7093 12.1658Z" fill="white"/>
</svg>
