<svg width="68" height="68" viewBox="0 0 68 68" fill="none" xmlns="http://www.w3.org/2000/svg">
<g clip-path="url(#clip0_145_412)">
<path d="M5.68647 34.2206C5.68647 45.5118 12.2483 55.2696 21.7634 59.8936L8.15617 22.6114C6.57339 26.1591 5.68647 30.0851 5.68647 34.2206ZM53.4695 32.7812C53.4695 29.2557 52.2032 26.8143 51.117 24.9139C49.671 22.5642 48.3157 20.5743 48.3157 18.2246C48.3157 15.6024 50.3045 13.1614 53.1058 13.1614C53.2323 13.1614 53.3522 13.1772 53.4755 13.1842C48.4004 8.53467 41.6388 5.69587 34.2123 5.69587C24.2467 5.69587 15.479 10.809 10.3784 18.5535C11.0476 18.5736 11.6783 18.5877 12.2141 18.5877C15.1978 18.5877 19.8164 18.2257 19.8164 18.2257C21.3541 18.135 21.5354 20.3936 19.9993 20.5754C19.9993 20.5754 18.454 20.7572 16.7344 20.8473L27.1224 51.7458L33.365 33.0232L28.9207 20.8463C27.3846 20.7562 25.9293 20.5743 25.9293 20.5743C24.3922 20.4842 24.5724 18.1339 26.1095 18.2246C26.1095 18.2246 30.8204 18.5866 33.6234 18.5866C36.6066 18.5866 41.2257 18.2246 41.2257 18.2246C42.7646 18.1339 42.9453 20.3925 41.4087 20.5743C41.4087 20.5743 39.8601 20.7562 38.1438 20.8463L48.4525 51.5107L51.2978 42.0026C52.531 38.0571 53.4695 35.2232 53.4695 32.7812ZM34.7128 36.7159L26.1541 61.586C28.7095 62.3372 31.4121 62.7481 34.2123 62.7481C37.5342 62.7481 40.7199 62.1739 43.6851 61.1312C43.6086 61.009 43.5391 60.8793 43.4821 60.7382L34.7128 36.7159ZM59.2426 20.5347C59.3653 21.4433 59.4348 22.4187 59.4348 23.4679C59.4348 26.3627 58.8942 29.6167 57.2658 33.6855L48.5523 58.878C57.0329 53.9327 62.7371 44.7448 62.7371 34.2212C62.7377 29.2617 61.4708 24.598 59.2426 20.5347ZM34.2123 0.969238C15.8774 0.969238 0.959839 15.8857 0.959839 34.2206C0.959839 52.5578 15.8774 67.4737 34.2123 67.4737C52.5467 67.4737 67.4665 52.5578 67.4665 34.2206C67.4659 15.8857 52.5467 0.969238 34.2123 0.969238ZM34.2123 65.9495C16.7182 65.9495 2.48454 51.7159 2.48454 34.2206C2.48454 16.7265 16.7176 2.49394 34.2123 2.49394C51.706 2.49394 65.9385 16.7265 65.9385 34.2206C65.9385 51.7159 51.706 65.9495 34.2123 65.9495Z" fill="#384359"/>
</g>
<defs>
<clipPath id="clip0_145_412">
<rect width="66.7634" height="66.7634" fill="white" transform="translate(0.959839 0.969238)"/>
</clipPath>
</defs>
</svg>
